%TF.GenerationSoftware,KiCad,Pcbnew,7.0.6*%
%TF.CreationDate,2023-09-06T22:26:16-07:00*%
%TF.ProjectId,GCP-2,4743502d-322e-46b6-9963-61645f706362,rev?*%
%TF.SameCoordinates,Original*%
%TF.FileFunction,Copper,L3,Inr*%
%TF.FilePolarity,Positive*%
%FSLAX46Y46*%
G04 Gerber Fmt 4.6, Leading zero omitted, Abs format (unit mm)*
G04 Created by KiCad (PCBNEW 7.0.6) date 2023-09-06 22:26:16*
%MOMM*%
%LPD*%
G01*
G04 APERTURE LIST*
%TA.AperFunction,ComponentPad*%
%ADD10O,2.100000X1.050000*%
%TD*%
%TA.AperFunction,ComponentPad*%
%ADD11O,2.000000X1.000000*%
%TD*%
%TA.AperFunction,ViaPad*%
%ADD12C,0.700000*%
%TD*%
%TA.AperFunction,ViaPad*%
%ADD13C,0.550000*%
%TD*%
%TA.AperFunction,Conductor*%
%ADD14C,0.350000*%
%TD*%
%TA.AperFunction,Conductor*%
%ADD15C,0.250000*%
%TD*%
%TA.AperFunction,Conductor*%
%ADD16C,0.150000*%
%TD*%
G04 APERTURE END LIST*
D10*
%TO.N,GND*%
%TO.C,J1*%
X216526187Y-151150946D03*
D11*
X220706187Y-151150946D03*
X220706187Y-142510946D03*
D10*
X216526187Y-142510946D03*
%TD*%
D12*
%TO.N,Net-(R3-Pad1)*%
X193695697Y-148486606D03*
%TO.N,XTAL_IN*%
X197791866Y-148103220D03*
%TO.N,GND*%
X198120000Y-146812000D03*
X219202000Y-149098000D03*
D13*
X187991475Y-148882200D03*
D12*
X196470764Y-146751305D03*
X183388000Y-150114000D03*
X211362718Y-150273906D03*
X191535313Y-150630225D03*
X210142867Y-146436503D03*
X191318560Y-146451787D03*
X190941352Y-149422630D03*
X208367922Y-147388245D03*
X201168000Y-151638000D03*
D13*
X187452000Y-150368000D03*
D12*
X200660000Y-146812000D03*
X208343905Y-144055246D03*
X180848000Y-146812000D03*
D13*
%TO.N,SIO2*%
X184945050Y-144264227D03*
X200287822Y-144315048D03*
%TO.N,SIO0*%
X183329531Y-148385788D03*
X201793827Y-142067869D03*
%TO.N,SCLK*%
X202795711Y-142202738D03*
X186724196Y-147123466D03*
%TO.N,SIO3*%
X184003876Y-148872280D03*
X202901679Y-143053696D03*
%TO.N,+3V3*%
X208330800Y-148488400D03*
D12*
X186628942Y-143070236D03*
X192692295Y-150555796D03*
D13*
X210907729Y-144450543D03*
X197054805Y-142594651D03*
D12*
X188781411Y-147791696D03*
X207971441Y-149534869D03*
D13*
X196022567Y-150551036D03*
D12*
X206506816Y-142972765D03*
X183219200Y-143737841D03*
X212741216Y-150591034D03*
X202438000Y-151130000D03*
D13*
X186105886Y-147678029D03*
%TO.N,+1V1*%
X202478822Y-146399334D03*
X198606155Y-148933565D03*
D12*
%TO.N,VCC*%
X191207561Y-143118722D03*
D13*
X205155019Y-147669371D03*
D12*
X206750636Y-150677559D03*
X213016317Y-143314091D03*
X185805006Y-149691413D03*
D13*
%TO.N,GC1*%
X200416269Y-148928126D03*
X192630956Y-149331111D03*
%TO.N,GC2*%
X201883120Y-147841162D03*
X207649979Y-143694420D03*
%TO.N,GC3*%
X205659402Y-149412042D03*
%TO.N,GC4*%
X204864639Y-149318115D03*
X193898381Y-150382450D03*
D12*
%TO.N,Net-(L1-DOUT)*%
X192703161Y-143198199D03*
X206145560Y-144379256D03*
%TO.N,Net-(L2-DOUT)*%
X211354130Y-143394984D03*
X211161337Y-149226128D03*
%TO.N,Net-(L3-DOUT)*%
X190342037Y-148465301D03*
X206649396Y-149208502D03*
D13*
%TO.N,USB_BOOT*%
X186933331Y-144414179D03*
X201097172Y-142170832D03*
X182372000Y-146050000D03*
%TO.N,SIO1*%
X199664856Y-143891174D03*
X186418974Y-145611676D03*
%TO.N,BTN_1*%
X192147468Y-147494690D03*
X182501911Y-144714473D03*
%TO.N,BTN_2*%
X192936575Y-148144951D03*
X182434617Y-149397925D03*
D12*
%TO.N,+5V*%
X218128772Y-146002723D03*
X218128772Y-147623172D03*
%TD*%
D14*
%TO.N,GND*%
X200904032Y-147056032D02*
X200660000Y-146812000D01*
X196470764Y-146751305D02*
X196660802Y-146941343D01*
D15*
X189995982Y-150368000D02*
X187452000Y-150368000D01*
X190941352Y-149422630D02*
X189995982Y-150368000D01*
D14*
X208367922Y-147388245D02*
X208035709Y-147056032D01*
X200530657Y-146941343D02*
X200660000Y-146812000D01*
X196660802Y-146941343D02*
X200530657Y-146941343D01*
X196171246Y-146451787D02*
X191318560Y-146451787D01*
X196470764Y-146751305D02*
X196171246Y-146451787D01*
X208035709Y-147056032D02*
X200904032Y-147056032D01*
%TO.N,+3V3*%
X186105886Y-147578484D02*
X183219200Y-144691798D01*
X186105886Y-147678029D02*
X186219553Y-147791696D01*
X199739427Y-142594651D02*
X201611854Y-144467078D01*
X186105886Y-147678029D02*
X186105886Y-147578484D01*
D15*
X192692295Y-150555796D02*
X193532928Y-149715163D01*
X193532928Y-149715163D02*
X195186694Y-149715163D01*
D14*
X197054805Y-142594651D02*
X199739427Y-142594651D01*
X183219200Y-144691798D02*
X183219200Y-143737841D01*
X201611854Y-144467078D02*
X205012503Y-144467078D01*
X205012503Y-144467078D02*
X206506816Y-142972765D01*
X186219553Y-147791696D02*
X188781411Y-147791696D01*
D15*
X195186694Y-149715163D02*
X196022567Y-150551036D01*
D16*
%TO.N,Net-(L1-DOUT)*%
X193465161Y-143960199D02*
X195407477Y-143960199D01*
X196481278Y-145034000D02*
X198628000Y-145034000D01*
X195407477Y-143960199D02*
X196481278Y-145034000D01*
X204728816Y-145796000D02*
X206145560Y-144379256D01*
X192703161Y-143198199D02*
X193465161Y-143960199D01*
X198628000Y-145034000D02*
X199390000Y-145796000D01*
X199390000Y-145796000D02*
X204728816Y-145796000D01*
%TO.N,Net-(L3-DOUT)*%
X202119883Y-148765618D02*
X201393983Y-149491518D01*
X197993857Y-149173780D02*
X193485382Y-149173780D01*
X193024965Y-148713363D02*
X190590099Y-148713363D01*
X206206512Y-148765618D02*
X202119883Y-148765618D01*
X198311595Y-149491518D02*
X197993857Y-149173780D01*
X190590099Y-148713363D02*
X190342037Y-148465301D01*
X206649396Y-149208502D02*
X206206512Y-148765618D01*
X201393983Y-149491518D02*
X198311595Y-149491518D01*
X193485382Y-149173780D02*
X193024965Y-148713363D01*
%TD*%
%TA.AperFunction,Conductor*%
%TO.N,VCC*%
G36*
X179644176Y-140783403D02*
G01*
X179669486Y-140827240D01*
X179670610Y-140840090D01*
X179670610Y-140865255D01*
X179707234Y-141061178D01*
X179743095Y-141153744D01*
X179779237Y-141247036D01*
X179884165Y-141416500D01*
X179937937Y-141475485D01*
X180010599Y-141555192D01*
X180018446Y-141563799D01*
X180157154Y-141668547D01*
X180177502Y-141683913D01*
X180177504Y-141683915D01*
X180177505Y-141683915D01*
X180177506Y-141683916D01*
X180355930Y-141772761D01*
X180547641Y-141827307D01*
X180547652Y-141827308D01*
X180746107Y-141845698D01*
X180746110Y-141845698D01*
X180746113Y-141845698D01*
X180887584Y-141832588D01*
X180944579Y-141827307D01*
X181136290Y-141772761D01*
X181314714Y-141683916D01*
X181473774Y-141563799D01*
X181608055Y-141416500D01*
X181712983Y-141247036D01*
X181784986Y-141061176D01*
X181821610Y-140865250D01*
X181821610Y-140840090D01*
X181838923Y-140792524D01*
X181882760Y-140767214D01*
X181895610Y-140766090D01*
X183248721Y-140766090D01*
X183296287Y-140783403D01*
X183321597Y-140827240D01*
X183322721Y-140840090D01*
X183322721Y-142447923D01*
X183318066Y-142460712D01*
X183321796Y-142484286D01*
X183322705Y-142495851D01*
X183322705Y-142539443D01*
X183331355Y-142571724D01*
X183330450Y-142582060D01*
X183334667Y-142590335D01*
X183340211Y-142604776D01*
X183346591Y-142628584D01*
X183346592Y-142628587D01*
X183370967Y-142670805D01*
X183372923Y-142681900D01*
X183376561Y-142685538D01*
X183388320Y-142700861D01*
X183392738Y-142708513D01*
X183457984Y-142773757D01*
X183457999Y-142773772D01*
X183465655Y-142778192D01*
X183480982Y-142789951D01*
X183484464Y-142793433D01*
X183495708Y-142795541D01*
X183537928Y-142819915D01*
X183561749Y-142826296D01*
X183576186Y-142831838D01*
X183584350Y-142835997D01*
X183594482Y-142835066D01*
X183594612Y-142835100D01*
X183627075Y-142843797D01*
X183670555Y-142843795D01*
X183682130Y-142844706D01*
X183704664Y-142848274D01*
X183715803Y-142843830D01*
X183718066Y-142843795D01*
X185723997Y-142843795D01*
X185736681Y-142848411D01*
X185760053Y-142844711D01*
X185771625Y-142843800D01*
X185815145Y-142843799D01*
X185840963Y-142836881D01*
X185847419Y-142835151D01*
X185857752Y-142836054D01*
X185866024Y-142831840D01*
X185880461Y-142826297D01*
X185904289Y-142819913D01*
X185946506Y-142795538D01*
X185957597Y-142793582D01*
X185961234Y-142789946D01*
X185976556Y-142778188D01*
X185984213Y-142773768D01*
X186049471Y-142708509D01*
X186053891Y-142700854D01*
X186065651Y-142685526D01*
X186069132Y-142682044D01*
X186071241Y-142670800D01*
X186095615Y-142628584D01*
X186101999Y-142604755D01*
X186107541Y-142590319D01*
X186111699Y-142582158D01*
X186110768Y-142572031D01*
X186110798Y-142571914D01*
X186116104Y-142552116D01*
X186116980Y-142548846D01*
X186146015Y-142507382D01*
X186188458Y-142494000D01*
X186347808Y-142494000D01*
X186395374Y-142511313D01*
X186420684Y-142555150D01*
X186411894Y-142605000D01*
X186387815Y-142630253D01*
X186297817Y-142688091D01*
X186297810Y-142688096D01*
X186203565Y-142796862D01*
X186143776Y-142927781D01*
X186123295Y-143070235D01*
X186143776Y-143212690D01*
X186143776Y-143212691D01*
X186143777Y-143212693D01*
X186173551Y-143277888D01*
X186203565Y-143343609D01*
X186297810Y-143452375D01*
X186297811Y-143452376D01*
X186297814Y-143452379D01*
X186418889Y-143530189D01*
X186503743Y-143555104D01*
X186556977Y-143570735D01*
X186556979Y-143570736D01*
X186556981Y-143570736D01*
X186700905Y-143570736D01*
X186700906Y-143570735D01*
X186838995Y-143530189D01*
X186960070Y-143452379D01*
X187054319Y-143343609D01*
X187114107Y-143212693D01*
X187134589Y-143070236D01*
X187114107Y-142927779D01*
X187054319Y-142796863D01*
X187015654Y-142752241D01*
X186960073Y-142688096D01*
X186960071Y-142688095D01*
X186960070Y-142688093D01*
X186870069Y-142630253D01*
X186839413Y-142589972D01*
X186841822Y-142539410D01*
X186876167Y-142502226D01*
X186910076Y-142494000D01*
X193049547Y-142494000D01*
X193097113Y-142511313D01*
X193121025Y-142548846D01*
X193126472Y-142569174D01*
X193127154Y-142571717D01*
X193126249Y-142582052D01*
X193130466Y-142590328D01*
X193136009Y-142604769D01*
X193142388Y-142628577D01*
X193142392Y-142628586D01*
X193166762Y-142670797D01*
X193168718Y-142681890D01*
X193172355Y-142685527D01*
X193184112Y-142700849D01*
X193186606Y-142705168D01*
X193188534Y-142708507D01*
X193253792Y-142773766D01*
X193261442Y-142778183D01*
X193276767Y-142789942D01*
X193280249Y-142793424D01*
X193291494Y-142795533D01*
X193327041Y-142816056D01*
X193333713Y-142819908D01*
X193357534Y-142826291D01*
X193371970Y-142831833D01*
X193380134Y-142835992D01*
X193390261Y-142835062D01*
X193390578Y-142835146D01*
X193422855Y-142843795D01*
X193466334Y-142843795D01*
X193477911Y-142844706D01*
X193500435Y-142848273D01*
X193511572Y-142843830D01*
X193513836Y-142843795D01*
X195520446Y-142843795D01*
X195532934Y-142848340D01*
X195555863Y-142844707D01*
X195567446Y-142843795D01*
X195572199Y-142843795D01*
X195572351Y-142843779D01*
X195610923Y-142843781D01*
X195643199Y-142835134D01*
X195653533Y-142836038D01*
X195661806Y-142831824D01*
X195676251Y-142826280D01*
X195678036Y-142825801D01*
X195700066Y-142819900D01*
X195742283Y-142795527D01*
X195753373Y-142793572D01*
X195757008Y-142789938D01*
X195772334Y-142778178D01*
X195779991Y-142773759D01*
X195845249Y-142708504D01*
X195849670Y-142700845D01*
X195861428Y-142685524D01*
X195864909Y-142682042D01*
X195867019Y-142670797D01*
X195891394Y-142628581D01*
X195897776Y-142604762D01*
X195903319Y-142590322D01*
X195907477Y-142582160D01*
X195906547Y-142572029D01*
X195906630Y-142571718D01*
X195913673Y-142545431D01*
X195915279Y-142539439D01*
X195915279Y-142495956D01*
X195916190Y-142484380D01*
X195919757Y-142461852D01*
X195915313Y-142450709D01*
X195915279Y-142448456D01*
X195915279Y-141615090D01*
X195932592Y-141567524D01*
X195976429Y-141542214D01*
X195989279Y-141541090D01*
X201582213Y-141541090D01*
X201629779Y-141558403D01*
X201655089Y-141602240D01*
X201646299Y-141652090D01*
X201615808Y-141681024D01*
X201540607Y-141719340D01*
X201445617Y-141814330D01*
X201399740Y-141835722D01*
X201356055Y-141824016D01*
X201355581Y-141824948D01*
X201351200Y-141822715D01*
X201350846Y-141822621D01*
X201350426Y-141822321D01*
X201230298Y-141761113D01*
X201230298Y-141761112D01*
X201097172Y-141740028D01*
X200964045Y-141761112D01*
X200964045Y-141761113D01*
X200843952Y-141822303D01*
X200748643Y-141917612D01*
X200687453Y-142037705D01*
X200687452Y-142037705D01*
X200666368Y-142170832D01*
X200687452Y-142303958D01*
X200748643Y-142424051D01*
X200748644Y-142424052D01*
X200843952Y-142519360D01*
X200964045Y-142580550D01*
X200964045Y-142580551D01*
X200984250Y-142583751D01*
X201097172Y-142601636D01*
X201230298Y-142580551D01*
X201350392Y-142519360D01*
X201445382Y-142424369D01*
X201491257Y-142402978D01*
X201534943Y-142414683D01*
X201535418Y-142413753D01*
X201539796Y-142415984D01*
X201540151Y-142416079D01*
X201540570Y-142416378D01*
X201540606Y-142416396D01*
X201540607Y-142416397D01*
X201660700Y-142477587D01*
X201660700Y-142477588D01*
X201678902Y-142480470D01*
X201793827Y-142498673D01*
X201926953Y-142477588D01*
X202047047Y-142416397D01*
X202142355Y-142321089D01*
X202202658Y-142202737D01*
X202364907Y-142202737D01*
X202385991Y-142335864D01*
X202444508Y-142450709D01*
X202447183Y-142455958D01*
X202542491Y-142551266D01*
X202623895Y-142592743D01*
X202658415Y-142629762D01*
X202661065Y-142680311D01*
X202642624Y-142711002D01*
X202553150Y-142800476D01*
X202491960Y-142920569D01*
X202491959Y-142920569D01*
X202470875Y-143053696D01*
X202491959Y-143186822D01*
X202553150Y-143306915D01*
X202553151Y-143306916D01*
X202648459Y-143402224D01*
X202768552Y-143463414D01*
X202768552Y-143463415D01*
X202775201Y-143464468D01*
X202901679Y-143484500D01*
X203034805Y-143463415D01*
X203154899Y-143402224D01*
X203250207Y-143306916D01*
X203311398Y-143186822D01*
X203332483Y-143053696D01*
X203311398Y-142920570D01*
X203311398Y-142920569D01*
X203250207Y-142800476D01*
X203154898Y-142705167D01*
X203073496Y-142663691D01*
X203038974Y-142626671D01*
X203036324Y-142576121D01*
X203054763Y-142545433D01*
X203144239Y-142455958D01*
X203205430Y-142335864D01*
X203225632Y-142208311D01*
X203227598Y-142204764D01*
X203225632Y-142197163D01*
X203205430Y-142069611D01*
X203144239Y-141949518D01*
X203048930Y-141854209D01*
X202928837Y-141793019D01*
X202928837Y-141793018D01*
X202795711Y-141771934D01*
X202662584Y-141793018D01*
X202662584Y-141793019D01*
X202542491Y-141854209D01*
X202447182Y-141949518D01*
X202385992Y-142069611D01*
X202385991Y-142069611D01*
X202364907Y-142202737D01*
X202202658Y-142202737D01*
X202203546Y-142200995D01*
X202224631Y-142067869D01*
X202203546Y-141934743D01*
X202203546Y-141934742D01*
X202142355Y-141814649D01*
X202047046Y-141719340D01*
X201971846Y-141681024D01*
X201937324Y-141644004D01*
X201934675Y-141593454D01*
X201965138Y-141553028D01*
X202005441Y-141541090D01*
X203298721Y-141541090D01*
X203346287Y-141558403D01*
X203371597Y-141602240D01*
X203372721Y-141615090D01*
X203372721Y-142185587D01*
X203367633Y-142199564D01*
X203371361Y-142205768D01*
X203372721Y-142219888D01*
X203372721Y-142447923D01*
X203368066Y-142460712D01*
X203371796Y-142484286D01*
X203372705Y-142495851D01*
X203372705Y-142539443D01*
X203381355Y-142571724D01*
X203380450Y-142582060D01*
X203384667Y-142590335D01*
X203390211Y-142604776D01*
X203396591Y-142628584D01*
X203396592Y-142628587D01*
X203420967Y-142670805D01*
X203422923Y-142681900D01*
X203426561Y-142685538D01*
X203438320Y-142700861D01*
X203442738Y-142708513D01*
X203507984Y-142773757D01*
X203507999Y-142773772D01*
X203515655Y-142778192D01*
X203530982Y-142789951D01*
X203534464Y-142793433D01*
X203545708Y-142795541D01*
X203587928Y-142819915D01*
X203611749Y-142826296D01*
X203626186Y-142831838D01*
X203634350Y-142835997D01*
X203644482Y-142835066D01*
X203644612Y-142835100D01*
X203677075Y-142843797D01*
X203720555Y-142843795D01*
X203732130Y-142844706D01*
X203754664Y-142848274D01*
X203765803Y-142843830D01*
X203768066Y-142843795D01*
X205773997Y-142843795D01*
X205786681Y-142848411D01*
X205810053Y-142844711D01*
X205821625Y-142843800D01*
X205865145Y-142843799D01*
X205890963Y-142836881D01*
X205897419Y-142835151D01*
X205917200Y-142836881D01*
X205952852Y-142832503D01*
X205995305Y-142860072D01*
X206010106Y-142908479D01*
X206009454Y-142915137D01*
X206001169Y-142972765D01*
X206001169Y-142972769D01*
X206001594Y-142975726D01*
X206001169Y-142977756D01*
X206001169Y-142978058D01*
X206001106Y-142978058D01*
X205991225Y-143025272D01*
X205980673Y-143038580D01*
X204899351Y-144119904D01*
X204853475Y-144141296D01*
X204847025Y-144141578D01*
X201777332Y-144141578D01*
X201729766Y-144124265D01*
X201725006Y-144119904D01*
X199980784Y-142375682D01*
X199978603Y-142373302D01*
X199975790Y-142369950D01*
X199951882Y-142341457D01*
X199934515Y-142331429D01*
X199915885Y-142320673D01*
X199913163Y-142318939D01*
X199879112Y-142295097D01*
X199879109Y-142295096D01*
X199874474Y-142293854D01*
X199856627Y-142286462D01*
X199852471Y-142284062D01*
X199811541Y-142276844D01*
X199808391Y-142276146D01*
X199768233Y-142265386D01*
X199768232Y-142265386D01*
X199735245Y-142268273D01*
X199726821Y-142269010D01*
X199723601Y-142269151D01*
X197361705Y-142269151D01*
X197314139Y-142251838D01*
X197309379Y-142247477D01*
X197308024Y-142246122D01*
X197187931Y-142184932D01*
X197187931Y-142184931D01*
X197054805Y-142163847D01*
X196921678Y-142184931D01*
X196921678Y-142184932D01*
X196801585Y-142246122D01*
X196706276Y-142341431D01*
X196645086Y-142461524D01*
X196645085Y-142461524D01*
X196624001Y-142594651D01*
X196645085Y-142727777D01*
X196706276Y-142847870D01*
X196706277Y-142847871D01*
X196801585Y-142943179D01*
X196921678Y-143004369D01*
X196921678Y-143004370D01*
X196939880Y-143007252D01*
X197054805Y-143025455D01*
X197187931Y-143004370D01*
X197308025Y-142943179D01*
X197309379Y-142941825D01*
X197310802Y-142941161D01*
X197312741Y-142939753D01*
X197313014Y-142940129D01*
X197355255Y-142920433D01*
X197361705Y-142920151D01*
X199573949Y-142920151D01*
X199621515Y-142937464D01*
X199626275Y-142941825D01*
X200460508Y-143776058D01*
X200481900Y-143821934D01*
X200468799Y-143870829D01*
X200427335Y-143899863D01*
X200396606Y-143901473D01*
X200287822Y-143884244D01*
X200172380Y-143902528D01*
X200122691Y-143892869D01*
X200090836Y-143853531D01*
X200087716Y-143841021D01*
X200074575Y-143758048D01*
X200013384Y-143637954D01*
X199918076Y-143542646D01*
X199918075Y-143542646D01*
X199918075Y-143542645D01*
X199797982Y-143481455D01*
X199797982Y-143481454D01*
X199664856Y-143460370D01*
X199531729Y-143481454D01*
X199531729Y-143481455D01*
X199411636Y-143542645D01*
X199316327Y-143637954D01*
X199255137Y-143758047D01*
X199255136Y-143758047D01*
X199234052Y-143891174D01*
X199255136Y-144024300D01*
X199314749Y-144141296D01*
X199316328Y-144144394D01*
X199411636Y-144239702D01*
X199531729Y-144300892D01*
X199531729Y-144300893D01*
X199552813Y-144304232D01*
X199664856Y-144321978D01*
X199780299Y-144303693D01*
X199829985Y-144313351D01*
X199861841Y-144352689D01*
X199864962Y-144365206D01*
X199878102Y-144448173D01*
X199878103Y-144448174D01*
X199933537Y-144556971D01*
X199939294Y-144568268D01*
X200034602Y-144663576D01*
X200154695Y-144724766D01*
X200154695Y-144724767D01*
X200175780Y-144728106D01*
X200287822Y-144745852D01*
X200420948Y-144724767D01*
X200541042Y-144663576D01*
X200636350Y-144568268D01*
X200697541Y-144448174D01*
X200718626Y-144315048D01*
X200701396Y-144206262D01*
X200711055Y-144156574D01*
X200750393Y-144124719D01*
X200801004Y-144125602D01*
X200826811Y-144142361D01*
X201370501Y-144686051D01*
X201372673Y-144688421D01*
X201399399Y-144720272D01*
X201435400Y-144741057D01*
X201438124Y-144742793D01*
X201472168Y-144766631D01*
X201472170Y-144766632D01*
X201476803Y-144767873D01*
X201494649Y-144775264D01*
X201498809Y-144777666D01*
X201498812Y-144777666D01*
X201498813Y-144777667D01*
X201498812Y-144777667D01*
X201539742Y-144784884D01*
X201542892Y-144785582D01*
X201583047Y-144796342D01*
X201583047Y-144796341D01*
X201583048Y-144796342D01*
X201590894Y-144795655D01*
X201624464Y-144792718D01*
X201627683Y-144792578D01*
X204996677Y-144792578D01*
X204999897Y-144792718D01*
X205026049Y-144795006D01*
X205041308Y-144796342D01*
X205041308Y-144796341D01*
X205041310Y-144796342D01*
X205081470Y-144785580D01*
X205084603Y-144784885D01*
X205125548Y-144777666D01*
X205129697Y-144775269D01*
X205147558Y-144767872D01*
X205147562Y-144767871D01*
X205152187Y-144766632D01*
X205186235Y-144742790D01*
X205188953Y-144741058D01*
X205224958Y-144720272D01*
X205251690Y-144688412D01*
X205253855Y-144686051D01*
X205525416Y-144414489D01*
X205571291Y-144393098D01*
X205620186Y-144406199D01*
X205649220Y-144447663D01*
X205650988Y-144456285D01*
X205658115Y-144505858D01*
X205647747Y-144555404D01*
X205637194Y-144568715D01*
X204657085Y-145548826D01*
X204611209Y-145570218D01*
X204604759Y-145570500D01*
X199514057Y-145570500D01*
X199466491Y-145553187D01*
X199461731Y-145548826D01*
X198792321Y-144879416D01*
X198790988Y-144878011D01*
X198763508Y-144847492D01*
X198763504Y-144847489D01*
X198741252Y-144837582D01*
X198731047Y-144832041D01*
X198710619Y-144818774D01*
X198710616Y-144818773D01*
X198704505Y-144817805D01*
X198702213Y-144817442D01*
X198683700Y-144811958D01*
X198675932Y-144808500D01*
X198675931Y-144808500D01*
X198651573Y-144808500D01*
X198639998Y-144807589D01*
X198636474Y-144807031D01*
X198615935Y-144803777D01*
X198615934Y-144803777D01*
X198607720Y-144805979D01*
X198588568Y-144808500D01*
X196605335Y-144808500D01*
X196557769Y-144791187D01*
X196553009Y-144786826D01*
X195571798Y-143805615D01*
X195570465Y-143804210D01*
X195542985Y-143773691D01*
X195542981Y-143773688D01*
X195520729Y-143763781D01*
X195510524Y-143758240D01*
X195490096Y-143744973D01*
X195490093Y-143744972D01*
X195483982Y-143744004D01*
X195481690Y-143743641D01*
X195463177Y-143738157D01*
X195455409Y-143734699D01*
X195455408Y-143734699D01*
X195431050Y-143734699D01*
X195419475Y-143733788D01*
X195415951Y-143733230D01*
X195395412Y-143729976D01*
X195395411Y-143729976D01*
X195387197Y-143732178D01*
X195368045Y-143734699D01*
X193589218Y-143734699D01*
X193541652Y-143717386D01*
X193536892Y-143713025D01*
X193211525Y-143387658D01*
X193190133Y-143341782D01*
X193190603Y-143324814D01*
X193208808Y-143198199D01*
X193188326Y-143055742D01*
X193128538Y-142924826D01*
X193074335Y-142862272D01*
X193034292Y-142816059D01*
X193034290Y-142816058D01*
X193034289Y-142816056D01*
X192968494Y-142773772D01*
X192913215Y-142738246D01*
X192913211Y-142738245D01*
X192775125Y-142697699D01*
X192775122Y-142697699D01*
X192631200Y-142697699D01*
X192631197Y-142697699D01*
X192493110Y-142738245D01*
X192493106Y-142738246D01*
X192372036Y-142816054D01*
X192372029Y-142816059D01*
X192277784Y-142924825D01*
X192217995Y-143055744D01*
X192201333Y-143171634D01*
X192197514Y-143198199D01*
X192199598Y-143212693D01*
X192217995Y-143340653D01*
X192217995Y-143340654D01*
X192217996Y-143340656D01*
X192269017Y-143452375D01*
X192277784Y-143471572D01*
X192372029Y-143580338D01*
X192372030Y-143580339D01*
X192372033Y-143580342D01*
X192493108Y-143658152D01*
X192599510Y-143689394D01*
X192631196Y-143698698D01*
X192631198Y-143698699D01*
X192631200Y-143698699D01*
X192775120Y-143698699D01*
X192775122Y-143698699D01*
X192817742Y-143686184D01*
X192868258Y-143689394D01*
X192890916Y-143704860D01*
X193300847Y-144114791D01*
X193302180Y-144116196D01*
X193329653Y-144146708D01*
X193351907Y-144156616D01*
X193362108Y-144162154D01*
X193382544Y-144175425D01*
X193390941Y-144176754D01*
X193409462Y-144182240D01*
X193417229Y-144185699D01*
X193441589Y-144185699D01*
X193453163Y-144186609D01*
X193463330Y-144188220D01*
X193477226Y-144190421D01*
X193477227Y-144190421D01*
X193485442Y-144188220D01*
X193504594Y-144185699D01*
X195283419Y-144185699D01*
X195330985Y-144203012D01*
X195335745Y-144207373D01*
X196316956Y-145188583D01*
X196318289Y-145189988D01*
X196345769Y-145220507D01*
X196345771Y-145220509D01*
X196368034Y-145230420D01*
X196378228Y-145235956D01*
X196398660Y-145249226D01*
X196407057Y-145250555D01*
X196425579Y-145256042D01*
X196433346Y-145259500D01*
X196457705Y-145259500D01*
X196469279Y-145260410D01*
X196479446Y-145262021D01*
X196493342Y-145264222D01*
X196493343Y-145264222D01*
X196501558Y-145262021D01*
X196520710Y-145259500D01*
X198503942Y-145259500D01*
X198551508Y-145276813D01*
X198556268Y-145281174D01*
X199225686Y-145950592D01*
X199227019Y-145951997D01*
X199254492Y-145982509D01*
X199276746Y-145992417D01*
X199286947Y-145997955D01*
X199307383Y-146011226D01*
X199315780Y-146012555D01*
X199334301Y-146018041D01*
X199342068Y-146021500D01*
X199366428Y-146021500D01*
X199378002Y-146022410D01*
X199388169Y-146024021D01*
X199402065Y-146026222D01*
X199402066Y-146026222D01*
X199410281Y-146024021D01*
X199429433Y-146021500D01*
X202076256Y-146021500D01*
X202123822Y-146038813D01*
X202149132Y-146082650D01*
X202140342Y-146132500D01*
X202133587Y-146141302D01*
X202133720Y-146141398D01*
X202130293Y-146146114D01*
X202069103Y-146266207D01*
X202069102Y-146266207D01*
X202048018Y-146399334D01*
X202069102Y-146532457D01*
X202069102Y-146532458D01*
X202069103Y-146532460D01*
X202115204Y-146622938D01*
X202121372Y-146673179D01*
X202093803Y-146715631D01*
X202049269Y-146730532D01*
X201218056Y-146730532D01*
X201170490Y-146713219D01*
X201147982Y-146674236D01*
X201146658Y-146674625D01*
X201145167Y-146669548D01*
X201137406Y-146652554D01*
X201085377Y-146538627D01*
X201054699Y-146503222D01*
X200991131Y-146429860D01*
X200991129Y-146429859D01*
X200991128Y-146429857D01*
X200921122Y-146384867D01*
X200870054Y-146352047D01*
X200870050Y-146352046D01*
X200731964Y-146311500D01*
X200731961Y-146311500D01*
X200588039Y-146311500D01*
X200588036Y-146311500D01*
X200449949Y-146352046D01*
X200449945Y-146352047D01*
X200328875Y-146429855D01*
X200328868Y-146429860D01*
X200234622Y-146538627D01*
X200219114Y-146572585D01*
X200183606Y-146608660D01*
X200151802Y-146615843D01*
X198628198Y-146615843D01*
X198580632Y-146598530D01*
X198560886Y-146572585D01*
X198545377Y-146538627D01*
X198451131Y-146429860D01*
X198451129Y-146429859D01*
X198451128Y-146429857D01*
X198381122Y-146384867D01*
X198330054Y-146352047D01*
X198330050Y-146352046D01*
X198191964Y-146311500D01*
X198191961Y-146311500D01*
X198048039Y-146311500D01*
X198048036Y-146311500D01*
X197909949Y-146352046D01*
X197909945Y-146352047D01*
X197788875Y-146429855D01*
X197788868Y-146429860D01*
X197694622Y-146538627D01*
X197679114Y-146572585D01*
X197643606Y-146608660D01*
X197611802Y-146615843D01*
X197006680Y-146615843D01*
X196959114Y-146598530D01*
X196939368Y-146572585D01*
X196896141Y-146477932D01*
X196827338Y-146398528D01*
X196801895Y-146369165D01*
X196801893Y-146369164D01*
X196801892Y-146369162D01*
X196712168Y-146311500D01*
X196680818Y-146291352D01*
X196680814Y-146291351D01*
X196542728Y-146250805D01*
X196542725Y-146250805D01*
X196462019Y-146250805D01*
X196414453Y-146233492D01*
X196405332Y-146224372D01*
X196404316Y-146223162D01*
X196383701Y-146198593D01*
X196366334Y-146188565D01*
X196347704Y-146177809D01*
X196344982Y-146176075D01*
X196310931Y-146152233D01*
X196310928Y-146152232D01*
X196306293Y-146150990D01*
X196288446Y-146143598D01*
X196284290Y-146141198D01*
X196243360Y-146133980D01*
X196240210Y-146133282D01*
X196200052Y-146122522D01*
X196200051Y-146122522D01*
X196167064Y-146125409D01*
X196158640Y-146126146D01*
X196155420Y-146126287D01*
X191732564Y-146126287D01*
X191684998Y-146108974D01*
X191676642Y-146100751D01*
X191649688Y-146069644D01*
X191574854Y-146021551D01*
X191528614Y-145991834D01*
X191528610Y-145991833D01*
X191390524Y-145951287D01*
X191390521Y-145951287D01*
X191246599Y-145951287D01*
X191246596Y-145951287D01*
X191108509Y-145991833D01*
X191108505Y-145991834D01*
X190987435Y-146069642D01*
X190987428Y-146069647D01*
X190893183Y-146178413D01*
X190833394Y-146309332D01*
X190812913Y-146451787D01*
X190833394Y-146594241D01*
X190833394Y-146594242D01*
X190833395Y-146594244D01*
X190886203Y-146709876D01*
X190893183Y-146725160D01*
X190987428Y-146833926D01*
X190987429Y-146833927D01*
X190987432Y-146833930D01*
X191108507Y-146911740D01*
X191194546Y-146937003D01*
X191246595Y-146952286D01*
X191246597Y-146952287D01*
X191246599Y-146952287D01*
X191390523Y-146952287D01*
X191390524Y-146952286D01*
X191528613Y-146911740D01*
X191649688Y-146833930D01*
X191676639Y-146802826D01*
X191720872Y-146778217D01*
X191732564Y-146777287D01*
X195904731Y-146777287D01*
X195952297Y-146794600D01*
X195977607Y-146838437D01*
X195977978Y-146840756D01*
X195985598Y-146893759D01*
X195985598Y-146893760D01*
X195985599Y-146893762D01*
X196013318Y-146954457D01*
X196045387Y-147024678D01*
X196139632Y-147133444D01*
X196139633Y-147133445D01*
X196139636Y-147133448D01*
X196260711Y-147211258D01*
X196362096Y-147241027D01*
X196398799Y-147251804D01*
X196398801Y-147251805D01*
X196540570Y-147251805D01*
X196553416Y-147252928D01*
X196588717Y-147259152D01*
X196591830Y-147259843D01*
X196631995Y-147270606D01*
X196673400Y-147266983D01*
X196676619Y-147266843D01*
X197882660Y-147266843D01*
X197904533Y-147271600D01*
X197904868Y-147270462D01*
X198048034Y-147312499D01*
X198048037Y-147312500D01*
X198048039Y-147312500D01*
X198191963Y-147312500D01*
X198191965Y-147312499D01*
X198335132Y-147270462D01*
X198335466Y-147271600D01*
X198357340Y-147266843D01*
X200422660Y-147266843D01*
X200444533Y-147271600D01*
X200444868Y-147270462D01*
X200588034Y-147312499D01*
X200588037Y-147312500D01*
X200588039Y-147312500D01*
X200677420Y-147312500D01*
X200714421Y-147322415D01*
X200727581Y-147330013D01*
X200730289Y-147331738D01*
X200764348Y-147355586D01*
X200768977Y-147356826D01*
X200786832Y-147364221D01*
X200790987Y-147366620D01*
X200831947Y-147373841D01*
X200835060Y-147374532D01*
X200875225Y-147385295D01*
X200916630Y-147381672D01*
X200919849Y-147381532D01*
X201562350Y-147381532D01*
X201609916Y-147398845D01*
X201635226Y-147442682D01*
X201626436Y-147492532D01*
X201614676Y-147507858D01*
X201534592Y-147587941D01*
X201534591Y-147587942D01*
X201473401Y-147708035D01*
X201473400Y-147708035D01*
X201452316Y-147841161D01*
X201473400Y-147974288D01*
X201534591Y-148094381D01*
X201534592Y-148094382D01*
X201629900Y-148189690D01*
X201749993Y-148250880D01*
X201749993Y-148250881D01*
X201768195Y-148253763D01*
X201883120Y-148271966D01*
X202016246Y-148250881D01*
X202136340Y-148189690D01*
X202231648Y-148094382D01*
X202292839Y-147974288D01*
X202313924Y-147841162D01*
X202294905Y-147721080D01*
X202292839Y-147708035D01*
X202231648Y-147587942D01*
X202151564Y-147507858D01*
X202130172Y-147461982D01*
X202143273Y-147413087D01*
X202184737Y-147384053D01*
X202203890Y-147381532D01*
X207797188Y-147381532D01*
X207844754Y-147398845D01*
X207870064Y-147442682D01*
X207870435Y-147445001D01*
X207882756Y-147530699D01*
X207882756Y-147530700D01*
X207882757Y-147530702D01*
X207915647Y-147602720D01*
X207942545Y-147661618D01*
X208036790Y-147770384D01*
X208036791Y-147770385D01*
X208036794Y-147770388D01*
X208100229Y-147811155D01*
X208146920Y-147841162D01*
X208157869Y-147848198D01*
X208264325Y-147879456D01*
X208295957Y-147888744D01*
X208295959Y-147888745D01*
X208295961Y-147888745D01*
X208439885Y-147888745D01*
X208439886Y-147888744D01*
X208577975Y-147848198D01*
X208699050Y-147770388D01*
X208793299Y-147661618D01*
X208810857Y-147623172D01*
X217623125Y-147623172D01*
X217643606Y-147765626D01*
X217643606Y-147765627D01*
X217643607Y-147765629D01*
X217703395Y-147896544D01*
X217703395Y-147896545D01*
X217797640Y-148005311D01*
X217797641Y-148005312D01*
X217797644Y-148005315D01*
X217918719Y-148083125D01*
X218008552Y-148109502D01*
X218056807Y-148123671D01*
X218056809Y-148123672D01*
X218056811Y-148123672D01*
X218200735Y-148123672D01*
X218200736Y-148123671D01*
X218338825Y-148083125D01*
X218459900Y-148005315D01*
X218554149Y-147896545D01*
X218613937Y-147765629D01*
X218634419Y-147623172D01*
X218613937Y-147480715D01*
X218554149Y-147349799D01*
X218530421Y-147322415D01*
X218459903Y-147241032D01*
X218459901Y-147241031D01*
X218459900Y-147241029D01*
X218395882Y-147199887D01*
X218338826Y-147163219D01*
X218338822Y-147163218D01*
X218200736Y-147122672D01*
X218200733Y-147122672D01*
X218056811Y-147122672D01*
X218056808Y-147122672D01*
X217918721Y-147163218D01*
X217918717Y-147163219D01*
X217797647Y-147241027D01*
X217797640Y-147241032D01*
X217703395Y-147349798D01*
X217643606Y-147480717D01*
X217623125Y-147623172D01*
X208810857Y-147623172D01*
X208853087Y-147530702D01*
X208873569Y-147388245D01*
X208853087Y-147245788D01*
X208793299Y-147114872D01*
X208699050Y-147006102D01*
X208615312Y-146952287D01*
X208577976Y-146928292D01*
X208577972Y-146928291D01*
X208439886Y-146887745D01*
X208439883Y-146887745D01*
X208358400Y-146887745D01*
X208310834Y-146870432D01*
X208306074Y-146866071D01*
X208277066Y-146837063D01*
X208274885Y-146834683D01*
X208261425Y-146818642D01*
X208248164Y-146802838D01*
X208230797Y-146792810D01*
X208212167Y-146782054D01*
X208209445Y-146780320D01*
X208175394Y-146756478D01*
X208175391Y-146756477D01*
X208170756Y-146755235D01*
X208152909Y-146747843D01*
X208148753Y-146745443D01*
X208107823Y-146738225D01*
X208104673Y-146737527D01*
X208064515Y-146726767D01*
X208064514Y-146726767D01*
X208031527Y-146729654D01*
X208023103Y-146730391D01*
X208019883Y-146730532D01*
X202908375Y-146730532D01*
X202860809Y-146713219D01*
X202835499Y-146669382D01*
X202842439Y-146622938D01*
X202888541Y-146532460D01*
X202903739Y-146436503D01*
X209637220Y-146436503D01*
X209640558Y-146459718D01*
X209657701Y-146578957D01*
X209657701Y-146578958D01*
X209657702Y-146578960D01*
X209671266Y-146608660D01*
X209717490Y-146709876D01*
X209811735Y-146818642D01*
X209811736Y-146818643D01*
X209811739Y-146818646D01*
X209932814Y-146896456D01*
X210039270Y-146927714D01*
X210070902Y-146937002D01*
X210070904Y-146937003D01*
X210070906Y-146937003D01*
X210214830Y-146937003D01*
X210214831Y-146937002D01*
X210352920Y-146896456D01*
X210473995Y-146818646D01*
X210568244Y-146709876D01*
X210628032Y-146578960D01*
X210648514Y-146436503D01*
X210628032Y-146294046D01*
X210568244Y-146163130D01*
X210487241Y-146069647D01*
X210473998Y-146054363D01*
X210473996Y-146054362D01*
X210473995Y-146054360D01*
X210409454Y-146012882D01*
X210393646Y-146002723D01*
X217623125Y-146002723D01*
X217625810Y-146021395D01*
X217643606Y-146145177D01*
X217643606Y-146145178D01*
X217643607Y-146145180D01*
X217658784Y-146178413D01*
X217703395Y-146276096D01*
X217797640Y-146384862D01*
X217797641Y-146384863D01*
X217797644Y-146384866D01*
X217877993Y-146436503D01*
X217914117Y-146459719D01*
X217918719Y-146462676D01*
X218025175Y-146493934D01*
X218056807Y-146503222D01*
X218056809Y-146503223D01*
X218056811Y-146503223D01*
X218200735Y-146503223D01*
X218200736Y-146503222D01*
X218338825Y-146462676D01*
X218459900Y-146384866D01*
X218554149Y-146276096D01*
X218613937Y-146145180D01*
X218634419Y-146002723D01*
X218613937Y-145860266D01*
X218554149Y-145729350D01*
X218459900Y-145620580D01*
X218381535Y-145570218D01*
X218338826Y-145542770D01*
X218338822Y-145542769D01*
X218200736Y-145502223D01*
X218200733Y-145502223D01*
X218056811Y-145502223D01*
X218056808Y-145502223D01*
X217918721Y-145542769D01*
X217918717Y-145542770D01*
X217797647Y-145620578D01*
X217797640Y-145620583D01*
X217703395Y-145729349D01*
X217643606Y-145860268D01*
X217623125Y-146002722D01*
X217623125Y-146002723D01*
X210393646Y-146002723D01*
X210352921Y-145976550D01*
X210352917Y-145976549D01*
X210214831Y-145936003D01*
X210214828Y-145936003D01*
X210070906Y-145936003D01*
X210070903Y-145936003D01*
X209932816Y-145976549D01*
X209932812Y-145976550D01*
X209811742Y-146054358D01*
X209811735Y-146054363D01*
X209717490Y-146163129D01*
X209657701Y-146294048D01*
X209638175Y-146429860D01*
X209637220Y-146436503D01*
X202903739Y-146436503D01*
X202909626Y-146399334D01*
X202888541Y-146266208D01*
X202888541Y-146266207D01*
X202827350Y-146146114D01*
X202823924Y-146141398D01*
X202825522Y-146140236D01*
X202807670Y-146101950D01*
X202820771Y-146053055D01*
X202862235Y-146024021D01*
X202881388Y-146021500D01*
X204721924Y-146021500D01*
X204723860Y-146021551D01*
X204764878Y-146023700D01*
X204764878Y-146023699D01*
X204764880Y-146023700D01*
X204787632Y-146014965D01*
X204798743Y-146011674D01*
X204822584Y-146006607D01*
X204829463Y-146001608D01*
X204846434Y-145992394D01*
X204854376Y-145989346D01*
X204871606Y-145972113D01*
X204880430Y-145964577D01*
X204900139Y-145950260D01*
X204904389Y-145942897D01*
X204916145Y-145927575D01*
X205957803Y-144885916D01*
X206003678Y-144864525D01*
X206030977Y-144867241D01*
X206073597Y-144879756D01*
X206073599Y-144879756D01*
X206217523Y-144879756D01*
X206217524Y-144879755D01*
X206221022Y-144878728D01*
X206355613Y-144839209D01*
X206476688Y-144761399D01*
X206570937Y-144652629D01*
X206630725Y-144521713D01*
X206651207Y-144379256D01*
X206630725Y-144236799D01*
X206570937Y-144105883D01*
X206536075Y-144065650D01*
X206476691Y-143997116D01*
X206476689Y-143997115D01*
X206476688Y-143997113D01*
X206419742Y-143960516D01*
X206355614Y-143919303D01*
X206355610Y-143919302D01*
X206216312Y-143878400D01*
X206175550Y-143848388D01*
X206163616Y-143799196D01*
X206184834Y-143755072D01*
X206245487Y-143694420D01*
X207219175Y-143694420D01*
X207240259Y-143827546D01*
X207297197Y-143939292D01*
X207301451Y-143947640D01*
X207396759Y-144042948D01*
X207516852Y-144104138D01*
X207516852Y-144104139D01*
X207527864Y-144105883D01*
X207649979Y-144125224D01*
X207769762Y-144106252D01*
X207819451Y-144115911D01*
X207851306Y-144155249D01*
X207854585Y-144168809D01*
X207858739Y-144197700D01*
X207858739Y-144197701D01*
X207858740Y-144197703D01*
X207885151Y-144255535D01*
X207918528Y-144328619D01*
X208012773Y-144437385D01*
X208012774Y-144437386D01*
X208012777Y-144437389D01*
X208133852Y-144515199D01*
X208240308Y-144546457D01*
X208271940Y-144555745D01*
X208271942Y-144555746D01*
X208271944Y-144555746D01*
X208415868Y-144555746D01*
X208415869Y-144555745D01*
X208553958Y-144515199D01*
X208654565Y-144450543D01*
X210476925Y-144450543D01*
X210478621Y-144461253D01*
X210498009Y-144583669D01*
X210559200Y-144703762D01*
X210559201Y-144703763D01*
X210654509Y-144799071D01*
X210774602Y-144860261D01*
X210774602Y-144860262D01*
X210792804Y-144863144D01*
X210907729Y-144881347D01*
X211040855Y-144860262D01*
X211160949Y-144799071D01*
X211256257Y-144703763D01*
X211317448Y-144583669D01*
X211338533Y-144450543D01*
X211318786Y-144325862D01*
X211317448Y-144317416D01*
X211256257Y-144197323D01*
X211160948Y-144102014D01*
X211040855Y-144040824D01*
X211040855Y-144040823D01*
X210907729Y-144019739D01*
X210774602Y-144040823D01*
X210774602Y-144040824D01*
X210654509Y-144102014D01*
X210559200Y-144197323D01*
X210498010Y-144317416D01*
X210498009Y-144317416D01*
X210482325Y-144416446D01*
X210476925Y-144450543D01*
X208654565Y-144450543D01*
X208675033Y-144437389D01*
X208769282Y-144328619D01*
X208829070Y-144197703D01*
X208849552Y-144055246D01*
X208842948Y-144009315D01*
X216550687Y-144009315D01*
X216589208Y-144140506D01*
X216589209Y-144140507D01*
X216616031Y-144182243D01*
X216651092Y-144236801D01*
X216663132Y-144255535D01*
X216766469Y-144345076D01*
X216890845Y-144401877D01*
X216992176Y-144416446D01*
X216992182Y-144416446D01*
X217060192Y-144416446D01*
X217060198Y-144416446D01*
X217161529Y-144401877D01*
X217285905Y-144345076D01*
X217389242Y-144255535D01*
X217463165Y-144140507D01*
X217492435Y-144040823D01*
X217501687Y-144009315D01*
X217501687Y-143872576D01*
X217463165Y-143741385D01*
X217389242Y-143626357D01*
X217285905Y-143536816D01*
X217161529Y-143480015D01*
X217161527Y-143480014D01*
X217161526Y-143480014D01*
X217060202Y-143465446D01*
X217060198Y-143465446D01*
X216992176Y-143465446D01*
X216992171Y-143465446D01*
X216890847Y-143480014D01*
X216766467Y-143536817D01*
X216663129Y-143626360D01*
X216589210Y-143741383D01*
X216589208Y-143741385D01*
X216550687Y-143872576D01*
X216550687Y-144009315D01*
X208842948Y-144009315D01*
X208829070Y-143912789D01*
X208769282Y-143781873D01*
X208734199Y-143741385D01*
X208675036Y-143673106D01*
X208675034Y-143673105D01*
X208675033Y-143673103D01*
X208616374Y-143635405D01*
X208553959Y-143595293D01*
X208553955Y-143595292D01*
X208415869Y-143554746D01*
X208415866Y-143554746D01*
X208271944Y-143554746D01*
X208271941Y-143554746D01*
X208143326Y-143592511D01*
X208092809Y-143589301D01*
X208056544Y-143555104D01*
X208043849Y-143530189D01*
X207998507Y-143441200D01*
X207952291Y-143394984D01*
X210848483Y-143394984D01*
X210868964Y-143537438D01*
X210868964Y-143537439D01*
X210868965Y-143537441D01*
X210928752Y-143668357D01*
X210928753Y-143668357D01*
X211022998Y-143777123D01*
X211022999Y-143777124D01*
X211023002Y-143777127D01*
X211115604Y-143836638D01*
X211143407Y-143854507D01*
X211144077Y-143854937D01*
X211230450Y-143880298D01*
X211282165Y-143895483D01*
X211282167Y-143895484D01*
X211282169Y-143895484D01*
X211426093Y-143895484D01*
X211426094Y-143895483D01*
X211564183Y-143854937D01*
X211685258Y-143777127D01*
X211779507Y-143668357D01*
X211839295Y-143537441D01*
X211859777Y-143394984D01*
X211839295Y-143252527D01*
X211779507Y-143121611D01*
X211734990Y-143070235D01*
X211685261Y-143012844D01*
X211685259Y-143012843D01*
X211685258Y-143012841D01*
X211576862Y-142943179D01*
X211564184Y-142935031D01*
X211564180Y-142935030D01*
X211426094Y-142894484D01*
X211426091Y-142894484D01*
X211282169Y-142894484D01*
X211282166Y-142894484D01*
X211144079Y-142935030D01*
X211144075Y-142935031D01*
X211023005Y-143012839D01*
X211022998Y-143012844D01*
X210928753Y-143121610D01*
X210868964Y-143252529D01*
X210848483Y-143394984D01*
X207952291Y-143394984D01*
X207903199Y-143345892D01*
X207903198Y-143345891D01*
X207783105Y-143284701D01*
X207783105Y-143284700D01*
X207649979Y-143263616D01*
X207516852Y-143284700D01*
X207516852Y-143284701D01*
X207396759Y-143345891D01*
X207301450Y-143441200D01*
X207240260Y-143561293D01*
X207240259Y-143561293D01*
X207219175Y-143694420D01*
X206245487Y-143694420D01*
X206266093Y-143673814D01*
X206444967Y-143494939D01*
X206490845Y-143473547D01*
X206497294Y-143473265D01*
X206578779Y-143473265D01*
X206578780Y-143473264D01*
X206716869Y-143432718D01*
X206837944Y-143354908D01*
X206932193Y-143246138D01*
X206991981Y-143115222D01*
X207012463Y-142972765D01*
X206991981Y-142830308D01*
X206932193Y-142699392D01*
X206875363Y-142633806D01*
X206860332Y-142616459D01*
X206842267Y-142569174D01*
X206858823Y-142521339D01*
X206902254Y-142495337D01*
X206916258Y-142494000D01*
X213099547Y-142494000D01*
X213147113Y-142511313D01*
X213171025Y-142548846D01*
X213176472Y-142569174D01*
X213177154Y-142571717D01*
X213176249Y-142582052D01*
X213180466Y-142590328D01*
X213186009Y-142604769D01*
X213192388Y-142628577D01*
X213192392Y-142628586D01*
X213216762Y-142670797D01*
X213218718Y-142681890D01*
X213222355Y-142685527D01*
X213234112Y-142700849D01*
X213236606Y-142705168D01*
X213238534Y-142708507D01*
X213303792Y-142773766D01*
X213311442Y-142778183D01*
X213326767Y-142789942D01*
X213330249Y-142793424D01*
X213341494Y-142795533D01*
X213377041Y-142816056D01*
X213383713Y-142819908D01*
X213407534Y-142826291D01*
X213421970Y-142831833D01*
X213430134Y-142835992D01*
X213440261Y-142835062D01*
X213440578Y-142835146D01*
X213472855Y-142843795D01*
X213472856Y-142843795D01*
X213516334Y-142843795D01*
X213527911Y-142844706D01*
X213550435Y-142848273D01*
X213561572Y-142843830D01*
X213563836Y-142843795D01*
X215368262Y-142843795D01*
X215415828Y-142861108D01*
X215433785Y-142883404D01*
X215441178Y-142897490D01*
X215441182Y-142897496D01*
X215549955Y-143020276D01*
X215684961Y-143113464D01*
X215838342Y-143171634D01*
X215838344Y-143171634D01*
X215838346Y-143171635D01*
X215953890Y-143185664D01*
X215960330Y-143186446D01*
X217092044Y-143186446D01*
X217125760Y-143182352D01*
X217214027Y-143171635D01*
X217214028Y-143171634D01*
X217214032Y-143171634D01*
X217367413Y-143113464D01*
X217502416Y-143020278D01*
X217509007Y-143012839D01*
X217570720Y-142943179D01*
X217611195Y-142897492D01*
X217687429Y-142752241D01*
X217726687Y-142592967D01*
X217726687Y-142428925D01*
X217687429Y-142269651D01*
X217611195Y-142124400D01*
X217611191Y-142124395D01*
X217502418Y-142001615D01*
X217367412Y-141908427D01*
X217240895Y-141860446D01*
X217214032Y-141850258D01*
X217214030Y-141850257D01*
X217214027Y-141850256D01*
X217092051Y-141835446D01*
X217092044Y-141835446D01*
X216039279Y-141835446D01*
X215991713Y-141818133D01*
X215966403Y-141774296D01*
X215965279Y-141761446D01*
X215965279Y-140840090D01*
X215982592Y-140792524D01*
X216026429Y-140767214D01*
X216039279Y-140766090D01*
X217392325Y-140766090D01*
X217439891Y-140783403D01*
X217465201Y-140827240D01*
X217466325Y-140840090D01*
X217466325Y-140865255D01*
X217502949Y-141061178D01*
X217538810Y-141153744D01*
X217574952Y-141247036D01*
X217679880Y-141416500D01*
X217733652Y-141475485D01*
X217806314Y-141555192D01*
X217814161Y-141563799D01*
X217952869Y-141668547D01*
X217973217Y-141683913D01*
X217973219Y-141683915D01*
X217973220Y-141683915D01*
X217973221Y-141683916D01*
X218151645Y-141772761D01*
X218343356Y-141827307D01*
X218343367Y-141827308D01*
X218541822Y-141845698D01*
X218541825Y-141845698D01*
X218541828Y-141845698D01*
X218683299Y-141832588D01*
X218740294Y-141827307D01*
X218932005Y-141772761D01*
X219110429Y-141683916D01*
X219269489Y-141563799D01*
X219403770Y-141416500D01*
X219508698Y-141247036D01*
X219580701Y-141061176D01*
X219617325Y-140865250D01*
X219617325Y-140840090D01*
X219634638Y-140792524D01*
X219678475Y-140767214D01*
X219691325Y-140766090D01*
X221044279Y-140766090D01*
X221091845Y-140783403D01*
X221117155Y-140827240D01*
X221118279Y-140840090D01*
X221118279Y-141786446D01*
X221100966Y-141834012D01*
X221057129Y-141859322D01*
X221044279Y-141860446D01*
X220165254Y-141860446D01*
X220043134Y-141875873D01*
X219890318Y-141936377D01*
X219890317Y-141936377D01*
X219890316Y-141936378D01*
X219839246Y-141973482D01*
X219757349Y-142032983D01*
X219652589Y-142159615D01*
X219652584Y-142159624D01*
X219582608Y-142308330D01*
X219582606Y-142308337D01*
X219551811Y-142469772D01*
X219551811Y-142469775D01*
X219551811Y-142469776D01*
X219552724Y-142484286D01*
X219562130Y-142633802D01*
X219562131Y-142633808D01*
X219612916Y-142790111D01*
X219612920Y-142790119D01*
X219700981Y-142928881D01*
X219700983Y-142928883D01*
X219700985Y-142928886D01*
X219820794Y-143041394D01*
X219964819Y-143120573D01*
X220124010Y-143161446D01*
X221044279Y-143161446D01*
X221091845Y-143178759D01*
X221117155Y-143222596D01*
X221118279Y-143235446D01*
X221118279Y-150426446D01*
X221100966Y-150474012D01*
X221057129Y-150499322D01*
X221044279Y-150500446D01*
X220165254Y-150500446D01*
X220043134Y-150515873D01*
X219890318Y-150576377D01*
X219890317Y-150576377D01*
X219890316Y-150576378D01*
X219870145Y-150591033D01*
X219757349Y-150672983D01*
X219652589Y-150799615D01*
X219652584Y-150799624D01*
X219582608Y-150948330D01*
X219582606Y-150948337D01*
X219551811Y-151109772D01*
X219551811Y-151109775D01*
X219551811Y-151109776D01*
X219553286Y-151133217D01*
X219562130Y-151273802D01*
X219562131Y-151273808D01*
X219612916Y-151430111D01*
X219612920Y-151430119D01*
X219700981Y-151568881D01*
X219700983Y-151568883D01*
X219700985Y-151568886D01*
X219820794Y-151681394D01*
X219964819Y-151760573D01*
X220124010Y-151801446D01*
X221044279Y-151801446D01*
X221091845Y-151818759D01*
X221117155Y-151862596D01*
X221118279Y-151875446D01*
X221118279Y-152846500D01*
X221100966Y-152894066D01*
X221057129Y-152919376D01*
X221044279Y-152920500D01*
X219691390Y-152920500D01*
X219643824Y-152903187D01*
X219618514Y-152859350D01*
X219617390Y-152846500D01*
X219617390Y-152821341D01*
X219617389Y-152821334D01*
X219580765Y-152625411D01*
X219570139Y-152597984D01*
X219508763Y-152439554D01*
X219403835Y-152270090D01*
X219269554Y-152122791D01*
X219110497Y-152002676D01*
X219110495Y-152002674D01*
X219019638Y-151957433D01*
X218932070Y-151913829D01*
X218932067Y-151913828D01*
X218932065Y-151913827D01*
X218740360Y-151859283D01*
X218740347Y-151859281D01*
X218541893Y-151840892D01*
X218541887Y-151840892D01*
X218343432Y-151859281D01*
X218343419Y-151859283D01*
X218151714Y-151913827D01*
X218151710Y-151913829D01*
X217973284Y-152002674D01*
X217973282Y-152002676D01*
X217814223Y-152122793D01*
X217679943Y-152270092D01*
X217575020Y-152439549D01*
X217575015Y-152439559D01*
X217503014Y-152625411D01*
X217466390Y-152821334D01*
X217466390Y-152846500D01*
X217449077Y-152894066D01*
X217405240Y-152919376D01*
X217392390Y-152920500D01*
X216039279Y-152920500D01*
X215991713Y-152903187D01*
X215966403Y-152859350D01*
X215965279Y-152846500D01*
X215965279Y-151900446D01*
X215982592Y-151852880D01*
X216026429Y-151827570D01*
X216039279Y-151826446D01*
X217092044Y-151826446D01*
X217125760Y-151822352D01*
X217214027Y-151811635D01*
X217214028Y-151811634D01*
X217214032Y-151811634D01*
X217367413Y-151753464D01*
X217502416Y-151660278D01*
X217522154Y-151637999D01*
X217538675Y-151619349D01*
X217611195Y-151537492D01*
X217687429Y-151392241D01*
X217726687Y-151232967D01*
X217726687Y-151068925D01*
X217687429Y-150909651D01*
X217611195Y-150764400D01*
X217611191Y-150764395D01*
X217502418Y-150641615D01*
X217367412Y-150548427D01*
X217240895Y-150500446D01*
X217214032Y-150490258D01*
X217214030Y-150490257D01*
X217214027Y-150490256D01*
X217092051Y-150475446D01*
X217092044Y-150475446D01*
X215960330Y-150475446D01*
X215960322Y-150475446D01*
X215838346Y-150490256D01*
X215838342Y-150490258D01*
X215684961Y-150548427D01*
X215549955Y-150641615D01*
X215441179Y-150764399D01*
X215420823Y-150803185D01*
X215383388Y-150837257D01*
X215355299Y-150842795D01*
X213563676Y-150842795D01*
X213551084Y-150838211D01*
X213527912Y-150841883D01*
X213516333Y-150842795D01*
X213511599Y-150842795D01*
X213511549Y-150842800D01*
X213472856Y-150842800D01*
X213440577Y-150851449D01*
X213430241Y-150850544D01*
X213421966Y-150854761D01*
X213407528Y-150860304D01*
X213383714Y-150866685D01*
X213341499Y-150891058D01*
X213330405Y-150893013D01*
X213326767Y-150896652D01*
X213311443Y-150908410D01*
X213303790Y-150912828D01*
X213303786Y-150912831D01*
X213300585Y-150916032D01*
X213254705Y-150937417D01*
X213205813Y-150924309D01*
X213176786Y-150882840D01*
X213180954Y-150832959D01*
X213226381Y-150733491D01*
X213246863Y-150591034D01*
X213226381Y-150448577D01*
X213166593Y-150317661D01*
X213136059Y-150282423D01*
X213072347Y-150208894D01*
X213072345Y-150208893D01*
X213072344Y-150208891D01*
X212967197Y-150141317D01*
X212951270Y-150131081D01*
X212951266Y-150131080D01*
X212813180Y-150090534D01*
X212813177Y-150090534D01*
X212669255Y-150090534D01*
X212669252Y-150090534D01*
X212531165Y-150131080D01*
X212531161Y-150131081D01*
X212410091Y-150208889D01*
X212410084Y-150208894D01*
X212315839Y-150317660D01*
X212256050Y-150448579D01*
X212235569Y-150591033D01*
X212256050Y-150733488D01*
X212256050Y-150733489D01*
X212256051Y-150733491D01*
X212312286Y-150856627D01*
X212315839Y-150864407D01*
X212410084Y-150973173D01*
X212410085Y-150973174D01*
X212410088Y-150973177D01*
X212521105Y-151044523D01*
X212523405Y-151046001D01*
X212554061Y-151086282D01*
X212551652Y-151136843D01*
X212517307Y-151174028D01*
X212483398Y-151182254D01*
X206235692Y-151182254D01*
X206188126Y-151164941D01*
X206164215Y-151127411D01*
X206160857Y-151114882D01*
X206161760Y-151104543D01*
X206157543Y-151096266D01*
X206151999Y-151081823D01*
X206145618Y-151058010D01*
X206145615Y-151058002D01*
X206121244Y-151015792D01*
X206119287Y-151004699D01*
X206115650Y-151001062D01*
X206103893Y-150985741D01*
X206099472Y-150978083D01*
X206034213Y-150912825D01*
X206034201Y-150912818D01*
X206026556Y-150908404D01*
X206011233Y-150896646D01*
X206007749Y-150893162D01*
X205996504Y-150891053D01*
X205954293Y-150866683D01*
X205954284Y-150866679D01*
X205930472Y-150860299D01*
X205916030Y-150854756D01*
X205907863Y-150850595D01*
X205897728Y-150851525D01*
X205897486Y-150851461D01*
X205865144Y-150842795D01*
X205821673Y-150842795D01*
X205810096Y-150841884D01*
X205787564Y-150838315D01*
X205776420Y-150842761D01*
X205774164Y-150842795D01*
X203767244Y-150842795D01*
X203754841Y-150838280D01*
X203732131Y-150841882D01*
X203720542Y-150842795D01*
X203716347Y-150842795D01*
X203716081Y-150842819D01*
X203677074Y-150842819D01*
X203644803Y-150851464D01*
X203634468Y-150850559D01*
X203626193Y-150854775D01*
X203611754Y-150860317D01*
X203587939Y-150866697D01*
X203587933Y-150866699D01*
X203545715Y-150891071D01*
X203534624Y-150893025D01*
X203530989Y-150896661D01*
X203515664Y-150908419D01*
X203508017Y-150912833D01*
X203508015Y-150912834D01*
X203442752Y-150978094D01*
X203442750Y-150978096D01*
X203438332Y-150985748D01*
X203426575Y-151001070D01*
X203423092Y-151004552D01*
X203420983Y-151015796D01*
X203396609Y-151058010D01*
X203396608Y-151058014D01*
X203390227Y-151081826D01*
X203384683Y-151096267D01*
X203380521Y-151104434D01*
X203381452Y-151114568D01*
X203381369Y-151114879D01*
X203372722Y-151147147D01*
X203372721Y-151147150D01*
X203372721Y-151190623D01*
X203371810Y-151202199D01*
X203368240Y-151224734D01*
X203372687Y-151235881D01*
X203372721Y-151238139D01*
X203372721Y-152071500D01*
X203355408Y-152119066D01*
X203311571Y-152144376D01*
X203298721Y-152145500D01*
X201552543Y-152145500D01*
X201504977Y-152128187D01*
X201479667Y-152084350D01*
X201488457Y-152034500D01*
X201496617Y-152023041D01*
X201534657Y-151979140D01*
X201593377Y-151911373D01*
X201653165Y-151780457D01*
X201673647Y-151638000D01*
X201653165Y-151495543D01*
X201593377Y-151364627D01*
X201514681Y-151273806D01*
X201499131Y-151255860D01*
X201499129Y-151255859D01*
X201499128Y-151255857D01*
X201442182Y-151219260D01*
X201378054Y-151178047D01*
X201378050Y-151178046D01*
X201239964Y-151137500D01*
X201239961Y-151137500D01*
X201096039Y-151137500D01*
X201096036Y-151137500D01*
X200957949Y-151178046D01*
X200957945Y-151178047D01*
X200836875Y-151255855D01*
X200836868Y-151255860D01*
X200742623Y-151364626D01*
X200682834Y-151495545D01*
X200662353Y-151638000D01*
X200682834Y-151780454D01*
X200682834Y-151780455D01*
X200682835Y-151780457D01*
X200726216Y-151875446D01*
X200742623Y-151911373D01*
X200839383Y-152023041D01*
X200857448Y-152070326D01*
X200840892Y-152118161D01*
X200797461Y-152144163D01*
X200783457Y-152145500D01*
X195989279Y-152145500D01*
X195941713Y-152128187D01*
X195916403Y-152084350D01*
X195915279Y-152071500D01*
X195915279Y-151238947D01*
X195919963Y-151226076D01*
X195916214Y-151202370D01*
X195915305Y-151190811D01*
X195915304Y-151147148D01*
X195910903Y-151130725D01*
X195910709Y-151130000D01*
X201932353Y-151130000D01*
X201934819Y-151147149D01*
X201952834Y-151272454D01*
X201952834Y-151272455D01*
X201952835Y-151272457D01*
X201994928Y-151364626D01*
X202012623Y-151403373D01*
X202106868Y-151512139D01*
X202106869Y-151512140D01*
X202106872Y-151512143D01*
X202227947Y-151589953D01*
X202334403Y-151621211D01*
X202366035Y-151630499D01*
X202366037Y-151630500D01*
X202366039Y-151630500D01*
X202509963Y-151630500D01*
X202509964Y-151630499D01*
X202648053Y-151589953D01*
X202769128Y-151512143D01*
X202863377Y-151403373D01*
X202923165Y-151272457D01*
X202943647Y-151130000D01*
X202923165Y-150987543D01*
X202863377Y-150856627D01*
X202813976Y-150799615D01*
X202769131Y-150747860D01*
X202769129Y-150747859D01*
X202769128Y-150747857D01*
X202712182Y-150711260D01*
X202648054Y-150670047D01*
X202648050Y-150670046D01*
X202509964Y-150629500D01*
X202509961Y-150629500D01*
X202366039Y-150629500D01*
X202366036Y-150629500D01*
X202227949Y-150670046D01*
X202227945Y-150670047D01*
X202106875Y-150747855D01*
X202106868Y-150747860D01*
X202012623Y-150856626D01*
X201952834Y-150987545D01*
X201932797Y-151126910D01*
X201932353Y-151130000D01*
X195910709Y-151130000D01*
X195906653Y-151114865D01*
X195907556Y-151104535D01*
X195903344Y-151096269D01*
X195897799Y-151081827D01*
X195896522Y-151077060D01*
X195893783Y-151066839D01*
X195898193Y-151016414D01*
X195933985Y-150980620D01*
X195976836Y-150974597D01*
X196022567Y-150981840D01*
X196155693Y-150960755D01*
X196275787Y-150899564D01*
X196371095Y-150804256D01*
X196432286Y-150684162D01*
X196453371Y-150551036D01*
X196432286Y-150417910D01*
X196432286Y-150417909D01*
X196371095Y-150297816D01*
X196275786Y-150202507D01*
X196155693Y-150141317D01*
X196155693Y-150141316D01*
X196022567Y-150120232D01*
X196016744Y-150120232D01*
X196016744Y-150118507D01*
X195974555Y-150110302D01*
X195960349Y-150099202D01*
X195405839Y-149544692D01*
X195396635Y-149533476D01*
X195383883Y-149514390D01*
X195371853Y-149465222D01*
X195394243Y-149419823D01*
X195440575Y-149399438D01*
X195445413Y-149399280D01*
X197869799Y-149399280D01*
X197917365Y-149416593D01*
X197922125Y-149420954D01*
X198147273Y-149646101D01*
X198148606Y-149647506D01*
X198167468Y-149668454D01*
X198176088Y-149678027D01*
X198198348Y-149687937D01*
X198208549Y-149693477D01*
X198228974Y-149706742D01*
X198228975Y-149706742D01*
X198228977Y-149706743D01*
X198237371Y-149708072D01*
X198255895Y-149713559D01*
X198263663Y-149717018D01*
X198288022Y-149717018D01*
X198299599Y-149717929D01*
X198323659Y-149721740D01*
X198323659Y-149721739D01*
X198323660Y-149721740D01*
X198330677Y-149719859D01*
X198331875Y-149719539D01*
X198351027Y-149717018D01*
X201387091Y-149717018D01*
X201389027Y-149717069D01*
X201430045Y-149719218D01*
X201430045Y-149719217D01*
X201430047Y-149719218D01*
X201452799Y-149710483D01*
X201463910Y-149707192D01*
X201487751Y-149702125D01*
X201494625Y-149697130D01*
X201511604Y-149687910D01*
X201519543Y-149684864D01*
X201536776Y-149667630D01*
X201545592Y-149660100D01*
X201565306Y-149645778D01*
X201569556Y-149638415D01*
X201581312Y-149623093D01*
X202191613Y-149012792D01*
X202237491Y-148991400D01*
X202243940Y-148991118D01*
X204432946Y-148991118D01*
X204480512Y-149008431D01*
X204505822Y-149052268D01*
X204498880Y-149098713D01*
X204454920Y-149184988D01*
X204454919Y-149184988D01*
X204433835Y-149318114D01*
X204454919Y-149451241D01*
X204512927Y-149565087D01*
X204516111Y-149571335D01*
X204611419Y-149666643D01*
X204731512Y-149727833D01*
X204731512Y-149727834D01*
X204752597Y-149731173D01*
X204864639Y-149748919D01*
X204997765Y-149727834D01*
X205117859Y-149666643D01*
X205174169Y-149610333D01*
X205220045Y-149588940D01*
X205268939Y-149602040D01*
X205292429Y-149629062D01*
X205303681Y-149651145D01*
X205310874Y-149665262D01*
X205406182Y-149760570D01*
X205526275Y-149821760D01*
X205526275Y-149821761D01*
X205544477Y-149824643D01*
X205659402Y-149842846D01*
X205792528Y-149821761D01*
X205912622Y-149760570D01*
X206007930Y-149665262D01*
X206069121Y-149545168D01*
X206078043Y-149488833D01*
X206102583Y-149444562D01*
X206149840Y-149426421D01*
X206197701Y-149442901D01*
X206218444Y-149469669D01*
X206224017Y-149481873D01*
X206318264Y-149590641D01*
X206318265Y-149590642D01*
X206318268Y-149590645D01*
X206405632Y-149646790D01*
X206436518Y-149666640D01*
X206439343Y-149668455D01*
X206524561Y-149693477D01*
X206577431Y-149709001D01*
X206577433Y-149709002D01*
X206577435Y-149709002D01*
X206721359Y-149709002D01*
X206721360Y-149709001D01*
X206723407Y-149708400D01*
X206859449Y-149668455D01*
X206980524Y-149590645D01*
X207028854Y-149534869D01*
X207465794Y-149534869D01*
X207467206Y-149544692D01*
X207486275Y-149677323D01*
X207486275Y-149677324D01*
X207486276Y-149677326D01*
X207524907Y-149761915D01*
X207546064Y-149808242D01*
X207640309Y-149917008D01*
X207640310Y-149917009D01*
X207640313Y-149917012D01*
X207761388Y-149994822D01*
X207867844Y-150026080D01*
X207899476Y-150035368D01*
X207899478Y-150035369D01*
X207899480Y-150035369D01*
X208043404Y-150035369D01*
X208043405Y-150035368D01*
X208048330Y-150033922D01*
X208181494Y-149994822D01*
X208302569Y-149917012D01*
X208396818Y-149808242D01*
X208456606Y-149677326D01*
X208477088Y-149534869D01*
X208456606Y-149392412D01*
X208396818Y-149261496D01*
X208366172Y-149226128D01*
X210655690Y-149226128D01*
X210658936Y-149248705D01*
X210676171Y-149368582D01*
X210676171Y-149368583D01*
X210676172Y-149368585D01*
X210732306Y-149491500D01*
X210735960Y-149499501D01*
X210830205Y-149608267D01*
X210830206Y-149608268D01*
X210830209Y-149608271D01*
X210951284Y-149686081D01*
X211070611Y-149721118D01*
X211111372Y-149751130D01*
X211123306Y-149800322D01*
X211100828Y-149845676D01*
X211089770Y-149854372D01*
X211031595Y-149891759D01*
X211031586Y-149891766D01*
X210937341Y-150000532D01*
X210877552Y-150131451D01*
X210857071Y-150273906D01*
X210877552Y-150416360D01*
X210877552Y-150416361D01*
X210877553Y-150416363D01*
X210922818Y-150515479D01*
X210937341Y-150547279D01*
X211031586Y-150656045D01*
X211031587Y-150656046D01*
X211031590Y-150656049D01*
X211097261Y-150698253D01*
X211152090Y-150733490D01*
X211152665Y-150733859D01*
X211256676Y-150764399D01*
X211290753Y-150774405D01*
X211290755Y-150774406D01*
X211290757Y-150774406D01*
X211434681Y-150774406D01*
X211434682Y-150774405D01*
X211440550Y-150772682D01*
X211572771Y-150733859D01*
X211693846Y-150656049D01*
X211788095Y-150547279D01*
X211847883Y-150416363D01*
X211868365Y-150273906D01*
X211847883Y-150131449D01*
X211788095Y-150000533D01*
X211721163Y-149923289D01*
X211693849Y-149891766D01*
X211693847Y-149891765D01*
X211693846Y-149891763D01*
X211622133Y-149845676D01*
X211572772Y-149813953D01*
X211572768Y-149813952D01*
X211488863Y-149789315D01*
X216550687Y-149789315D01*
X216589208Y-149920506D01*
X216589210Y-149920508D01*
X216663024Y-150035368D01*
X216663132Y-150035535D01*
X216766469Y-150125076D01*
X216890845Y-150181877D01*
X216992176Y-150196446D01*
X216992182Y-150196446D01*
X217060192Y-150196446D01*
X217060198Y-150196446D01*
X217161529Y-150181877D01*
X217285905Y-150125076D01*
X217389242Y-150035535D01*
X217463165Y-149920507D01*
X217482584Y-149854372D01*
X217501687Y-149789315D01*
X217501687Y-149652576D01*
X217463165Y-149521385D01*
X217395820Y-149416593D01*
X217389244Y-149406360D01*
X217389243Y-149406359D01*
X217389242Y-149406357D01*
X217285905Y-149316816D01*
X217161529Y-149260015D01*
X217161527Y-149260014D01*
X217161526Y-149260014D01*
X217060202Y-149245446D01*
X217060198Y-149245446D01*
X216992176Y-149245446D01*
X216992171Y-149245446D01*
X216890847Y-149260014D01*
X216766467Y-149316817D01*
X216706727Y-149368582D01*
X216671300Y-149399280D01*
X216663129Y-149406360D01*
X216589210Y-149521383D01*
X216589208Y-149521385D01*
X216550687Y-149652576D01*
X216550687Y-149789315D01*
X211488863Y-149789315D01*
X211453444Y-149778915D01*
X211412682Y-149748903D01*
X211400748Y-149699711D01*
X211423226Y-149654357D01*
X211434278Y-149645665D01*
X211492465Y-149608271D01*
X211586714Y-149499501D01*
X211646502Y-149368585D01*
X211666984Y-149226128D01*
X211648562Y-149097999D01*
X218696353Y-149097999D01*
X218716834Y-149240454D01*
X218716834Y-149240455D01*
X218716835Y-149240457D01*
X218758235Y-149331110D01*
X218776623Y-149371373D01*
X218870868Y-149480139D01*
X218870869Y-149480140D01*
X218870872Y-149480143D01*
X218991947Y-149557953D01*
X219097480Y-149588940D01*
X219130035Y-149598499D01*
X219130037Y-149598500D01*
X219130039Y-149598500D01*
X219273963Y-149598500D01*
X219273964Y-149598499D01*
X219412053Y-149557953D01*
X219533128Y-149480143D01*
X219627377Y-149371373D01*
X219687165Y-149240457D01*
X219707647Y-149098000D01*
X219687165Y-148955543D01*
X219627377Y-148824627D01*
X219595061Y-148787332D01*
X219533131Y-148715860D01*
X219533129Y-148715859D01*
X219533128Y-148715857D01*
X219452437Y-148664000D01*
X219412054Y-148638047D01*
X219412050Y-148638046D01*
X219273964Y-148597500D01*
X219273961Y-148597500D01*
X219130039Y-148597500D01*
X219130036Y-148597500D01*
X218991949Y-148638046D01*
X218991945Y-148638047D01*
X218870875Y-148715855D01*
X218870868Y-148715860D01*
X218776623Y-148824626D01*
X218716834Y-148955545D01*
X218696353Y-149097999D01*
X211648562Y-149097999D01*
X211646502Y-149083671D01*
X211586714Y-148952755D01*
X211495463Y-148847445D01*
X211492468Y-148843988D01*
X211492466Y-148843987D01*
X211492465Y-148843985D01*
X211424706Y-148800439D01*
X211371391Y-148766175D01*
X211371387Y-148766174D01*
X211233301Y-148725628D01*
X211233298Y-148725628D01*
X211089376Y-148725628D01*
X211089373Y-148725628D01*
X210951286Y-148766174D01*
X210951282Y-148766175D01*
X210830212Y-148843983D01*
X210830205Y-148843988D01*
X210735960Y-148952754D01*
X210676171Y-149083673D01*
X210658224Y-149208502D01*
X210655690Y-149226128D01*
X208366172Y-149226128D01*
X208327368Y-149181346D01*
X208302572Y-149152729D01*
X208302570Y-149152728D01*
X208302569Y-149152726D01*
X208218523Y-149098713D01*
X208181495Y-149074916D01*
X208181491Y-149074915D01*
X208043405Y-149034369D01*
X208043402Y-149034369D01*
X207899480Y-149034369D01*
X207899477Y-149034369D01*
X207761390Y-149074915D01*
X207761386Y-149074916D01*
X207640316Y-149152724D01*
X207640309Y-149152729D01*
X207546064Y-149261495D01*
X207486275Y-149392414D01*
X207467346Y-149524075D01*
X207465794Y-149534869D01*
X207028854Y-149534869D01*
X207074773Y-149481875D01*
X207134561Y-149350959D01*
X207155043Y-149208502D01*
X207134561Y-149066045D01*
X207074773Y-148935129D01*
X207028910Y-148882200D01*
X206980527Y-148826362D01*
X206980525Y-148826361D01*
X206980524Y-148826359D01*
X206886876Y-148766175D01*
X206859450Y-148748549D01*
X206859446Y-148748548D01*
X206721360Y-148708002D01*
X206721357Y-148708002D01*
X206577435Y-148708002D01*
X206577433Y-148708002D01*
X206534810Y-148720516D01*
X206484293Y-148717304D01*
X206461638Y-148701839D01*
X206370833Y-148611034D01*
X206369500Y-148609629D01*
X206342020Y-148579110D01*
X206342016Y-148579107D01*
X206319764Y-148569200D01*
X206309559Y-148563659D01*
X206289131Y-148550392D01*
X206289128Y-148550391D01*
X206283017Y-148549423D01*
X206280725Y-148549060D01*
X206262212Y-148543576D01*
X206254444Y-148540118D01*
X206254443Y-148540118D01*
X206230085Y-148540118D01*
X206218510Y-148539207D01*
X206214986Y-148538649D01*
X206194447Y-148535395D01*
X206194446Y-148535395D01*
X206186232Y-148537597D01*
X206167080Y-148540118D01*
X202126775Y-148540118D01*
X202124839Y-148540067D01*
X202083819Y-148537917D01*
X202061069Y-148546649D01*
X202049944Y-148549944D01*
X202026116Y-148555009D01*
X202026114Y-148555010D01*
X202019234Y-148560009D01*
X202002269Y-148569221D01*
X201994324Y-148572271D01*
X201994322Y-148572272D01*
X201977093Y-148589501D01*
X201968267Y-148597039D01*
X201948559Y-148611358D01*
X201944306Y-148618724D01*
X201932549Y-148634045D01*
X201322252Y-149244344D01*
X201276376Y-149265736D01*
X201269926Y-149266018D01*
X200842411Y-149266018D01*
X200794845Y-149248705D01*
X200769535Y-149204868D01*
X200776477Y-149158423D01*
X200793252Y-149125499D01*
X200825988Y-149061252D01*
X200847073Y-148928126D01*
X200829139Y-148814897D01*
X200825988Y-148794999D01*
X200764797Y-148674906D01*
X200669488Y-148579597D01*
X200549395Y-148518407D01*
X200549395Y-148518406D01*
X200416269Y-148497322D01*
X200283142Y-148518406D01*
X200283142Y-148518407D01*
X200163049Y-148579597D01*
X200067740Y-148674906D01*
X200006550Y-148794999D01*
X200006549Y-148794999D01*
X199985465Y-148928126D01*
X200006550Y-149061252D01*
X200056061Y-149158423D01*
X200062230Y-149208664D01*
X200034661Y-149251117D01*
X199990127Y-149266018D01*
X199035068Y-149266018D01*
X198987502Y-149248705D01*
X198962192Y-149204868D01*
X198969134Y-149158423D01*
X198976124Y-149144705D01*
X199015874Y-149066691D01*
X199036959Y-148933565D01*
X199015874Y-148800439D01*
X199015874Y-148800438D01*
X198954683Y-148680345D01*
X198859374Y-148585036D01*
X198739281Y-148523846D01*
X198739281Y-148523845D01*
X198606155Y-148502761D01*
X198473028Y-148523845D01*
X198473028Y-148523846D01*
X198352935Y-148585036D01*
X198257626Y-148680345D01*
X198196436Y-148800438D01*
X198196435Y-148800439D01*
X198180248Y-148902644D01*
X198155707Y-148946917D01*
X198108450Y-148965057D01*
X198080636Y-148960151D01*
X198076478Y-148958554D01*
X198071014Y-148957688D01*
X198068070Y-148957222D01*
X198049557Y-148951738D01*
X198041789Y-148948280D01*
X198041788Y-148948280D01*
X198017430Y-148948280D01*
X198005855Y-148947369D01*
X198000740Y-148946559D01*
X197981792Y-148943557D01*
X197981791Y-148943557D01*
X197973577Y-148945759D01*
X197954425Y-148948280D01*
X194119948Y-148948280D01*
X194072382Y-148930967D01*
X194047072Y-148887130D01*
X194055862Y-148837280D01*
X194064022Y-148825821D01*
X194072020Y-148816591D01*
X194121074Y-148759979D01*
X194180862Y-148629063D01*
X194201344Y-148486606D01*
X194180862Y-148344149D01*
X194121074Y-148213233D01*
X194086939Y-148173839D01*
X194026828Y-148104466D01*
X194026826Y-148104465D01*
X194026825Y-148104463D01*
X194024891Y-148103220D01*
X197286219Y-148103220D01*
X197289159Y-148123671D01*
X197306700Y-148245674D01*
X197306700Y-148245675D01*
X197306701Y-148245677D01*
X197341943Y-148322846D01*
X197366489Y-148376593D01*
X197460734Y-148485359D01*
X197460735Y-148485360D01*
X197460738Y-148485363D01*
X197544521Y-148539207D01*
X197576889Y-148560009D01*
X197581813Y-148563173D01*
X197685490Y-148593615D01*
X197719901Y-148603719D01*
X197719903Y-148603720D01*
X197719905Y-148603720D01*
X197863829Y-148603720D01*
X197863830Y-148603719D01*
X198001919Y-148563173D01*
X198118268Y-148488400D01*
X207899996Y-148488400D01*
X207921080Y-148621526D01*
X207982271Y-148741619D01*
X207982272Y-148741620D01*
X208077580Y-148836928D01*
X208197673Y-148898118D01*
X208197673Y-148898119D01*
X208218758Y-148901458D01*
X208330800Y-148919204D01*
X208463926Y-148898119D01*
X208584020Y-148836928D01*
X208679328Y-148741620D01*
X208740519Y-148621526D01*
X208761604Y-148488400D01*
X208740519Y-148355274D01*
X208740519Y-148355273D01*
X208679328Y-148235180D01*
X208584019Y-148139871D01*
X208463926Y-148078681D01*
X208463926Y-148078680D01*
X208330800Y-148057596D01*
X208197673Y-148078680D01*
X208197673Y-148078681D01*
X208077580Y-148139871D01*
X207982271Y-148235180D01*
X207921081Y-148355273D01*
X207921080Y-148355273D01*
X207899996Y-148488400D01*
X198118268Y-148488400D01*
X198122994Y-148485363D01*
X198217243Y-148376593D01*
X198277031Y-148245677D01*
X198297513Y-148103220D01*
X198277031Y-147960763D01*
X198217243Y-147829847D01*
X198165722Y-147770388D01*
X198122997Y-147721080D01*
X198122995Y-147721079D01*
X198122994Y-147721077D01*
X198030474Y-147661618D01*
X198001920Y-147643267D01*
X198001916Y-147643266D01*
X197863830Y-147602720D01*
X197863827Y-147602720D01*
X197719905Y-147602720D01*
X197719902Y-147602720D01*
X197581815Y-147643266D01*
X197581811Y-147643267D01*
X197460741Y-147721075D01*
X197460734Y-147721080D01*
X197366489Y-147829846D01*
X197306700Y-147960765D01*
X197287490Y-148094381D01*
X197286219Y-148103220D01*
X194024891Y-148103220D01*
X193965527Y-148065069D01*
X193905751Y-148026653D01*
X193905747Y-148026652D01*
X193767661Y-147986106D01*
X193767658Y-147986106D01*
X193623736Y-147986106D01*
X193623733Y-147986106D01*
X193485646Y-148026652D01*
X193485638Y-148026655D01*
X193455080Y-148046294D01*
X193405705Y-148057446D01*
X193360713Y-148034250D01*
X193350231Y-148016355D01*
X193348938Y-148017014D01*
X193285103Y-147891731D01*
X193189794Y-147796422D01*
X193069701Y-147735232D01*
X193069701Y-147735231D01*
X192936575Y-147714147D01*
X192803448Y-147735231D01*
X192803448Y-147735232D01*
X192683355Y-147796422D01*
X192588046Y-147891731D01*
X192526856Y-148011824D01*
X192526855Y-148011824D01*
X192505771Y-148144951D01*
X192526855Y-148278077D01*
X192578925Y-148380268D01*
X192585094Y-148430509D01*
X192557525Y-148472962D01*
X192512991Y-148487863D01*
X190915049Y-148487863D01*
X190867483Y-148470550D01*
X190842173Y-148426713D01*
X190841807Y-148424426D01*
X190827202Y-148322844D01*
X190767414Y-148191928D01*
X190715979Y-148132568D01*
X190673168Y-148083161D01*
X190673166Y-148083160D01*
X190673165Y-148083158D01*
X190601745Y-148037259D01*
X190552091Y-148005348D01*
X190552087Y-148005347D01*
X190414001Y-147964801D01*
X190413998Y-147964801D01*
X190270076Y-147964801D01*
X190270073Y-147964801D01*
X190131986Y-148005347D01*
X190131982Y-148005348D01*
X190010912Y-148083156D01*
X190010905Y-148083161D01*
X189916660Y-148191927D01*
X189856871Y-148322846D01*
X189836390Y-148465301D01*
X189856871Y-148607755D01*
X189856871Y-148607756D01*
X189856872Y-148607758D01*
X189870705Y-148638047D01*
X189916660Y-148738674D01*
X190010905Y-148847440D01*
X190010906Y-148847441D01*
X190010909Y-148847444D01*
X190131984Y-148925254D01*
X190225645Y-148952755D01*
X190270072Y-148965800D01*
X190270074Y-148965801D01*
X190270076Y-148965801D01*
X190413999Y-148965801D01*
X190461893Y-148951738D01*
X190503095Y-148939639D01*
X190539333Y-148938260D01*
X190542165Y-148938862D01*
X190542167Y-148938863D01*
X190542169Y-148938863D01*
X190549779Y-148940481D01*
X190549126Y-148943551D01*
X190583811Y-148956176D01*
X190609121Y-149000013D01*
X190600331Y-149049863D01*
X190592177Y-149061314D01*
X190527966Y-149135419D01*
X190515974Y-149149258D01*
X190456186Y-149280175D01*
X190435705Y-149422630D01*
X190445018Y-149487411D01*
X190434650Y-149536957D01*
X190424097Y-149550267D01*
X189903540Y-150070826D01*
X189857664Y-150092218D01*
X189851214Y-150092500D01*
X187808900Y-150092500D01*
X187761334Y-150075187D01*
X187756574Y-150070826D01*
X187705219Y-150019471D01*
X187585126Y-149958281D01*
X187585126Y-149958280D01*
X187452000Y-149937196D01*
X187318873Y-149958280D01*
X187318873Y-149958281D01*
X187198780Y-150019471D01*
X187103471Y-150114780D01*
X187042281Y-150234873D01*
X187042280Y-150234873D01*
X187021196Y-150368000D01*
X187042280Y-150501126D01*
X187103104Y-150620498D01*
X187103472Y-150621220D01*
X187198780Y-150716528D01*
X187318873Y-150777718D01*
X187318873Y-150777719D01*
X187337075Y-150780601D01*
X187452000Y-150798804D01*
X187585126Y-150777719D01*
X187705220Y-150716528D01*
X187756573Y-150665174D01*
X187802450Y-150643782D01*
X187808900Y-150643500D01*
X189961562Y-150643500D01*
X189975998Y-150644921D01*
X189995982Y-150648897D01*
X189995983Y-150648897D01*
X190000604Y-150647977D01*
X190023114Y-150643500D01*
X190023115Y-150643500D01*
X190103477Y-150627515D01*
X190158074Y-150591034D01*
X190171604Y-150581994D01*
X190171603Y-150581994D01*
X190179612Y-150576644D01*
X190179619Y-150576636D01*
X190194606Y-150566624D01*
X190205930Y-150549674D01*
X190215123Y-150538473D01*
X190809168Y-149944428D01*
X190855043Y-149923037D01*
X190864098Y-149923289D01*
X190864098Y-149923130D01*
X191013315Y-149923130D01*
X191013316Y-149923129D01*
X191151405Y-149882583D01*
X191272480Y-149804773D01*
X191366729Y-149696003D01*
X191426517Y-149565087D01*
X191446999Y-149422630D01*
X191426517Y-149280173D01*
X191366729Y-149149257D01*
X191290531Y-149061320D01*
X191272468Y-149014037D01*
X191289024Y-148966202D01*
X191332455Y-148940200D01*
X191346459Y-148938863D01*
X192242804Y-148938863D01*
X192290370Y-148956176D01*
X192315680Y-149000013D01*
X192306890Y-149049863D01*
X192295130Y-149065189D01*
X192282428Y-149077890D01*
X192282427Y-149077891D01*
X192221237Y-149197984D01*
X192221236Y-149197984D01*
X192200152Y-149331110D01*
X192221236Y-149464237D01*
X192275806Y-149571335D01*
X192282428Y-149584331D01*
X192377736Y-149679639D01*
X192497829Y-149740829D01*
X192497829Y-149740830D01*
X192516031Y-149743712D01*
X192630956Y-149761915D01*
X192764082Y-149740830D01*
X192884176Y-149679639D01*
X192979484Y-149584331D01*
X193040675Y-149464237D01*
X193061760Y-149331111D01*
X193048072Y-149244691D01*
X193057730Y-149195005D01*
X193097068Y-149163149D01*
X193147680Y-149164032D01*
X193173487Y-149180791D01*
X193321060Y-149328363D01*
X193322393Y-149329768D01*
X193349873Y-149360288D01*
X193358278Y-149364030D01*
X193394689Y-149399194D01*
X193399980Y-149449535D01*
X193371673Y-149491500D01*
X193369288Y-149493162D01*
X193359237Y-149499877D01*
X193359233Y-149499881D01*
X193334304Y-149516538D01*
X193334302Y-149516540D01*
X193322981Y-149533482D01*
X193313781Y-149544692D01*
X192824477Y-150033996D01*
X192778601Y-150055388D01*
X192769548Y-150055137D01*
X192769548Y-150055296D01*
X192620331Y-150055296D01*
X192482244Y-150095842D01*
X192482240Y-150095843D01*
X192361170Y-150173651D01*
X192361163Y-150173656D01*
X192266918Y-150282422D01*
X192207129Y-150413341D01*
X192186648Y-150555795D01*
X192207129Y-150698250D01*
X192207129Y-150698251D01*
X192207130Y-150698253D01*
X192258730Y-150811240D01*
X192266918Y-150829169D01*
X192361163Y-150937935D01*
X192361164Y-150937936D01*
X192361167Y-150937939D01*
X192438353Y-150987543D01*
X192476982Y-151012369D01*
X192482242Y-151015749D01*
X192528860Y-151029437D01*
X192575247Y-151043058D01*
X192616009Y-151073070D01*
X192627943Y-151122262D01*
X192605465Y-151167616D01*
X192559092Y-151187911D01*
X192554399Y-151188060D01*
X191845079Y-151188060D01*
X191797513Y-151170747D01*
X191772203Y-151126910D01*
X191780993Y-151077060D01*
X191805071Y-151051807D01*
X191866441Y-151012368D01*
X191960690Y-150903598D01*
X192020478Y-150772682D01*
X192040960Y-150630225D01*
X192020478Y-150487768D01*
X191960690Y-150356852D01*
X191926730Y-150317660D01*
X191866444Y-150248085D01*
X191866442Y-150248084D01*
X191866441Y-150248082D01*
X191805463Y-150208894D01*
X191745367Y-150170272D01*
X191745363Y-150170271D01*
X191607277Y-150129725D01*
X191607274Y-150129725D01*
X191463352Y-150129725D01*
X191463349Y-150129725D01*
X191325262Y-150170271D01*
X191325258Y-150170272D01*
X191204188Y-150248080D01*
X191204181Y-150248085D01*
X191109936Y-150356851D01*
X191050147Y-150487770D01*
X191029770Y-150629500D01*
X191029666Y-150630225D01*
X191031575Y-150643500D01*
X191050147Y-150772679D01*
X191050147Y-150772680D01*
X191050148Y-150772682D01*
X191104207Y-150891053D01*
X191109936Y-150903598D01*
X191204181Y-151012364D01*
X191204182Y-151012365D01*
X191204185Y-151012368D01*
X191265554Y-151051807D01*
X191296210Y-151092088D01*
X191293801Y-151142649D01*
X191259456Y-151179834D01*
X191225547Y-151188060D01*
X186187248Y-151188060D01*
X186139682Y-151170747D01*
X186115771Y-151133217D01*
X186110857Y-151114882D01*
X186111760Y-151104543D01*
X186107543Y-151096266D01*
X186101999Y-151081823D01*
X186095618Y-151058010D01*
X186095615Y-151058002D01*
X186071244Y-151015792D01*
X186069287Y-151004699D01*
X186065650Y-151001062D01*
X186053893Y-150985741D01*
X186049472Y-150978083D01*
X185984213Y-150912825D01*
X185984201Y-150912818D01*
X185976556Y-150908404D01*
X185961233Y-150896646D01*
X185957749Y-150893162D01*
X185946504Y-150891053D01*
X185904293Y-150866683D01*
X185904284Y-150866679D01*
X185880472Y-150860299D01*
X185866030Y-150854756D01*
X185857863Y-150850595D01*
X185847728Y-150851525D01*
X185847486Y-150851461D01*
X185815144Y-150842795D01*
X185771673Y-150842795D01*
X185760096Y-150841884D01*
X185737564Y-150838315D01*
X185726420Y-150842761D01*
X185724164Y-150842795D01*
X183717244Y-150842795D01*
X183704841Y-150838280D01*
X183682131Y-150841882D01*
X183670542Y-150842795D01*
X183666347Y-150842795D01*
X183666081Y-150842819D01*
X183627074Y-150842819D01*
X183594803Y-150851464D01*
X183584468Y-150850559D01*
X183576193Y-150854775D01*
X183561754Y-150860317D01*
X183537939Y-150866697D01*
X183537933Y-150866699D01*
X183495715Y-150891071D01*
X183484624Y-150893025D01*
X183480989Y-150896661D01*
X183465664Y-150908419D01*
X183458017Y-150912833D01*
X183458015Y-150912834D01*
X183392752Y-150978094D01*
X183392750Y-150978096D01*
X183388332Y-150985748D01*
X183376575Y-151001070D01*
X183373092Y-151004552D01*
X183370983Y-151015796D01*
X183346609Y-151058010D01*
X183346608Y-151058014D01*
X183340227Y-151081826D01*
X183334683Y-151096267D01*
X183330521Y-151104434D01*
X183331452Y-151114568D01*
X183331369Y-151114879D01*
X183322722Y-151147147D01*
X183322721Y-151147150D01*
X183322721Y-151190623D01*
X183321810Y-151202199D01*
X183318240Y-151224734D01*
X183322687Y-151235881D01*
X183322721Y-151238139D01*
X183322721Y-152846500D01*
X183305408Y-152894066D01*
X183261571Y-152919376D01*
X183248721Y-152920500D01*
X181895610Y-152920500D01*
X181848044Y-152903187D01*
X181822734Y-152859350D01*
X181821610Y-152846500D01*
X181821610Y-152821341D01*
X181821609Y-152821334D01*
X181784985Y-152625411D01*
X181774359Y-152597984D01*
X181712983Y-152439554D01*
X181608055Y-152270090D01*
X181473774Y-152122791D01*
X181314717Y-152002676D01*
X181314715Y-152002674D01*
X181223858Y-151957433D01*
X181136290Y-151913829D01*
X181136287Y-151913828D01*
X181136285Y-151913827D01*
X180944580Y-151859283D01*
X180944567Y-151859281D01*
X180746113Y-151840892D01*
X180746107Y-151840892D01*
X180547652Y-151859281D01*
X180547639Y-151859283D01*
X180355934Y-151913827D01*
X180355930Y-151913829D01*
X180177504Y-152002674D01*
X180177502Y-152002676D01*
X180018443Y-152122793D01*
X179884163Y-152270092D01*
X179779240Y-152439549D01*
X179779235Y-152439559D01*
X179707234Y-152625411D01*
X179670610Y-152821334D01*
X179670610Y-152846500D01*
X179653297Y-152894066D01*
X179609460Y-152919376D01*
X179596610Y-152920500D01*
X178243500Y-152920500D01*
X178195934Y-152903187D01*
X178170624Y-152859350D01*
X178169500Y-152846500D01*
X178169500Y-152540835D01*
X178174099Y-152528197D01*
X178170411Y-152504908D01*
X178169500Y-152493332D01*
X178169500Y-152449854D01*
X178169499Y-152449853D01*
X178160850Y-152417573D01*
X178161753Y-152407241D01*
X178157540Y-152398972D01*
X178151997Y-152384533D01*
X178145614Y-152360712D01*
X178121238Y-152318493D01*
X178119282Y-152307401D01*
X178115647Y-152303766D01*
X178103886Y-152288439D01*
X178099470Y-152280790D01*
X178099469Y-152280788D01*
X178034212Y-152215531D01*
X178034209Y-152215529D01*
X178034208Y-152215528D01*
X178026559Y-152211112D01*
X178011233Y-152199352D01*
X178007749Y-152195868D01*
X177996504Y-152193759D01*
X177954290Y-152169387D01*
X177954285Y-152169385D01*
X177930472Y-152163004D01*
X177916031Y-152157460D01*
X177907867Y-152153300D01*
X177897732Y-152154231D01*
X177897511Y-152154172D01*
X177865144Y-152145500D01*
X177865143Y-152145500D01*
X177821673Y-152145500D01*
X177810096Y-152144589D01*
X177787564Y-152141020D01*
X177776420Y-152145466D01*
X177774164Y-152145500D01*
X176321076Y-152145500D01*
X176316936Y-152145267D01*
X176305129Y-152143937D01*
X176292646Y-152142530D01*
X176208049Y-152131392D01*
X176193269Y-152127873D01*
X176153609Y-152113996D01*
X176151680Y-152113260D01*
X176092919Y-152088920D01*
X176081873Y-152083214D01*
X176068482Y-152074800D01*
X176042498Y-152058472D01*
X176039658Y-152056497D01*
X176008313Y-152032446D01*
X175989496Y-152018007D01*
X175985858Y-152014816D01*
X175950182Y-151979140D01*
X175946994Y-151975505D01*
X175918759Y-151938709D01*
X175908501Y-151925340D01*
X175906526Y-151922500D01*
X175897739Y-151908518D01*
X175881779Y-151883117D01*
X175876082Y-151872089D01*
X175851723Y-151813281D01*
X175851015Y-151811423D01*
X175837123Y-151771722D01*
X175833607Y-151756954D01*
X175822468Y-151672343D01*
X175819733Y-151648063D01*
X175819500Y-151643918D01*
X175819500Y-150114000D01*
X182882353Y-150114000D01*
X182884059Y-150125863D01*
X182902834Y-150256454D01*
X182902834Y-150256455D01*
X182902835Y-150256457D01*
X182918709Y-150291215D01*
X182962623Y-150387373D01*
X183056868Y-150496139D01*
X183056869Y-150496140D01*
X183056872Y-150496143D01*
X183177947Y-150573953D01*
X183284403Y-150605211D01*
X183316035Y-150614499D01*
X183316037Y-150614500D01*
X183316039Y-150614500D01*
X183459963Y-150614500D01*
X183459964Y-150614499D01*
X183598053Y-150573953D01*
X183719128Y-150496143D01*
X183813377Y-150387373D01*
X183873165Y-150256457D01*
X183893647Y-150114000D01*
X183873165Y-149971543D01*
X183813377Y-149840627D01*
X183745173Y-149761915D01*
X183719131Y-149731860D01*
X183719129Y-149731859D01*
X183719128Y-149731857D01*
X183647896Y-149686079D01*
X183598054Y-149654047D01*
X183598050Y-149654046D01*
X183459964Y-149613500D01*
X183459961Y-149613500D01*
X183316039Y-149613500D01*
X183316036Y-149613500D01*
X183177949Y-149654046D01*
X183177945Y-149654047D01*
X183056875Y-149731855D01*
X183056868Y-149731860D01*
X182962623Y-149840626D01*
X182902834Y-149971545D01*
X182882885Y-150110302D01*
X182882353Y-150114000D01*
X175819500Y-150114000D01*
X175819500Y-149397925D01*
X182003813Y-149397925D01*
X182024897Y-149531051D01*
X182086088Y-149651144D01*
X182086089Y-149651145D01*
X182181397Y-149746453D01*
X182301490Y-149807643D01*
X182301490Y-149807644D01*
X182319692Y-149810526D01*
X182434617Y-149828729D01*
X182567743Y-149807644D01*
X182687837Y-149746453D01*
X182783145Y-149651145D01*
X182844336Y-149531051D01*
X182865421Y-149397925D01*
X182844529Y-149266018D01*
X182844336Y-149264798D01*
X182783145Y-149144705D01*
X182687836Y-149049396D01*
X182567743Y-148988206D01*
X182567743Y-148988205D01*
X182434617Y-148967121D01*
X182301490Y-148988205D01*
X182301490Y-148988206D01*
X182181397Y-149049396D01*
X182086088Y-149144705D01*
X182024898Y-149264798D01*
X182024897Y-149264798D01*
X182003813Y-149397925D01*
X175819500Y-149397925D01*
X175819500Y-148664000D01*
X175836813Y-148616434D01*
X175880650Y-148591124D01*
X175893500Y-148590000D01*
X179832000Y-148590000D01*
X179832000Y-148385787D01*
X182898727Y-148385787D01*
X182919811Y-148518914D01*
X182980513Y-148638047D01*
X182981003Y-148639008D01*
X183076311Y-148734316D01*
X183196404Y-148795506D01*
X183196404Y-148795507D01*
X183214606Y-148798389D01*
X183329531Y-148816592D01*
X183462657Y-148795507D01*
X183466585Y-148793505D01*
X183516822Y-148787332D01*
X183559278Y-148814897D01*
X183574082Y-148863303D01*
X183573273Y-148871006D01*
X183573072Y-148872275D01*
X183573072Y-148872279D01*
X183573072Y-148872280D01*
X183587767Y-148965057D01*
X183594157Y-149005405D01*
X183594157Y-149005406D01*
X183641335Y-149097999D01*
X183655348Y-149125500D01*
X183750656Y-149220808D01*
X183870749Y-149281998D01*
X183870749Y-149281999D01*
X183888951Y-149284881D01*
X184003876Y-149303084D01*
X184137002Y-149281999D01*
X184257096Y-149220808D01*
X184352404Y-149125500D01*
X184413595Y-149005406D01*
X184433109Y-148882200D01*
X187560671Y-148882200D01*
X187581755Y-149015326D01*
X187642946Y-149135419D01*
X187642947Y-149135420D01*
X187738255Y-149230728D01*
X187858348Y-149291918D01*
X187858348Y-149291919D01*
X187876550Y-149294801D01*
X187991475Y-149313004D01*
X188124601Y-149291919D01*
X188244695Y-149230728D01*
X188340003Y-149135420D01*
X188401194Y-149015326D01*
X188422279Y-148882200D01*
X188401194Y-148749074D01*
X188401194Y-148749073D01*
X188340003Y-148628980D01*
X188244694Y-148533671D01*
X188124601Y-148472481D01*
X188124601Y-148472480D01*
X187991475Y-148451396D01*
X187858348Y-148472480D01*
X187858348Y-148472481D01*
X187738255Y-148533671D01*
X187642946Y-148628980D01*
X187581756Y-148749073D01*
X187581755Y-148749073D01*
X187560671Y-148882200D01*
X184433109Y-148882200D01*
X184434680Y-148872280D01*
X184413986Y-148741620D01*
X184413595Y-148739153D01*
X184352404Y-148619060D01*
X184257095Y-148523751D01*
X184137002Y-148462561D01*
X184137002Y-148462560D01*
X184003876Y-148441476D01*
X183870752Y-148462560D01*
X183870750Y-148462560D01*
X183870750Y-148462561D01*
X183866814Y-148464566D01*
X183816574Y-148470733D01*
X183774122Y-148443162D01*
X183759325Y-148394755D01*
X183760135Y-148387049D01*
X183760335Y-148385788D01*
X183739250Y-148252662D01*
X183739250Y-148252661D01*
X183678059Y-148132568D01*
X183582750Y-148037259D01*
X183462657Y-147976069D01*
X183462657Y-147976068D01*
X183329531Y-147954984D01*
X183196404Y-147976068D01*
X183196404Y-147976069D01*
X183076311Y-148037259D01*
X182981002Y-148132568D01*
X182919812Y-148252661D01*
X182919811Y-148252661D01*
X182898727Y-148385787D01*
X179832000Y-148385787D01*
X179832000Y-146812000D01*
X180342353Y-146812000D01*
X180362834Y-146954454D01*
X180362834Y-146954455D01*
X180362835Y-146954457D01*
X180386420Y-147006100D01*
X180422623Y-147085373D01*
X180516868Y-147194139D01*
X180516869Y-147194140D01*
X180516872Y-147194143D01*
X180606596Y-147251805D01*
X180637397Y-147271600D01*
X180637947Y-147271953D01*
X180744403Y-147303211D01*
X180776035Y-147312499D01*
X180776037Y-147312500D01*
X180776039Y-147312500D01*
X180919963Y-147312500D01*
X180919964Y-147312499D01*
X181058053Y-147271953D01*
X181179128Y-147194143D01*
X181273377Y-147085373D01*
X181333165Y-146954457D01*
X181353647Y-146812000D01*
X181333165Y-146669543D01*
X181273377Y-146538627D01*
X181242699Y-146503222D01*
X181179131Y-146429860D01*
X181179129Y-146429859D01*
X181179128Y-146429857D01*
X181109122Y-146384867D01*
X181058054Y-146352047D01*
X181058050Y-146352046D01*
X180919964Y-146311500D01*
X180919961Y-146311500D01*
X180776039Y-146311500D01*
X180776036Y-146311500D01*
X180637949Y-146352046D01*
X180637945Y-146352047D01*
X180516875Y-146429855D01*
X180516868Y-146429860D01*
X180422623Y-146538626D01*
X180362834Y-146669545D01*
X180342353Y-146812000D01*
X179832000Y-146812000D01*
X179832000Y-146050000D01*
X181941196Y-146050000D01*
X181962280Y-146183126D01*
X182023471Y-146303219D01*
X182023472Y-146303220D01*
X182118780Y-146398528D01*
X182238873Y-146459718D01*
X182238873Y-146459719D01*
X182257544Y-146462676D01*
X182372000Y-146480804D01*
X182505126Y-146459719D01*
X182625220Y-146398528D01*
X182720528Y-146303220D01*
X182781719Y-146183126D01*
X182802804Y-146050000D01*
X182784749Y-145936003D01*
X182781719Y-145916873D01*
X182720528Y-145796780D01*
X182625219Y-145701471D01*
X182505126Y-145640281D01*
X182505126Y-145640280D01*
X182372000Y-145619196D01*
X182238873Y-145640280D01*
X182238873Y-145640281D01*
X182118780Y-145701471D01*
X182023471Y-145796780D01*
X181962281Y-145916873D01*
X181962280Y-145916873D01*
X181941196Y-146050000D01*
X179832000Y-146050000D01*
X179832000Y-145034000D01*
X177546000Y-145034000D01*
X175893500Y-145034000D01*
X175845934Y-145016687D01*
X175820624Y-144972850D01*
X175819500Y-144960000D01*
X175819500Y-144714473D01*
X182071107Y-144714473D01*
X182092191Y-144847599D01*
X182149463Y-144960000D01*
X182153383Y-144967693D01*
X182248691Y-145063001D01*
X182368784Y-145124191D01*
X182368784Y-145124192D01*
X182389869Y-145127531D01*
X182501911Y-145145277D01*
X182635037Y-145124192D01*
X182755131Y-145063001D01*
X182850439Y-144967693D01*
X182865460Y-144938211D01*
X182902479Y-144903692D01*
X182953028Y-144901042D01*
X182978959Y-144915122D01*
X182997858Y-144930980D01*
X183000227Y-144933151D01*
X185657994Y-147590919D01*
X185679386Y-147636795D01*
X185678757Y-147654819D01*
X185675082Y-147678026D01*
X185675082Y-147678028D01*
X185696166Y-147811155D01*
X185757357Y-147931248D01*
X185757358Y-147931249D01*
X185852666Y-148026557D01*
X185972759Y-148087747D01*
X185972759Y-148087748D01*
X185997811Y-148091715D01*
X186105886Y-148108833D01*
X186113550Y-148107619D01*
X186137972Y-148107832D01*
X186139687Y-148108134D01*
X186147462Y-148109505D01*
X186150590Y-148110199D01*
X186190746Y-148120959D01*
X186190746Y-148120958D01*
X186190747Y-148120959D01*
X186198559Y-148120275D01*
X186232151Y-148117336D01*
X186235370Y-148117196D01*
X188367407Y-148117196D01*
X188414973Y-148134509D01*
X188423328Y-148142731D01*
X188450283Y-148173839D01*
X188542885Y-148233350D01*
X188562060Y-148245674D01*
X188571358Y-148251649D01*
X188661365Y-148278077D01*
X188709446Y-148292195D01*
X188709448Y-148292196D01*
X188709450Y-148292196D01*
X188853374Y-148292196D01*
X188853375Y-148292195D01*
X188991464Y-148251649D01*
X189112539Y-148173839D01*
X189206788Y-148065069D01*
X189266576Y-147934153D01*
X189287058Y-147791696D01*
X189266576Y-147649239D01*
X189206788Y-147518323D01*
X189186310Y-147494690D01*
X191716664Y-147494690D01*
X191737748Y-147627816D01*
X191792480Y-147735232D01*
X191798940Y-147747910D01*
X191894248Y-147843218D01*
X192014341Y-147904408D01*
X192014341Y-147904409D01*
X192035426Y-147907748D01*
X192147468Y-147925494D01*
X192280594Y-147904409D01*
X192400688Y-147843218D01*
X192495996Y-147747910D01*
X192557187Y-147627816D01*
X192578272Y-147494690D01*
X192557187Y-147361564D01*
X192557187Y-147361563D01*
X192495996Y-147241470D01*
X192400687Y-147146161D01*
X192280594Y-147084971D01*
X192280594Y-147084970D01*
X192147468Y-147063886D01*
X192014341Y-147084970D01*
X192014341Y-147084971D01*
X191894248Y-147146161D01*
X191798939Y-147241470D01*
X191737749Y-147361563D01*
X191737748Y-147361563D01*
X191716664Y-147494690D01*
X189186310Y-147494690D01*
X189183225Y-147491130D01*
X189112542Y-147409556D01*
X189112540Y-147409555D01*
X189112539Y-147409553D01*
X189042001Y-147364221D01*
X188991465Y-147331743D01*
X188991461Y-147331742D01*
X188853375Y-147291196D01*
X188853372Y-147291196D01*
X188709450Y-147291196D01*
X188709447Y-147291196D01*
X188571360Y-147331742D01*
X188571356Y-147331743D01*
X188466945Y-147398845D01*
X188450283Y-147409553D01*
X188423331Y-147440656D01*
X188379099Y-147465266D01*
X188367407Y-147466196D01*
X187147873Y-147466196D01*
X187100307Y-147448883D01*
X187074997Y-147405046D01*
X187081937Y-147358603D01*
X187133915Y-147256592D01*
X187155000Y-147123466D01*
X187133915Y-146990340D01*
X187133915Y-146990339D01*
X187072724Y-146870246D01*
X186977415Y-146774937D01*
X186857322Y-146713747D01*
X186857322Y-146713746D01*
X186724196Y-146692662D01*
X186591069Y-146713746D01*
X186591069Y-146713747D01*
X186470976Y-146774937D01*
X186375667Y-146870246D01*
X186314477Y-146990339D01*
X186314476Y-146990339D01*
X186293392Y-147123466D01*
X186293392Y-147127011D01*
X186276079Y-147174577D01*
X186232242Y-147199887D01*
X186182392Y-147191097D01*
X186167066Y-147179337D01*
X184599404Y-145611675D01*
X185988170Y-145611675D01*
X186009254Y-145744802D01*
X186070445Y-145864895D01*
X186070446Y-145864896D01*
X186165754Y-145960204D01*
X186285847Y-146021394D01*
X186285847Y-146021395D01*
X186300395Y-146023699D01*
X186418974Y-146042480D01*
X186552100Y-146021395D01*
X186672194Y-145960204D01*
X186767502Y-145864896D01*
X186828693Y-145744802D01*
X186849778Y-145611676D01*
X186828693Y-145478550D01*
X186828693Y-145478549D01*
X186767502Y-145358456D01*
X186672193Y-145263147D01*
X186552100Y-145201957D01*
X186552100Y-145201956D01*
X186418974Y-145180872D01*
X186285847Y-145201956D01*
X186285847Y-145201957D01*
X186165754Y-145263147D01*
X186070445Y-145358456D01*
X186009255Y-145478549D01*
X186009254Y-145478549D01*
X185988170Y-145611675D01*
X184599404Y-145611675D01*
X183566374Y-144578645D01*
X183544982Y-144532769D01*
X183544700Y-144526319D01*
X183544700Y-144264227D01*
X184514246Y-144264227D01*
X184535330Y-144397353D01*
X184596521Y-144517446D01*
X184596522Y-144517447D01*
X184691830Y-144612755D01*
X184811923Y-144673945D01*
X184811923Y-144673946D01*
X184830125Y-144676828D01*
X184945050Y-144695031D01*
X185078176Y-144673946D01*
X185198270Y-144612755D01*
X185293578Y-144517447D01*
X185346196Y-144414179D01*
X186502527Y-144414179D01*
X186523611Y-144547305D01*
X186542140Y-144583669D01*
X186584803Y-144667399D01*
X186680111Y-144762707D01*
X186800204Y-144823897D01*
X186800204Y-144823898D01*
X186821289Y-144827237D01*
X186933331Y-144844983D01*
X187066457Y-144823898D01*
X187186551Y-144762707D01*
X187281859Y-144667399D01*
X187343050Y-144547305D01*
X187364135Y-144414179D01*
X187343050Y-144281053D01*
X187343050Y-144281052D01*
X187281859Y-144160959D01*
X187186550Y-144065650D01*
X187066457Y-144004460D01*
X187066457Y-144004459D01*
X186933331Y-143983375D01*
X186800204Y-144004459D01*
X186800204Y-144004460D01*
X186680111Y-144065650D01*
X186584802Y-144160959D01*
X186523612Y-144281052D01*
X186523611Y-144281052D01*
X186502527Y-144414179D01*
X185346196Y-144414179D01*
X185354769Y-144397353D01*
X185375854Y-144264227D01*
X185354769Y-144131101D01*
X185354769Y-144131100D01*
X185293578Y-144011007D01*
X185198269Y-143915698D01*
X185078176Y-143854508D01*
X185078176Y-143854507D01*
X184945050Y-143833423D01*
X184811923Y-143854507D01*
X184811923Y-143854508D01*
X184691830Y-143915698D01*
X184596521Y-144011007D01*
X184535331Y-144131100D01*
X184535330Y-144131100D01*
X184514246Y-144264227D01*
X183544700Y-144264227D01*
X183544700Y-144154079D01*
X183562013Y-144106513D01*
X183562704Y-144105700D01*
X183644577Y-144011214D01*
X183704365Y-143880298D01*
X183724847Y-143737841D01*
X183704365Y-143595384D01*
X183644577Y-143464468D01*
X183584369Y-143394984D01*
X183550331Y-143355701D01*
X183550329Y-143355700D01*
X183550328Y-143355698D01*
X183474420Y-143306915D01*
X183429254Y-143277888D01*
X183429250Y-143277887D01*
X183291164Y-143237341D01*
X183291161Y-143237341D01*
X183147239Y-143237341D01*
X183147236Y-143237341D01*
X183009149Y-143277887D01*
X183009145Y-143277888D01*
X182888075Y-143355696D01*
X182888068Y-143355701D01*
X182793823Y-143464467D01*
X182734034Y-143595386D01*
X182713553Y-143737841D01*
X182734034Y-143880295D01*
X182734034Y-143880296D01*
X182734035Y-143880298D01*
X182773412Y-143966520D01*
X182790738Y-144004460D01*
X182793823Y-144011214D01*
X182875626Y-144105621D01*
X182893691Y-144152905D01*
X182893700Y-144154079D01*
X182893700Y-144325862D01*
X182876387Y-144373428D01*
X182832550Y-144398738D01*
X182782700Y-144389948D01*
X182767374Y-144378188D01*
X182755130Y-144365944D01*
X182635037Y-144304754D01*
X182635037Y-144304753D01*
X182501911Y-144283669D01*
X182368784Y-144304753D01*
X182368784Y-144304754D01*
X182248691Y-144365944D01*
X182153382Y-144461253D01*
X182092192Y-144581346D01*
X182092191Y-144581346D01*
X182071107Y-144714473D01*
X175819500Y-144714473D01*
X175819500Y-142042670D01*
X175819733Y-142038526D01*
X175820357Y-142032983D01*
X175822482Y-142014118D01*
X175833598Y-141929659D01*
X175837108Y-141914915D01*
X175851080Y-141874987D01*
X175851769Y-141873182D01*
X175876060Y-141814540D01*
X175881752Y-141803525D01*
X175906601Y-141763979D01*
X175908542Y-141761188D01*
X175946947Y-141711138D01*
X175950128Y-141707513D01*
X175985941Y-141671701D01*
X175989538Y-141668547D01*
X176039579Y-141630150D01*
X176042382Y-141628199D01*
X176081938Y-141603345D01*
X176092955Y-141597653D01*
X176151577Y-141573371D01*
X176153367Y-141572687D01*
X176193332Y-141558703D01*
X176208079Y-141555192D01*
X176292108Y-141544129D01*
X176311283Y-141541969D01*
X176317023Y-141541323D01*
X176321167Y-141541090D01*
X177773836Y-141541090D01*
X177786568Y-141545724D01*
X177810030Y-141542010D01*
X177821599Y-141541100D01*
X177865145Y-141541099D01*
X177868873Y-141540100D01*
X177897423Y-141532450D01*
X177907755Y-141533353D01*
X177916025Y-141529140D01*
X177930462Y-141523597D01*
X177954290Y-141517213D01*
X177996511Y-141492835D01*
X178007601Y-141490879D01*
X178011235Y-141487246D01*
X178026558Y-141475487D01*
X178034215Y-141471067D01*
X178099473Y-141405807D01*
X178103891Y-141398152D01*
X178115653Y-141382824D01*
X178119132Y-141379344D01*
X178121242Y-141368100D01*
X178122833Y-141365344D01*
X178145616Y-141325881D01*
X178152001Y-141302048D01*
X178157543Y-141287613D01*
X178161700Y-141279454D01*
X178160769Y-141269327D01*
X178160793Y-141269233D01*
X178169501Y-141236735D01*
X178169500Y-141193259D01*
X178170411Y-141181683D01*
X178173979Y-141159149D01*
X178169534Y-141148004D01*
X178169500Y-141145750D01*
X178169500Y-140840090D01*
X178186813Y-140792524D01*
X178230650Y-140767214D01*
X178243500Y-140766090D01*
X179596610Y-140766090D01*
X179644176Y-140783403D01*
G37*
%TD.AperFunction*%
%TD*%
M02*
