M48
; DRILL file {KiCad 7.0.6} date Mon Aug 14 23:22:33 2023
; FORMAT={-:-/ absolute / inch / decimal}
; #@! TF.CreationDate,2023-08-14T23:22:33-07:00
; #@! TF.GenerationSoftware,Kicad,Pcbnew,7.0.6
; #@! TF.FileFunction,Plated,1,4,PTH
FMAT,2
INCH
; #@! TA.AperFunction,Plated,PTH,ViaDrill
T1C0.0138
; #@! TA.AperFunction,Plated,PTH,ViaDrill
T2C0.0157
; #@! TA.AperFunction,Plated,PTH,ComponentDrill
T3C0.0236
%
G90
G05
T1
X7.18Y-5.75
X7.1825Y-5.8818
X7.1851Y-5.6974
X7.2177Y-5.842
X7.2442Y-5.8611
X7.2813Y-5.6797
X7.327Y-5.8141
X7.3393Y-5.7327
X7.3513Y-5.7923
X7.3596Y-5.6856
X7.38Y-5.92
X7.4012Y-5.8615
X7.5649Y-5.8069
X7.5839Y-5.8792
X7.5959Y-5.8325
X7.6338Y-5.9206
X7.7174Y-5.9272
X7.7581Y-5.614
X7.8191Y-5.8635
X7.8608Y-5.665
X7.8853Y-5.6817
X7.8904Y-5.8633
X7.9172Y-5.5973
X7.9446Y-5.5932
X7.9482Y-5.8205
X7.9716Y-5.7638
X7.9841Y-5.5985
X7.9883Y-5.632
X8.0655Y-5.8787
X8.0968Y-5.8824
X8.1752Y-5.6573
X8.4105Y-5.8619
T2
X7.12Y-5.78
X7.2134Y-5.659
X7.22Y-5.91
X7.3152Y-5.8934
X7.3476Y-5.6327
X7.4323Y-5.8186
X7.4938Y-5.8451
X7.5174Y-5.8828
X7.5279Y-5.6346
X7.5322Y-5.7658
X7.5408Y-5.9303
X7.5863Y-5.9274
X7.5867Y-5.6377
X7.6258Y-5.8459
X7.7351Y-5.7776
X7.7871Y-5.8308
X7.8Y-5.78
X7.9Y-5.78
X7.92Y-5.97
X7.97Y-5.95
X8.116Y-5.6842
X8.1302Y-5.6288
X8.134Y-5.8711
X8.1398Y-5.9322
X8.1879Y-5.8872
X8.2025Y-5.6715
X8.2035Y-5.8027
X8.3134Y-5.875
X8.3209Y-5.7221
X8.3214Y-5.9163
X8.3472Y-5.6463
X8.3756Y-5.9288
X8.3865Y-5.6423
X8.444Y-5.879
X8.63Y-5.87
T3
G00X8.503Y-5.6107
M15
G01X8.5463Y-5.6107
M16
G05
G00X8.503Y-5.9508
M15
G01X8.5463Y-5.9508
M16
G05
G00X8.6735Y-5.6107
M15
G01X8.705Y-5.6107
M16
G05
G00X8.6735Y-5.9508
M15
G01X8.705Y-5.9508
M16
G05
T0
M30
