%TF.GenerationSoftware,KiCad,Pcbnew,7.0.6*%
%TF.CreationDate,2023-08-14T23:22:35-07:00*%
%TF.ProjectId,GCP-2,4743502d-322e-46b6-9963-61645f706362,rev?*%
%TF.SameCoordinates,Original*%
%TF.FileFunction,Drillmap*%
%TF.FilePolarity,Positive*%
%FSLAX45Y45*%
G04 Gerber Fmt 4.5, Leading zero omitted, Abs format (unit mm)*
G04 Created by KiCad (PCBNEW 7.0.6) date 2023-08-14 23:22:35*
%MOMM*%
%LPD*%
G01*
G04 APERTURE LIST*
%ADD10C,0.100000*%
%ADD11C,0.200000*%
%ADD12C,0.065000*%
G04 APERTURE END LIST*
D10*
X22111878Y-14076559D02*
X22111878Y-15292100D01*
X19236900Y-15984330D02*
G75*
G03*
X19311900Y-15909329I0J75000D01*
G01*
X21561478Y-14284328D02*
G75*
G03*
X21596478Y-14249329I2J34998D01*
G01*
X18182111Y-15292100D02*
G75*
G03*
X17967111Y-15292100I-107500J0D01*
G01*
X20337321Y-14249329D02*
G75*
G03*
X20372322Y-14284329I35000J-1D01*
G01*
X17631900Y-14154060D02*
G75*
G03*
X17581900Y-14204059I0J-50000D01*
G01*
X20372322Y-15084332D02*
G75*
G03*
X20337322Y-15119329I-2J-34998D01*
G01*
X17781900Y-14154059D02*
X17631900Y-14154059D01*
X21316900Y-13459329D02*
X21316900Y-14249329D01*
X21241900Y-15984330D02*
G75*
G03*
X21316900Y-15909329I0J75000D01*
G01*
X18367322Y-15084332D02*
G75*
G03*
X18332322Y-15119329I-2J-34998D01*
G01*
X18576900Y-14284330D02*
G75*
G03*
X18611900Y-14249329I0J35000D01*
G01*
X17816900Y-15249600D02*
G75*
G03*
X17781900Y-15214600I-35000J0D01*
G01*
X20616901Y-15909329D02*
G75*
G03*
X20691900Y-15984329I75000J-1D01*
G01*
X18686900Y-13384329D02*
X19236900Y-13384329D01*
X21746683Y-14076559D02*
G75*
G03*
X21961683Y-14076559I107500J0D01*
G01*
X17816900Y-14119059D02*
X17816900Y-14076559D01*
X19236900Y-15984329D02*
X18686900Y-15984329D01*
X18611900Y-15909329D02*
X18611900Y-15119329D01*
X19311901Y-14249329D02*
G75*
G03*
X19346900Y-14284329I35000J-1D01*
G01*
X21961683Y-14076559D02*
X22111878Y-14076559D01*
X20581900Y-15084329D02*
X20372322Y-15084329D01*
X21316900Y-15119329D02*
X21316900Y-15909329D01*
X18332322Y-15119329D02*
X18332322Y-15292100D01*
X18576900Y-15084329D02*
X18367322Y-15084329D01*
X19591478Y-15214600D02*
X20337322Y-15214600D01*
X20616900Y-15909329D02*
X20616900Y-15119329D01*
X18367322Y-14284329D02*
X18576900Y-14284329D01*
X17816900Y-15249600D02*
X17816900Y-15292100D01*
X18332321Y-14249329D02*
G75*
G03*
X18367322Y-14284329I35000J-1D01*
G01*
X18611901Y-15909329D02*
G75*
G03*
X18686900Y-15984329I75000J-1D01*
G01*
X21596481Y-15119329D02*
G75*
G03*
X21561478Y-15084329I-35001J-1D01*
G01*
X19591478Y-14249329D02*
X19591478Y-14154059D01*
X17781900Y-15214600D02*
X17631900Y-15214600D01*
X21596478Y-14249329D02*
X21596478Y-14076559D01*
X19591478Y-15214600D02*
X19591478Y-15119329D01*
X21351900Y-14284329D02*
X21561478Y-14284329D01*
X21746689Y-15292100D02*
X21596478Y-15292100D01*
X17967111Y-14076559D02*
G75*
G03*
X18182111Y-14076559I107500J0D01*
G01*
X20337322Y-15119329D02*
X20337322Y-15214600D01*
X17967111Y-15292100D02*
X17816900Y-15292100D01*
X21351900Y-15084330D02*
G75*
G03*
X21316900Y-15119329I0J-35000D01*
G01*
X20691900Y-13384329D02*
X21241900Y-13384329D01*
X17781900Y-14154060D02*
G75*
G03*
X17816900Y-14119059I0J35000D01*
G01*
X21316901Y-14249329D02*
G75*
G03*
X21351900Y-14284329I35000J-1D01*
G01*
X21561478Y-15084329D02*
X21351900Y-15084329D01*
X19346900Y-14284329D02*
X19556478Y-14284329D01*
X19311900Y-15119329D02*
X19311900Y-15909329D01*
X18611900Y-14249329D02*
X18611900Y-13459329D01*
X18182111Y-15292100D02*
X18332322Y-15292100D01*
X20616901Y-15119329D02*
G75*
G03*
X20581900Y-15084329I-35001J-1D01*
G01*
X17581900Y-15164600D02*
G75*
G03*
X17631900Y-15214600I50000J0D01*
G01*
X21961689Y-15292100D02*
G75*
G03*
X21746689Y-15292100I-107500J0D01*
G01*
X21316901Y-13459329D02*
G75*
G03*
X21241900Y-13384329I-75001J-1D01*
G01*
X20616900Y-14249329D02*
X20616900Y-13459329D01*
X19556478Y-14284328D02*
G75*
G03*
X19591478Y-14249329I2J34998D01*
G01*
X19591481Y-15119329D02*
G75*
G03*
X19556478Y-15084329I-35001J-1D01*
G01*
X19346900Y-15084330D02*
G75*
G03*
X19311900Y-15119329I0J-35000D01*
G01*
X19311901Y-13459329D02*
G75*
G03*
X19236900Y-13384329I-75001J-1D01*
G01*
X18686900Y-13384330D02*
G75*
G03*
X18611900Y-13459329I0J-75000D01*
G01*
X21728878Y-14395329D02*
G75*
G03*
X21728878Y-14395329I-25000J0D01*
G01*
X18182111Y-14076559D02*
X18332322Y-14076559D01*
X20337322Y-14154059D02*
X20337322Y-14249329D01*
X20581900Y-14284330D02*
G75*
G03*
X20616900Y-14249329I0J35000D01*
G01*
X18332322Y-14076559D02*
X18332322Y-14249329D01*
X20372322Y-14284329D02*
X20581900Y-14284329D01*
X21961689Y-15292100D02*
X22111878Y-15292100D01*
X18611901Y-15119329D02*
G75*
G03*
X18576900Y-15084329I-35001J-1D01*
G01*
X20691900Y-13384330D02*
G75*
G03*
X20616900Y-13459329I0J-75000D01*
G01*
X17581900Y-14204059D02*
X17581900Y-15164600D01*
X21596478Y-15292100D02*
X21596478Y-15119329D01*
X17967111Y-14076559D02*
X17816900Y-14076559D01*
X19556478Y-15084329D02*
X19346900Y-15084329D01*
X21728878Y-14973329D02*
G75*
G03*
X21728878Y-14973329I-25000J0D01*
G01*
X20337322Y-14154059D02*
X19591478Y-14154059D01*
X19311900Y-13459329D02*
X19311900Y-14249329D01*
X17929400Y-14684329D02*
G75*
G03*
X17929400Y-14684329I-112500J0D01*
G01*
X21746683Y-14076559D02*
X21596478Y-14076559D01*
X21241900Y-15984329D02*
X20691900Y-15984329D01*
D11*
D12*
X21670119Y-14361595D02*
X21735119Y-14426595D01*
X21735119Y-14361595D02*
X21670119Y-14426595D01*
X21670119Y-14939595D02*
X21735119Y-15004595D01*
X21735119Y-14939595D02*
X21670119Y-15004595D01*
D11*
X17837677Y-16300813D02*
X17837677Y-16100813D01*
X17837677Y-16100813D02*
X17885296Y-16100813D01*
X17885296Y-16100813D02*
X17913867Y-16110337D01*
X17913867Y-16110337D02*
X17932915Y-16129385D01*
X17932915Y-16129385D02*
X17942439Y-16148432D01*
X17942439Y-16148432D02*
X17951963Y-16186527D01*
X17951963Y-16186527D02*
X17951963Y-16215099D01*
X17951963Y-16215099D02*
X17942439Y-16253194D01*
X17942439Y-16253194D02*
X17932915Y-16272242D01*
X17932915Y-16272242D02*
X17913867Y-16291289D01*
X17913867Y-16291289D02*
X17885296Y-16300813D01*
X17885296Y-16300813D02*
X17837677Y-16300813D01*
X18037677Y-16300813D02*
X18037677Y-16167480D01*
X18037677Y-16205575D02*
X18047201Y-16186527D01*
X18047201Y-16186527D02*
X18056724Y-16177004D01*
X18056724Y-16177004D02*
X18075772Y-16167480D01*
X18075772Y-16167480D02*
X18094820Y-16167480D01*
X18161486Y-16300813D02*
X18161486Y-16167480D01*
X18161486Y-16100813D02*
X18151963Y-16110337D01*
X18151963Y-16110337D02*
X18161486Y-16119861D01*
X18161486Y-16119861D02*
X18171010Y-16110337D01*
X18171010Y-16110337D02*
X18161486Y-16100813D01*
X18161486Y-16100813D02*
X18161486Y-16119861D01*
X18285296Y-16300813D02*
X18266248Y-16291289D01*
X18266248Y-16291289D02*
X18256724Y-16272242D01*
X18256724Y-16272242D02*
X18256724Y-16100813D01*
X18390058Y-16300813D02*
X18371010Y-16291289D01*
X18371010Y-16291289D02*
X18361486Y-16272242D01*
X18361486Y-16272242D02*
X18361486Y-16100813D01*
X18618629Y-16300813D02*
X18618629Y-16100813D01*
X18618629Y-16100813D02*
X18685296Y-16243670D01*
X18685296Y-16243670D02*
X18751963Y-16100813D01*
X18751963Y-16100813D02*
X18751963Y-16300813D01*
X18932915Y-16300813D02*
X18932915Y-16196051D01*
X18932915Y-16196051D02*
X18923391Y-16177004D01*
X18923391Y-16177004D02*
X18904344Y-16167480D01*
X18904344Y-16167480D02*
X18866248Y-16167480D01*
X18866248Y-16167480D02*
X18847201Y-16177004D01*
X18932915Y-16291289D02*
X18913867Y-16300813D01*
X18913867Y-16300813D02*
X18866248Y-16300813D01*
X18866248Y-16300813D02*
X18847201Y-16291289D01*
X18847201Y-16291289D02*
X18837677Y-16272242D01*
X18837677Y-16272242D02*
X18837677Y-16253194D01*
X18837677Y-16253194D02*
X18847201Y-16234147D01*
X18847201Y-16234147D02*
X18866248Y-16224623D01*
X18866248Y-16224623D02*
X18913867Y-16224623D01*
X18913867Y-16224623D02*
X18932915Y-16215099D01*
X19028153Y-16167480D02*
X19028153Y-16367480D01*
X19028153Y-16177004D02*
X19047201Y-16167480D01*
X19047201Y-16167480D02*
X19085296Y-16167480D01*
X19085296Y-16167480D02*
X19104344Y-16177004D01*
X19104344Y-16177004D02*
X19113867Y-16186527D01*
X19113867Y-16186527D02*
X19123391Y-16205575D01*
X19123391Y-16205575D02*
X19123391Y-16262718D01*
X19123391Y-16262718D02*
X19113867Y-16281766D01*
X19113867Y-16281766D02*
X19104344Y-16291289D01*
X19104344Y-16291289D02*
X19085296Y-16300813D01*
X19085296Y-16300813D02*
X19047201Y-16300813D01*
X19047201Y-16300813D02*
X19028153Y-16291289D01*
X19209105Y-16281766D02*
X19218629Y-16291289D01*
X19218629Y-16291289D02*
X19209105Y-16300813D01*
X19209105Y-16300813D02*
X19199582Y-16291289D01*
X19199582Y-16291289D02*
X19209105Y-16281766D01*
X19209105Y-16281766D02*
X19209105Y-16300813D01*
X19209105Y-16177004D02*
X19218629Y-16186527D01*
X19218629Y-16186527D02*
X19209105Y-16196051D01*
X19209105Y-16196051D02*
X19199582Y-16186527D01*
X19199582Y-16186527D02*
X19209105Y-16177004D01*
X19209105Y-16177004D02*
X19209105Y-16196051D01*
D12*
X17511900Y-16596829D02*
X17576900Y-16661829D01*
X17576900Y-16596829D02*
X17511900Y-16661829D01*
D11*
X17875772Y-16520813D02*
X17894820Y-16520813D01*
X17894820Y-16520813D02*
X17913867Y-16530337D01*
X17913867Y-16530337D02*
X17923391Y-16539861D01*
X17923391Y-16539861D02*
X17932915Y-16558908D01*
X17932915Y-16558908D02*
X17942439Y-16597004D01*
X17942439Y-16597004D02*
X17942439Y-16644623D01*
X17942439Y-16644623D02*
X17932915Y-16682718D01*
X17932915Y-16682718D02*
X17923391Y-16701766D01*
X17923391Y-16701766D02*
X17913867Y-16711289D01*
X17913867Y-16711289D02*
X17894820Y-16720813D01*
X17894820Y-16720813D02*
X17875772Y-16720813D01*
X17875772Y-16720813D02*
X17856724Y-16711289D01*
X17856724Y-16711289D02*
X17847201Y-16701766D01*
X17847201Y-16701766D02*
X17837677Y-16682718D01*
X17837677Y-16682718D02*
X17828153Y-16644623D01*
X17828153Y-16644623D02*
X17828153Y-16597004D01*
X17828153Y-16597004D02*
X17837677Y-16558908D01*
X17837677Y-16558908D02*
X17847201Y-16539861D01*
X17847201Y-16539861D02*
X17856724Y-16530337D01*
X17856724Y-16530337D02*
X17875772Y-16520813D01*
X18028153Y-16701766D02*
X18037677Y-16711289D01*
X18037677Y-16711289D02*
X18028153Y-16720813D01*
X18028153Y-16720813D02*
X18018629Y-16711289D01*
X18018629Y-16711289D02*
X18028153Y-16701766D01*
X18028153Y-16701766D02*
X18028153Y-16720813D01*
X18209105Y-16520813D02*
X18171010Y-16520813D01*
X18171010Y-16520813D02*
X18151963Y-16530337D01*
X18151963Y-16530337D02*
X18142439Y-16539861D01*
X18142439Y-16539861D02*
X18123391Y-16568432D01*
X18123391Y-16568432D02*
X18113867Y-16606527D01*
X18113867Y-16606527D02*
X18113867Y-16682718D01*
X18113867Y-16682718D02*
X18123391Y-16701766D01*
X18123391Y-16701766D02*
X18132915Y-16711289D01*
X18132915Y-16711289D02*
X18151963Y-16720813D01*
X18151963Y-16720813D02*
X18190058Y-16720813D01*
X18190058Y-16720813D02*
X18209105Y-16711289D01*
X18209105Y-16711289D02*
X18218629Y-16701766D01*
X18218629Y-16701766D02*
X18228153Y-16682718D01*
X18228153Y-16682718D02*
X18228153Y-16635099D01*
X18228153Y-16635099D02*
X18218629Y-16616051D01*
X18218629Y-16616051D02*
X18209105Y-16606527D01*
X18209105Y-16606527D02*
X18190058Y-16597004D01*
X18190058Y-16597004D02*
X18151963Y-16597004D01*
X18151963Y-16597004D02*
X18132915Y-16606527D01*
X18132915Y-16606527D02*
X18123391Y-16616051D01*
X18123391Y-16616051D02*
X18113867Y-16635099D01*
X18409105Y-16520813D02*
X18313867Y-16520813D01*
X18313867Y-16520813D02*
X18304344Y-16616051D01*
X18304344Y-16616051D02*
X18313867Y-16606527D01*
X18313867Y-16606527D02*
X18332915Y-16597004D01*
X18332915Y-16597004D02*
X18380534Y-16597004D01*
X18380534Y-16597004D02*
X18399582Y-16606527D01*
X18399582Y-16606527D02*
X18409105Y-16616051D01*
X18409105Y-16616051D02*
X18418629Y-16635099D01*
X18418629Y-16635099D02*
X18418629Y-16682718D01*
X18418629Y-16682718D02*
X18409105Y-16701766D01*
X18409105Y-16701766D02*
X18399582Y-16711289D01*
X18399582Y-16711289D02*
X18380534Y-16720813D01*
X18380534Y-16720813D02*
X18332915Y-16720813D01*
X18332915Y-16720813D02*
X18313867Y-16711289D01*
X18313867Y-16711289D02*
X18304344Y-16701766D01*
X18542439Y-16520813D02*
X18561486Y-16520813D01*
X18561486Y-16520813D02*
X18580534Y-16530337D01*
X18580534Y-16530337D02*
X18590058Y-16539861D01*
X18590058Y-16539861D02*
X18599582Y-16558908D01*
X18599582Y-16558908D02*
X18609105Y-16597004D01*
X18609105Y-16597004D02*
X18609105Y-16644623D01*
X18609105Y-16644623D02*
X18599582Y-16682718D01*
X18599582Y-16682718D02*
X18590058Y-16701766D01*
X18590058Y-16701766D02*
X18580534Y-16711289D01*
X18580534Y-16711289D02*
X18561486Y-16720813D01*
X18561486Y-16720813D02*
X18542439Y-16720813D01*
X18542439Y-16720813D02*
X18523391Y-16711289D01*
X18523391Y-16711289D02*
X18513867Y-16701766D01*
X18513867Y-16701766D02*
X18504344Y-16682718D01*
X18504344Y-16682718D02*
X18494820Y-16644623D01*
X18494820Y-16644623D02*
X18494820Y-16597004D01*
X18494820Y-16597004D02*
X18504344Y-16558908D01*
X18504344Y-16558908D02*
X18513867Y-16539861D01*
X18513867Y-16539861D02*
X18523391Y-16530337D01*
X18523391Y-16530337D02*
X18542439Y-16520813D01*
X18694820Y-16720813D02*
X18694820Y-16587480D01*
X18694820Y-16606527D02*
X18704344Y-16597004D01*
X18704344Y-16597004D02*
X18723391Y-16587480D01*
X18723391Y-16587480D02*
X18751963Y-16587480D01*
X18751963Y-16587480D02*
X18771010Y-16597004D01*
X18771010Y-16597004D02*
X18780534Y-16616051D01*
X18780534Y-16616051D02*
X18780534Y-16720813D01*
X18780534Y-16616051D02*
X18790058Y-16597004D01*
X18790058Y-16597004D02*
X18809105Y-16587480D01*
X18809105Y-16587480D02*
X18837677Y-16587480D01*
X18837677Y-16587480D02*
X18856725Y-16597004D01*
X18856725Y-16597004D02*
X18866248Y-16616051D01*
X18866248Y-16616051D02*
X18866248Y-16720813D01*
X18961486Y-16720813D02*
X18961486Y-16587480D01*
X18961486Y-16606527D02*
X18971010Y-16597004D01*
X18971010Y-16597004D02*
X18990058Y-16587480D01*
X18990058Y-16587480D02*
X19018629Y-16587480D01*
X19018629Y-16587480D02*
X19037677Y-16597004D01*
X19037677Y-16597004D02*
X19047201Y-16616051D01*
X19047201Y-16616051D02*
X19047201Y-16720813D01*
X19047201Y-16616051D02*
X19056725Y-16597004D01*
X19056725Y-16597004D02*
X19075772Y-16587480D01*
X19075772Y-16587480D02*
X19104344Y-16587480D01*
X19104344Y-16587480D02*
X19123391Y-16597004D01*
X19123391Y-16597004D02*
X19132915Y-16616051D01*
X19132915Y-16616051D02*
X19132915Y-16720813D01*
X19523391Y-16511289D02*
X19351963Y-16768432D01*
X19780534Y-16520813D02*
X19799582Y-16520813D01*
X19799582Y-16520813D02*
X19818629Y-16530337D01*
X19818629Y-16530337D02*
X19828153Y-16539861D01*
X19828153Y-16539861D02*
X19837677Y-16558908D01*
X19837677Y-16558908D02*
X19847201Y-16597004D01*
X19847201Y-16597004D02*
X19847201Y-16644623D01*
X19847201Y-16644623D02*
X19837677Y-16682718D01*
X19837677Y-16682718D02*
X19828153Y-16701766D01*
X19828153Y-16701766D02*
X19818629Y-16711289D01*
X19818629Y-16711289D02*
X19799582Y-16720813D01*
X19799582Y-16720813D02*
X19780534Y-16720813D01*
X19780534Y-16720813D02*
X19761487Y-16711289D01*
X19761487Y-16711289D02*
X19751963Y-16701766D01*
X19751963Y-16701766D02*
X19742439Y-16682718D01*
X19742439Y-16682718D02*
X19732915Y-16644623D01*
X19732915Y-16644623D02*
X19732915Y-16597004D01*
X19732915Y-16597004D02*
X19742439Y-16558908D01*
X19742439Y-16558908D02*
X19751963Y-16539861D01*
X19751963Y-16539861D02*
X19761487Y-16530337D01*
X19761487Y-16530337D02*
X19780534Y-16520813D01*
X19932915Y-16701766D02*
X19942439Y-16711289D01*
X19942439Y-16711289D02*
X19932915Y-16720813D01*
X19932915Y-16720813D02*
X19923391Y-16711289D01*
X19923391Y-16711289D02*
X19932915Y-16701766D01*
X19932915Y-16701766D02*
X19932915Y-16720813D01*
X20066248Y-16520813D02*
X20085296Y-16520813D01*
X20085296Y-16520813D02*
X20104344Y-16530337D01*
X20104344Y-16530337D02*
X20113868Y-16539861D01*
X20113868Y-16539861D02*
X20123391Y-16558908D01*
X20123391Y-16558908D02*
X20132915Y-16597004D01*
X20132915Y-16597004D02*
X20132915Y-16644623D01*
X20132915Y-16644623D02*
X20123391Y-16682718D01*
X20123391Y-16682718D02*
X20113868Y-16701766D01*
X20113868Y-16701766D02*
X20104344Y-16711289D01*
X20104344Y-16711289D02*
X20085296Y-16720813D01*
X20085296Y-16720813D02*
X20066248Y-16720813D01*
X20066248Y-16720813D02*
X20047201Y-16711289D01*
X20047201Y-16711289D02*
X20037677Y-16701766D01*
X20037677Y-16701766D02*
X20028153Y-16682718D01*
X20028153Y-16682718D02*
X20018629Y-16644623D01*
X20018629Y-16644623D02*
X20018629Y-16597004D01*
X20018629Y-16597004D02*
X20028153Y-16558908D01*
X20028153Y-16558908D02*
X20037677Y-16539861D01*
X20037677Y-16539861D02*
X20047201Y-16530337D01*
X20047201Y-16530337D02*
X20066248Y-16520813D01*
X20209106Y-16539861D02*
X20218629Y-16530337D01*
X20218629Y-16530337D02*
X20237677Y-16520813D01*
X20237677Y-16520813D02*
X20285296Y-16520813D01*
X20285296Y-16520813D02*
X20304344Y-16530337D01*
X20304344Y-16530337D02*
X20313868Y-16539861D01*
X20313868Y-16539861D02*
X20323391Y-16558908D01*
X20323391Y-16558908D02*
X20323391Y-16577956D01*
X20323391Y-16577956D02*
X20313868Y-16606527D01*
X20313868Y-16606527D02*
X20199582Y-16720813D01*
X20199582Y-16720813D02*
X20323391Y-16720813D01*
X20504344Y-16520813D02*
X20409106Y-16520813D01*
X20409106Y-16520813D02*
X20399582Y-16616051D01*
X20399582Y-16616051D02*
X20409106Y-16606527D01*
X20409106Y-16606527D02*
X20428153Y-16597004D01*
X20428153Y-16597004D02*
X20475772Y-16597004D01*
X20475772Y-16597004D02*
X20494820Y-16606527D01*
X20494820Y-16606527D02*
X20504344Y-16616051D01*
X20504344Y-16616051D02*
X20513868Y-16635099D01*
X20513868Y-16635099D02*
X20513868Y-16682718D01*
X20513868Y-16682718D02*
X20504344Y-16701766D01*
X20504344Y-16701766D02*
X20494820Y-16711289D01*
X20494820Y-16711289D02*
X20475772Y-16720813D01*
X20475772Y-16720813D02*
X20428153Y-16720813D01*
X20428153Y-16720813D02*
X20409106Y-16711289D01*
X20409106Y-16711289D02*
X20399582Y-16701766D01*
X20685296Y-16520813D02*
X20647201Y-16520813D01*
X20647201Y-16520813D02*
X20628153Y-16530337D01*
X20628153Y-16530337D02*
X20618629Y-16539861D01*
X20618629Y-16539861D02*
X20599582Y-16568432D01*
X20599582Y-16568432D02*
X20590058Y-16606527D01*
X20590058Y-16606527D02*
X20590058Y-16682718D01*
X20590058Y-16682718D02*
X20599582Y-16701766D01*
X20599582Y-16701766D02*
X20609106Y-16711289D01*
X20609106Y-16711289D02*
X20628153Y-16720813D01*
X20628153Y-16720813D02*
X20666249Y-16720813D01*
X20666249Y-16720813D02*
X20685296Y-16711289D01*
X20685296Y-16711289D02*
X20694820Y-16701766D01*
X20694820Y-16701766D02*
X20704344Y-16682718D01*
X20704344Y-16682718D02*
X20704344Y-16635099D01*
X20704344Y-16635099D02*
X20694820Y-16616051D01*
X20694820Y-16616051D02*
X20685296Y-16606527D01*
X20685296Y-16606527D02*
X20666249Y-16597004D01*
X20666249Y-16597004D02*
X20628153Y-16597004D01*
X20628153Y-16597004D02*
X20609106Y-16606527D01*
X20609106Y-16606527D02*
X20599582Y-16616051D01*
X20599582Y-16616051D02*
X20590058Y-16635099D01*
X20780534Y-16520813D02*
X20780534Y-16558908D01*
X20856725Y-16520813D02*
X20856725Y-16558908D01*
X21151963Y-16797004D02*
X21142439Y-16787480D01*
X21142439Y-16787480D02*
X21123391Y-16758908D01*
X21123391Y-16758908D02*
X21113868Y-16739861D01*
X21113868Y-16739861D02*
X21104344Y-16711289D01*
X21104344Y-16711289D02*
X21094820Y-16663670D01*
X21094820Y-16663670D02*
X21094820Y-16625575D01*
X21094820Y-16625575D02*
X21104344Y-16577956D01*
X21104344Y-16577956D02*
X21113868Y-16549385D01*
X21113868Y-16549385D02*
X21123391Y-16530337D01*
X21123391Y-16530337D02*
X21142439Y-16501766D01*
X21142439Y-16501766D02*
X21151963Y-16492242D01*
X21218630Y-16539861D02*
X21228153Y-16530337D01*
X21228153Y-16530337D02*
X21247201Y-16520813D01*
X21247201Y-16520813D02*
X21294820Y-16520813D01*
X21294820Y-16520813D02*
X21313868Y-16530337D01*
X21313868Y-16530337D02*
X21323391Y-16539861D01*
X21323391Y-16539861D02*
X21332915Y-16558908D01*
X21332915Y-16558908D02*
X21332915Y-16577956D01*
X21332915Y-16577956D02*
X21323391Y-16606527D01*
X21323391Y-16606527D02*
X21209106Y-16720813D01*
X21209106Y-16720813D02*
X21332915Y-16720813D01*
X21571011Y-16720813D02*
X21571011Y-16520813D01*
X21656725Y-16720813D02*
X21656725Y-16616051D01*
X21656725Y-16616051D02*
X21647201Y-16597004D01*
X21647201Y-16597004D02*
X21628153Y-16587480D01*
X21628153Y-16587480D02*
X21599582Y-16587480D01*
X21599582Y-16587480D02*
X21580534Y-16597004D01*
X21580534Y-16597004D02*
X21571011Y-16606527D01*
X21780534Y-16720813D02*
X21761487Y-16711289D01*
X21761487Y-16711289D02*
X21751963Y-16701766D01*
X21751963Y-16701766D02*
X21742439Y-16682718D01*
X21742439Y-16682718D02*
X21742439Y-16625575D01*
X21742439Y-16625575D02*
X21751963Y-16606527D01*
X21751963Y-16606527D02*
X21761487Y-16597004D01*
X21761487Y-16597004D02*
X21780534Y-16587480D01*
X21780534Y-16587480D02*
X21809106Y-16587480D01*
X21809106Y-16587480D02*
X21828153Y-16597004D01*
X21828153Y-16597004D02*
X21837677Y-16606527D01*
X21837677Y-16606527D02*
X21847201Y-16625575D01*
X21847201Y-16625575D02*
X21847201Y-16682718D01*
X21847201Y-16682718D02*
X21837677Y-16701766D01*
X21837677Y-16701766D02*
X21828153Y-16711289D01*
X21828153Y-16711289D02*
X21809106Y-16720813D01*
X21809106Y-16720813D02*
X21780534Y-16720813D01*
X21961487Y-16720813D02*
X21942439Y-16711289D01*
X21942439Y-16711289D02*
X21932915Y-16692242D01*
X21932915Y-16692242D02*
X21932915Y-16520813D01*
X22113868Y-16711289D02*
X22094820Y-16720813D01*
X22094820Y-16720813D02*
X22056725Y-16720813D01*
X22056725Y-16720813D02*
X22037677Y-16711289D01*
X22037677Y-16711289D02*
X22028153Y-16692242D01*
X22028153Y-16692242D02*
X22028153Y-16616051D01*
X22028153Y-16616051D02*
X22037677Y-16597004D01*
X22037677Y-16597004D02*
X22056725Y-16587480D01*
X22056725Y-16587480D02*
X22094820Y-16587480D01*
X22094820Y-16587480D02*
X22113868Y-16597004D01*
X22113868Y-16597004D02*
X22123392Y-16616051D01*
X22123392Y-16616051D02*
X22123392Y-16635099D01*
X22123392Y-16635099D02*
X22028153Y-16654147D01*
X22199582Y-16711289D02*
X22218630Y-16720813D01*
X22218630Y-16720813D02*
X22256725Y-16720813D01*
X22256725Y-16720813D02*
X22275773Y-16711289D01*
X22275773Y-16711289D02*
X22285296Y-16692242D01*
X22285296Y-16692242D02*
X22285296Y-16682718D01*
X22285296Y-16682718D02*
X22275773Y-16663670D01*
X22275773Y-16663670D02*
X22256725Y-16654147D01*
X22256725Y-16654147D02*
X22228153Y-16654147D01*
X22228153Y-16654147D02*
X22209106Y-16644623D01*
X22209106Y-16644623D02*
X22199582Y-16625575D01*
X22199582Y-16625575D02*
X22199582Y-16616051D01*
X22199582Y-16616051D02*
X22209106Y-16597004D01*
X22209106Y-16597004D02*
X22228153Y-16587480D01*
X22228153Y-16587480D02*
X22256725Y-16587480D01*
X22256725Y-16587480D02*
X22275773Y-16597004D01*
X22351963Y-16797004D02*
X22361487Y-16787480D01*
X22361487Y-16787480D02*
X22380534Y-16758908D01*
X22380534Y-16758908D02*
X22390058Y-16739861D01*
X22390058Y-16739861D02*
X22399582Y-16711289D01*
X22399582Y-16711289D02*
X22409106Y-16663670D01*
X22409106Y-16663670D02*
X22409106Y-16625575D01*
X22409106Y-16625575D02*
X22399582Y-16577956D01*
X22399582Y-16577956D02*
X22390058Y-16549385D01*
X22390058Y-16549385D02*
X22380534Y-16530337D01*
X22380534Y-16530337D02*
X22361487Y-16501766D01*
X22361487Y-16501766D02*
X22351963Y-16492242D01*
X22713868Y-16797004D02*
X22704344Y-16787480D01*
X22704344Y-16787480D02*
X22685296Y-16758908D01*
X22685296Y-16758908D02*
X22675772Y-16739861D01*
X22675772Y-16739861D02*
X22666249Y-16711289D01*
X22666249Y-16711289D02*
X22656725Y-16663670D01*
X22656725Y-16663670D02*
X22656725Y-16625575D01*
X22656725Y-16625575D02*
X22666249Y-16577956D01*
X22666249Y-16577956D02*
X22675772Y-16549385D01*
X22675772Y-16549385D02*
X22685296Y-16530337D01*
X22685296Y-16530337D02*
X22704344Y-16501766D01*
X22704344Y-16501766D02*
X22713868Y-16492242D01*
X22790058Y-16587480D02*
X22790058Y-16720813D01*
X22790058Y-16606527D02*
X22799582Y-16597004D01*
X22799582Y-16597004D02*
X22818630Y-16587480D01*
X22818630Y-16587480D02*
X22847201Y-16587480D01*
X22847201Y-16587480D02*
X22866249Y-16597004D01*
X22866249Y-16597004D02*
X22875772Y-16616051D01*
X22875772Y-16616051D02*
X22875772Y-16720813D01*
X22999582Y-16720813D02*
X22980534Y-16711289D01*
X22980534Y-16711289D02*
X22971011Y-16701766D01*
X22971011Y-16701766D02*
X22961487Y-16682718D01*
X22961487Y-16682718D02*
X22961487Y-16625575D01*
X22961487Y-16625575D02*
X22971011Y-16606527D01*
X22971011Y-16606527D02*
X22980534Y-16597004D01*
X22980534Y-16597004D02*
X22999582Y-16587480D01*
X22999582Y-16587480D02*
X23028153Y-16587480D01*
X23028153Y-16587480D02*
X23047201Y-16597004D01*
X23047201Y-16597004D02*
X23056725Y-16606527D01*
X23056725Y-16606527D02*
X23066249Y-16625575D01*
X23066249Y-16625575D02*
X23066249Y-16682718D01*
X23066249Y-16682718D02*
X23056725Y-16701766D01*
X23056725Y-16701766D02*
X23047201Y-16711289D01*
X23047201Y-16711289D02*
X23028153Y-16720813D01*
X23028153Y-16720813D02*
X22999582Y-16720813D01*
X23123392Y-16587480D02*
X23199582Y-16587480D01*
X23151963Y-16520813D02*
X23151963Y-16692242D01*
X23151963Y-16692242D02*
X23161487Y-16711289D01*
X23161487Y-16711289D02*
X23180534Y-16720813D01*
X23180534Y-16720813D02*
X23199582Y-16720813D01*
X23418630Y-16587480D02*
X23418630Y-16787480D01*
X23418630Y-16597004D02*
X23437677Y-16587480D01*
X23437677Y-16587480D02*
X23475773Y-16587480D01*
X23475773Y-16587480D02*
X23494820Y-16597004D01*
X23494820Y-16597004D02*
X23504344Y-16606527D01*
X23504344Y-16606527D02*
X23513868Y-16625575D01*
X23513868Y-16625575D02*
X23513868Y-16682718D01*
X23513868Y-16682718D02*
X23504344Y-16701766D01*
X23504344Y-16701766D02*
X23494820Y-16711289D01*
X23494820Y-16711289D02*
X23475773Y-16720813D01*
X23475773Y-16720813D02*
X23437677Y-16720813D01*
X23437677Y-16720813D02*
X23418630Y-16711289D01*
X23628153Y-16720813D02*
X23609106Y-16711289D01*
X23609106Y-16711289D02*
X23599582Y-16692242D01*
X23599582Y-16692242D02*
X23599582Y-16520813D01*
X23790058Y-16720813D02*
X23790058Y-16616051D01*
X23790058Y-16616051D02*
X23780534Y-16597004D01*
X23780534Y-16597004D02*
X23761487Y-16587480D01*
X23761487Y-16587480D02*
X23723392Y-16587480D01*
X23723392Y-16587480D02*
X23704344Y-16597004D01*
X23790058Y-16711289D02*
X23771011Y-16720813D01*
X23771011Y-16720813D02*
X23723392Y-16720813D01*
X23723392Y-16720813D02*
X23704344Y-16711289D01*
X23704344Y-16711289D02*
X23694820Y-16692242D01*
X23694820Y-16692242D02*
X23694820Y-16673194D01*
X23694820Y-16673194D02*
X23704344Y-16654147D01*
X23704344Y-16654147D02*
X23723392Y-16644623D01*
X23723392Y-16644623D02*
X23771011Y-16644623D01*
X23771011Y-16644623D02*
X23790058Y-16635099D01*
X23856725Y-16587480D02*
X23932915Y-16587480D01*
X23885296Y-16520813D02*
X23885296Y-16692242D01*
X23885296Y-16692242D02*
X23894820Y-16711289D01*
X23894820Y-16711289D02*
X23913868Y-16720813D01*
X23913868Y-16720813D02*
X23932915Y-16720813D01*
X24075773Y-16711289D02*
X24056725Y-16720813D01*
X24056725Y-16720813D02*
X24018630Y-16720813D01*
X24018630Y-16720813D02*
X23999582Y-16711289D01*
X23999582Y-16711289D02*
X23990058Y-16692242D01*
X23990058Y-16692242D02*
X23990058Y-16616051D01*
X23990058Y-16616051D02*
X23999582Y-16597004D01*
X23999582Y-16597004D02*
X24018630Y-16587480D01*
X24018630Y-16587480D02*
X24056725Y-16587480D01*
X24056725Y-16587480D02*
X24075773Y-16597004D01*
X24075773Y-16597004D02*
X24085296Y-16616051D01*
X24085296Y-16616051D02*
X24085296Y-16635099D01*
X24085296Y-16635099D02*
X23990058Y-16654147D01*
X24256725Y-16720813D02*
X24256725Y-16520813D01*
X24256725Y-16711289D02*
X24237677Y-16720813D01*
X24237677Y-16720813D02*
X24199582Y-16720813D01*
X24199582Y-16720813D02*
X24180534Y-16711289D01*
X24180534Y-16711289D02*
X24171011Y-16701766D01*
X24171011Y-16701766D02*
X24161487Y-16682718D01*
X24161487Y-16682718D02*
X24161487Y-16625575D01*
X24161487Y-16625575D02*
X24171011Y-16606527D01*
X24171011Y-16606527D02*
X24180534Y-16597004D01*
X24180534Y-16597004D02*
X24199582Y-16587480D01*
X24199582Y-16587480D02*
X24237677Y-16587480D01*
X24237677Y-16587480D02*
X24256725Y-16597004D01*
X24332915Y-16797004D02*
X24342439Y-16787480D01*
X24342439Y-16787480D02*
X24361487Y-16758908D01*
X24361487Y-16758908D02*
X24371011Y-16739861D01*
X24371011Y-16739861D02*
X24380534Y-16711289D01*
X24380534Y-16711289D02*
X24390058Y-16663670D01*
X24390058Y-16663670D02*
X24390058Y-16625575D01*
X24390058Y-16625575D02*
X24380534Y-16577956D01*
X24380534Y-16577956D02*
X24371011Y-16549385D01*
X24371011Y-16549385D02*
X24361487Y-16530337D01*
X24361487Y-16530337D02*
X24342439Y-16501766D01*
X24342439Y-16501766D02*
X24332915Y-16492242D01*
M02*
