%TF.GenerationSoftware,KiCad,Pcbnew,7.0.6*%
%TF.CreationDate,2023-08-14T23:22:26-07:00*%
%TF.ProjectId,GCP-2,4743502d-322e-46b6-9963-61645f706362,rev?*%
%TF.SameCoordinates,Original*%
%TF.FileFunction,Legend,Bot*%
%TF.FilePolarity,Positive*%
%FSLAX46Y46*%
G04 Gerber Fmt 4.6, Leading zero omitted, Abs format (unit mm)*
G04 Created by KiCad (PCBNEW 7.0.6) date 2023-08-14 23:22:26*
%MOMM*%
%LPD*%
G01*
G04 APERTURE LIST*
%ADD10C,0.150000*%
%ADD11C,0.125000*%
%ADD12C,0.120000*%
%ADD13C,0.100000*%
%ADD14C,0.025000*%
%ADD15C,0.050000*%
G04 APERTURE END LIST*
D10*
X218943143Y-147497771D02*
X218600286Y-147497771D01*
X218771714Y-148097771D02*
X218771714Y-147497771D01*
X218400285Y-148097771D02*
X218400285Y-147497771D01*
X218400285Y-147497771D02*
X218171714Y-147497771D01*
X218171714Y-147497771D02*
X218114571Y-147526342D01*
X218114571Y-147526342D02*
X218086000Y-147554914D01*
X218086000Y-147554914D02*
X218057428Y-147612057D01*
X218057428Y-147612057D02*
X218057428Y-147697771D01*
X218057428Y-147697771D02*
X218086000Y-147754914D01*
X218086000Y-147754914D02*
X218114571Y-147783485D01*
X218114571Y-147783485D02*
X218171714Y-147812057D01*
X218171714Y-147812057D02*
X218400285Y-147812057D01*
X217514571Y-147497771D02*
X217800285Y-147497771D01*
X217800285Y-147497771D02*
X217828857Y-147783485D01*
X217828857Y-147783485D02*
X217800285Y-147754914D01*
X217800285Y-147754914D02*
X217743143Y-147726342D01*
X217743143Y-147726342D02*
X217600285Y-147726342D01*
X217600285Y-147726342D02*
X217543143Y-147754914D01*
X217543143Y-147754914D02*
X217514571Y-147783485D01*
X217514571Y-147783485D02*
X217486000Y-147840628D01*
X217486000Y-147840628D02*
X217486000Y-147983485D01*
X217486000Y-147983485D02*
X217514571Y-148040628D01*
X217514571Y-148040628D02*
X217543143Y-148069200D01*
X217543143Y-148069200D02*
X217600285Y-148097771D01*
X217600285Y-148097771D02*
X217743143Y-148097771D01*
X217743143Y-148097771D02*
X217800285Y-148069200D01*
X217800285Y-148069200D02*
X217828857Y-148040628D01*
X219197143Y-145465771D02*
X218854286Y-145465771D01*
X219025714Y-146065771D02*
X219025714Y-145465771D01*
X218654285Y-146065771D02*
X218654285Y-145465771D01*
X218654285Y-145465771D02*
X218425714Y-145465771D01*
X218425714Y-145465771D02*
X218368571Y-145494342D01*
X218368571Y-145494342D02*
X218340000Y-145522914D01*
X218340000Y-145522914D02*
X218311428Y-145580057D01*
X218311428Y-145580057D02*
X218311428Y-145665771D01*
X218311428Y-145665771D02*
X218340000Y-145722914D01*
X218340000Y-145722914D02*
X218368571Y-145751485D01*
X218368571Y-145751485D02*
X218425714Y-145780057D01*
X218425714Y-145780057D02*
X218654285Y-145780057D01*
X217797143Y-145665771D02*
X217797143Y-146065771D01*
X217940000Y-145437200D02*
X218082857Y-145865771D01*
X218082857Y-145865771D02*
X217711428Y-145865771D01*
X201325354Y-148461353D02*
X201369127Y-148461353D01*
X201369127Y-148461353D02*
X201456674Y-148417580D01*
X201456674Y-148417580D02*
X201500447Y-148373807D01*
X201500447Y-148373807D02*
X201544220Y-148286260D01*
X201544220Y-148286260D02*
X201544220Y-148198713D01*
X201544220Y-148198713D02*
X201522334Y-148133054D01*
X201522334Y-148133054D02*
X201456674Y-148023620D01*
X201456674Y-148023620D02*
X201391014Y-147957960D01*
X201391014Y-147957960D02*
X201281581Y-147892301D01*
X201281581Y-147892301D02*
X201215921Y-147870414D01*
X201215921Y-147870414D02*
X201128374Y-147870414D01*
X201128374Y-147870414D02*
X201040828Y-147914187D01*
X201040828Y-147914187D02*
X200997054Y-147957960D01*
X200997054Y-147957960D02*
X200953281Y-148045507D01*
X200953281Y-148045507D02*
X200953281Y-148089280D01*
X200778188Y-148264373D02*
X200734415Y-148264373D01*
X200734415Y-148264373D02*
X200668755Y-148286260D01*
X200668755Y-148286260D02*
X200559322Y-148395693D01*
X200559322Y-148395693D02*
X200537435Y-148461353D01*
X200537435Y-148461353D02*
X200537435Y-148505126D01*
X200537435Y-148505126D02*
X200559322Y-148570786D01*
X200559322Y-148570786D02*
X200603095Y-148614560D01*
X200603095Y-148614560D02*
X200690641Y-148658333D01*
X200690641Y-148658333D02*
X201215921Y-148658333D01*
X201215921Y-148658333D02*
X200931394Y-148942859D01*
X200990006Y-145041259D02*
X201033779Y-145041259D01*
X201033779Y-145041259D02*
X201121326Y-144997486D01*
X201121326Y-144997486D02*
X201165099Y-144953713D01*
X201165099Y-144953713D02*
X201208872Y-144866166D01*
X201208872Y-144866166D02*
X201208872Y-144778619D01*
X201208872Y-144778619D02*
X201186986Y-144712960D01*
X201186986Y-144712960D02*
X201121326Y-144603526D01*
X201121326Y-144603526D02*
X201055666Y-144537866D01*
X201055666Y-144537866D02*
X200946233Y-144472207D01*
X200946233Y-144472207D02*
X200880573Y-144450320D01*
X200880573Y-144450320D02*
X200793026Y-144450320D01*
X200793026Y-144450320D02*
X200705480Y-144494093D01*
X200705480Y-144494093D02*
X200661706Y-144537866D01*
X200661706Y-144537866D02*
X200617933Y-144625413D01*
X200617933Y-144625413D02*
X200617933Y-144669186D01*
X200508500Y-145085032D02*
X200530386Y-145019372D01*
X200530386Y-145019372D02*
X200530386Y-144975599D01*
X200530386Y-144975599D02*
X200508500Y-144909939D01*
X200508500Y-144909939D02*
X200486613Y-144888053D01*
X200486613Y-144888053D02*
X200420953Y-144866166D01*
X200420953Y-144866166D02*
X200377180Y-144866166D01*
X200377180Y-144866166D02*
X200311520Y-144888053D01*
X200311520Y-144888053D02*
X200223974Y-144975599D01*
X200223974Y-144975599D02*
X200202087Y-145041259D01*
X200202087Y-145041259D02*
X200202087Y-145085032D01*
X200202087Y-145085032D02*
X200223974Y-145150692D01*
X200223974Y-145150692D02*
X200245860Y-145172579D01*
X200245860Y-145172579D02*
X200311520Y-145194466D01*
X200311520Y-145194466D02*
X200355293Y-145194466D01*
X200355293Y-145194466D02*
X200420953Y-145172579D01*
X200420953Y-145172579D02*
X200508500Y-145085032D01*
X200508500Y-145085032D02*
X200574160Y-145063146D01*
X200574160Y-145063146D02*
X200617933Y-145063146D01*
X200617933Y-145063146D02*
X200683593Y-145085032D01*
X200683593Y-145085032D02*
X200771139Y-145172579D01*
X200771139Y-145172579D02*
X200793026Y-145238239D01*
X200793026Y-145238239D02*
X200793026Y-145282012D01*
X200793026Y-145282012D02*
X200771139Y-145347672D01*
X200771139Y-145347672D02*
X200683593Y-145435219D01*
X200683593Y-145435219D02*
X200617933Y-145457105D01*
X200617933Y-145457105D02*
X200574160Y-145457105D01*
X200574160Y-145457105D02*
X200508500Y-145435219D01*
X200508500Y-145435219D02*
X200420953Y-145347672D01*
X200420953Y-145347672D02*
X200399067Y-145282012D01*
X200399067Y-145282012D02*
X200399067Y-145238239D01*
X200399067Y-145238239D02*
X200420953Y-145172579D01*
X193938958Y-147757411D02*
X193720091Y-147976277D01*
X194332917Y-147669864D02*
X193938958Y-147757411D01*
X193938958Y-147757411D02*
X194026504Y-147363451D01*
X193172925Y-147429111D02*
X193435565Y-147691751D01*
X193304245Y-147560431D02*
X193763865Y-147100811D01*
X193763865Y-147100811D02*
X193741978Y-147210245D01*
X193741978Y-147210245D02*
X193741978Y-147297791D01*
X193741978Y-147297791D02*
X193763865Y-147363451D01*
X212324042Y-149822046D02*
X212354994Y-149852999D01*
X212354994Y-149852999D02*
X212447852Y-149883951D01*
X212447852Y-149883951D02*
X212509756Y-149883951D01*
X212509756Y-149883951D02*
X212602613Y-149852999D01*
X212602613Y-149852999D02*
X212664518Y-149791094D01*
X212664518Y-149791094D02*
X212695471Y-149729189D01*
X212695471Y-149729189D02*
X212726423Y-149605379D01*
X212726423Y-149605379D02*
X212726423Y-149512522D01*
X212726423Y-149512522D02*
X212695471Y-149388713D01*
X212695471Y-149388713D02*
X212664518Y-149326808D01*
X212664518Y-149326808D02*
X212602613Y-149264903D01*
X212602613Y-149264903D02*
X212509756Y-149233951D01*
X212509756Y-149233951D02*
X212447852Y-149233951D01*
X212447852Y-149233951D02*
X212354994Y-149264903D01*
X212354994Y-149264903D02*
X212324042Y-149295856D01*
X212107375Y-149233951D02*
X211704994Y-149233951D01*
X211704994Y-149233951D02*
X211921661Y-149481570D01*
X211921661Y-149481570D02*
X211828804Y-149481570D01*
X211828804Y-149481570D02*
X211766899Y-149512522D01*
X211766899Y-149512522D02*
X211735947Y-149543475D01*
X211735947Y-149543475D02*
X211704994Y-149605379D01*
X211704994Y-149605379D02*
X211704994Y-149760141D01*
X211704994Y-149760141D02*
X211735947Y-149822046D01*
X211735947Y-149822046D02*
X211766899Y-149852999D01*
X211766899Y-149852999D02*
X211828804Y-149883951D01*
X211828804Y-149883951D02*
X212014518Y-149883951D01*
X212014518Y-149883951D02*
X212076423Y-149852999D01*
X212076423Y-149852999D02*
X212107375Y-149822046D01*
X201683618Y-145742096D02*
X201727391Y-145742096D01*
X201727391Y-145742096D02*
X201814938Y-145698323D01*
X201814938Y-145698323D02*
X201858711Y-145654550D01*
X201858711Y-145654550D02*
X201902484Y-145567003D01*
X201902484Y-145567003D02*
X201902484Y-145479456D01*
X201902484Y-145479456D02*
X201880598Y-145413797D01*
X201880598Y-145413797D02*
X201814938Y-145304363D01*
X201814938Y-145304363D02*
X201749278Y-145238703D01*
X201749278Y-145238703D02*
X201639845Y-145173044D01*
X201639845Y-145173044D02*
X201574185Y-145151157D01*
X201574185Y-145151157D02*
X201486638Y-145151157D01*
X201486638Y-145151157D02*
X201399092Y-145194930D01*
X201399092Y-145194930D02*
X201355318Y-145238703D01*
X201355318Y-145238703D02*
X201311545Y-145326250D01*
X201311545Y-145326250D02*
X201311545Y-145370023D01*
X200873812Y-145720209D02*
X200961359Y-145632663D01*
X200961359Y-145632663D02*
X201027019Y-145610776D01*
X201027019Y-145610776D02*
X201070792Y-145610776D01*
X201070792Y-145610776D02*
X201180225Y-145632663D01*
X201180225Y-145632663D02*
X201289658Y-145698323D01*
X201289658Y-145698323D02*
X201464751Y-145873416D01*
X201464751Y-145873416D02*
X201486638Y-145939076D01*
X201486638Y-145939076D02*
X201486638Y-145982849D01*
X201486638Y-145982849D02*
X201464751Y-146048509D01*
X201464751Y-146048509D02*
X201377205Y-146136056D01*
X201377205Y-146136056D02*
X201311545Y-146157942D01*
X201311545Y-146157942D02*
X201267772Y-146157942D01*
X201267772Y-146157942D02*
X201202112Y-146136056D01*
X201202112Y-146136056D02*
X201092679Y-146026622D01*
X201092679Y-146026622D02*
X201070792Y-145960962D01*
X201070792Y-145960962D02*
X201070792Y-145917189D01*
X201070792Y-145917189D02*
X201092679Y-145851529D01*
X201092679Y-145851529D02*
X201180225Y-145763983D01*
X201180225Y-145763983D02*
X201245885Y-145742096D01*
X201245885Y-145742096D02*
X201289658Y-145742096D01*
X201289658Y-145742096D02*
X201355318Y-145763983D01*
D11*
X202987478Y-149161516D02*
X203392240Y-149161516D01*
X203392240Y-149161516D02*
X203439859Y-149185326D01*
X203439859Y-149185326D02*
X203463669Y-149209135D01*
X203463669Y-149209135D02*
X203487478Y-149256754D01*
X203487478Y-149256754D02*
X203487478Y-149351992D01*
X203487478Y-149351992D02*
X203463669Y-149399611D01*
X203463669Y-149399611D02*
X203439859Y-149423421D01*
X203439859Y-149423421D02*
X203392240Y-149447230D01*
X203392240Y-149447230D02*
X202987478Y-149447230D01*
X202987478Y-149637707D02*
X202987478Y-149947231D01*
X202987478Y-149947231D02*
X203177954Y-149780564D01*
X203177954Y-149780564D02*
X203177954Y-149851993D01*
X203177954Y-149851993D02*
X203201764Y-149899612D01*
X203201764Y-149899612D02*
X203225573Y-149923421D01*
X203225573Y-149923421D02*
X203273192Y-149947231D01*
X203273192Y-149947231D02*
X203392240Y-149947231D01*
X203392240Y-149947231D02*
X203439859Y-149923421D01*
X203439859Y-149923421D02*
X203463669Y-149899612D01*
X203463669Y-149899612D02*
X203487478Y-149851993D01*
X203487478Y-149851993D02*
X203487478Y-149709136D01*
X203487478Y-149709136D02*
X203463669Y-149661517D01*
X203463669Y-149661517D02*
X203439859Y-149637707D01*
D10*
X205220952Y-143538600D02*
X205420952Y-143252886D01*
X205563809Y-143538600D02*
X205563809Y-142938600D01*
X205563809Y-142938600D02*
X205335238Y-142938600D01*
X205335238Y-142938600D02*
X205278095Y-142967171D01*
X205278095Y-142967171D02*
X205249524Y-142995743D01*
X205249524Y-142995743D02*
X205220952Y-143052886D01*
X205220952Y-143052886D02*
X205220952Y-143138600D01*
X205220952Y-143138600D02*
X205249524Y-143195743D01*
X205249524Y-143195743D02*
X205278095Y-143224314D01*
X205278095Y-143224314D02*
X205335238Y-143252886D01*
X205335238Y-143252886D02*
X205563809Y-143252886D01*
X204649524Y-143538600D02*
X204992381Y-143538600D01*
X204820952Y-143538600D02*
X204820952Y-142938600D01*
X204820952Y-142938600D02*
X204878095Y-143024314D01*
X204878095Y-143024314D02*
X204935238Y-143081457D01*
X204935238Y-143081457D02*
X204992381Y-143110029D01*
X204078095Y-143538600D02*
X204420952Y-143538600D01*
X204249523Y-143538600D02*
X204249523Y-142938600D01*
X204249523Y-142938600D02*
X204306666Y-143024314D01*
X204306666Y-143024314D02*
X204363809Y-143081457D01*
X204363809Y-143081457D02*
X204420952Y-143110029D01*
X199806529Y-142728459D02*
X199806529Y-142772232D01*
X199806529Y-142772232D02*
X199850302Y-142859779D01*
X199850302Y-142859779D02*
X199894075Y-142903552D01*
X199894075Y-142903552D02*
X199981622Y-142947325D01*
X199981622Y-142947325D02*
X200069169Y-142947325D01*
X200069169Y-142947325D02*
X200134828Y-142925439D01*
X200134828Y-142925439D02*
X200244262Y-142859779D01*
X200244262Y-142859779D02*
X200309922Y-142794119D01*
X200309922Y-142794119D02*
X200375581Y-142684686D01*
X200375581Y-142684686D02*
X200397468Y-142619026D01*
X200397468Y-142619026D02*
X200397468Y-142531479D01*
X200397468Y-142531479D02*
X200353695Y-142443933D01*
X200353695Y-142443933D02*
X200309922Y-142400159D01*
X200309922Y-142400159D02*
X200222375Y-142356386D01*
X200222375Y-142356386D02*
X200178602Y-142356386D01*
X199806529Y-141896767D02*
X200025395Y-142115633D01*
X200025395Y-142115633D02*
X199828416Y-142356386D01*
X199828416Y-142356386D02*
X199828416Y-142312613D01*
X199828416Y-142312613D02*
X199806529Y-142246953D01*
X199806529Y-142246953D02*
X199697096Y-142137520D01*
X199697096Y-142137520D02*
X199631436Y-142115633D01*
X199631436Y-142115633D02*
X199587663Y-142115633D01*
X199587663Y-142115633D02*
X199522003Y-142137520D01*
X199522003Y-142137520D02*
X199412569Y-142246953D01*
X199412569Y-142246953D02*
X199390683Y-142312613D01*
X199390683Y-142312613D02*
X199390683Y-142356386D01*
X199390683Y-142356386D02*
X199412569Y-142422046D01*
X199412569Y-142422046D02*
X199522003Y-142531479D01*
X199522003Y-142531479D02*
X199587663Y-142553366D01*
X199587663Y-142553366D02*
X199631436Y-142553366D01*
X212855417Y-143779147D02*
X212205417Y-143779147D01*
X212205417Y-143779147D02*
X212205417Y-143933909D01*
X212205417Y-143933909D02*
X212236369Y-144026766D01*
X212236369Y-144026766D02*
X212298274Y-144088671D01*
X212298274Y-144088671D02*
X212360179Y-144119624D01*
X212360179Y-144119624D02*
X212483988Y-144150576D01*
X212483988Y-144150576D02*
X212576845Y-144150576D01*
X212576845Y-144150576D02*
X212700655Y-144119624D01*
X212700655Y-144119624D02*
X212762560Y-144088671D01*
X212762560Y-144088671D02*
X212824465Y-144026766D01*
X212824465Y-144026766D02*
X212855417Y-143933909D01*
X212855417Y-143933909D02*
X212855417Y-143779147D01*
X212855417Y-144769624D02*
X212855417Y-144398195D01*
X212855417Y-144583909D02*
X212205417Y-144583909D01*
X212205417Y-144583909D02*
X212298274Y-144522005D01*
X212298274Y-144522005D02*
X212360179Y-144460100D01*
X212360179Y-144460100D02*
X212391131Y-144398195D01*
X192926152Y-144237269D02*
X192969925Y-144237269D01*
X192969925Y-144237269D02*
X193057472Y-144193496D01*
X193057472Y-144193496D02*
X193101245Y-144149723D01*
X193101245Y-144149723D02*
X193145018Y-144062176D01*
X193145018Y-144062176D02*
X193145018Y-143974629D01*
X193145018Y-143974629D02*
X193123132Y-143908970D01*
X193123132Y-143908970D02*
X193057472Y-143799536D01*
X193057472Y-143799536D02*
X192991812Y-143733876D01*
X192991812Y-143733876D02*
X192882379Y-143668217D01*
X192882379Y-143668217D02*
X192816719Y-143646330D01*
X192816719Y-143646330D02*
X192729172Y-143646330D01*
X192729172Y-143646330D02*
X192641626Y-143690103D01*
X192641626Y-143690103D02*
X192597852Y-143733876D01*
X192597852Y-143733876D02*
X192554079Y-143821423D01*
X192554079Y-143821423D02*
X192554079Y-143865196D01*
X192532192Y-144718775D02*
X192794832Y-144456135D01*
X192663512Y-144587455D02*
X192203893Y-144127836D01*
X192203893Y-144127836D02*
X192313326Y-144149723D01*
X192313326Y-144149723D02*
X192400873Y-144149723D01*
X192400873Y-144149723D02*
X192466532Y-144127836D01*
X193320819Y-150198244D02*
X193537486Y-149888720D01*
X193692248Y-150198244D02*
X193692248Y-149548244D01*
X193692248Y-149548244D02*
X193444629Y-149548244D01*
X193444629Y-149548244D02*
X193382724Y-149579196D01*
X193382724Y-149579196D02*
X193351771Y-149610149D01*
X193351771Y-149610149D02*
X193320819Y-149672053D01*
X193320819Y-149672053D02*
X193320819Y-149764911D01*
X193320819Y-149764911D02*
X193351771Y-149826815D01*
X193351771Y-149826815D02*
X193382724Y-149857768D01*
X193382724Y-149857768D02*
X193444629Y-149888720D01*
X193444629Y-149888720D02*
X193692248Y-149888720D01*
X192701771Y-150198244D02*
X193073200Y-150198244D01*
X192887486Y-150198244D02*
X192887486Y-149548244D01*
X192887486Y-149548244D02*
X192949390Y-149641101D01*
X192949390Y-149641101D02*
X193011295Y-149703006D01*
X193011295Y-149703006D02*
X193073200Y-149733958D01*
X192485104Y-149548244D02*
X192082723Y-149548244D01*
X192082723Y-149548244D02*
X192299390Y-149795863D01*
X192299390Y-149795863D02*
X192206533Y-149795863D01*
X192206533Y-149795863D02*
X192144628Y-149826815D01*
X192144628Y-149826815D02*
X192113676Y-149857768D01*
X192113676Y-149857768D02*
X192082723Y-149919672D01*
X192082723Y-149919672D02*
X192082723Y-150074434D01*
X192082723Y-150074434D02*
X192113676Y-150136339D01*
X192113676Y-150136339D02*
X192144628Y-150167292D01*
X192144628Y-150167292D02*
X192206533Y-150198244D01*
X192206533Y-150198244D02*
X192392247Y-150198244D01*
X192392247Y-150198244D02*
X192454152Y-150167292D01*
X192454152Y-150167292D02*
X192485104Y-150136339D01*
X206437645Y-150383855D02*
X206654312Y-150074331D01*
X206809074Y-150383855D02*
X206809074Y-149733855D01*
X206809074Y-149733855D02*
X206561455Y-149733855D01*
X206561455Y-149733855D02*
X206499550Y-149764807D01*
X206499550Y-149764807D02*
X206468597Y-149795760D01*
X206468597Y-149795760D02*
X206437645Y-149857664D01*
X206437645Y-149857664D02*
X206437645Y-149950522D01*
X206437645Y-149950522D02*
X206468597Y-150012426D01*
X206468597Y-150012426D02*
X206499550Y-150043379D01*
X206499550Y-150043379D02*
X206561455Y-150074331D01*
X206561455Y-150074331D02*
X206809074Y-150074331D01*
X205818597Y-150383855D02*
X206190026Y-150383855D01*
X206004312Y-150383855D02*
X206004312Y-149733855D01*
X206004312Y-149733855D02*
X206066216Y-149826712D01*
X206066216Y-149826712D02*
X206128121Y-149888617D01*
X206128121Y-149888617D02*
X206190026Y-149919569D01*
X205570978Y-149795760D02*
X205540026Y-149764807D01*
X205540026Y-149764807D02*
X205478121Y-149733855D01*
X205478121Y-149733855D02*
X205323359Y-149733855D01*
X205323359Y-149733855D02*
X205261454Y-149764807D01*
X205261454Y-149764807D02*
X205230502Y-149795760D01*
X205230502Y-149795760D02*
X205199549Y-149857664D01*
X205199549Y-149857664D02*
X205199549Y-149919569D01*
X205199549Y-149919569D02*
X205230502Y-150012426D01*
X205230502Y-150012426D02*
X205601930Y-150383855D01*
X205601930Y-150383855D02*
X205199549Y-150383855D01*
X191286338Y-147949490D02*
X191503005Y-147639966D01*
X191657767Y-147949490D02*
X191657767Y-147299490D01*
X191657767Y-147299490D02*
X191410148Y-147299490D01*
X191410148Y-147299490D02*
X191348243Y-147330442D01*
X191348243Y-147330442D02*
X191317290Y-147361395D01*
X191317290Y-147361395D02*
X191286338Y-147423299D01*
X191286338Y-147423299D02*
X191286338Y-147516157D01*
X191286338Y-147516157D02*
X191317290Y-147578061D01*
X191317290Y-147578061D02*
X191348243Y-147609014D01*
X191348243Y-147609014D02*
X191410148Y-147639966D01*
X191410148Y-147639966D02*
X191657767Y-147639966D01*
X190667290Y-147949490D02*
X191038719Y-147949490D01*
X190853005Y-147949490D02*
X190853005Y-147299490D01*
X190853005Y-147299490D02*
X190914909Y-147392347D01*
X190914909Y-147392347D02*
X190976814Y-147454252D01*
X190976814Y-147454252D02*
X191038719Y-147485204D01*
X190264909Y-147299490D02*
X190203004Y-147299490D01*
X190203004Y-147299490D02*
X190141100Y-147330442D01*
X190141100Y-147330442D02*
X190110147Y-147361395D01*
X190110147Y-147361395D02*
X190079195Y-147423299D01*
X190079195Y-147423299D02*
X190048242Y-147547109D01*
X190048242Y-147547109D02*
X190048242Y-147701871D01*
X190048242Y-147701871D02*
X190079195Y-147825680D01*
X190079195Y-147825680D02*
X190110147Y-147887585D01*
X190110147Y-147887585D02*
X190141100Y-147918538D01*
X190141100Y-147918538D02*
X190203004Y-147949490D01*
X190203004Y-147949490D02*
X190264909Y-147949490D01*
X190264909Y-147949490D02*
X190326814Y-147918538D01*
X190326814Y-147918538D02*
X190357766Y-147887585D01*
X190357766Y-147887585D02*
X190388719Y-147825680D01*
X190388719Y-147825680D02*
X190419671Y-147701871D01*
X190419671Y-147701871D02*
X190419671Y-147547109D01*
X190419671Y-147547109D02*
X190388719Y-147423299D01*
X190388719Y-147423299D02*
X190357766Y-147361395D01*
X190357766Y-147361395D02*
X190326814Y-147330442D01*
X190326814Y-147330442D02*
X190264909Y-147299490D01*
X198432886Y-145692879D02*
X198432886Y-145736652D01*
X198432886Y-145736652D02*
X198476659Y-145824199D01*
X198476659Y-145824199D02*
X198520432Y-145867972D01*
X198520432Y-145867972D02*
X198607979Y-145911745D01*
X198607979Y-145911745D02*
X198695526Y-145911745D01*
X198695526Y-145911745D02*
X198761185Y-145889859D01*
X198761185Y-145889859D02*
X198870619Y-145824199D01*
X198870619Y-145824199D02*
X198936279Y-145758539D01*
X198936279Y-145758539D02*
X199001938Y-145649106D01*
X199001938Y-145649106D02*
X199023825Y-145583446D01*
X199023825Y-145583446D02*
X199023825Y-145495899D01*
X199023825Y-145495899D02*
X198980052Y-145408353D01*
X198980052Y-145408353D02*
X198936279Y-145364579D01*
X198936279Y-145364579D02*
X198848732Y-145320806D01*
X198848732Y-145320806D02*
X198804959Y-145320806D01*
X198301566Y-145036280D02*
X197995153Y-145342693D01*
X198586092Y-144970620D02*
X198367226Y-145408353D01*
X198367226Y-145408353D02*
X198082700Y-145123826D01*
X199342058Y-149916214D02*
X199385831Y-149916214D01*
X199385831Y-149916214D02*
X199473378Y-149872441D01*
X199473378Y-149872441D02*
X199517151Y-149828668D01*
X199517151Y-149828668D02*
X199560924Y-149741121D01*
X199560924Y-149741121D02*
X199560924Y-149653574D01*
X199560924Y-149653574D02*
X199539038Y-149587915D01*
X199539038Y-149587915D02*
X199473378Y-149478481D01*
X199473378Y-149478481D02*
X199407718Y-149412821D01*
X199407718Y-149412821D02*
X199298285Y-149347162D01*
X199298285Y-149347162D02*
X199232625Y-149325275D01*
X199232625Y-149325275D02*
X199145078Y-149325275D01*
X199145078Y-149325275D02*
X199057532Y-149369048D01*
X199057532Y-149369048D02*
X199013758Y-149412821D01*
X199013758Y-149412821D02*
X198969985Y-149500368D01*
X198969985Y-149500368D02*
X198969985Y-149544141D01*
X199166965Y-150178854D02*
X199079418Y-150266400D01*
X199079418Y-150266400D02*
X199013758Y-150288287D01*
X199013758Y-150288287D02*
X198969985Y-150288287D01*
X198969985Y-150288287D02*
X198860552Y-150266400D01*
X198860552Y-150266400D02*
X198751119Y-150200740D01*
X198751119Y-150200740D02*
X198576026Y-150025647D01*
X198576026Y-150025647D02*
X198554139Y-149959987D01*
X198554139Y-149959987D02*
X198554139Y-149916214D01*
X198554139Y-149916214D02*
X198576026Y-149850554D01*
X198576026Y-149850554D02*
X198663572Y-149763008D01*
X198663572Y-149763008D02*
X198729232Y-149741121D01*
X198729232Y-149741121D02*
X198773005Y-149741121D01*
X198773005Y-149741121D02*
X198838665Y-149763008D01*
X198838665Y-149763008D02*
X198948098Y-149872441D01*
X198948098Y-149872441D02*
X198969985Y-149938101D01*
X198969985Y-149938101D02*
X198969985Y-149981874D01*
X198969985Y-149981874D02*
X198948098Y-150047534D01*
X198948098Y-150047534D02*
X198860552Y-150135080D01*
X198860552Y-150135080D02*
X198794892Y-150156967D01*
X198794892Y-150156967D02*
X198751119Y-150156967D01*
X198751119Y-150156967D02*
X198685459Y-150135080D01*
X215528911Y-147216605D02*
X215528911Y-146999938D01*
X215869387Y-146999938D02*
X215219387Y-146999938D01*
X215219387Y-146999938D02*
X215219387Y-147309462D01*
X215869387Y-147897558D02*
X215869387Y-147526129D01*
X215869387Y-147711843D02*
X215219387Y-147711843D01*
X215219387Y-147711843D02*
X215312244Y-147649939D01*
X215312244Y-147649939D02*
X215374149Y-147588034D01*
X215374149Y-147588034D02*
X215405101Y-147526129D01*
X199242100Y-145020943D02*
X199242100Y-145064716D01*
X199242100Y-145064716D02*
X199285873Y-145152263D01*
X199285873Y-145152263D02*
X199329646Y-145196036D01*
X199329646Y-145196036D02*
X199417193Y-145239809D01*
X199417193Y-145239809D02*
X199504740Y-145239809D01*
X199504740Y-145239809D02*
X199570399Y-145217923D01*
X199570399Y-145217923D02*
X199679833Y-145152263D01*
X199679833Y-145152263D02*
X199745493Y-145086603D01*
X199745493Y-145086603D02*
X199811152Y-144977170D01*
X199811152Y-144977170D02*
X199833039Y-144911510D01*
X199833039Y-144911510D02*
X199833039Y-144823963D01*
X199833039Y-144823963D02*
X199789266Y-144736417D01*
X199789266Y-144736417D02*
X199745493Y-144692643D01*
X199745493Y-144692643D02*
X199657946Y-144648870D01*
X199657946Y-144648870D02*
X199614173Y-144648870D01*
X199504740Y-144451890D02*
X199198327Y-144145477D01*
X199198327Y-144145477D02*
X198935687Y-144802076D01*
D12*
%TO.C,TP5*%
X220770958Y-148528471D02*
X220770958Y-147128471D01*
X219370958Y-147128471D02*
X219370958Y-148528471D01*
X220770958Y-147128471D02*
X219370958Y-147128471D01*
X219370958Y-148528471D02*
X220770958Y-148528471D01*
%TO.C,TP4*%
X220771902Y-146500377D02*
X220771902Y-145100377D01*
X219371902Y-145100377D02*
X219371902Y-146500377D01*
X220771902Y-145100377D02*
X219371902Y-145100377D01*
X219371902Y-146500377D02*
X220771902Y-146500377D01*
D13*
%TO.C,SW2*%
X179797200Y-147761200D02*
X181898800Y-147761200D01*
X181898800Y-147761200D02*
X181898800Y-145862800D01*
X181898800Y-145862800D02*
X179797200Y-145862800D01*
X179797200Y-145862800D02*
X179797200Y-147761200D01*
D12*
%TO.C,C2*%
X201982989Y-149808870D02*
X201784178Y-150007681D01*
X201261740Y-149087621D02*
X201062929Y-149286432D01*
%TO.C,C8*%
X201323432Y-143425526D02*
X201475935Y-143273023D01*
X201832549Y-143934643D02*
X201985052Y-143782140D01*
%TO.C,Y1*%
X198311728Y-149064505D02*
X197604622Y-148357398D01*
X194351930Y-147933134D02*
X194069088Y-148215977D01*
X194069088Y-148215977D02*
X194634773Y-148781662D01*
X196331829Y-147084606D02*
X195766144Y-146518921D01*
X195907565Y-150054455D02*
X196614672Y-150761561D01*
X196897515Y-150478719D02*
X198311728Y-149064505D01*
X197038936Y-150620140D02*
X196756093Y-150902983D01*
X196897515Y-150478719D02*
X196614672Y-150761561D01*
X195907565Y-150054455D02*
X195624723Y-150337297D01*
X198453150Y-149205926D02*
X197038936Y-150620140D01*
X195766144Y-146518921D02*
X194351930Y-147933134D01*
%TO.C,C3*%
X211324412Y-148870912D02*
X211043252Y-148870912D01*
X211324412Y-147850912D02*
X211043252Y-147850912D01*
%TO.C,C6*%
X202747052Y-144544140D02*
X202594549Y-144696643D01*
X202237935Y-144035023D02*
X202085432Y-144187526D01*
D14*
%TO.C,U3*%
X208300408Y-149224921D02*
X204400408Y-149224921D01*
X204400408Y-149224921D02*
X204400408Y-144324921D01*
X208300408Y-144324921D02*
X208300408Y-149224921D01*
X204400408Y-144324921D02*
X208300408Y-144324921D01*
D15*
X204324487Y-149428121D02*
G75*
G03*
X204324487Y-149428121I-127279J0D01*
G01*
D12*
%TO.C,C5*%
X199133576Y-142507632D02*
X199286079Y-142660135D01*
X198624459Y-143016749D02*
X198776962Y-143169252D01*
%TO.C,D1*%
X211918550Y-147530773D02*
X210218550Y-147530773D01*
X211918550Y-147530773D02*
X211918550Y-144270773D01*
X210218550Y-147530773D02*
X210218550Y-144270773D01*
%TO.C,C1*%
X194622680Y-143043679D02*
X195944970Y-144365969D01*
X195944970Y-144365969D02*
X193180182Y-147130757D01*
X191857892Y-145808467D02*
X194622680Y-143043679D01*
%TO.C,C4*%
X197609576Y-144031632D02*
X197762079Y-144184135D01*
X197100459Y-144540749D02*
X197252962Y-144693252D01*
%TO.C,C9*%
X197215009Y-150408523D02*
X197367512Y-150256020D01*
X197724126Y-150917640D02*
X197876629Y-150765137D01*
%TO.C,F1*%
X214818688Y-146836588D02*
X214818688Y-148040716D01*
X212998688Y-146836588D02*
X212998688Y-148040716D01*
%TO.C,C7*%
X198014962Y-143931252D02*
X197862459Y-143778749D01*
X198524079Y-143422135D02*
X198371576Y-143269632D01*
%TD*%
M02*
