%TF.GenerationSoftware,KiCad,Pcbnew,7.0.6*%
%TF.CreationDate,2023-09-06T22:26:16-07:00*%
%TF.ProjectId,GCP-2,4743502d-322e-46b6-9963-61645f706362,rev?*%
%TF.SameCoordinates,Original*%
%TF.FileFunction,Copper,L4,Bot*%
%TF.FilePolarity,Positive*%
%FSLAX46Y46*%
G04 Gerber Fmt 4.6, Leading zero omitted, Abs format (unit mm)*
G04 Created by KiCad (PCBNEW 7.0.6) date 2023-09-06 22:26:16*
%MOMM*%
%LPD*%
G01*
G04 APERTURE LIST*
G04 Aperture macros list*
%AMRoundRect*
0 Rectangle with rounded corners*
0 $1 Rounding radius*
0 $2 $3 $4 $5 $6 $7 $8 $9 X,Y pos of 4 corners*
0 Add a 4 corners polygon primitive as box body*
4,1,4,$2,$3,$4,$5,$6,$7,$8,$9,$2,$3,0*
0 Add four circle primitives for the rounded corners*
1,1,$1+$1,$2,$3*
1,1,$1+$1,$4,$5*
1,1,$1+$1,$6,$7*
1,1,$1+$1,$8,$9*
0 Add four rect primitives between the rounded corners*
20,1,$1+$1,$2,$3,$4,$5,0*
20,1,$1+$1,$4,$5,$6,$7,0*
20,1,$1+$1,$6,$7,$8,$9,0*
20,1,$1+$1,$8,$9,$2,$3,0*%
%AMRotRect*
0 Rectangle, with rotation*
0 The origin of the aperture is its center*
0 $1 length*
0 $2 width*
0 $3 Rotation angle, in degrees counterclockwise*
0 Add horizontal line*
21,1,$1,$2,0,0,$3*%
%AMFreePoly0*
4,1,13,0.900000,0.500000,2.600000,0.500000,2.600000,-0.500000,0.900000,-0.500000,0.400000,-1.000000,-0.400000,-1.000000,-0.900000,-0.500000,-2.600000,-0.500000,-2.600000,0.500000,-0.900000,0.500000,-0.400000,1.000000,0.400000,1.000000,0.900000,0.500000,0.900000,0.500000,$1*%
G04 Aperture macros list end*
%TA.AperFunction,ComponentPad*%
%ADD10O,2.100000X1.050000*%
%TD*%
%TA.AperFunction,ComponentPad*%
%ADD11O,2.000000X1.000000*%
%TD*%
%TA.AperFunction,SMDPad,CuDef*%
%ADD12RoundRect,0.150000X-0.600000X-3.850000X0.600000X-3.850000X0.600000X3.850000X-0.600000X3.850000X0*%
%TD*%
%TA.AperFunction,SMDPad,CuDef*%
%ADD13RoundRect,0.150000X0.600000X3.850000X-0.600000X3.850000X-0.600000X-3.850000X0.600000X-3.850000X0*%
%TD*%
%TA.AperFunction,SMDPad,CuDef*%
%ADD14RoundRect,0.225000X-0.017678X0.335876X-0.335876X0.017678X0.017678X-0.335876X0.335876X-0.017678X0*%
%TD*%
%TA.AperFunction,SMDPad,CuDef*%
%ADD15RoundRect,0.140000X0.021213X-0.219203X0.219203X-0.021213X-0.021213X0.219203X-0.219203X0.021213X0*%
%TD*%
%TA.AperFunction,SMDPad,CuDef*%
%ADD16RotRect,0.400000X1.900000X135.000000*%
%TD*%
%TA.AperFunction,SMDPad,CuDef*%
%ADD17RoundRect,0.225000X0.225000X0.250000X-0.225000X0.250000X-0.225000X-0.250000X0.225000X-0.250000X0*%
%TD*%
%TA.AperFunction,SMDPad,CuDef*%
%ADD18RoundRect,0.140000X-0.021213X0.219203X-0.219203X0.021213X0.021213X-0.219203X0.219203X-0.021213X0*%
%TD*%
%TA.AperFunction,SMDPad,CuDef*%
%ADD19R,1.500000X0.700000*%
%TD*%
%TA.AperFunction,SMDPad,CuDef*%
%ADD20FreePoly0,0.000000*%
%TD*%
%TA.AperFunction,SMDPad,CuDef*%
%ADD21RoundRect,0.100000X-0.021213X-0.162635X0.162635X0.021213X0.021213X0.162635X-0.162635X-0.021213X0*%
%TD*%
%TA.AperFunction,SMDPad,CuDef*%
%ADD22RoundRect,0.100000X0.130000X0.100000X-0.130000X0.100000X-0.130000X-0.100000X0.130000X-0.100000X0*%
%TD*%
%TA.AperFunction,SMDPad,CuDef*%
%ADD23RoundRect,0.140000X-0.219203X-0.021213X-0.021213X-0.219203X0.219203X0.021213X0.021213X0.219203X0*%
%TD*%
%TA.AperFunction,SMDPad,CuDef*%
%ADD24RoundRect,0.250000X-0.250000X0.250000X-0.250000X-0.250000X0.250000X-0.250000X0.250000X0.250000X0*%
%TD*%
%TA.AperFunction,SMDPad,CuDef*%
%ADD25RoundRect,0.250000X0.017678X0.618718X-0.618718X-0.017678X-0.017678X-0.618718X0.618718X0.017678X0*%
%TD*%
%TA.AperFunction,SMDPad,CuDef*%
%ADD26RoundRect,0.100000X-0.130000X-0.100000X0.130000X-0.100000X0.130000X0.100000X-0.130000X0.100000X0*%
%TD*%
%TA.AperFunction,SMDPad,CuDef*%
%ADD27R,0.500000X0.550000*%
%TD*%
%TA.AperFunction,SMDPad,CuDef*%
%ADD28R,1.000000X1.000000*%
%TD*%
%TA.AperFunction,SMDPad,CuDef*%
%ADD29RoundRect,0.250001X0.624999X-0.462499X0.624999X0.462499X-0.624999X0.462499X-0.624999X-0.462499X0*%
%TD*%
%TA.AperFunction,SMDPad,CuDef*%
%ADD30RoundRect,0.140000X0.219203X0.021213X0.021213X0.219203X-0.219203X-0.021213X-0.021213X-0.219203X0*%
%TD*%
%TA.AperFunction,ViaPad*%
%ADD31C,0.700000*%
%TD*%
%TA.AperFunction,ViaPad*%
%ADD32C,0.550000*%
%TD*%
%TA.AperFunction,Conductor*%
%ADD33C,0.150000*%
%TD*%
%TA.AperFunction,Conductor*%
%ADD34C,0.250000*%
%TD*%
%TA.AperFunction,Conductor*%
%ADD35C,0.350000*%
%TD*%
G04 APERTURE END LIST*
D10*
%TO.P,J1,S1,SHELL_GND*%
%TO.N,GND*%
X216526187Y-151150946D03*
D11*
%TO.P,J1,S2,SHELL_GND*%
X220706187Y-151150946D03*
%TO.P,J1,S3,SHELL_GND*%
X220706187Y-142510946D03*
D10*
%TO.P,J1,S4,SHELL_GND*%
X216526187Y-142510946D03*
%TD*%
D12*
%TO.P,J2,4,GND*%
%TO.N,GND*%
X191586408Y-138544241D03*
%TO.P,J2,5,NC*%
%TO.N,unconnected-(J2-NC-Pad5)*%
X189586408Y-138544241D03*
%TO.P,J2,6,3.3V*%
%TO.N,+3V3*%
X187586408Y-138544241D03*
%TD*%
D13*
%TO.P,J5,4,GND*%
%TO.N,GND*%
X187586408Y-155180241D03*
%TO.P,J5,5,NC*%
%TO.N,unconnected-(J5-NC-Pad5)*%
X189586408Y-155180241D03*
%TO.P,J5,6,3.3V*%
%TO.N,+3V3*%
X191586408Y-155180241D03*
%TD*%
D12*
%TO.P,J3,4,GND*%
%TO.N,GND*%
X211652408Y-138544241D03*
%TO.P,J3,5,NC*%
%TO.N,unconnected-(J3-NC-Pad5)*%
X209652408Y-138544241D03*
%TO.P,J3,6,3.3V*%
%TO.N,+3V3*%
X207652408Y-138544241D03*
%TD*%
D13*
%TO.P,J4,4,GND*%
%TO.N,GND*%
X207652408Y-155180241D03*
%TO.P,J4,5,NC*%
%TO.N,unconnected-(J4-NC-Pad5)*%
X209652408Y-155180241D03*
%TO.P,J4,6,3.3V*%
%TO.N,+3V3*%
X211652408Y-155180241D03*
%TD*%
D14*
%TO.P,C2,1*%
%TO.N,+3V3*%
X202070967Y-148999643D03*
%TO.P,C2,2*%
%TO.N,GND*%
X200974951Y-150095659D03*
%TD*%
D15*
%TO.P,C8,1*%
%TO.N,GND*%
X201314831Y-143943244D03*
%TO.P,C8,2*%
%TO.N,+3V3*%
X201993653Y-143264422D03*
%TD*%
D16*
%TO.P,Y1,1,1*%
%TO.N,XTAL_IN*%
X197038936Y-149488769D03*
%TO.P,Y1,2,2*%
%TO.N,GND*%
X196190408Y-148640241D03*
%TO.P,Y1,3,3*%
%TO.N,Net-(R3-Pad1)*%
X195341880Y-147791713D03*
%TD*%
D17*
%TO.P,C3,1*%
%TO.N,GND*%
X213391544Y-144392894D03*
%TO.P,C3,2*%
%TO.N,VCC*%
X211841544Y-144392894D03*
%TD*%
D18*
%TO.P,C6,1*%
%TO.N,+3V3*%
X202755653Y-144026422D03*
%TO.P,C6,2*%
%TO.N,GND*%
X202076831Y-144705244D03*
%TD*%
D19*
%TO.P,U3,1,CE*%
%TO.N,Net-(U3-CE)*%
X206408800Y-148294452D03*
D20*
%TO.P,U3,2,GND*%
%TO.N,GND*%
X208258800Y-146794452D03*
D19*
%TO.P,U3,3,NC*%
%TO.N,unconnected-(U3-NC-Pad3)*%
X206408800Y-145294452D03*
%TO.P,U3,4,Vin*%
%TO.N,VCC*%
X210108800Y-145294452D03*
%TO.P,U3,5,Vout*%
%TO.N,+3V3*%
X210108800Y-148294452D03*
%TD*%
D21*
%TO.P,R14,1*%
%TO.N,Net-(U3-CE)*%
X204335829Y-148481325D03*
%TO.P,R14,2*%
%TO.N,VCC*%
X204788377Y-148028777D03*
%TD*%
D22*
%TO.P,R11,1*%
%TO.N,GC2*%
X205393417Y-143889318D03*
%TO.P,R11,2*%
%TO.N,+3V3*%
X204753417Y-143889318D03*
%TD*%
D23*
%TO.P,C5,1*%
%TO.N,+3V3*%
X198615858Y-142499031D03*
%TO.P,C5,2*%
%TO.N,GND*%
X199294680Y-143177853D03*
%TD*%
D24*
%TO.P,D1,1,K*%
%TO.N,VCC*%
X212090000Y-146140800D03*
%TO.P,D1,2,A*%
%TO.N,Net-(D1-A)*%
X212090000Y-148640800D03*
%TD*%
D25*
%TO.P,C1,1*%
%TO.N,+3V3*%
X194605002Y-144383647D03*
%TO.P,C1,2*%
%TO.N,GND*%
X192695814Y-146292835D03*
%TD*%
D26*
%TO.P,R13,1*%
%TO.N,GC4*%
X194455029Y-150319832D03*
%TO.P,R13,2*%
%TO.N,+3V3*%
X195095029Y-150319832D03*
%TD*%
D22*
%TO.P,R12,1*%
%TO.N,GC3*%
X204684485Y-150045611D03*
%TO.P,R12,2*%
%TO.N,+3V3*%
X204044485Y-150045611D03*
%TD*%
D27*
%TO.P,SW2,1,1*%
%TO.N,GND*%
X181248000Y-148137000D03*
%TO.P,SW2,2,2*%
X180448000Y-148137000D03*
%TO.P,SW2,3,3*%
%TO.N,USB_BOOT*%
X181248000Y-145487000D03*
%TO.P,SW2,4,4*%
X180448000Y-145487000D03*
%TD*%
D22*
%TO.P,R10,1*%
%TO.N,GC1*%
X191908725Y-148694060D03*
%TO.P,R10,2*%
%TO.N,+3V3*%
X191268725Y-148694060D03*
%TD*%
D23*
%TO.P,C4,1*%
%TO.N,+3V3*%
X197091858Y-144023031D03*
%TO.P,C4,2*%
%TO.N,GND*%
X197770680Y-144701853D03*
%TD*%
D28*
%TO.P,TP5,1,1*%
%TO.N,+5V*%
X220070958Y-147828471D03*
%TD*%
D15*
%TO.P,C9,1*%
%TO.N,GND*%
X197206408Y-150926241D03*
%TO.P,C9,2*%
%TO.N,+1V1*%
X197885230Y-150247419D03*
%TD*%
D29*
%TO.P,F1,1*%
%TO.N,Net-(D1-A)*%
X214172800Y-149061500D03*
%TO.P,F1,2*%
%TO.N,+5V*%
X214172800Y-146086500D03*
%TD*%
D30*
%TO.P,C7,1*%
%TO.N,GND*%
X198532680Y-143939853D03*
%TO.P,C7,2*%
%TO.N,+3V3*%
X197853858Y-143261031D03*
%TD*%
D28*
%TO.P,TP4,1,1*%
%TO.N,GND*%
X220071902Y-145800377D03*
%TD*%
D31*
%TO.N,Net-(R3-Pad1)*%
X193695697Y-148486606D03*
%TO.N,XTAL_IN*%
X197791866Y-148103220D03*
%TO.N,GND*%
X198120000Y-146812000D03*
X219202000Y-149098000D03*
D32*
X187991475Y-148882200D03*
D31*
X196470764Y-146751305D03*
X183388000Y-150114000D03*
X211362718Y-150273906D03*
X191535313Y-150630225D03*
X210142867Y-146436503D03*
X191318560Y-146451787D03*
X190941352Y-149422630D03*
X208367922Y-147388245D03*
X201168000Y-151638000D03*
D32*
X187452000Y-150368000D03*
D31*
X200660000Y-146812000D03*
X208343905Y-144055246D03*
X180848000Y-146812000D03*
D32*
%TO.N,SIO2*%
X184945050Y-144264227D03*
X200287822Y-144315048D03*
%TO.N,SIO0*%
X183329531Y-148385788D03*
X201793827Y-142067869D03*
%TO.N,SCLK*%
X202795711Y-142202738D03*
X186724196Y-147123466D03*
%TO.N,SIO3*%
X184003876Y-148872280D03*
X202901679Y-143053696D03*
%TO.N,+3V3*%
X208330800Y-148488400D03*
D31*
X186628942Y-143070236D03*
X192692295Y-150555796D03*
D32*
X210907729Y-144450543D03*
X197054805Y-142594651D03*
D31*
X188781411Y-147791696D03*
X207971441Y-149534869D03*
D32*
X196022567Y-150551036D03*
D31*
X206506816Y-142972765D03*
X183219200Y-143737841D03*
X212741216Y-150591034D03*
X202438000Y-151130000D03*
D32*
X186105886Y-147678029D03*
%TO.N,+1V1*%
X202478822Y-146399334D03*
X198606155Y-148933565D03*
D31*
%TO.N,VCC*%
X191207561Y-143118722D03*
D32*
X205155019Y-147669371D03*
D31*
X206750636Y-150677559D03*
X213016317Y-143314091D03*
X185805006Y-149691413D03*
D32*
%TO.N,GC1*%
X200416269Y-148928126D03*
X192630956Y-149331111D03*
%TO.N,GC2*%
X201883120Y-147841162D03*
X207649979Y-143694420D03*
%TO.N,GC3*%
X205659402Y-149412042D03*
%TO.N,GC4*%
X204864639Y-149318115D03*
X193898381Y-150382450D03*
D31*
%TO.N,Net-(L1-DOUT)*%
X192703161Y-143198199D03*
X206145560Y-144379256D03*
%TO.N,Net-(L2-DOUT)*%
X211354130Y-143394984D03*
X211161337Y-149226128D03*
%TO.N,Net-(L3-DOUT)*%
X190342037Y-148465301D03*
X206649396Y-149208502D03*
D32*
%TO.N,USB_BOOT*%
X186933331Y-144414179D03*
X201097172Y-142170832D03*
X182372000Y-146050000D03*
%TO.N,SIO1*%
X199664856Y-143891174D03*
X186418974Y-145611676D03*
%TO.N,BTN_1*%
X192147468Y-147494690D03*
X182501911Y-144714473D03*
%TO.N,BTN_2*%
X192936575Y-148144951D03*
X182434617Y-149397925D03*
D31*
%TO.N,+5V*%
X218128772Y-146002723D03*
X218128772Y-147623172D03*
%TD*%
D33*
%TO.N,Net-(R3-Pad1)*%
X193695697Y-148486606D02*
X194646987Y-148486606D01*
X194646987Y-148486606D02*
X195341880Y-147791713D01*
%TO.N,XTAL_IN*%
X197038936Y-149488769D02*
X197791866Y-148735839D01*
X197791866Y-148735839D02*
X197791866Y-148103220D01*
D34*
%TO.N,GND*%
X211652408Y-142135207D02*
X210752852Y-143034763D01*
D35*
X192536862Y-146451787D02*
X192695814Y-146292835D01*
X207652408Y-151331308D02*
X208106596Y-150877120D01*
D34*
X202241508Y-144869921D02*
X203675408Y-144869921D01*
D33*
X210759504Y-150877120D02*
X211362718Y-150273906D01*
D34*
X219284848Y-149098000D02*
X220706187Y-150519339D01*
D35*
X191974544Y-142557905D02*
X191974544Y-143121463D01*
X191974544Y-143121463D02*
X191981770Y-143128689D01*
D34*
X197770680Y-144701853D02*
X198532680Y-143939853D01*
D33*
X180448000Y-148137000D02*
X181248000Y-148137000D01*
D35*
X207652408Y-155180241D02*
X207652408Y-151331308D01*
D33*
X209025408Y-147409921D02*
X208389598Y-147409921D01*
D34*
X202076831Y-144705244D02*
X202241508Y-144869921D01*
X187452000Y-150368000D02*
X187452000Y-155045833D01*
X219202000Y-149098000D02*
X219284848Y-149098000D01*
D35*
X191586408Y-138544241D02*
X191586408Y-142169769D01*
D34*
X219202000Y-149015152D02*
X219202000Y-149098000D01*
X220706187Y-150519339D02*
X220706187Y-151150946D01*
D35*
X191318560Y-146451787D02*
X192536862Y-146451787D01*
D33*
X208106596Y-150877120D02*
X210759504Y-150877120D01*
D34*
X187452000Y-155045833D02*
X187586408Y-155180241D01*
X201314831Y-143943244D02*
X202076831Y-144705244D01*
X198532680Y-143939853D02*
X199294680Y-143177853D01*
D33*
X208389598Y-147409921D02*
X208367922Y-147388245D01*
D35*
X191586408Y-142169769D02*
X191974544Y-142557905D01*
D34*
X211652408Y-138544241D02*
X211652408Y-142135207D01*
D33*
%TO.N,+3V3*%
X188781411Y-147791696D02*
X188962601Y-147610506D01*
D35*
X211652408Y-151679842D02*
X212741216Y-150591034D01*
D34*
X197091858Y-144023031D02*
X196480745Y-143411918D01*
D33*
X188962601Y-147610506D02*
X190465995Y-147610506D01*
D35*
X210108800Y-148294452D02*
X208524748Y-148294452D01*
X202070967Y-148999643D02*
X202390689Y-148679921D01*
D33*
X203522389Y-150045611D02*
X202438000Y-151130000D01*
D35*
X191586408Y-151661683D02*
X192692295Y-150555796D01*
D33*
X195791363Y-150319832D02*
X196022567Y-150551036D01*
D34*
X204467858Y-143603759D02*
X204784475Y-143287142D01*
X204467858Y-143603759D02*
X204753417Y-143889318D01*
X204784475Y-143287142D02*
X206192439Y-143287142D01*
D35*
X211652408Y-155180241D02*
X211652408Y-151679842D01*
X191586408Y-155180241D02*
X191586408Y-151661683D01*
X187586408Y-142112770D02*
X186628942Y-143070236D01*
D33*
X191258664Y-148403175D02*
X191258664Y-148679823D01*
D35*
X202070967Y-148999643D02*
X203660689Y-147409921D01*
D33*
X195095029Y-150319832D02*
X195791363Y-150319832D01*
D34*
X194997265Y-144383647D02*
X196480745Y-142900167D01*
X196480745Y-143411918D02*
X196480745Y-142900167D01*
D33*
X204044485Y-150045611D02*
X203675408Y-149676534D01*
X204044485Y-150045611D02*
X203522389Y-150045611D01*
D35*
X187586408Y-138544241D02*
X187586408Y-142112770D01*
X202390689Y-148679921D02*
X203675408Y-148679921D01*
D33*
X203675408Y-149676534D02*
X203675408Y-148679921D01*
X190465995Y-147610506D02*
X191258664Y-148403175D01*
D34*
X196480745Y-142900167D02*
X196749289Y-142900167D01*
X197853858Y-143261031D02*
X197091858Y-144023031D01*
D35*
X203660689Y-147409921D02*
X203675408Y-147409921D01*
X203675408Y-147409921D02*
X203675408Y-148679921D01*
X210108800Y-148793200D02*
X209367131Y-149534869D01*
X207652408Y-141827173D02*
X207652408Y-138544241D01*
D34*
X196749289Y-142900167D02*
X197054805Y-142594651D01*
D35*
X208524748Y-148294452D02*
X208330800Y-148488400D01*
D34*
X201993653Y-143264422D02*
X202755653Y-144026422D01*
D35*
X209367131Y-149534869D02*
X207971441Y-149534869D01*
X210108800Y-148294452D02*
X210108800Y-148793200D01*
D34*
X198615858Y-142499031D02*
X197853858Y-143261031D01*
X203178316Y-143603759D02*
X204467858Y-143603759D01*
X194605002Y-144383647D02*
X194997265Y-144383647D01*
D35*
X206506816Y-142972765D02*
X207652408Y-141827173D01*
D34*
X206192439Y-143287142D02*
X206506816Y-142972765D01*
X202755653Y-144026422D02*
X203178316Y-143603759D01*
D33*
%TO.N,+1V1*%
X202478822Y-146399334D02*
X201423955Y-147454201D01*
X198606155Y-149526494D02*
X197885230Y-150247419D01*
X200085519Y-147454201D02*
X198606155Y-148933565D01*
X201423955Y-147454201D02*
X200085519Y-147454201D01*
X198606155Y-148933565D02*
X198606155Y-149526494D01*
D35*
%TO.N,Net-(D1-A)*%
X214172800Y-149061500D02*
X213752100Y-148640800D01*
X213752100Y-148640800D02*
X212090000Y-148640800D01*
D33*
%TO.N,VCC*%
X204788377Y-148028777D02*
X204795613Y-148028777D01*
D35*
X211841544Y-144392894D02*
X211841544Y-144990560D01*
X211537652Y-145294452D02*
X210108800Y-145294452D01*
X212090000Y-146140800D02*
X212090000Y-145846800D01*
D33*
X204795613Y-148028777D02*
X205155019Y-147669371D01*
D35*
X211937514Y-144392894D02*
X213016317Y-143314091D01*
X211841544Y-144990560D02*
X211537652Y-145294452D01*
X212090000Y-145846800D02*
X211537652Y-145294452D01*
X211841544Y-144392894D02*
X211937514Y-144392894D01*
D33*
%TO.N,GC1*%
X191908725Y-148694060D02*
X192545776Y-149331111D01*
X192545776Y-149331111D02*
X192630956Y-149331111D01*
%TO.N,GC2*%
X207619267Y-143725132D02*
X207649979Y-143694420D01*
X205393417Y-143889318D02*
X205557603Y-143725132D01*
X205557603Y-143725132D02*
X207619267Y-143725132D01*
%TO.N,GC3*%
X205659402Y-149412042D02*
X205025833Y-150045611D01*
X205025833Y-150045611D02*
X204684485Y-150045611D01*
%TO.N,GC4*%
X194455029Y-150319832D02*
X193960999Y-150319832D01*
X193960999Y-150319832D02*
X193898381Y-150382450D01*
%TO.N,USB_BOOT*%
X181248000Y-145487000D02*
X181809000Y-145487000D01*
X181809000Y-145487000D02*
X182372000Y-146050000D01*
X180448000Y-145487000D02*
X181248000Y-145487000D01*
%TO.N,BTN_1*%
X183997511Y-146210073D02*
X182501911Y-144714473D01*
X190127655Y-146210073D02*
X183997511Y-146210073D01*
X191412272Y-147494690D02*
X190127655Y-146210073D01*
X192147468Y-147494690D02*
X191412272Y-147494690D01*
%TO.N,BTN_2*%
X192931758Y-148140134D02*
X191551958Y-148140134D01*
X183911085Y-146561847D02*
X182434617Y-148038315D01*
X191551958Y-148140134D02*
X189973671Y-146561847D01*
X192936575Y-148144951D02*
X192931758Y-148140134D01*
X189973671Y-146561847D02*
X183911085Y-146561847D01*
X182434617Y-148038315D02*
X182434617Y-149397925D01*
%TO.N,Net-(U3-CE)*%
X204596904Y-148742400D02*
X205181200Y-148742400D01*
X205629148Y-148294452D02*
X206408800Y-148294452D01*
X204335829Y-148481325D02*
X204596904Y-148742400D01*
X205181200Y-148742400D02*
X205629148Y-148294452D01*
D34*
%TO.N,+5V*%
X218128772Y-147623172D02*
X218895572Y-147623172D01*
X219100871Y-147828471D02*
X220070958Y-147828471D01*
D35*
X214172800Y-146086500D02*
X218044995Y-146086500D01*
D34*
X218895572Y-147623172D02*
X219100871Y-147828471D01*
D35*
X218044995Y-146086500D02*
X218128772Y-146002723D01*
%TD*%
%TA.AperFunction,Conductor*%
%TO.N,GND*%
G36*
X179644176Y-140783403D02*
G01*
X179669486Y-140827240D01*
X179670610Y-140840090D01*
X179670610Y-140865255D01*
X179707234Y-141061178D01*
X179743095Y-141153744D01*
X179779237Y-141247036D01*
X179884165Y-141416500D01*
X179937937Y-141475485D01*
X180010599Y-141555192D01*
X180018446Y-141563799D01*
X180145601Y-141659822D01*
X180177502Y-141683913D01*
X180177504Y-141683915D01*
X180177505Y-141683915D01*
X180177506Y-141683916D01*
X180355930Y-141772761D01*
X180547641Y-141827307D01*
X180547652Y-141827308D01*
X180746107Y-141845698D01*
X180746110Y-141845698D01*
X180746113Y-141845698D01*
X180912560Y-141830274D01*
X180944579Y-141827307D01*
X181136290Y-141772761D01*
X181314714Y-141683916D01*
X181473774Y-141563799D01*
X181608055Y-141416500D01*
X181712983Y-141247036D01*
X181784986Y-141061176D01*
X181821610Y-140865250D01*
X181821610Y-140840090D01*
X181838923Y-140792524D01*
X181882760Y-140767214D01*
X181895610Y-140766090D01*
X183248721Y-140766090D01*
X183296287Y-140783403D01*
X183321597Y-140827240D01*
X183322721Y-140840090D01*
X183322721Y-142447923D01*
X183318066Y-142460712D01*
X183321796Y-142484286D01*
X183322705Y-142495851D01*
X183322705Y-142539443D01*
X183331355Y-142571724D01*
X183330450Y-142582060D01*
X183334667Y-142590335D01*
X183340211Y-142604776D01*
X183346591Y-142628584D01*
X183346592Y-142628587D01*
X183370967Y-142670805D01*
X183372923Y-142681900D01*
X183376561Y-142685538D01*
X183388320Y-142700861D01*
X183392738Y-142708513D01*
X183444822Y-142760595D01*
X183457999Y-142773772D01*
X183465655Y-142778192D01*
X183480982Y-142789951D01*
X183484464Y-142793433D01*
X183495708Y-142795541D01*
X183537928Y-142819915D01*
X183561749Y-142826296D01*
X183576186Y-142831838D01*
X183584350Y-142835997D01*
X183594482Y-142835066D01*
X183594612Y-142835100D01*
X183627075Y-142843797D01*
X183670555Y-142843795D01*
X183682130Y-142844706D01*
X183704664Y-142848274D01*
X183715803Y-142843830D01*
X183718066Y-142843795D01*
X185723997Y-142843795D01*
X185736681Y-142848411D01*
X185760053Y-142844711D01*
X185771625Y-142843800D01*
X185815145Y-142843799D01*
X185818952Y-142842779D01*
X185847419Y-142835151D01*
X185857752Y-142836054D01*
X185866024Y-142831840D01*
X185880461Y-142826297D01*
X185904289Y-142819913D01*
X185946506Y-142795538D01*
X185957597Y-142793582D01*
X185961234Y-142789946D01*
X185976556Y-142778188D01*
X185984213Y-142773768D01*
X186049471Y-142708509D01*
X186053891Y-142700854D01*
X186065651Y-142685526D01*
X186069132Y-142682044D01*
X186071241Y-142670800D01*
X186095615Y-142628584D01*
X186101999Y-142604755D01*
X186107541Y-142590319D01*
X186111699Y-142582158D01*
X186110768Y-142572031D01*
X186110798Y-142571914D01*
X186115332Y-142554995D01*
X186116980Y-142548846D01*
X186146015Y-142507382D01*
X186188458Y-142494000D01*
X186347808Y-142494000D01*
X186395374Y-142511313D01*
X186420684Y-142555150D01*
X186411894Y-142605000D01*
X186387815Y-142630253D01*
X186297817Y-142688091D01*
X186297810Y-142688096D01*
X186203565Y-142796862D01*
X186143776Y-142927781D01*
X186124056Y-143064943D01*
X186123295Y-143070236D01*
X186124806Y-143080744D01*
X186143776Y-143212690D01*
X186143776Y-143212691D01*
X186143777Y-143212693D01*
X186190085Y-143314092D01*
X186203565Y-143343609D01*
X186297810Y-143452375D01*
X186297811Y-143452376D01*
X186297814Y-143452379D01*
X186382408Y-143506744D01*
X186414329Y-143527259D01*
X186418889Y-143530189D01*
X186488339Y-143550581D01*
X186556977Y-143570735D01*
X186556979Y-143570736D01*
X186556981Y-143570736D01*
X186700905Y-143570736D01*
X186700906Y-143570735D01*
X186838995Y-143530189D01*
X186960070Y-143452379D01*
X187054319Y-143343609D01*
X187114107Y-143212693D01*
X187134589Y-143070236D01*
X187134163Y-143067279D01*
X187134588Y-143065247D01*
X187134589Y-143064943D01*
X187134653Y-143064943D01*
X187144529Y-143017733D01*
X187155080Y-143004423D01*
X187443090Y-142716414D01*
X187488967Y-142695022D01*
X187495416Y-142694740D01*
X188231271Y-142694740D01*
X188231272Y-142694740D01*
X188256399Y-142691826D01*
X188359173Y-142646447D01*
X188438614Y-142567006D01*
X188446632Y-142548847D01*
X188451374Y-142538109D01*
X188486424Y-142501589D01*
X188519068Y-142494000D01*
X188653748Y-142494000D01*
X188701314Y-142511313D01*
X188721442Y-142538109D01*
X188734201Y-142567005D01*
X188734202Y-142567006D01*
X188813643Y-142646447D01*
X188916417Y-142691826D01*
X188941543Y-142694741D01*
X190231272Y-142694740D01*
X190256399Y-142691826D01*
X190359173Y-142646447D01*
X190414429Y-142591190D01*
X190460305Y-142569798D01*
X190509199Y-142582898D01*
X190536089Y-142617655D01*
X190543054Y-142636329D01*
X190629219Y-142751429D01*
X190727437Y-142824956D01*
X190755140Y-142867321D01*
X190750403Y-142914936D01*
X190722395Y-142976265D01*
X190702417Y-143115222D01*
X190701914Y-143118722D01*
X190703544Y-143130058D01*
X190722395Y-143261176D01*
X190722395Y-143261177D01*
X190722396Y-143261179D01*
X190764656Y-143353714D01*
X190782184Y-143392095D01*
X190876429Y-143500861D01*
X190876430Y-143500862D01*
X190876433Y-143500865D01*
X190938902Y-143541011D01*
X190985154Y-143570736D01*
X190997508Y-143578675D01*
X191099734Y-143608691D01*
X191135596Y-143619221D01*
X191135598Y-143619222D01*
X191135600Y-143619222D01*
X191279524Y-143619222D01*
X191279525Y-143619221D01*
X191417614Y-143578675D01*
X191538689Y-143500865D01*
X191632938Y-143392095D01*
X191692726Y-143261179D01*
X191713208Y-143118722D01*
X191698608Y-143017174D01*
X191693087Y-142978772D01*
X191703455Y-142929226D01*
X191743244Y-142897936D01*
X191766334Y-142894241D01*
X192176605Y-142894241D01*
X192224171Y-142911554D01*
X192249481Y-142955391D01*
X192243918Y-142998981D01*
X192237483Y-143013072D01*
X192217995Y-143055744D01*
X192199338Y-143185514D01*
X192197514Y-143198199D01*
X192199598Y-143212693D01*
X192217995Y-143340653D01*
X192217995Y-143340654D01*
X192217996Y-143340656D01*
X192265584Y-143444857D01*
X192277784Y-143471572D01*
X192372029Y-143580338D01*
X192372030Y-143580339D01*
X192372033Y-143580342D01*
X192493108Y-143658152D01*
X192599564Y-143689410D01*
X192631196Y-143698698D01*
X192631198Y-143698699D01*
X192631200Y-143698699D01*
X192775124Y-143698699D01*
X192775125Y-143698698D01*
X192783517Y-143696234D01*
X192913214Y-143658152D01*
X193034289Y-143580342D01*
X193128538Y-143471572D01*
X193188326Y-143340656D01*
X193208808Y-143198199D01*
X193188326Y-143055742D01*
X193128538Y-142924826D01*
X193078710Y-142867321D01*
X193034292Y-142816059D01*
X193034290Y-142816058D01*
X193034289Y-142816056D01*
X192968494Y-142773772D01*
X192913215Y-142738246D01*
X192913211Y-142738245D01*
X192775125Y-142697699D01*
X192775122Y-142697699D01*
X192713452Y-142697699D01*
X192665886Y-142680386D01*
X192640576Y-142636549D01*
X192644117Y-142597839D01*
X192664891Y-142542140D01*
X192697735Y-142503623D01*
X192734226Y-142494000D01*
X193049547Y-142494000D01*
X193097113Y-142511313D01*
X193121025Y-142548846D01*
X193126639Y-142569798D01*
X193127154Y-142571717D01*
X193126249Y-142582052D01*
X193130466Y-142590328D01*
X193136009Y-142604769D01*
X193142388Y-142628577D01*
X193142392Y-142628586D01*
X193166762Y-142670797D01*
X193168718Y-142681890D01*
X193172355Y-142685527D01*
X193184112Y-142700849D01*
X193186606Y-142705168D01*
X193188534Y-142708507D01*
X193253792Y-142773766D01*
X193261442Y-142778183D01*
X193276767Y-142789942D01*
X193280249Y-142793424D01*
X193291494Y-142795533D01*
X193327041Y-142816056D01*
X193333713Y-142819908D01*
X193357534Y-142826291D01*
X193371970Y-142831833D01*
X193380134Y-142835992D01*
X193390261Y-142835062D01*
X193390578Y-142835146D01*
X193422855Y-142843795D01*
X193466334Y-142843795D01*
X193477911Y-142844706D01*
X193500435Y-142848273D01*
X193511572Y-142843830D01*
X193513836Y-142843795D01*
X195520446Y-142843795D01*
X195532934Y-142848340D01*
X195555863Y-142844707D01*
X195567446Y-142843795D01*
X195572199Y-142843795D01*
X195572351Y-142843779D01*
X195610923Y-142843781D01*
X195643199Y-142835134D01*
X195653533Y-142836038D01*
X195661806Y-142831824D01*
X195676251Y-142826280D01*
X195678036Y-142825801D01*
X195700066Y-142819900D01*
X195742283Y-142795527D01*
X195753373Y-142793572D01*
X195757008Y-142789938D01*
X195772334Y-142778178D01*
X195779991Y-142773759D01*
X195845249Y-142708504D01*
X195849670Y-142700845D01*
X195861428Y-142685524D01*
X195864909Y-142682042D01*
X195867019Y-142670797D01*
X195891394Y-142628581D01*
X195897776Y-142604762D01*
X195903319Y-142590322D01*
X195907477Y-142582160D01*
X195906547Y-142572029D01*
X195906630Y-142571718D01*
X195906631Y-142571714D01*
X195915279Y-142539439D01*
X195915279Y-142495956D01*
X195916190Y-142484380D01*
X195919757Y-142461852D01*
X195915313Y-142450709D01*
X195915279Y-142448456D01*
X195915279Y-141615090D01*
X195932592Y-141567524D01*
X195976429Y-141542214D01*
X195989279Y-141541090D01*
X201582213Y-141541090D01*
X201629779Y-141558403D01*
X201655089Y-141602240D01*
X201646299Y-141652090D01*
X201615808Y-141681024D01*
X201540607Y-141719340D01*
X201445617Y-141814330D01*
X201399740Y-141835722D01*
X201356055Y-141824016D01*
X201355581Y-141824948D01*
X201351200Y-141822715D01*
X201350846Y-141822621D01*
X201350426Y-141822321D01*
X201230298Y-141761113D01*
X201230298Y-141761112D01*
X201097172Y-141740028D01*
X200964045Y-141761112D01*
X200964045Y-141761113D01*
X200843952Y-141822303D01*
X200748643Y-141917612D01*
X200687453Y-142037705D01*
X200687452Y-142037705D01*
X200666368Y-142170832D01*
X200687452Y-142303958D01*
X200748643Y-142424051D01*
X200748644Y-142424052D01*
X200843952Y-142519360D01*
X200964045Y-142580550D01*
X200964045Y-142580551D01*
X200978864Y-142582898D01*
X201097172Y-142601636D01*
X201230298Y-142580551D01*
X201350392Y-142519360D01*
X201445382Y-142424369D01*
X201491257Y-142402978D01*
X201534943Y-142414683D01*
X201535418Y-142413753D01*
X201539796Y-142415984D01*
X201540151Y-142416079D01*
X201540570Y-142416378D01*
X201540606Y-142416396D01*
X201540607Y-142416397D01*
X201660700Y-142477587D01*
X201660700Y-142477588D01*
X201678902Y-142480470D01*
X201793827Y-142498673D01*
X201926953Y-142477588D01*
X202047047Y-142416397D01*
X202142355Y-142321089D01*
X202203546Y-142200995D01*
X202224631Y-142067869D01*
X202203546Y-141934743D01*
X202203546Y-141934742D01*
X202142355Y-141814649D01*
X202047046Y-141719340D01*
X201971846Y-141681024D01*
X201937324Y-141644004D01*
X201934675Y-141593454D01*
X201965138Y-141553028D01*
X202005441Y-141541090D01*
X203298721Y-141541090D01*
X203346287Y-141558403D01*
X203371597Y-141602240D01*
X203372721Y-141615090D01*
X203372721Y-142185587D01*
X203367633Y-142199564D01*
X203371361Y-142205768D01*
X203372721Y-142219888D01*
X203372721Y-142447923D01*
X203368066Y-142460712D01*
X203371796Y-142484286D01*
X203372705Y-142495851D01*
X203372705Y-142539443D01*
X203381355Y-142571724D01*
X203380450Y-142582060D01*
X203384667Y-142590335D01*
X203390211Y-142604776D01*
X203396591Y-142628584D01*
X203396592Y-142628587D01*
X203420967Y-142670805D01*
X203422923Y-142681900D01*
X203426561Y-142685538D01*
X203438320Y-142700861D01*
X203442738Y-142708513D01*
X203494822Y-142760595D01*
X203507999Y-142773772D01*
X203515655Y-142778192D01*
X203530982Y-142789951D01*
X203534464Y-142793433D01*
X203545708Y-142795541D01*
X203587928Y-142819915D01*
X203611749Y-142826296D01*
X203626186Y-142831838D01*
X203634350Y-142835997D01*
X203644482Y-142835066D01*
X203644612Y-142835100D01*
X203677075Y-142843797D01*
X203720555Y-142843795D01*
X203732130Y-142844706D01*
X203754664Y-142848274D01*
X203765803Y-142843830D01*
X203768066Y-142843795D01*
X205773997Y-142843795D01*
X205786681Y-142848411D01*
X205810053Y-142844711D01*
X205821625Y-142843800D01*
X205865145Y-142843799D01*
X205868952Y-142842779D01*
X205897419Y-142835151D01*
X205917200Y-142836881D01*
X205952852Y-142832503D01*
X205995305Y-142860072D01*
X206010106Y-142908479D01*
X206009454Y-142915137D01*
X206004705Y-142948172D01*
X205980800Y-142992791D01*
X205933807Y-143011605D01*
X205931458Y-143011642D01*
X204818895Y-143011642D01*
X204804458Y-143010220D01*
X204794554Y-143008250D01*
X204784475Y-143006245D01*
X204784474Y-143006245D01*
X204757343Y-143011642D01*
X204757342Y-143011642D01*
X204718787Y-143019311D01*
X204676979Y-143027627D01*
X204653458Y-143043344D01*
X204610780Y-143071860D01*
X204585851Y-143088517D01*
X204585849Y-143088519D01*
X204574528Y-143105461D01*
X204565328Y-143116671D01*
X204375416Y-143306585D01*
X204329540Y-143327977D01*
X204323090Y-143328259D01*
X203360089Y-143328259D01*
X203312523Y-143310946D01*
X203287213Y-143267109D01*
X203294153Y-143220665D01*
X203311398Y-143186822D01*
X203332483Y-143053696D01*
X203311398Y-142920570D01*
X203311398Y-142920569D01*
X203250207Y-142800476D01*
X203154898Y-142705167D01*
X203073496Y-142663691D01*
X203038974Y-142626671D01*
X203036324Y-142576121D01*
X203054763Y-142545433D01*
X203144239Y-142455958D01*
X203205430Y-142335864D01*
X203225632Y-142208311D01*
X203227598Y-142204764D01*
X203225632Y-142197163D01*
X203205430Y-142069611D01*
X203144239Y-141949518D01*
X203048930Y-141854209D01*
X202928837Y-141793019D01*
X202928837Y-141793018D01*
X202795711Y-141771934D01*
X202662584Y-141793018D01*
X202662584Y-141793019D01*
X202542491Y-141854209D01*
X202447182Y-141949518D01*
X202385992Y-142069611D01*
X202385991Y-142069611D01*
X202364907Y-142202737D01*
X202385991Y-142335864D01*
X202444508Y-142450709D01*
X202447183Y-142455958D01*
X202542491Y-142551266D01*
X202623895Y-142592743D01*
X202658415Y-142629762D01*
X202661065Y-142680311D01*
X202642624Y-142711002D01*
X202553150Y-142800476D01*
X202491960Y-142920569D01*
X202491959Y-142920570D01*
X202482775Y-142978561D01*
X202458234Y-143022834D01*
X202410977Y-143040974D01*
X202363116Y-143024494D01*
X202357366Y-143019317D01*
X202147185Y-142809136D01*
X202128017Y-142793953D01*
X202128015Y-142793952D01*
X202026743Y-142754719D01*
X201918136Y-142754719D01*
X201816863Y-142793952D01*
X201797696Y-142809134D01*
X201797689Y-142809140D01*
X201538367Y-143068463D01*
X201523183Y-143087631D01*
X201481473Y-143195299D01*
X201479081Y-143194372D01*
X201458946Y-143228432D01*
X201411203Y-143245253D01*
X201401436Y-143244504D01*
X201293618Y-143229003D01*
X201154152Y-143249054D01*
X201154150Y-143249054D01*
X201025979Y-143307587D01*
X200980279Y-143344414D01*
X200971884Y-143352809D01*
X202076831Y-144457757D01*
X202667263Y-145048190D01*
X202675659Y-145039795D01*
X202712487Y-144994095D01*
X202771020Y-144865924D01*
X202771020Y-144865922D01*
X202791071Y-144726457D01*
X202775570Y-144618638D01*
X202785937Y-144569092D01*
X202825727Y-144537802D01*
X202829018Y-144536958D01*
X202831168Y-144536125D01*
X202831170Y-144536125D01*
X202932444Y-144496891D01*
X202951611Y-144481709D01*
X203210939Y-144222380D01*
X203226122Y-144203213D01*
X203265356Y-144101939D01*
X203265356Y-143993332D01*
X203265146Y-143992789D01*
X203260188Y-143979991D01*
X203259149Y-143929383D01*
X203290883Y-143889946D01*
X203329191Y-143879259D01*
X204298917Y-143879259D01*
X204346483Y-143896572D01*
X204371793Y-143940409D01*
X204372917Y-143953258D01*
X204372917Y-144013992D01*
X204378677Y-144042948D01*
X204387451Y-144087058D01*
X204436713Y-144160786D01*
X204442816Y-144169919D01*
X204525677Y-144225284D01*
X204598743Y-144239818D01*
X204598745Y-144239818D01*
X204908089Y-144239818D01*
X204908091Y-144239818D01*
X204981157Y-144225284D01*
X205032307Y-144191106D01*
X205081472Y-144179077D01*
X205114528Y-144191108D01*
X205165677Y-144225284D01*
X205238743Y-144239818D01*
X205238745Y-144239818D01*
X205548089Y-144239818D01*
X205548091Y-144239818D01*
X205560686Y-144237312D01*
X205610714Y-144245009D01*
X205644092Y-144283065D01*
X205648372Y-144320420D01*
X205643733Y-144352689D01*
X205639913Y-144379256D01*
X205642515Y-144397353D01*
X205660394Y-144521710D01*
X205660394Y-144521711D01*
X205660395Y-144521713D01*
X205720183Y-144652629D01*
X205733194Y-144667645D01*
X205736528Y-144671492D01*
X205754594Y-144718778D01*
X205738038Y-144766613D01*
X205694608Y-144792615D01*
X205680603Y-144793952D01*
X205643980Y-144793952D01*
X205634640Y-144795810D01*
X205600077Y-144802685D01*
X205550296Y-144835947D01*
X205550295Y-144835948D01*
X205517033Y-144885729D01*
X205517032Y-144885730D01*
X205517033Y-144885730D01*
X205508300Y-144929632D01*
X205508300Y-145659272D01*
X205511253Y-145674116D01*
X205517033Y-145703174D01*
X205544847Y-145744802D01*
X205550296Y-145752956D01*
X205600078Y-145786219D01*
X205643980Y-145794952D01*
X205643981Y-145794952D01*
X207173619Y-145794952D01*
X207173620Y-145794952D01*
X207217522Y-145786219D01*
X207267304Y-145752956D01*
X207300567Y-145703174D01*
X207309300Y-145659272D01*
X207309300Y-144929632D01*
X207300567Y-144885730D01*
X207267304Y-144835948D01*
X207256932Y-144829018D01*
X207217522Y-144802685D01*
X207199354Y-144799071D01*
X207173620Y-144793952D01*
X207173619Y-144793952D01*
X206610517Y-144793952D01*
X206562951Y-144776639D01*
X206537641Y-144732802D01*
X206546431Y-144682952D01*
X206554592Y-144671492D01*
X206570937Y-144652629D01*
X206630725Y-144521713D01*
X206651207Y-144379256D01*
X206630725Y-144236799D01*
X206570937Y-144105883D01*
X206554625Y-144087058D01*
X206542523Y-144073091D01*
X206524458Y-144025805D01*
X206541015Y-143977971D01*
X206584445Y-143951969D01*
X206598449Y-143950632D01*
X207273791Y-143950632D01*
X207321357Y-143967945D01*
X207326117Y-143972306D01*
X207396759Y-144042948D01*
X207516852Y-144104138D01*
X207516852Y-144104139D01*
X207527864Y-144105883D01*
X207649979Y-144125224D01*
X207783105Y-144104139D01*
X207903199Y-144042948D01*
X207998507Y-143947640D01*
X208059698Y-143827546D01*
X208080783Y-143694420D01*
X208062451Y-143578674D01*
X208059698Y-143561293D01*
X207998507Y-143441200D01*
X207903198Y-143345891D01*
X207783105Y-143284701D01*
X207783105Y-143284700D01*
X207649979Y-143263616D01*
X207516852Y-143284700D01*
X207516852Y-143284701D01*
X207396759Y-143345891D01*
X207301450Y-143441200D01*
X207292265Y-143459228D01*
X207255244Y-143493750D01*
X207226331Y-143499632D01*
X206864769Y-143499632D01*
X206817203Y-143482319D01*
X206791893Y-143438482D01*
X206800683Y-143388632D01*
X206824760Y-143363380D01*
X206837944Y-143354908D01*
X206932193Y-143246138D01*
X206991981Y-143115222D01*
X207012463Y-142972765D01*
X207012038Y-142969807D01*
X207012463Y-142967775D01*
X207012463Y-142967471D01*
X207012527Y-142967471D01*
X207022403Y-142920261D01*
X207032954Y-142906951D01*
X207223491Y-142716414D01*
X207269369Y-142695022D01*
X207275818Y-142694740D01*
X208297271Y-142694740D01*
X208297272Y-142694740D01*
X208322399Y-142691826D01*
X208425173Y-142646447D01*
X208504614Y-142567006D01*
X208512632Y-142548847D01*
X208517374Y-142538109D01*
X208552424Y-142501589D01*
X208585068Y-142494000D01*
X208719748Y-142494000D01*
X208767314Y-142511313D01*
X208787442Y-142538109D01*
X208800201Y-142567005D01*
X208800202Y-142567006D01*
X208879643Y-142646447D01*
X208982417Y-142691826D01*
X209007543Y-142694741D01*
X210297272Y-142694740D01*
X210322399Y-142691826D01*
X210425173Y-142646447D01*
X210480429Y-142591191D01*
X210526305Y-142569798D01*
X210575199Y-142582898D01*
X210602089Y-142617655D01*
X210609054Y-142636329D01*
X210695219Y-142751429D01*
X210810319Y-142837594D01*
X210810320Y-142837595D01*
X210945027Y-142887837D01*
X210945033Y-142887839D01*
X210974784Y-142891037D01*
X211020227Y-142913334D01*
X211040707Y-142959625D01*
X211026639Y-143008250D01*
X211022801Y-143013072D01*
X210928753Y-143121610D01*
X210868964Y-143252529D01*
X210848483Y-143394984D01*
X210868964Y-143537438D01*
X210868964Y-143537439D01*
X210868965Y-143537441D01*
X210926148Y-143662653D01*
X210928753Y-143668357D01*
X211022998Y-143777123D01*
X211022999Y-143777124D01*
X211023002Y-143777127D01*
X211115604Y-143836638D01*
X211143407Y-143854507D01*
X211144077Y-143854937D01*
X211191799Y-143868949D01*
X211230683Y-143880367D01*
X211271445Y-143910379D01*
X211283379Y-143959571D01*
X211276316Y-143983868D01*
X211251679Y-144034264D01*
X211251677Y-144034272D01*
X211251096Y-144038260D01*
X211227103Y-144082831D01*
X211180073Y-144101552D01*
X211144275Y-144093519D01*
X211040855Y-144040824D01*
X211040855Y-144040823D01*
X210907729Y-144019739D01*
X210774602Y-144040823D01*
X210774602Y-144040824D01*
X210654509Y-144102014D01*
X210559200Y-144197323D01*
X210498010Y-144317416D01*
X210498009Y-144317416D01*
X210480273Y-144429402D01*
X210476925Y-144450543D01*
X210479177Y-144464759D01*
X210498009Y-144583666D01*
X210498009Y-144583667D01*
X210498010Y-144583669D01*
X210550333Y-144686359D01*
X210556501Y-144736598D01*
X210528932Y-144779051D01*
X210484398Y-144793952D01*
X209343980Y-144793952D01*
X209334640Y-144795810D01*
X209300077Y-144802685D01*
X209250296Y-144835947D01*
X209250295Y-144835948D01*
X209217033Y-144885729D01*
X209217032Y-144885730D01*
X209217033Y-144885730D01*
X209208300Y-144929632D01*
X209208300Y-145659272D01*
X209211253Y-145674116D01*
X209217033Y-145703174D01*
X209244847Y-145744802D01*
X209250296Y-145752956D01*
X209300078Y-145786219D01*
X209343980Y-145794952D01*
X209343981Y-145794952D01*
X210873619Y-145794952D01*
X210873620Y-145794952D01*
X210917522Y-145786219D01*
X210967304Y-145752956D01*
X211000567Y-145703174D01*
X211005273Y-145679514D01*
X211031533Y-145636240D01*
X211077851Y-145619952D01*
X211372174Y-145619952D01*
X211419740Y-145637265D01*
X211424500Y-145641626D01*
X211448070Y-145665196D01*
X211469462Y-145711072D01*
X211461680Y-145751114D01*
X211454355Y-145765491D01*
X211454354Y-145765495D01*
X211439500Y-145859280D01*
X211439500Y-146422319D01*
X211454353Y-146516104D01*
X211454354Y-146516106D01*
X211503776Y-146613099D01*
X211511950Y-146629142D01*
X211601658Y-146718850D01*
X211714696Y-146776446D01*
X211808481Y-146791300D01*
X212371518Y-146791299D01*
X212371519Y-146791299D01*
X212465304Y-146776446D01*
X212465306Y-146776445D01*
X212467419Y-146775368D01*
X212578342Y-146718850D01*
X212668050Y-146629142D01*
X212725646Y-146516104D01*
X212740500Y-146422319D01*
X212740499Y-145859282D01*
X212730600Y-145796780D01*
X212725646Y-145765495D01*
X212725645Y-145765493D01*
X212693023Y-145701471D01*
X212668050Y-145652458D01*
X212578342Y-145562750D01*
X212465304Y-145505154D01*
X212465302Y-145505153D01*
X212465301Y-145505153D01*
X212371520Y-145490300D01*
X212371519Y-145490300D01*
X212224478Y-145490300D01*
X212176912Y-145472987D01*
X212172152Y-145468626D01*
X212050303Y-145346777D01*
X212028911Y-145300901D01*
X212042012Y-145252006D01*
X212050293Y-145242135D01*
X212060535Y-145231893D01*
X212062874Y-145229750D01*
X212094738Y-145203015D01*
X212115522Y-145167013D01*
X212117254Y-145164296D01*
X212130392Y-145145533D01*
X212141098Y-145130244D01*
X212142338Y-145125614D01*
X212149737Y-145107752D01*
X212152132Y-145103605D01*
X212159351Y-145062658D01*
X212160044Y-145059532D01*
X212165010Y-145040997D01*
X212194043Y-144999535D01*
X212203988Y-144993671D01*
X212287755Y-144952720D01*
X212376370Y-144864105D01*
X212431410Y-144751519D01*
X212442044Y-144678530D01*
X212442044Y-144567894D01*
X212591544Y-144567894D01*
X212591544Y-144680582D01*
X212606343Y-144792998D01*
X212664281Y-144932873D01*
X212756449Y-145052988D01*
X212876564Y-145145156D01*
X213016439Y-145203094D01*
X213128856Y-145217894D01*
X213208862Y-145217894D01*
X213256428Y-145235207D01*
X213281738Y-145279044D01*
X213272948Y-145328894D01*
X213261188Y-145344220D01*
X213219750Y-145385657D01*
X213162153Y-145498696D01*
X213147300Y-145592481D01*
X213147300Y-146580518D01*
X213162153Y-146674303D01*
X213199634Y-146747862D01*
X213219750Y-146787342D01*
X213309458Y-146877050D01*
X213364900Y-146905298D01*
X213422496Y-146934646D01*
X213516281Y-146949500D01*
X213516282Y-146949500D01*
X214829319Y-146949500D01*
X214923103Y-146934646D01*
X214923102Y-146934646D01*
X215036142Y-146877050D01*
X215125850Y-146787342D01*
X215183446Y-146674303D01*
X215198300Y-146580518D01*
X215198300Y-146486000D01*
X215215613Y-146438434D01*
X215259450Y-146413124D01*
X215272300Y-146412000D01*
X217818137Y-146412000D01*
X217858143Y-146423746D01*
X217870654Y-146431787D01*
X217914117Y-146459719D01*
X217918719Y-146462676D01*
X218025175Y-146493934D01*
X218056807Y-146503222D01*
X218056809Y-146503223D01*
X218056811Y-146503223D01*
X218200735Y-146503223D01*
X218200736Y-146503222D01*
X218338825Y-146462676D01*
X218459900Y-146384866D01*
X218554149Y-146276096D01*
X218613937Y-146145180D01*
X218634419Y-146002723D01*
X218630487Y-145975377D01*
X219221903Y-145975377D01*
X219221903Y-146333601D01*
X219231814Y-146401627D01*
X219283115Y-146506565D01*
X219365712Y-146589162D01*
X219470652Y-146640464D01*
X219538683Y-146650376D01*
X219896902Y-146650376D01*
X219896902Y-145975377D01*
X220246902Y-145975377D01*
X220246902Y-146650376D01*
X220605113Y-146650376D01*
X220605126Y-146650375D01*
X220673152Y-146640464D01*
X220778090Y-146589163D01*
X220860687Y-146506566D01*
X220911989Y-146401626D01*
X220921901Y-146333600D01*
X220921902Y-146333589D01*
X220921902Y-145975377D01*
X220246902Y-145975377D01*
X219896902Y-145975377D01*
X219221903Y-145975377D01*
X218630487Y-145975377D01*
X218613937Y-145860266D01*
X218554149Y-145729350D01*
X218487522Y-145652458D01*
X218464057Y-145625377D01*
X219221902Y-145625377D01*
X219896902Y-145625377D01*
X219896902Y-144950377D01*
X220246902Y-144950377D01*
X220246902Y-145625377D01*
X220921901Y-145625377D01*
X220921901Y-145267166D01*
X220921900Y-145267152D01*
X220911989Y-145199126D01*
X220860688Y-145094188D01*
X220778091Y-145011591D01*
X220673151Y-144960289D01*
X220605125Y-144950377D01*
X220246902Y-144950377D01*
X219896902Y-144950377D01*
X219538690Y-144950377D01*
X219538678Y-144950378D01*
X219470651Y-144960289D01*
X219365713Y-145011590D01*
X219283116Y-145094187D01*
X219231814Y-145199127D01*
X219221902Y-145267153D01*
X219221902Y-145625377D01*
X218464057Y-145625377D01*
X218459903Y-145620583D01*
X218459901Y-145620582D01*
X218459900Y-145620580D01*
X218402954Y-145583983D01*
X218338826Y-145542770D01*
X218338822Y-145542769D01*
X218200736Y-145502223D01*
X218200733Y-145502223D01*
X218056811Y-145502223D01*
X218056808Y-145502223D01*
X217918721Y-145542769D01*
X217918717Y-145542770D01*
X217797647Y-145620578D01*
X217797639Y-145620584D01*
X217699928Y-145733350D01*
X217698355Y-145731987D01*
X217664619Y-145757663D01*
X217642647Y-145761000D01*
X215272300Y-145761000D01*
X215224734Y-145743687D01*
X215199424Y-145699850D01*
X215198300Y-145687000D01*
X215198300Y-145592481D01*
X215183446Y-145498696D01*
X215134617Y-145402864D01*
X215125850Y-145385658D01*
X215036142Y-145295950D01*
X215014732Y-145285041D01*
X214923103Y-145238353D01*
X214829319Y-145223500D01*
X214829318Y-145223500D01*
X214022421Y-145223500D01*
X213974855Y-145206187D01*
X213949545Y-145162350D01*
X213958335Y-145112500D01*
X213977373Y-145090792D01*
X214026636Y-145052990D01*
X214026637Y-145052989D01*
X214118806Y-144932873D01*
X214176744Y-144792998D01*
X214191544Y-144680582D01*
X214191544Y-144567894D01*
X212591544Y-144567894D01*
X212442044Y-144567894D01*
X212442044Y-144379342D01*
X212459357Y-144331776D01*
X212463718Y-144327016D01*
X212551166Y-144239568D01*
X212597042Y-144218176D01*
X212603492Y-144217894D01*
X214191544Y-144217894D01*
X214191544Y-144105205D01*
X214176744Y-143992789D01*
X214118806Y-143852914D01*
X214026638Y-143732799D01*
X213906523Y-143640631D01*
X213766648Y-143582693D01*
X213654232Y-143567894D01*
X213565778Y-143567894D01*
X213518212Y-143550581D01*
X213492902Y-143506744D01*
X213498464Y-143463154D01*
X213501482Y-143456548D01*
X213521964Y-143314091D01*
X213501482Y-143171634D01*
X213441694Y-143040718D01*
X213411823Y-143006245D01*
X213368094Y-142955778D01*
X213350029Y-142908493D01*
X213366585Y-142860658D01*
X213410016Y-142834656D01*
X213443172Y-142835840D01*
X213472856Y-142843795D01*
X213516334Y-142843795D01*
X213527911Y-142844706D01*
X213550435Y-142848273D01*
X213561572Y-142843830D01*
X213563836Y-142843795D01*
X215142762Y-142843795D01*
X215190328Y-142861108D01*
X215208142Y-142883133D01*
X215272687Y-143004879D01*
X215272688Y-143004880D01*
X215395899Y-143149936D01*
X215547415Y-143265115D01*
X215720150Y-143345030D01*
X215720154Y-143345032D01*
X215906026Y-143385945D01*
X215906030Y-143385946D01*
X216351187Y-143385946D01*
X216351187Y-142810946D01*
X216701187Y-142810946D01*
X216701187Y-143385946D01*
X216756656Y-143385946D01*
X216804222Y-143403259D01*
X216829532Y-143447096D01*
X216820742Y-143496946D01*
X216787398Y-143527257D01*
X216766469Y-143536816D01*
X216766467Y-143536817D01*
X216708017Y-143587464D01*
X216671367Y-143619222D01*
X216663129Y-143626360D01*
X216589210Y-143741383D01*
X216589208Y-143741385D01*
X216550687Y-143872576D01*
X216550687Y-144009315D01*
X216589208Y-144140506D01*
X216589209Y-144140507D01*
X216615945Y-144182110D01*
X216652870Y-144239568D01*
X216663132Y-144255535D01*
X216766469Y-144345076D01*
X216890845Y-144401877D01*
X216992176Y-144416446D01*
X216992182Y-144416446D01*
X217060192Y-144416446D01*
X217060198Y-144416446D01*
X217161529Y-144401877D01*
X217285905Y-144345076D01*
X217389242Y-144255535D01*
X217463165Y-144140507D01*
X217486267Y-144061828D01*
X217501687Y-144009315D01*
X217501687Y-143872576D01*
X217463165Y-143741385D01*
X217389242Y-143626357D01*
X217285905Y-143536816D01*
X217226819Y-143509832D01*
X217190744Y-143474325D01*
X217185933Y-143423935D01*
X217214637Y-143382241D01*
X217236794Y-143372408D01*
X217236593Y-143371809D01*
X217420757Y-143309757D01*
X217420759Y-143309757D01*
X217583833Y-143211637D01*
X217583835Y-143211636D01*
X217722016Y-143080744D01*
X217828816Y-142923225D01*
X217828818Y-142923221D01*
X217899264Y-142746414D01*
X217899265Y-142746413D01*
X217909178Y-142685946D01*
X217319965Y-142685946D01*
X217349388Y-142646984D01*
X217380082Y-142539106D01*
X217369733Y-142427425D01*
X217324182Y-142335946D01*
X217910698Y-142335946D01*
X217868834Y-142185164D01*
X217779686Y-142017012D01*
X217779685Y-142017011D01*
X217656474Y-141871955D01*
X217504958Y-141756776D01*
X217332223Y-141676861D01*
X217332219Y-141676859D01*
X217146347Y-141635946D01*
X216701187Y-141635946D01*
X216701187Y-142210946D01*
X216351187Y-142210946D01*
X216351187Y-141635946D01*
X216039279Y-141635946D01*
X215991713Y-141618633D01*
X215966403Y-141574796D01*
X215965279Y-141561946D01*
X215965279Y-140840090D01*
X215982592Y-140792524D01*
X216026429Y-140767214D01*
X216039279Y-140766090D01*
X217392325Y-140766090D01*
X217439891Y-140783403D01*
X217465201Y-140827240D01*
X217466325Y-140840090D01*
X217466325Y-140865255D01*
X217502949Y-141061178D01*
X217538810Y-141153744D01*
X217574952Y-141247036D01*
X217679880Y-141416500D01*
X217733652Y-141475485D01*
X217806314Y-141555192D01*
X217814161Y-141563799D01*
X217941316Y-141659822D01*
X217973217Y-141683913D01*
X217973219Y-141683915D01*
X217973220Y-141683915D01*
X217973221Y-141683916D01*
X218151645Y-141772761D01*
X218343356Y-141827307D01*
X218343367Y-141827308D01*
X218541822Y-141845698D01*
X218541825Y-141845698D01*
X218541828Y-141845698D01*
X218708275Y-141830274D01*
X218740294Y-141827307D01*
X218932005Y-141772761D01*
X219110429Y-141683916D01*
X219269489Y-141563799D01*
X219403770Y-141416500D01*
X219508698Y-141247036D01*
X219580701Y-141061176D01*
X219617325Y-140865250D01*
X219617325Y-140840090D01*
X219634638Y-140792524D01*
X219678475Y-140767214D01*
X219691325Y-140766090D01*
X221044279Y-140766090D01*
X221091845Y-140783403D01*
X221117155Y-140827240D01*
X221118279Y-140840090D01*
X221118279Y-141586946D01*
X221100966Y-141634512D01*
X221057129Y-141659822D01*
X221044279Y-141660946D01*
X220881187Y-141660946D01*
X220881187Y-142210946D01*
X220531187Y-142210946D01*
X220531187Y-141660946D01*
X220160112Y-141660946D01*
X220160089Y-141660947D01*
X220022390Y-141675923D01*
X220022379Y-141675926D01*
X219847176Y-141734958D01*
X219847174Y-141734958D01*
X219688759Y-141830274D01*
X219688757Y-141830275D01*
X219554530Y-141957421D01*
X219450773Y-142110451D01*
X219382340Y-142282205D01*
X219382339Y-142282206D01*
X219373529Y-142335945D01*
X219373530Y-142335946D01*
X220062409Y-142335946D01*
X220032986Y-142374908D01*
X220002292Y-142482786D01*
X220012641Y-142594467D01*
X220058192Y-142685946D01*
X219372622Y-142685946D01*
X219411901Y-142827419D01*
X219498502Y-142990767D01*
X219498503Y-142990768D01*
X219618192Y-143131678D01*
X219765380Y-143243567D01*
X219933177Y-143321199D01*
X219933182Y-143321200D01*
X220113745Y-143360945D01*
X220113749Y-143360946D01*
X220531187Y-143360946D01*
X220531187Y-142810946D01*
X220881187Y-142810946D01*
X220881187Y-143360946D01*
X221044279Y-143360946D01*
X221091845Y-143378259D01*
X221117155Y-143422096D01*
X221118279Y-143434946D01*
X221118279Y-150226946D01*
X221100966Y-150274512D01*
X221057129Y-150299822D01*
X221044279Y-150300946D01*
X220881187Y-150300946D01*
X220881187Y-150850946D01*
X220531187Y-150850946D01*
X220531187Y-150300946D01*
X220160112Y-150300946D01*
X220160089Y-150300947D01*
X220022390Y-150315923D01*
X220022379Y-150315926D01*
X219847176Y-150374958D01*
X219847174Y-150374958D01*
X219688759Y-150470274D01*
X219688757Y-150470275D01*
X219554530Y-150597421D01*
X219450773Y-150750451D01*
X219382340Y-150922205D01*
X219382339Y-150922206D01*
X219373529Y-150975945D01*
X219373530Y-150975946D01*
X220062409Y-150975946D01*
X220032986Y-151014908D01*
X220002292Y-151122786D01*
X220012641Y-151234467D01*
X220058192Y-151325946D01*
X219372622Y-151325946D01*
X219411901Y-151467419D01*
X219498502Y-151630767D01*
X219498503Y-151630768D01*
X219618192Y-151771678D01*
X219765380Y-151883567D01*
X219933177Y-151961199D01*
X219933182Y-151961200D01*
X220113745Y-152000945D01*
X220113749Y-152000946D01*
X220531187Y-152000946D01*
X220531187Y-151450946D01*
X220881187Y-151450946D01*
X220881187Y-152000946D01*
X221044279Y-152000946D01*
X221091845Y-152018259D01*
X221117155Y-152062096D01*
X221118279Y-152074946D01*
X221118279Y-152846500D01*
X221100966Y-152894066D01*
X221057129Y-152919376D01*
X221044279Y-152920500D01*
X219691390Y-152920500D01*
X219643824Y-152903187D01*
X219618514Y-152859350D01*
X219617390Y-152846500D01*
X219617390Y-152821341D01*
X219617389Y-152821334D01*
X219580765Y-152625411D01*
X219570139Y-152597984D01*
X219508763Y-152439554D01*
X219403835Y-152270090D01*
X219269554Y-152122791D01*
X219149918Y-152032446D01*
X219110497Y-152002676D01*
X219110495Y-152002674D01*
X219004223Y-151949757D01*
X218932070Y-151913829D01*
X218932067Y-151913828D01*
X218932065Y-151913827D01*
X218740360Y-151859283D01*
X218740347Y-151859281D01*
X218541893Y-151840892D01*
X218541887Y-151840892D01*
X218343432Y-151859281D01*
X218343419Y-151859283D01*
X218151714Y-151913827D01*
X218151710Y-151913829D01*
X217973284Y-152002674D01*
X217973282Y-152002676D01*
X217814223Y-152122793D01*
X217679943Y-152270092D01*
X217575020Y-152439549D01*
X217575015Y-152439559D01*
X217503014Y-152625411D01*
X217466390Y-152821334D01*
X217466390Y-152846500D01*
X217449077Y-152894066D01*
X217405240Y-152919376D01*
X217392390Y-152920500D01*
X216039279Y-152920500D01*
X215991713Y-152903187D01*
X215966403Y-152859350D01*
X215965279Y-152846500D01*
X215965279Y-152099946D01*
X215982592Y-152052380D01*
X216026429Y-152027070D01*
X216039279Y-152025946D01*
X216351187Y-152025946D01*
X216351187Y-151450946D01*
X216701187Y-151450946D01*
X216701187Y-152025946D01*
X217098623Y-152025946D01*
X217098645Y-152025944D01*
X217240393Y-152010527D01*
X217240398Y-152010526D01*
X217420757Y-151949757D01*
X217420759Y-151949757D01*
X217583833Y-151851637D01*
X217583835Y-151851636D01*
X217722016Y-151720744D01*
X217828816Y-151563225D01*
X217828818Y-151563221D01*
X217899264Y-151386414D01*
X217899265Y-151386413D01*
X217909178Y-151325946D01*
X217319965Y-151325946D01*
X217349388Y-151286984D01*
X217380082Y-151179106D01*
X217369733Y-151067425D01*
X217324182Y-150975946D01*
X217910698Y-150975946D01*
X217868834Y-150825164D01*
X217779686Y-150657012D01*
X217779685Y-150657011D01*
X217656474Y-150511955D01*
X217504958Y-150396776D01*
X217332223Y-150316861D01*
X217332219Y-150316859D01*
X217233847Y-150295206D01*
X217191115Y-150268072D01*
X217175821Y-150219819D01*
X217195121Y-150173024D01*
X217219011Y-150155625D01*
X217285905Y-150125076D01*
X217389242Y-150035535D01*
X217463165Y-149920507D01*
X217480823Y-149860369D01*
X217501687Y-149789315D01*
X217501687Y-149652576D01*
X217463165Y-149521385D01*
X217396012Y-149416892D01*
X217389244Y-149406360D01*
X217389243Y-149406359D01*
X217389242Y-149406357D01*
X217285905Y-149316816D01*
X217161529Y-149260015D01*
X217161527Y-149260014D01*
X217161526Y-149260014D01*
X217060202Y-149245446D01*
X217060198Y-149245446D01*
X216992176Y-149245446D01*
X216992171Y-149245446D01*
X216890847Y-149260014D01*
X216766467Y-149316817D01*
X216706729Y-149368580D01*
X216667658Y-149402436D01*
X216663129Y-149406360D01*
X216589210Y-149521383D01*
X216589208Y-149521385D01*
X216550687Y-149652576D01*
X216550687Y-149789315D01*
X216589208Y-149920506D01*
X216589209Y-149920507D01*
X216622770Y-149972730D01*
X216663024Y-150035368D01*
X216663132Y-150035535D01*
X216766469Y-150125076D01*
X216787398Y-150134634D01*
X216823473Y-150170141D01*
X216828284Y-150220531D01*
X216799580Y-150262225D01*
X216756656Y-150275946D01*
X216701187Y-150275946D01*
X216701187Y-150850946D01*
X216351187Y-150850946D01*
X216351187Y-150275946D01*
X215953751Y-150275946D01*
X215953728Y-150275947D01*
X215811980Y-150291364D01*
X215811975Y-150291365D01*
X215631616Y-150352134D01*
X215631614Y-150352134D01*
X215468540Y-150450254D01*
X215468538Y-150450255D01*
X215330357Y-150581147D01*
X215223557Y-150738667D01*
X215223556Y-150738669D01*
X215200639Y-150796186D01*
X215166950Y-150833965D01*
X215131895Y-150842795D01*
X213563676Y-150842795D01*
X213551084Y-150838211D01*
X213527912Y-150841883D01*
X213516333Y-150842795D01*
X213511599Y-150842795D01*
X213511549Y-150842800D01*
X213472856Y-150842800D01*
X213440577Y-150851449D01*
X213430241Y-150850544D01*
X213421966Y-150854761D01*
X213407528Y-150860304D01*
X213383714Y-150866685D01*
X213341499Y-150891058D01*
X213330405Y-150893013D01*
X213326767Y-150896652D01*
X213311443Y-150908410D01*
X213303790Y-150912828D01*
X213303786Y-150912831D01*
X213300585Y-150916032D01*
X213254705Y-150937417D01*
X213205813Y-150924309D01*
X213176786Y-150882840D01*
X213180954Y-150832959D01*
X213226381Y-150733491D01*
X213246863Y-150591034D01*
X213226381Y-150448577D01*
X213166593Y-150317661D01*
X213136059Y-150282423D01*
X213072347Y-150208894D01*
X213072345Y-150208893D01*
X213072344Y-150208891D01*
X213012048Y-150170141D01*
X212951270Y-150131081D01*
X212951266Y-150131080D01*
X212813180Y-150090534D01*
X212813177Y-150090534D01*
X212669255Y-150090534D01*
X212669252Y-150090534D01*
X212531165Y-150131080D01*
X212531161Y-150131081D01*
X212410091Y-150208889D01*
X212410084Y-150208894D01*
X212315839Y-150317660D01*
X212256050Y-150448579D01*
X212235568Y-150591035D01*
X212235569Y-150591038D01*
X212235994Y-150593995D01*
X212235569Y-150596025D01*
X212235569Y-150596327D01*
X212235506Y-150596327D01*
X212225625Y-150643541D01*
X212215073Y-150656849D01*
X211863855Y-151008067D01*
X211817979Y-151029459D01*
X211811529Y-151029741D01*
X211007544Y-151029741D01*
X210982421Y-151032655D01*
X210982415Y-151032656D01*
X210879642Y-151078035D01*
X210854844Y-151102834D01*
X210800202Y-151157476D01*
X210800201Y-151157477D01*
X210797099Y-151160580D01*
X210751223Y-151181972D01*
X210744773Y-151182254D01*
X210560043Y-151182254D01*
X210512477Y-151164941D01*
X210507717Y-151160580D01*
X210504614Y-151157477D01*
X210504614Y-151157476D01*
X210425173Y-151078035D01*
X210322399Y-151032656D01*
X210322398Y-151032655D01*
X210322396Y-151032655D01*
X210301067Y-151030181D01*
X210297273Y-151029741D01*
X210297272Y-151029741D01*
X209007544Y-151029741D01*
X208982421Y-151032655D01*
X208982415Y-151032656D01*
X208879642Y-151078035D01*
X208824386Y-151133292D01*
X208778510Y-151154684D01*
X208729615Y-151141583D01*
X208702725Y-151106825D01*
X208695760Y-151088151D01*
X208609596Y-150973052D01*
X208494496Y-150886887D01*
X208494495Y-150886886D01*
X208359788Y-150836644D01*
X208359783Y-150836643D01*
X208300237Y-150830241D01*
X207319732Y-150830241D01*
X207272166Y-150812928D01*
X207246856Y-150769091D01*
X207246485Y-150745710D01*
X207250485Y-150717888D01*
X207256283Y-150677559D01*
X207235801Y-150535102D01*
X207176013Y-150404186D01*
X207105609Y-150322935D01*
X207081767Y-150295419D01*
X207081765Y-150295418D01*
X207081764Y-150295416D01*
X207011321Y-150250145D01*
X206960690Y-150217606D01*
X206960686Y-150217605D01*
X206822600Y-150177059D01*
X206822597Y-150177059D01*
X206678675Y-150177059D01*
X206678672Y-150177059D01*
X206540585Y-150217605D01*
X206540581Y-150217606D01*
X206419511Y-150295414D01*
X206419504Y-150295419D01*
X206325259Y-150404185D01*
X206265470Y-150535104D01*
X206244989Y-150677559D01*
X206265470Y-150820013D01*
X206265470Y-150820014D01*
X206265471Y-150820016D01*
X206298876Y-150893162D01*
X206323081Y-150946164D01*
X206325259Y-150950932D01*
X206419508Y-151059702D01*
X206419510Y-151059703D01*
X206419589Y-151059794D01*
X206437654Y-151107080D01*
X206421098Y-151154915D01*
X206377667Y-151180917D01*
X206363663Y-151182254D01*
X206235692Y-151182254D01*
X206188126Y-151164941D01*
X206164215Y-151127411D01*
X206160857Y-151114882D01*
X206161760Y-151104543D01*
X206157543Y-151096266D01*
X206151999Y-151081823D01*
X206145618Y-151058010D01*
X206145615Y-151058002D01*
X206121244Y-151015792D01*
X206119287Y-151004699D01*
X206115650Y-151001062D01*
X206103893Y-150985741D01*
X206099472Y-150978083D01*
X206034213Y-150912825D01*
X206026557Y-150908404D01*
X206011233Y-150896646D01*
X206007749Y-150893162D01*
X205996504Y-150891053D01*
X205954293Y-150866683D01*
X205954284Y-150866679D01*
X205930472Y-150860299D01*
X205916030Y-150854756D01*
X205907863Y-150850595D01*
X205897728Y-150851525D01*
X205897486Y-150851461D01*
X205865144Y-150842795D01*
X205821673Y-150842795D01*
X205810096Y-150841884D01*
X205787564Y-150838315D01*
X205776420Y-150842761D01*
X205774164Y-150842795D01*
X203767244Y-150842795D01*
X203754841Y-150838280D01*
X203732131Y-150841882D01*
X203720542Y-150842795D01*
X203716347Y-150842795D01*
X203716081Y-150842819D01*
X203677074Y-150842819D01*
X203644803Y-150851464D01*
X203634468Y-150850559D01*
X203626193Y-150854775D01*
X203611754Y-150860317D01*
X203587939Y-150866697D01*
X203587933Y-150866699D01*
X203545715Y-150891071D01*
X203534624Y-150893025D01*
X203530989Y-150896661D01*
X203515664Y-150908419D01*
X203508017Y-150912833D01*
X203508015Y-150912834D01*
X203442752Y-150978094D01*
X203442750Y-150978096D01*
X203438332Y-150985748D01*
X203426575Y-151001070D01*
X203423092Y-151004552D01*
X203420983Y-151015796D01*
X203396609Y-151058010D01*
X203396608Y-151058014D01*
X203390227Y-151081826D01*
X203384683Y-151096267D01*
X203380521Y-151104434D01*
X203381452Y-151114568D01*
X203381369Y-151114879D01*
X203372722Y-151147147D01*
X203372721Y-151147150D01*
X203372721Y-151190623D01*
X203371810Y-151202199D01*
X203368240Y-151224734D01*
X203372687Y-151235881D01*
X203372721Y-151238139D01*
X203372721Y-152071500D01*
X203355408Y-152119066D01*
X203311571Y-152144376D01*
X203298721Y-152145500D01*
X195989279Y-152145500D01*
X195941713Y-152128187D01*
X195916403Y-152084350D01*
X195915279Y-152071500D01*
X195915279Y-151495462D01*
X196884673Y-151495462D01*
X196914281Y-151525070D01*
X196914283Y-151525071D01*
X196959980Y-151561895D01*
X196959981Y-151561896D01*
X197088155Y-151620430D01*
X197227621Y-151640481D01*
X197367086Y-151620430D01*
X197367088Y-151620430D01*
X197495259Y-151561897D01*
X197540959Y-151525070D01*
X197540960Y-151525069D01*
X197549355Y-151516675D01*
X197206408Y-151173728D01*
X196884673Y-151495462D01*
X195915279Y-151495462D01*
X195915279Y-151238947D01*
X195919963Y-151226076D01*
X195916214Y-151202370D01*
X195915305Y-151190811D01*
X195915304Y-151147148D01*
X195911161Y-151131690D01*
X195906653Y-151114865D01*
X195907556Y-151104535D01*
X195903344Y-151096269D01*
X195897799Y-151081827D01*
X195897798Y-151081823D01*
X195893783Y-151066839D01*
X195898193Y-151016414D01*
X195933985Y-150980620D01*
X195976836Y-150974597D01*
X196022567Y-150981840D01*
X196155693Y-150960755D01*
X196275787Y-150899564D01*
X196371095Y-150804256D01*
X196371096Y-150804253D01*
X196372204Y-150803146D01*
X196418080Y-150781754D01*
X196466974Y-150794855D01*
X196496008Y-150836319D01*
X196497777Y-150866001D01*
X196492167Y-150905026D01*
X196492167Y-150905027D01*
X196512218Y-151044492D01*
X196512218Y-151044494D01*
X196570752Y-151172667D01*
X196570753Y-151172668D01*
X196607577Y-151218365D01*
X196607578Y-151218367D01*
X196637185Y-151247974D01*
X197154081Y-150731079D01*
X197199957Y-150709687D01*
X197248852Y-150722788D01*
X197258733Y-150731079D01*
X197796842Y-151269188D01*
X197805236Y-151260793D01*
X197805237Y-151260792D01*
X197842064Y-151215092D01*
X197900597Y-151086921D01*
X197900597Y-151086919D01*
X197920648Y-150947454D01*
X197905147Y-150839635D01*
X197915514Y-150790089D01*
X197921874Y-150785088D01*
X200533009Y-150785088D01*
X200612692Y-150864771D01*
X200702650Y-150933796D01*
X200842523Y-150991735D01*
X200992628Y-151011496D01*
X201142732Y-150991735D01*
X201142733Y-150991735D01*
X201282610Y-150933795D01*
X201372564Y-150864771D01*
X201434569Y-150802764D01*
X200974951Y-150343146D01*
X200533009Y-150785088D01*
X197921874Y-150785088D01*
X197955304Y-150758799D01*
X197958595Y-150757955D01*
X197960745Y-150757122D01*
X197960747Y-150757122D01*
X198062021Y-150717888D01*
X198081188Y-150702706D01*
X198340516Y-150443377D01*
X198355699Y-150424210D01*
X198394933Y-150322936D01*
X198394933Y-150214329D01*
X198368313Y-150145617D01*
X198367274Y-150095012D01*
X198377879Y-150077981D01*
X200059113Y-150077981D01*
X200078874Y-150228085D01*
X200078874Y-150228086D01*
X200136813Y-150367959D01*
X200205838Y-150457917D01*
X200285522Y-150537601D01*
X200727464Y-150095659D01*
X200267844Y-149636039D01*
X200205832Y-149698051D01*
X200136814Y-149787999D01*
X200078874Y-149927876D01*
X200078874Y-149927877D01*
X200059113Y-150077981D01*
X198377879Y-150077981D01*
X198384989Y-150066564D01*
X198760755Y-149690797D01*
X198762142Y-149689482D01*
X198792664Y-149662001D01*
X198802573Y-149639741D01*
X198808110Y-149629544D01*
X198821381Y-149609112D01*
X198822712Y-149600705D01*
X198828197Y-149582192D01*
X198831655Y-149574426D01*
X198831655Y-149550066D01*
X198832566Y-149538490D01*
X198836377Y-149514429D01*
X198836377Y-149514428D01*
X198834176Y-149506214D01*
X198831655Y-149487062D01*
X198831655Y-149339937D01*
X198848968Y-149292371D01*
X198855410Y-149286364D01*
X198855257Y-149286211D01*
X198896022Y-149245446D01*
X198954683Y-149186785D01*
X199015874Y-149066691D01*
X199036959Y-148933565D01*
X199036098Y-148928126D01*
X199985465Y-148928126D01*
X200006549Y-149061252D01*
X200067740Y-149181345D01*
X200067741Y-149181346D01*
X200163049Y-149276654D01*
X200283142Y-149337844D01*
X200283142Y-149337845D01*
X200293314Y-149339456D01*
X200416269Y-149358930D01*
X200438974Y-149355333D01*
X200488660Y-149364990D01*
X200502875Y-149376096D01*
X201682056Y-150555277D01*
X201744063Y-150493272D01*
X201813087Y-150403318D01*
X201871027Y-150263441D01*
X201871027Y-150263440D01*
X201890788Y-150113336D01*
X201871027Y-149963232D01*
X201871027Y-149963231D01*
X201813088Y-149823358D01*
X201744063Y-149733400D01*
X201337209Y-149326546D01*
X201247251Y-149257521D01*
X201107378Y-149199582D01*
X200957272Y-149179821D01*
X200891236Y-149188514D01*
X200841817Y-149177557D01*
X200811003Y-149137398D01*
X200813211Y-149086828D01*
X200815628Y-149081583D01*
X200825988Y-149061252D01*
X200847073Y-148928126D01*
X200828744Y-148812400D01*
X200825988Y-148794999D01*
X200764797Y-148674906D01*
X200669488Y-148579597D01*
X200549395Y-148518407D01*
X200549395Y-148518406D01*
X200416269Y-148497322D01*
X200283142Y-148518406D01*
X200283142Y-148518407D01*
X200163049Y-148579597D01*
X200067740Y-148674906D01*
X200006550Y-148794999D01*
X200006549Y-148794999D01*
X199985465Y-148928126D01*
X199036098Y-148928126D01*
X199027557Y-148874205D01*
X199037215Y-148824518D01*
X199048316Y-148810308D01*
X200157250Y-147701375D01*
X200203127Y-147679983D01*
X200209576Y-147679701D01*
X201391246Y-147679701D01*
X201438812Y-147697014D01*
X201464122Y-147740851D01*
X201464335Y-147765277D01*
X201452316Y-147841162D01*
X201473400Y-147974288D01*
X201532812Y-148090889D01*
X201534592Y-148094382D01*
X201629900Y-148189690D01*
X201749994Y-148250881D01*
X201766378Y-148253476D01*
X201810651Y-148278017D01*
X201828791Y-148325274D01*
X201812311Y-148373135D01*
X201807128Y-148378891D01*
X201444374Y-148741645D01*
X201444367Y-148741654D01*
X201400284Y-148800772D01*
X201400282Y-148800776D01*
X201359591Y-148919304D01*
X201359591Y-149044626D01*
X201400282Y-149163154D01*
X201400284Y-149163158D01*
X201444367Y-149222277D01*
X201444371Y-149222281D01*
X201444374Y-149222285D01*
X201848325Y-149626236D01*
X201848328Y-149626238D01*
X201848332Y-149626242D01*
X201907451Y-149670325D01*
X201907455Y-149670327D01*
X202025984Y-149711019D01*
X202151305Y-149711019D01*
X202269834Y-149670327D01*
X202328965Y-149626236D01*
X202697560Y-149257641D01*
X202741651Y-149198510D01*
X202782343Y-149079981D01*
X202782343Y-149079421D01*
X202782516Y-149078945D01*
X202783353Y-149073931D01*
X202784284Y-149074086D01*
X202799656Y-149031855D01*
X202843493Y-149006545D01*
X202856343Y-149005421D01*
X203375908Y-149005421D01*
X203423474Y-149022734D01*
X203448784Y-149066571D01*
X203449908Y-149079421D01*
X203449908Y-149669641D01*
X203449857Y-149671577D01*
X203447707Y-149712597D01*
X203456439Y-149735348D01*
X203459733Y-149746469D01*
X203461880Y-149756565D01*
X203454841Y-149806693D01*
X203432994Y-149831826D01*
X203421743Y-149840000D01*
X203404775Y-149849214D01*
X203396830Y-149852264D01*
X203396828Y-149852265D01*
X203379599Y-149869494D01*
X203370773Y-149877032D01*
X203351065Y-149891351D01*
X203346812Y-149898717D01*
X203335055Y-149914038D01*
X202625756Y-150623337D01*
X202579880Y-150644729D01*
X202552583Y-150642014D01*
X202509962Y-150629500D01*
X202509961Y-150629500D01*
X202366039Y-150629500D01*
X202366036Y-150629500D01*
X202227949Y-150670046D01*
X202227945Y-150670047D01*
X202106875Y-150747855D01*
X202106868Y-150747860D01*
X202012623Y-150856626D01*
X201952834Y-150987545D01*
X201933632Y-151121104D01*
X201932353Y-151130000D01*
X201934819Y-151147149D01*
X201952834Y-151272454D01*
X201952834Y-151272455D01*
X201952835Y-151272457D01*
X202000345Y-151376489D01*
X202012623Y-151403373D01*
X202106868Y-151512139D01*
X202106869Y-151512140D01*
X202106872Y-151512143D01*
X202227947Y-151589953D01*
X202331743Y-151620430D01*
X202366035Y-151630499D01*
X202366037Y-151630500D01*
X202366039Y-151630500D01*
X202509963Y-151630500D01*
X202509964Y-151630499D01*
X202648053Y-151589953D01*
X202769128Y-151512143D01*
X202863377Y-151403373D01*
X202923165Y-151272457D01*
X202943647Y-151130000D01*
X202925443Y-151003393D01*
X202935810Y-150953852D01*
X202946360Y-150940544D01*
X203594119Y-150292785D01*
X203639997Y-150271393D01*
X203646446Y-150271111D01*
X203657513Y-150271111D01*
X203705079Y-150288424D01*
X203719042Y-150303999D01*
X203727634Y-150316859D01*
X203733884Y-150326212D01*
X203816745Y-150381577D01*
X203889811Y-150396111D01*
X203889813Y-150396111D01*
X204199157Y-150396111D01*
X204199159Y-150396111D01*
X204272225Y-150381577D01*
X204323374Y-150347400D01*
X204372541Y-150335370D01*
X204405595Y-150347400D01*
X204456745Y-150381577D01*
X204529811Y-150396111D01*
X204529813Y-150396111D01*
X204839157Y-150396111D01*
X204839159Y-150396111D01*
X204912225Y-150381577D01*
X204995086Y-150326212D01*
X205008725Y-150305798D01*
X205049543Y-150275866D01*
X205058681Y-150273819D01*
X205061890Y-150273310D01*
X205061897Y-150273311D01*
X205084645Y-150264578D01*
X205095760Y-150261285D01*
X205119601Y-150256218D01*
X205126475Y-150251223D01*
X205143454Y-150242003D01*
X205151393Y-150238957D01*
X205168627Y-150221722D01*
X205177449Y-150214187D01*
X205197156Y-150199871D01*
X205201406Y-150192508D01*
X205213162Y-150177186D01*
X205536142Y-149854206D01*
X205582017Y-149832815D01*
X205600040Y-149833443D01*
X205659402Y-149842846D01*
X205792528Y-149821761D01*
X205912622Y-149760570D01*
X206007930Y-149665262D01*
X206069121Y-149545168D01*
X206078043Y-149488833D01*
X206102583Y-149444562D01*
X206149840Y-149426421D01*
X206197701Y-149442901D01*
X206218444Y-149469669D01*
X206224017Y-149481873D01*
X206318264Y-149590641D01*
X206318265Y-149590642D01*
X206318268Y-149590645D01*
X206409542Y-149649303D01*
X206434374Y-149665262D01*
X206439343Y-149668455D01*
X206517532Y-149691413D01*
X206577431Y-149709001D01*
X206577433Y-149709002D01*
X206577435Y-149709002D01*
X206721359Y-149709002D01*
X206721360Y-149709001D01*
X206742622Y-149702758D01*
X206859449Y-149668455D01*
X206980524Y-149590645D01*
X207028855Y-149534868D01*
X207465794Y-149534868D01*
X207486275Y-149677323D01*
X207486275Y-149677324D01*
X207486276Y-149677326D01*
X207536849Y-149788065D01*
X207546064Y-149808242D01*
X207640309Y-149917008D01*
X207640310Y-149917009D01*
X207640313Y-149917012D01*
X207712233Y-149963232D01*
X207744338Y-149983865D01*
X207761388Y-149994822D01*
X207867844Y-150026080D01*
X207899476Y-150035368D01*
X207899478Y-150035369D01*
X207899480Y-150035369D01*
X208043404Y-150035369D01*
X208043405Y-150035368D01*
X208181494Y-149994822D01*
X208302569Y-149917012D01*
X208329520Y-149885908D01*
X208373753Y-149861299D01*
X208385445Y-149860369D01*
X209351305Y-149860369D01*
X209354525Y-149860509D01*
X209380677Y-149862797D01*
X209395936Y-149864133D01*
X209395936Y-149864132D01*
X209395938Y-149864133D01*
X209436098Y-149853371D01*
X209439231Y-149852676D01*
X209480176Y-149845457D01*
X209484325Y-149843060D01*
X209502186Y-149835663D01*
X209504646Y-149835004D01*
X209506815Y-149834423D01*
X209540863Y-149810581D01*
X209543581Y-149808849D01*
X209579586Y-149788063D01*
X209606318Y-149756203D01*
X209608479Y-149753845D01*
X210327789Y-149034536D01*
X210330135Y-149032386D01*
X210361994Y-149005655D01*
X210382784Y-148969643D01*
X210384510Y-148966936D01*
X210389031Y-148960480D01*
X210408354Y-148932884D01*
X210409594Y-148928254D01*
X210416993Y-148910392D01*
X210417010Y-148910363D01*
X210419388Y-148906245D01*
X210426608Y-148865293D01*
X210427301Y-148862165D01*
X210430616Y-148849794D01*
X210459652Y-148808333D01*
X210502094Y-148794952D01*
X210710660Y-148794952D01*
X210758226Y-148812265D01*
X210783536Y-148856102D01*
X210774746Y-148905952D01*
X210766586Y-148917409D01*
X210759790Y-148925254D01*
X210735961Y-148952753D01*
X210735960Y-148952754D01*
X210735960Y-148952755D01*
X210721773Y-148983819D01*
X210676171Y-149083673D01*
X210655690Y-149226127D01*
X210655690Y-149226128D01*
X210659174Y-149250360D01*
X210676171Y-149368582D01*
X210676171Y-149368583D01*
X210676172Y-149368585D01*
X210734729Y-149496806D01*
X210735960Y-149499501D01*
X210830205Y-149608267D01*
X210830206Y-149608268D01*
X210830209Y-149608271D01*
X210899149Y-149652576D01*
X210931609Y-149673437D01*
X210951284Y-149686081D01*
X211041594Y-149712598D01*
X211089372Y-149726627D01*
X211089374Y-149726628D01*
X211089376Y-149726628D01*
X211233300Y-149726628D01*
X211233301Y-149726627D01*
X211240906Y-149724394D01*
X211371390Y-149686081D01*
X211492465Y-149608271D01*
X211586714Y-149499501D01*
X211646502Y-149368585D01*
X211650289Y-149342238D01*
X211674195Y-149297619D01*
X211721188Y-149278805D01*
X211735104Y-149279678D01*
X211808481Y-149291300D01*
X212371518Y-149291299D01*
X212371519Y-149291299D01*
X212465304Y-149276446D01*
X212465306Y-149276445D01*
X212488164Y-149264798D01*
X212578342Y-149218850D01*
X212668050Y-149129142D01*
X212725646Y-149016104D01*
X212725646Y-149016101D01*
X212728289Y-149010915D01*
X212729731Y-149011649D01*
X212756379Y-148977544D01*
X212795592Y-148966300D01*
X213073300Y-148966300D01*
X213120866Y-148983613D01*
X213146176Y-149027450D01*
X213147300Y-149040300D01*
X213147300Y-149555518D01*
X213162153Y-149649303D01*
X213211654Y-149746453D01*
X213219750Y-149762342D01*
X213309458Y-149852050D01*
X213343694Y-149869494D01*
X213422496Y-149909646D01*
X213516281Y-149924500D01*
X213516282Y-149924500D01*
X214829319Y-149924500D01*
X214923103Y-149909646D01*
X214944552Y-149898717D01*
X215036142Y-149852050D01*
X215125850Y-149762342D01*
X215183446Y-149649303D01*
X215198300Y-149555518D01*
X215198300Y-148567482D01*
X215193921Y-148539830D01*
X215183446Y-148473696D01*
X215140204Y-148388830D01*
X215125850Y-148360658D01*
X215036142Y-148270950D01*
X215025438Y-148265496D01*
X214923103Y-148213353D01*
X214829319Y-148198500D01*
X214829318Y-148198500D01*
X213516282Y-148198500D01*
X213516281Y-148198500D01*
X213422496Y-148213353D01*
X213309457Y-148270950D01*
X213286782Y-148293626D01*
X213240906Y-148315018D01*
X213234456Y-148315300D01*
X212795592Y-148315300D01*
X212748026Y-148297987D01*
X212729271Y-148270184D01*
X212728289Y-148270685D01*
X212725646Y-148265498D01*
X212725646Y-148265496D01*
X212668050Y-148152458D01*
X212578342Y-148062750D01*
X212465304Y-148005154D01*
X212465302Y-148005153D01*
X212465301Y-148005153D01*
X212371519Y-147990300D01*
X211808480Y-147990300D01*
X211714695Y-148005153D01*
X211714693Y-148005154D01*
X211601657Y-148062750D01*
X211511951Y-148152456D01*
X211454353Y-148265498D01*
X211439500Y-148359280D01*
X211439500Y-148687321D01*
X211422187Y-148734887D01*
X211378350Y-148760197D01*
X211344652Y-148758324D01*
X211233298Y-148725628D01*
X211089376Y-148725628D01*
X211084083Y-148725628D01*
X211084083Y-148722958D01*
X211044240Y-148714591D01*
X211012978Y-148674780D01*
X211009300Y-148651740D01*
X211009300Y-147929632D01*
X211006585Y-147915985D01*
X211000567Y-147885730D01*
X210967304Y-147835948D01*
X210958176Y-147829849D01*
X210917522Y-147802685D01*
X210916577Y-147802497D01*
X210873620Y-147793952D01*
X209343980Y-147793952D01*
X209331563Y-147796422D01*
X209300077Y-147802685D01*
X209250296Y-147835947D01*
X209250295Y-147835948D01*
X209217033Y-147885729D01*
X209215839Y-147891731D01*
X209213318Y-147904409D01*
X209212327Y-147909389D01*
X209186067Y-147952664D01*
X209139749Y-147968952D01*
X208540574Y-147968952D01*
X208537353Y-147968811D01*
X208528398Y-147968027D01*
X208495942Y-147965187D01*
X208495940Y-147965187D01*
X208455781Y-147975947D01*
X208452632Y-147976645D01*
X208411700Y-147983864D01*
X208411699Y-147983864D01*
X208407538Y-147986267D01*
X208389707Y-147993653D01*
X208385065Y-147994897D01*
X208385060Y-147994899D01*
X208351016Y-148018737D01*
X208348295Y-148020471D01*
X208312292Y-148041258D01*
X208311425Y-148042292D01*
X208310258Y-148042965D01*
X208307334Y-148045419D01*
X208306901Y-148044903D01*
X208267585Y-148067595D01*
X208266321Y-148067807D01*
X208197677Y-148078680D01*
X208197671Y-148078682D01*
X208077580Y-148139871D01*
X207982271Y-148235180D01*
X207921081Y-148355273D01*
X207921080Y-148355273D01*
X207899996Y-148488400D01*
X207921080Y-148621526D01*
X207982271Y-148741619D01*
X207982272Y-148741620D01*
X208077580Y-148836928D01*
X208197673Y-148898118D01*
X208197673Y-148898119D01*
X208218758Y-148901458D01*
X208330800Y-148919204D01*
X208463926Y-148898119D01*
X208584020Y-148836928D01*
X208679328Y-148741620D01*
X208720734Y-148660355D01*
X208757754Y-148625835D01*
X208786668Y-148619952D01*
X209139749Y-148619952D01*
X209187315Y-148637265D01*
X209212327Y-148679515D01*
X209217033Y-148703174D01*
X209249714Y-148752086D01*
X209250296Y-148752956D01*
X209300078Y-148786219D01*
X209343980Y-148794952D01*
X209468069Y-148794952D01*
X209515635Y-148812265D01*
X209540945Y-148856102D01*
X209532155Y-148905952D01*
X209520395Y-148921278D01*
X209253979Y-149187695D01*
X209208103Y-149209087D01*
X209201653Y-149209369D01*
X208385445Y-149209369D01*
X208337879Y-149192056D01*
X208329523Y-149183833D01*
X208302569Y-149152726D01*
X208222228Y-149101094D01*
X208181495Y-149074916D01*
X208181491Y-149074915D01*
X208043405Y-149034369D01*
X208043402Y-149034369D01*
X207899480Y-149034369D01*
X207899477Y-149034369D01*
X207761390Y-149074915D01*
X207761386Y-149074916D01*
X207640316Y-149152724D01*
X207640309Y-149152729D01*
X207546064Y-149261495D01*
X207486275Y-149392414D01*
X207465794Y-149534868D01*
X207028855Y-149534868D01*
X207074773Y-149481875D01*
X207134561Y-149350959D01*
X207155043Y-149208502D01*
X207134561Y-149066045D01*
X207074773Y-148935129D01*
X207059420Y-148917411D01*
X207041355Y-148870126D01*
X207057911Y-148822291D01*
X207101341Y-148796289D01*
X207115346Y-148794952D01*
X207173619Y-148794952D01*
X207173620Y-148794952D01*
X207217522Y-148786219D01*
X207267304Y-148752956D01*
X207300567Y-148703174D01*
X207309300Y-148659272D01*
X207309300Y-147929632D01*
X207300567Y-147885730D01*
X207267304Y-147835948D01*
X207258176Y-147829849D01*
X207217522Y-147802685D01*
X207216577Y-147802497D01*
X207173620Y-147793952D01*
X205652734Y-147793952D01*
X205605168Y-147776639D01*
X205579858Y-147732802D01*
X205579645Y-147708376D01*
X205580754Y-147701375D01*
X205585823Y-147669371D01*
X205578506Y-147623172D01*
X217623125Y-147623172D01*
X217643606Y-147765626D01*
X217643606Y-147765627D01*
X217643607Y-147765629D01*
X217701758Y-147892960D01*
X217703395Y-147896545D01*
X217797640Y-148005311D01*
X217797641Y-148005312D01*
X217797644Y-148005315D01*
X217861409Y-148046294D01*
X217918096Y-148082725D01*
X217918719Y-148083125D01*
X218010405Y-148110046D01*
X218056807Y-148123671D01*
X218056809Y-148123672D01*
X218056811Y-148123672D01*
X218200735Y-148123672D01*
X218200736Y-148123671D01*
X218204891Y-148122451D01*
X218338825Y-148083125D01*
X218459900Y-148005315D01*
X218530176Y-147924211D01*
X218574409Y-147899602D01*
X218586101Y-147898672D01*
X218750804Y-147898672D01*
X218798370Y-147915985D01*
X218803130Y-147920346D01*
X218881725Y-147998941D01*
X218890927Y-148010154D01*
X218902246Y-148027094D01*
X218902247Y-148027095D01*
X218922226Y-148040445D01*
X218925248Y-148042464D01*
X218925249Y-148042465D01*
X218949380Y-148058589D01*
X218993377Y-148087987D01*
X219100870Y-148109368D01*
X219100871Y-148109368D01*
X219100872Y-148109368D01*
X219120856Y-148105393D01*
X219135292Y-148103971D01*
X219346458Y-148103971D01*
X219394024Y-148121284D01*
X219419334Y-148165121D01*
X219420458Y-148177970D01*
X219420458Y-148343291D01*
X219428989Y-148386178D01*
X219429191Y-148387193D01*
X219456139Y-148427525D01*
X219462454Y-148436975D01*
X219512236Y-148470238D01*
X219556138Y-148478971D01*
X219556139Y-148478971D01*
X220585777Y-148478971D01*
X220585778Y-148478971D01*
X220629680Y-148470238D01*
X220679462Y-148436975D01*
X220712725Y-148387193D01*
X220721458Y-148343291D01*
X220721458Y-147313651D01*
X220712725Y-147269749D01*
X220679462Y-147219967D01*
X220629680Y-147186704D01*
X220585778Y-147177971D01*
X219556138Y-147177971D01*
X219544566Y-147180273D01*
X219512235Y-147186704D01*
X219462454Y-147219966D01*
X219462453Y-147219967D01*
X219429191Y-147269748D01*
X219420458Y-147313651D01*
X219420458Y-147478971D01*
X219403145Y-147526537D01*
X219359308Y-147551847D01*
X219346458Y-147552971D01*
X219245639Y-147552971D01*
X219198073Y-147535658D01*
X219193313Y-147531297D01*
X219114717Y-147452701D01*
X219105514Y-147441486D01*
X219094198Y-147424550D01*
X219094196Y-147424548D01*
X219087231Y-147419894D01*
X219074216Y-147411197D01*
X219074213Y-147411195D01*
X219035018Y-147385006D01*
X219003067Y-147363657D01*
X218992545Y-147361564D01*
X218922705Y-147347672D01*
X218922704Y-147347672D01*
X218922702Y-147347671D01*
X218895573Y-147342275D01*
X218895572Y-147342275D01*
X218875589Y-147346250D01*
X218861152Y-147347672D01*
X218586101Y-147347672D01*
X218538535Y-147330359D01*
X218530179Y-147322136D01*
X218459900Y-147241029D01*
X218400198Y-147202661D01*
X218338826Y-147163219D01*
X218338822Y-147163218D01*
X218200736Y-147122672D01*
X218200733Y-147122672D01*
X218056811Y-147122672D01*
X218056808Y-147122672D01*
X217918721Y-147163218D01*
X217918717Y-147163219D01*
X217797647Y-147241027D01*
X217797640Y-147241032D01*
X217703395Y-147349798D01*
X217643606Y-147480717D01*
X217623125Y-147623172D01*
X205578506Y-147623172D01*
X205564738Y-147536245D01*
X205564738Y-147536244D01*
X205503547Y-147416151D01*
X205408238Y-147320842D01*
X205288145Y-147259652D01*
X205288145Y-147259651D01*
X205155019Y-147238567D01*
X205021892Y-147259651D01*
X205021892Y-147259652D01*
X204901799Y-147320842D01*
X204806490Y-147416151D01*
X204745301Y-147536242D01*
X204745299Y-147536247D01*
X204737683Y-147584330D01*
X204713141Y-147628602D01*
X204705707Y-147634280D01*
X204649907Y-147671564D01*
X204431167Y-147890304D01*
X204431167Y-147890305D01*
X204431165Y-147890307D01*
X204422811Y-147902810D01*
X204389777Y-147952249D01*
X204377775Y-148012583D01*
X204351514Y-148055857D01*
X204319635Y-148070723D01*
X204259301Y-148082725D01*
X204231792Y-148101106D01*
X204197359Y-148124113D01*
X204197357Y-148124115D01*
X204197356Y-148124115D01*
X204127234Y-148194237D01*
X204081357Y-148215629D01*
X204032463Y-148202528D01*
X204003429Y-148161063D01*
X204000908Y-148141911D01*
X204000908Y-147352526D01*
X203993232Y-147331437D01*
X203989894Y-147318979D01*
X203985996Y-147296878D01*
X203985996Y-147296876D01*
X203974768Y-147277429D01*
X203969324Y-147265753D01*
X203961648Y-147244661D01*
X203947222Y-147227469D01*
X203939823Y-147216902D01*
X203938936Y-147215367D01*
X203928602Y-147197466D01*
X203919471Y-147189804D01*
X203911406Y-147183036D01*
X203902287Y-147173917D01*
X203887863Y-147156727D01*
X203868421Y-147145502D01*
X203857861Y-147138107D01*
X203840669Y-147123681D01*
X203840668Y-147123680D01*
X203819572Y-147116001D01*
X203807887Y-147110552D01*
X203788453Y-147099332D01*
X203788451Y-147099331D01*
X203766349Y-147095434D01*
X203753892Y-147092096D01*
X203732805Y-147084421D01*
X203732802Y-147084421D01*
X203676503Y-147084421D01*
X203673282Y-147084280D01*
X203664286Y-147083493D01*
X203631883Y-147080657D01*
X203631881Y-147080657D01*
X203591734Y-147091414D01*
X203588584Y-147092112D01*
X203547648Y-147099331D01*
X203547642Y-147099333D01*
X203543477Y-147101738D01*
X203525645Y-147109124D01*
X203521004Y-147110368D01*
X203521003Y-147110368D01*
X203486959Y-147134206D01*
X203484236Y-147135941D01*
X203448235Y-147156726D01*
X203421521Y-147188560D01*
X203419340Y-147190941D01*
X202302015Y-148308267D01*
X202256139Y-148329659D01*
X202225660Y-148325931D01*
X202169866Y-148306776D01*
X202130499Y-148274956D01*
X202120796Y-148225276D01*
X202141567Y-148184462D01*
X202231648Y-148094382D01*
X202292839Y-147974288D01*
X202313924Y-147841162D01*
X202294905Y-147721080D01*
X202292839Y-147708035D01*
X202231648Y-147587942D01*
X202136339Y-147492633D01*
X202016246Y-147431443D01*
X202016245Y-147431442D01*
X201943331Y-147419894D01*
X201899058Y-147395353D01*
X201880918Y-147348096D01*
X201897398Y-147300235D01*
X201902573Y-147294486D01*
X202355561Y-146841498D01*
X202401436Y-146820107D01*
X202419459Y-146820735D01*
X202478822Y-146830138D01*
X202611948Y-146809053D01*
X202732042Y-146747862D01*
X202827350Y-146652554D01*
X202888541Y-146532460D01*
X202909626Y-146399334D01*
X202888541Y-146266208D01*
X202888541Y-146266207D01*
X202827350Y-146146114D01*
X202732041Y-146050805D01*
X202611948Y-145989615D01*
X202611948Y-145989614D01*
X202478822Y-145968530D01*
X202345695Y-145989614D01*
X202345695Y-145989615D01*
X202225602Y-146050805D01*
X202130293Y-146146114D01*
X202069103Y-146266207D01*
X202069102Y-146266207D01*
X202048018Y-146399334D01*
X202048017Y-146399335D01*
X202057418Y-146458694D01*
X202047758Y-146508382D01*
X202036655Y-146522594D01*
X201352224Y-147207027D01*
X201306348Y-147228419D01*
X201299898Y-147228701D01*
X200092411Y-147228701D01*
X200090475Y-147228650D01*
X200049455Y-147226500D01*
X200026705Y-147235232D01*
X200015580Y-147238527D01*
X199991752Y-147243592D01*
X199991750Y-147243593D01*
X199984870Y-147248592D01*
X199967905Y-147257804D01*
X199959960Y-147260854D01*
X199959958Y-147260855D01*
X199942729Y-147278084D01*
X199933903Y-147285622D01*
X199914195Y-147299941D01*
X199909942Y-147307307D01*
X199898185Y-147322628D01*
X198729415Y-148491398D01*
X198683539Y-148512790D01*
X198665514Y-148512161D01*
X198606157Y-148502761D01*
X198606155Y-148502761D01*
X198473028Y-148523845D01*
X198473028Y-148523846D01*
X198352935Y-148585036D01*
X198257626Y-148680345D01*
X198196436Y-148800438D01*
X198196435Y-148800438D01*
X198176212Y-148928126D01*
X198175351Y-148933565D01*
X198177973Y-148950120D01*
X198196435Y-149066691D01*
X198257626Y-149186784D01*
X198357053Y-149286211D01*
X198355401Y-149287862D01*
X198378452Y-149322016D01*
X198380655Y-149339937D01*
X198380655Y-149402436D01*
X198363342Y-149450002D01*
X198358981Y-149454762D01*
X198066086Y-149747657D01*
X198020210Y-149769049D01*
X197987028Y-149764334D01*
X197918320Y-149737716D01*
X197809713Y-149737716D01*
X197708440Y-149776949D01*
X197689273Y-149792131D01*
X197689266Y-149792137D01*
X197429944Y-150051460D01*
X197414760Y-150070628D01*
X197373050Y-150178296D01*
X197370658Y-150177369D01*
X197350523Y-150211429D01*
X197302780Y-150228250D01*
X197293013Y-150227501D01*
X197185195Y-150212000D01*
X197045729Y-150232051D01*
X197045726Y-150232051D01*
X196950595Y-150275496D01*
X196900135Y-150279507D01*
X196858902Y-150250145D01*
X196846190Y-150201148D01*
X196867528Y-150155858D01*
X197969008Y-149054379D01*
X197993876Y-149017161D01*
X198005557Y-148958439D01*
X198004476Y-148953007D01*
X197995994Y-148910363D01*
X197993876Y-148899717D01*
X197993874Y-148899715D01*
X197993371Y-148898499D01*
X197993297Y-148896807D01*
X197992454Y-148892569D01*
X197993106Y-148892439D01*
X197991161Y-148847928D01*
X197999674Y-148829877D01*
X198007092Y-148818457D01*
X198008423Y-148810050D01*
X198013908Y-148791537D01*
X198017366Y-148783771D01*
X198017366Y-148759412D01*
X198018277Y-148747835D01*
X198018464Y-148746653D01*
X198022088Y-148723774D01*
X198019887Y-148715558D01*
X198017366Y-148696407D01*
X198017366Y-148593652D01*
X198034679Y-148546086D01*
X198051360Y-148531399D01*
X198122988Y-148485368D01*
X198122997Y-148485360D01*
X198169599Y-148431577D01*
X198217243Y-148376593D01*
X198277031Y-148245677D01*
X198297513Y-148103220D01*
X198277031Y-147960763D01*
X198217243Y-147829847D01*
X198146245Y-147747910D01*
X198122997Y-147721080D01*
X198122995Y-147721079D01*
X198122994Y-147721077D01*
X198045202Y-147671083D01*
X198001920Y-147643267D01*
X198001916Y-147643266D01*
X197863830Y-147602720D01*
X197863827Y-147602720D01*
X197719905Y-147602720D01*
X197719902Y-147602720D01*
X197581815Y-147643266D01*
X197581811Y-147643267D01*
X197460741Y-147721075D01*
X197460734Y-147721080D01*
X197366487Y-147829848D01*
X197366487Y-147829849D01*
X197364362Y-147834502D01*
X197328851Y-147870575D01*
X197278461Y-147875383D01*
X197244725Y-147856081D01*
X197233389Y-147844745D01*
X196437895Y-148640240D01*
X196437895Y-148640241D01*
X196703059Y-148905405D01*
X197248921Y-148359543D01*
X197294797Y-148338151D01*
X197343692Y-148351252D01*
X197361987Y-148373193D01*
X197363627Y-148372140D01*
X197366488Y-148376591D01*
X197366489Y-148376593D01*
X197395064Y-148409571D01*
X197455508Y-148479329D01*
X197473573Y-148526615D01*
X197457016Y-148574450D01*
X197451908Y-148580114D01*
X196108863Y-149923159D01*
X196083996Y-149960377D01*
X196072315Y-150019098D01*
X196072315Y-150019102D01*
X196075282Y-150034020D01*
X196067581Y-150084049D01*
X196029523Y-150117424D01*
X196014280Y-150121544D01*
X195951941Y-150131417D01*
X195910262Y-150125928D01*
X195904612Y-150123412D01*
X195894412Y-150117874D01*
X195873981Y-150104606D01*
X195873979Y-150104605D01*
X195866728Y-150103457D01*
X195865576Y-150103274D01*
X195847063Y-150097790D01*
X195839295Y-150094332D01*
X195839294Y-150094332D01*
X195814936Y-150094332D01*
X195803361Y-150093421D01*
X195799837Y-150092863D01*
X195779298Y-150089609D01*
X195779297Y-150089609D01*
X195771083Y-150091811D01*
X195751931Y-150094332D01*
X195482001Y-150094332D01*
X195434435Y-150077019D01*
X195420472Y-150061444D01*
X195415028Y-150053297D01*
X195405630Y-150039231D01*
X195400098Y-150035535D01*
X195322769Y-149983866D01*
X195322764Y-149983865D01*
X195249703Y-149969332D01*
X194940355Y-149969332D01*
X194867294Y-149983865D01*
X194867289Y-149983866D01*
X194816139Y-150018042D01*
X194766970Y-150030072D01*
X194733916Y-150018041D01*
X194699164Y-149994821D01*
X194682769Y-149983866D01*
X194609703Y-149969332D01*
X194300355Y-149969332D01*
X194276111Y-149974154D01*
X194227290Y-149983865D01*
X194227288Y-149983866D01*
X194188099Y-150010050D01*
X194138930Y-150022080D01*
X194113396Y-150014455D01*
X194031507Y-149972731D01*
X194031505Y-149972730D01*
X194031504Y-149972730D01*
X193898381Y-149951646D01*
X193765254Y-149972730D01*
X193765254Y-149972731D01*
X193645161Y-150033921D01*
X193549852Y-150129230D01*
X193488662Y-150249323D01*
X193488661Y-150249323D01*
X193467577Y-150382449D01*
X193488661Y-150515576D01*
X193549852Y-150635669D01*
X193630652Y-150716469D01*
X193652044Y-150762345D01*
X193638943Y-150811240D01*
X193597479Y-150840274D01*
X193578326Y-150842795D01*
X193513676Y-150842795D01*
X193501084Y-150838211D01*
X193477912Y-150841883D01*
X193466333Y-150842795D01*
X193461599Y-150842795D01*
X193461549Y-150842800D01*
X193422856Y-150842800D01*
X193390577Y-150851449D01*
X193380241Y-150850544D01*
X193371966Y-150854761D01*
X193357528Y-150860304D01*
X193333714Y-150866685D01*
X193291499Y-150891058D01*
X193280405Y-150893013D01*
X193276767Y-150896652D01*
X193261443Y-150908410D01*
X193253790Y-150912828D01*
X193188529Y-150978088D01*
X193184110Y-150985742D01*
X193172354Y-151001062D01*
X193168870Y-151004545D01*
X193166761Y-151015792D01*
X193142388Y-151058008D01*
X193136006Y-151081823D01*
X193130463Y-151096262D01*
X193126303Y-151104425D01*
X193127234Y-151114554D01*
X193127152Y-151114865D01*
X193122236Y-151133212D01*
X193093202Y-151174677D01*
X193050757Y-151188060D01*
X192830191Y-151188060D01*
X192782625Y-151170747D01*
X192757315Y-151126910D01*
X192766105Y-151077060D01*
X192804882Y-151044523D01*
X192809343Y-151043058D01*
X192846433Y-151032166D01*
X192902348Y-151015749D01*
X193023423Y-150937939D01*
X193117672Y-150829169D01*
X193177460Y-150698253D01*
X193197942Y-150555796D01*
X193177460Y-150413339D01*
X193117672Y-150282423D01*
X193061508Y-150217606D01*
X193023426Y-150173656D01*
X193023424Y-150173655D01*
X193023423Y-150173653D01*
X192966477Y-150137056D01*
X192902349Y-150095843D01*
X192902345Y-150095842D01*
X192764259Y-150055296D01*
X192764256Y-150055296D01*
X192620334Y-150055296D01*
X192620331Y-150055296D01*
X192482244Y-150095842D01*
X192482240Y-150095843D01*
X192361170Y-150173651D01*
X192361163Y-150173656D01*
X192266918Y-150282422D01*
X192207129Y-150413341D01*
X192186648Y-150555796D01*
X192186648Y-150555800D01*
X192187073Y-150558758D01*
X192186648Y-150560788D01*
X192186648Y-150561087D01*
X192186586Y-150561087D01*
X192176703Y-150608303D01*
X192166152Y-150621610D01*
X191779696Y-151008067D01*
X191733820Y-151029459D01*
X191727370Y-151029741D01*
X190941544Y-151029741D01*
X190916421Y-151032655D01*
X190916415Y-151032656D01*
X190813642Y-151078035D01*
X190729353Y-151162325D01*
X190728075Y-151161047D01*
X190694129Y-151185339D01*
X190674245Y-151188060D01*
X190498571Y-151188060D01*
X190451005Y-151170747D01*
X190442419Y-151161281D01*
X190359173Y-151078035D01*
X190343815Y-151071254D01*
X190256399Y-151032656D01*
X190256398Y-151032655D01*
X190256396Y-151032655D01*
X190235067Y-151030181D01*
X190231273Y-151029741D01*
X190231272Y-151029741D01*
X188941544Y-151029741D01*
X188916421Y-151032655D01*
X188916415Y-151032656D01*
X188813640Y-151078036D01*
X188758385Y-151133291D01*
X188712509Y-151154683D01*
X188663615Y-151141582D01*
X188636725Y-151106825D01*
X188629759Y-151088150D01*
X188543596Y-150973052D01*
X188428496Y-150886887D01*
X188428495Y-150886886D01*
X188293788Y-150836644D01*
X188293783Y-150836643D01*
X188234237Y-150830241D01*
X186938579Y-150830241D01*
X186879032Y-150836643D01*
X186879027Y-150836644D01*
X186744320Y-150886886D01*
X186744319Y-150886887D01*
X186629219Y-150973052D01*
X186543055Y-151088151D01*
X186523748Y-151139919D01*
X186490905Y-151178437D01*
X186454413Y-151188060D01*
X186187248Y-151188060D01*
X186139682Y-151170747D01*
X186115771Y-151133217D01*
X186110857Y-151114882D01*
X186111760Y-151104543D01*
X186107543Y-151096266D01*
X186101999Y-151081823D01*
X186095618Y-151058010D01*
X186095615Y-151058002D01*
X186071244Y-151015792D01*
X186069287Y-151004699D01*
X186065650Y-151001062D01*
X186053893Y-150985741D01*
X186049472Y-150978083D01*
X185984213Y-150912825D01*
X185976557Y-150908404D01*
X185961233Y-150896646D01*
X185957749Y-150893162D01*
X185946504Y-150891053D01*
X185904293Y-150866683D01*
X185904284Y-150866679D01*
X185880472Y-150860299D01*
X185866030Y-150854756D01*
X185857863Y-150850595D01*
X185847728Y-150851525D01*
X185847486Y-150851461D01*
X185815144Y-150842795D01*
X185771673Y-150842795D01*
X185760096Y-150841884D01*
X185737564Y-150838315D01*
X185726420Y-150842761D01*
X185724164Y-150842795D01*
X183717244Y-150842795D01*
X183704841Y-150838280D01*
X183682131Y-150841882D01*
X183670542Y-150842795D01*
X183666347Y-150842795D01*
X183666081Y-150842819D01*
X183627074Y-150842819D01*
X183594803Y-150851464D01*
X183584468Y-150850559D01*
X183576193Y-150854775D01*
X183561754Y-150860317D01*
X183537939Y-150866697D01*
X183537933Y-150866699D01*
X183495715Y-150891071D01*
X183484624Y-150893025D01*
X183480989Y-150896661D01*
X183465664Y-150908419D01*
X183458017Y-150912833D01*
X183458015Y-150912834D01*
X183392752Y-150978094D01*
X183392750Y-150978096D01*
X183388332Y-150985748D01*
X183376575Y-151001070D01*
X183373092Y-151004552D01*
X183370983Y-151015796D01*
X183346609Y-151058010D01*
X183346608Y-151058014D01*
X183340227Y-151081826D01*
X183334683Y-151096267D01*
X183330521Y-151104434D01*
X183331452Y-151114568D01*
X183331369Y-151114879D01*
X183322722Y-151147147D01*
X183322721Y-151147150D01*
X183322721Y-151190623D01*
X183321810Y-151202199D01*
X183318240Y-151224734D01*
X183322687Y-151235881D01*
X183322721Y-151238139D01*
X183322721Y-152846500D01*
X183305408Y-152894066D01*
X183261571Y-152919376D01*
X183248721Y-152920500D01*
X181895610Y-152920500D01*
X181848044Y-152903187D01*
X181822734Y-152859350D01*
X181821610Y-152846500D01*
X181821610Y-152821341D01*
X181821609Y-152821334D01*
X181784985Y-152625411D01*
X181774359Y-152597984D01*
X181712983Y-152439554D01*
X181608055Y-152270090D01*
X181473774Y-152122791D01*
X181354138Y-152032446D01*
X181314717Y-152002676D01*
X181314715Y-152002674D01*
X181208443Y-151949757D01*
X181136290Y-151913829D01*
X181136287Y-151913828D01*
X181136285Y-151913827D01*
X180944580Y-151859283D01*
X180944567Y-151859281D01*
X180746113Y-151840892D01*
X180746107Y-151840892D01*
X180547652Y-151859281D01*
X180547639Y-151859283D01*
X180355934Y-151913827D01*
X180355930Y-151913829D01*
X180177504Y-152002674D01*
X180177502Y-152002676D01*
X180018443Y-152122793D01*
X179884163Y-152270092D01*
X179779240Y-152439549D01*
X179779235Y-152439559D01*
X179707234Y-152625411D01*
X179670610Y-152821334D01*
X179670610Y-152846500D01*
X179653297Y-152894066D01*
X179609460Y-152919376D01*
X179596610Y-152920500D01*
X178243500Y-152920500D01*
X178195934Y-152903187D01*
X178170624Y-152859350D01*
X178169500Y-152846500D01*
X178169500Y-152540835D01*
X178174099Y-152528197D01*
X178170411Y-152504908D01*
X178169500Y-152493332D01*
X178169500Y-152449854D01*
X178169499Y-152449853D01*
X178160850Y-152417573D01*
X178161753Y-152407241D01*
X178157540Y-152398972D01*
X178151997Y-152384533D01*
X178145614Y-152360712D01*
X178121238Y-152318493D01*
X178119282Y-152307401D01*
X178115647Y-152303766D01*
X178103886Y-152288439D01*
X178099470Y-152280790D01*
X178099469Y-152280788D01*
X178034212Y-152215531D01*
X178034209Y-152215529D01*
X178034208Y-152215528D01*
X178026559Y-152211112D01*
X178011233Y-152199352D01*
X178007749Y-152195868D01*
X177996504Y-152193759D01*
X177954290Y-152169387D01*
X177954285Y-152169385D01*
X177930472Y-152163004D01*
X177916031Y-152157460D01*
X177907867Y-152153300D01*
X177897732Y-152154231D01*
X177897511Y-152154172D01*
X177865144Y-152145500D01*
X177865143Y-152145500D01*
X177821673Y-152145500D01*
X177810096Y-152144589D01*
X177787564Y-152141020D01*
X177776420Y-152145466D01*
X177774164Y-152145500D01*
X176321076Y-152145500D01*
X176316936Y-152145267D01*
X176305129Y-152143937D01*
X176292646Y-152142530D01*
X176208049Y-152131392D01*
X176193269Y-152127873D01*
X176153609Y-152113996D01*
X176151680Y-152113260D01*
X176092919Y-152088920D01*
X176081873Y-152083214D01*
X176068482Y-152074800D01*
X176042498Y-152058472D01*
X176039658Y-152056497D01*
X176008313Y-152032446D01*
X175989496Y-152018007D01*
X175985858Y-152014816D01*
X175950182Y-151979140D01*
X175946994Y-151975505D01*
X175918759Y-151938709D01*
X175908501Y-151925340D01*
X175906526Y-151922500D01*
X175897739Y-151908518D01*
X175881779Y-151883117D01*
X175876082Y-151872089D01*
X175851723Y-151813281D01*
X175851015Y-151811423D01*
X175837123Y-151771722D01*
X175833607Y-151756954D01*
X175822468Y-151672343D01*
X175819733Y-151648063D01*
X175819500Y-151643918D01*
X175819500Y-149397925D01*
X182003813Y-149397925D01*
X182024897Y-149531051D01*
X182078392Y-149636039D01*
X182086089Y-149651145D01*
X182181397Y-149746453D01*
X182301490Y-149807643D01*
X182301490Y-149807644D01*
X182314194Y-149809656D01*
X182434617Y-149828729D01*
X182567743Y-149807644D01*
X182687837Y-149746453D01*
X182742877Y-149691413D01*
X185299359Y-149691413D01*
X185300572Y-149699847D01*
X185319840Y-149833867D01*
X185319840Y-149833868D01*
X185319841Y-149833870D01*
X185332368Y-149861299D01*
X185379629Y-149964786D01*
X185473874Y-150073552D01*
X185473875Y-150073553D01*
X185473878Y-150073556D01*
X185554045Y-150125076D01*
X185586013Y-150145621D01*
X185594953Y-150151366D01*
X185683512Y-150177369D01*
X185733041Y-150191912D01*
X185733043Y-150191913D01*
X185733045Y-150191913D01*
X185876969Y-150191913D01*
X185876970Y-150191912D01*
X186015059Y-150151366D01*
X186136134Y-150073556D01*
X186230383Y-149964786D01*
X186290171Y-149833870D01*
X186310653Y-149691413D01*
X186290171Y-149548956D01*
X186230383Y-149418040D01*
X186179164Y-149358930D01*
X186136137Y-149309273D01*
X186136135Y-149309272D01*
X186136134Y-149309270D01*
X186061796Y-149261496D01*
X186015060Y-149231460D01*
X186015056Y-149231459D01*
X185876970Y-149190913D01*
X185876967Y-149190913D01*
X185733045Y-149190913D01*
X185733042Y-149190913D01*
X185594955Y-149231459D01*
X185594951Y-149231460D01*
X185473881Y-149309268D01*
X185473874Y-149309273D01*
X185379629Y-149418039D01*
X185319840Y-149548958D01*
X185299544Y-149690126D01*
X185299359Y-149691413D01*
X182742877Y-149691413D01*
X182783145Y-149651145D01*
X182844336Y-149531051D01*
X182865421Y-149397925D01*
X182844336Y-149264799D01*
X182844336Y-149264798D01*
X182783145Y-149144705D01*
X182683719Y-149045279D01*
X182685366Y-149043631D01*
X182662314Y-149009449D01*
X182660117Y-148991552D01*
X182660117Y-148385787D01*
X182898727Y-148385787D01*
X182919811Y-148518914D01*
X182981002Y-148639007D01*
X182981003Y-148639008D01*
X183076311Y-148734316D01*
X183196404Y-148795506D01*
X183196404Y-148795507D01*
X183201342Y-148796289D01*
X183329531Y-148816592D01*
X183462657Y-148795507D01*
X183466585Y-148793505D01*
X183516822Y-148787332D01*
X183559278Y-148814897D01*
X183574082Y-148863303D01*
X183573273Y-148871006D01*
X183573072Y-148872275D01*
X183573072Y-148872279D01*
X183573072Y-148872280D01*
X183592644Y-148995850D01*
X183594157Y-149005405D01*
X183594157Y-149005406D01*
X183652455Y-149119824D01*
X183655348Y-149125500D01*
X183750656Y-149220808D01*
X183870749Y-149281998D01*
X183870749Y-149281999D01*
X183888951Y-149284881D01*
X184003876Y-149303084D01*
X184137002Y-149281999D01*
X184257096Y-149220808D01*
X184352404Y-149125500D01*
X184413595Y-149005406D01*
X184434680Y-148872280D01*
X184413986Y-148741620D01*
X184413595Y-148739153D01*
X184352404Y-148619060D01*
X184257095Y-148523751D01*
X184137002Y-148462561D01*
X184137002Y-148462560D01*
X184003876Y-148441476D01*
X183870752Y-148462560D01*
X183870750Y-148462560D01*
X183870750Y-148462561D01*
X183866814Y-148464566D01*
X183816574Y-148470733D01*
X183774122Y-148443162D01*
X183759325Y-148394755D01*
X183760135Y-148387049D01*
X183760335Y-148385788D01*
X183739250Y-148252662D01*
X183739250Y-148252661D01*
X183678059Y-148132568D01*
X183582750Y-148037259D01*
X183462657Y-147976069D01*
X183462657Y-147976068D01*
X183329531Y-147954984D01*
X183196404Y-147976068D01*
X183196404Y-147976069D01*
X183076311Y-148037259D01*
X182981002Y-148132568D01*
X182919812Y-148252661D01*
X182919811Y-148252661D01*
X182898727Y-148385787D01*
X182660117Y-148385787D01*
X182660117Y-148162372D01*
X182677430Y-148114806D01*
X182681791Y-148110046D01*
X183982816Y-146809021D01*
X184028692Y-146787629D01*
X184035142Y-146787347D01*
X186297151Y-146787347D01*
X186344717Y-146804660D01*
X186370027Y-146848497D01*
X186363085Y-146894942D01*
X186314477Y-146990339D01*
X186314476Y-146990339D01*
X186293392Y-147123466D01*
X186302389Y-147180273D01*
X186292730Y-147229962D01*
X186253392Y-147261818D01*
X186217724Y-147264938D01*
X186105886Y-147247225D01*
X185972759Y-147268309D01*
X185972759Y-147268310D01*
X185852666Y-147329500D01*
X185757357Y-147424809D01*
X185696167Y-147544902D01*
X185696166Y-147544902D01*
X185675082Y-147678029D01*
X185696166Y-147811155D01*
X185757357Y-147931248D01*
X185757358Y-147931249D01*
X185852666Y-148026557D01*
X185972759Y-148087747D01*
X185972759Y-148087748D01*
X185990961Y-148090630D01*
X186105886Y-148108833D01*
X186239012Y-148087748D01*
X186359106Y-148026557D01*
X186454414Y-147931249D01*
X186515605Y-147811155D01*
X186536690Y-147678029D01*
X186527692Y-147621220D01*
X186537350Y-147571533D01*
X186576688Y-147539677D01*
X186612354Y-147536556D01*
X186724196Y-147554270D01*
X186857322Y-147533185D01*
X186977416Y-147471994D01*
X187072724Y-147376686D01*
X187133915Y-147256592D01*
X187155000Y-147123466D01*
X187133915Y-146990340D01*
X187133915Y-146990339D01*
X187085307Y-146894942D01*
X187079138Y-146844701D01*
X187106707Y-146802248D01*
X187151241Y-146787347D01*
X189849613Y-146787347D01*
X189897179Y-146804660D01*
X189901939Y-146809021D01*
X190351598Y-147258680D01*
X190372990Y-147304556D01*
X190359889Y-147353451D01*
X190318425Y-147382485D01*
X190299272Y-147385006D01*
X189096071Y-147385006D01*
X189056064Y-147373259D01*
X188991465Y-147331743D01*
X188991461Y-147331742D01*
X188853375Y-147291196D01*
X188853372Y-147291196D01*
X188709450Y-147291196D01*
X188709447Y-147291196D01*
X188571360Y-147331742D01*
X188571356Y-147331743D01*
X188450286Y-147409551D01*
X188450279Y-147409556D01*
X188356034Y-147518322D01*
X188296245Y-147649241D01*
X188275764Y-147791695D01*
X188275764Y-147791696D01*
X188276444Y-147796423D01*
X188296245Y-147934150D01*
X188296245Y-147934151D01*
X188296246Y-147934153D01*
X188345160Y-148041258D01*
X188356034Y-148065069D01*
X188450279Y-148173835D01*
X188450280Y-148173836D01*
X188450283Y-148173839D01*
X188542885Y-148233350D01*
X188562060Y-148245674D01*
X188571358Y-148251649D01*
X188677814Y-148282907D01*
X188709446Y-148292195D01*
X188709448Y-148292196D01*
X188709450Y-148292196D01*
X188853374Y-148292196D01*
X188853375Y-148292195D01*
X188991464Y-148251649D01*
X189112539Y-148173839D01*
X189206788Y-148065069D01*
X189266576Y-147934153D01*
X189270136Y-147909389D01*
X189271562Y-147899475D01*
X189295468Y-147854857D01*
X189342461Y-147836043D01*
X189344809Y-147836006D01*
X190194029Y-147836006D01*
X190241595Y-147853319D01*
X190266905Y-147897156D01*
X190258115Y-147947006D01*
X190219338Y-147979543D01*
X190214877Y-147981008D01*
X190131986Y-148005347D01*
X190131982Y-148005348D01*
X190010912Y-148083156D01*
X190010905Y-148083161D01*
X189916660Y-148191927D01*
X189856871Y-148322846D01*
X189836390Y-148465301D01*
X189856871Y-148607755D01*
X189856871Y-148607756D01*
X189856872Y-148607758D01*
X189880398Y-148659272D01*
X189916660Y-148738674D01*
X190010905Y-148847440D01*
X190010906Y-148847441D01*
X190010909Y-148847444D01*
X190091703Y-148899367D01*
X190125974Y-148921392D01*
X190131984Y-148925254D01*
X190216671Y-148950120D01*
X190270072Y-148965800D01*
X190270074Y-148965801D01*
X190270076Y-148965801D01*
X190414000Y-148965801D01*
X190414001Y-148965800D01*
X190552090Y-148925254D01*
X190673165Y-148847444D01*
X190758299Y-148749192D01*
X190802532Y-148724582D01*
X190852237Y-148734161D01*
X190884155Y-148773449D01*
X190888225Y-148797651D01*
X190888225Y-148818734D01*
X190900397Y-148879925D01*
X190902759Y-148891800D01*
X190954733Y-148969587D01*
X190958124Y-148974661D01*
X191040985Y-149030026D01*
X191114051Y-149044560D01*
X191114053Y-149044560D01*
X191423397Y-149044560D01*
X191423399Y-149044560D01*
X191496465Y-149030026D01*
X191547614Y-148995849D01*
X191596781Y-148983819D01*
X191629835Y-148995849D01*
X191680985Y-149030026D01*
X191754051Y-149044560D01*
X191909667Y-149044560D01*
X191957233Y-149061873D01*
X191961993Y-149066234D01*
X192178478Y-149282718D01*
X192198422Y-149325488D01*
X192199241Y-149325359D01*
X192199693Y-149328215D01*
X192199870Y-149328594D01*
X192199914Y-149329611D01*
X192221236Y-149464237D01*
X192282427Y-149584330D01*
X192282428Y-149584331D01*
X192377736Y-149679639D01*
X192497829Y-149740829D01*
X192497829Y-149740830D01*
X192516031Y-149743712D01*
X192630956Y-149761915D01*
X192764082Y-149740830D01*
X192877144Y-149683222D01*
X195394913Y-149683222D01*
X195436075Y-149724384D01*
X195436087Y-149724394D01*
X195491189Y-149765483D01*
X195601676Y-149803414D01*
X195718482Y-149803414D01*
X195828963Y-149765485D01*
X195828966Y-149765483D01*
X195884066Y-149724397D01*
X195884075Y-149724390D01*
X196455573Y-149152893D01*
X196190408Y-148887728D01*
X195394913Y-149683222D01*
X192877144Y-149683222D01*
X192884176Y-149679639D01*
X192979484Y-149584331D01*
X193040675Y-149464237D01*
X193061760Y-149331111D01*
X193045583Y-149228975D01*
X195027234Y-149228975D01*
X195065163Y-149339456D01*
X195065165Y-149339459D01*
X195106251Y-149394559D01*
X195106264Y-149394575D01*
X195147424Y-149435736D01*
X195147425Y-149435736D01*
X195942920Y-148640240D01*
X195677756Y-148375076D01*
X195106264Y-148946568D01*
X195106254Y-148946580D01*
X195065165Y-149001682D01*
X195027235Y-149112169D01*
X195027235Y-149228975D01*
X195027234Y-149228975D01*
X193045583Y-149228975D01*
X193040675Y-149197985D01*
X193040675Y-149197984D01*
X192979484Y-149077891D01*
X192884175Y-148982582D01*
X192764082Y-148921392D01*
X192764082Y-148921391D01*
X192630956Y-148900307D01*
X192498064Y-148921354D01*
X192448375Y-148911695D01*
X192434162Y-148900591D01*
X192310899Y-148777328D01*
X192289507Y-148731452D01*
X192289225Y-148725002D01*
X192289225Y-148569387D01*
X192287099Y-148558697D01*
X192274691Y-148496320D01*
X192272793Y-148493479D01*
X192264285Y-148480745D01*
X192252254Y-148431577D01*
X192274643Y-148386178D01*
X192320975Y-148365792D01*
X192325814Y-148365634D01*
X192526702Y-148365634D01*
X192574268Y-148382947D01*
X192586567Y-148396135D01*
X192588044Y-148398168D01*
X192588047Y-148398170D01*
X192588047Y-148398171D01*
X192683355Y-148493479D01*
X192803448Y-148554669D01*
X192803448Y-148554670D01*
X192821650Y-148557552D01*
X192936575Y-148575755D01*
X193069701Y-148554670D01*
X193098826Y-148539829D01*
X193149067Y-148533661D01*
X193191520Y-148561229D01*
X193205667Y-148595229D01*
X193210532Y-148629063D01*
X193261935Y-148741619D01*
X193270320Y-148759979D01*
X193364565Y-148868745D01*
X193364566Y-148868746D01*
X193364569Y-148868749D01*
X193443236Y-148919305D01*
X193473595Y-148938816D01*
X193485644Y-148946559D01*
X193581352Y-148974661D01*
X193623732Y-148987105D01*
X193623734Y-148987106D01*
X193623736Y-148987106D01*
X193767660Y-148987106D01*
X193767661Y-148987105D01*
X193905750Y-148946559D01*
X194026825Y-148868749D01*
X194121074Y-148759979D01*
X194123182Y-148755362D01*
X194158691Y-148719288D01*
X194190494Y-148712106D01*
X194640095Y-148712106D01*
X194642031Y-148712157D01*
X194680973Y-148714197D01*
X194683051Y-148714306D01*
X194683051Y-148714305D01*
X194685915Y-148714456D01*
X194723153Y-148726826D01*
X194752826Y-148746652D01*
X194752828Y-148746653D01*
X194796614Y-148755363D01*
X194811549Y-148758334D01*
X194811549Y-148758333D01*
X194811550Y-148758334D01*
X194870272Y-148746653D01*
X194907490Y-148721785D01*
X195501687Y-148127588D01*
X195925242Y-148127588D01*
X196190407Y-148392753D01*
X196985902Y-147597259D01*
X196944740Y-147556097D01*
X196944728Y-147556087D01*
X196889626Y-147514998D01*
X196779140Y-147477068D01*
X196662333Y-147477068D01*
X196551852Y-147514996D01*
X196551849Y-147514998D01*
X196496749Y-147556084D01*
X196496740Y-147556091D01*
X195925242Y-148127588D01*
X195501687Y-148127588D01*
X196271952Y-147357323D01*
X196296820Y-147320105D01*
X196308501Y-147261383D01*
X196308156Y-147259651D01*
X196305957Y-147248592D01*
X196296820Y-147202661D01*
X196271952Y-147165443D01*
X195968150Y-146861641D01*
X195930932Y-146836773D01*
X195872210Y-146825092D01*
X195813488Y-146836773D01*
X195776270Y-146861640D01*
X194411809Y-148226101D01*
X194411804Y-148226107D01*
X194410395Y-148228217D01*
X194409587Y-148228809D01*
X194409503Y-148228912D01*
X194409476Y-148228890D01*
X194369574Y-148258149D01*
X194348866Y-148261106D01*
X194190494Y-148261106D01*
X194142928Y-148243793D01*
X194123182Y-148217849D01*
X194121129Y-148213354D01*
X194121074Y-148213233D01*
X194068411Y-148152456D01*
X194026828Y-148104466D01*
X194026826Y-148104465D01*
X194026825Y-148104463D01*
X193961918Y-148062750D01*
X193905751Y-148026653D01*
X193905747Y-148026652D01*
X193767661Y-147986106D01*
X193767658Y-147986106D01*
X193623736Y-147986106D01*
X193623733Y-147986106D01*
X193485646Y-148026652D01*
X193485638Y-148026655D01*
X193455080Y-148046294D01*
X193405705Y-148057446D01*
X193360713Y-148034250D01*
X193350231Y-148016355D01*
X193348938Y-148017014D01*
X193285103Y-147891731D01*
X193189794Y-147796422D01*
X193069701Y-147735232D01*
X193069701Y-147735231D01*
X192936575Y-147714147D01*
X192803448Y-147735231D01*
X192803448Y-147735232D01*
X192683355Y-147796422D01*
X192683354Y-147796423D01*
X192586818Y-147892960D01*
X192540942Y-147914352D01*
X192534492Y-147914634D01*
X192507924Y-147914634D01*
X192460358Y-147897321D01*
X192435048Y-147853484D01*
X192443838Y-147803634D01*
X192455598Y-147788308D01*
X192467267Y-147776639D01*
X192495996Y-147747910D01*
X192557187Y-147627816D01*
X192565615Y-147574601D01*
X192590155Y-147530330D01*
X192637412Y-147512189D01*
X192648364Y-147512811D01*
X192678136Y-147516730D01*
X192834766Y-147496110D01*
X192834767Y-147496110D01*
X192980723Y-147435652D01*
X193074599Y-147363618D01*
X193296854Y-147141363D01*
X193296854Y-147141362D01*
X192448326Y-146292834D01*
X192943300Y-146292834D01*
X193544341Y-146893875D01*
X193766600Y-146671616D01*
X193838630Y-146577746D01*
X193899089Y-146431788D01*
X193899089Y-146431787D01*
X193919709Y-146275157D01*
X193899089Y-146118527D01*
X193899089Y-146118526D01*
X193838631Y-145972570D01*
X193766597Y-145878694D01*
X193562019Y-145674116D01*
X192943300Y-146292834D01*
X192448326Y-146292834D01*
X191847286Y-145691794D01*
X191625027Y-145914053D01*
X191552997Y-146007923D01*
X191492538Y-146153881D01*
X191492538Y-146153882D01*
X191471918Y-146310512D01*
X191492538Y-146467142D01*
X191492538Y-146467143D01*
X191552996Y-146613099D01*
X191625030Y-146706975D01*
X191934825Y-147016770D01*
X191956217Y-147062646D01*
X191943116Y-147111541D01*
X191916095Y-147135030D01*
X191894248Y-147146161D01*
X191794822Y-147245588D01*
X191793174Y-147243940D01*
X191758992Y-147266993D01*
X191741095Y-147269190D01*
X191536329Y-147269190D01*
X191488763Y-147251877D01*
X191484003Y-147247516D01*
X190291976Y-146055489D01*
X190290643Y-146054084D01*
X190263163Y-146023565D01*
X190263159Y-146023562D01*
X190240907Y-146013655D01*
X190230702Y-146008114D01*
X190210274Y-145994847D01*
X190210271Y-145994846D01*
X190204160Y-145993878D01*
X190201868Y-145993515D01*
X190183355Y-145988031D01*
X190175587Y-145984573D01*
X190175586Y-145984573D01*
X190151228Y-145984573D01*
X190139653Y-145983662D01*
X190136129Y-145983104D01*
X190115590Y-145979850D01*
X190115589Y-145979850D01*
X190107375Y-145982052D01*
X190088223Y-145984573D01*
X186825785Y-145984573D01*
X186778219Y-145967260D01*
X186752909Y-145923423D01*
X186761699Y-145873573D01*
X186765913Y-145867083D01*
X186767496Y-145864901D01*
X186767502Y-145864896D01*
X186828693Y-145744802D01*
X186849778Y-145611676D01*
X186828693Y-145478550D01*
X186828693Y-145478549D01*
X186811245Y-145444306D01*
X192094773Y-145444306D01*
X192695814Y-146045347D01*
X193314531Y-145426629D01*
X193109950Y-145222048D01*
X193016080Y-145150018D01*
X192870122Y-145089559D01*
X192713491Y-145068939D01*
X192556861Y-145089559D01*
X192556860Y-145089559D01*
X192410904Y-145150017D01*
X192317028Y-145222051D01*
X192094773Y-145444306D01*
X186811245Y-145444306D01*
X186767502Y-145358456D01*
X186672193Y-145263147D01*
X186552100Y-145201957D01*
X186552100Y-145201956D01*
X186418974Y-145180872D01*
X186285847Y-145201956D01*
X186285847Y-145201957D01*
X186165754Y-145263147D01*
X186070445Y-145358456D01*
X186009255Y-145478549D01*
X186009254Y-145478549D01*
X185988170Y-145611675D01*
X186009254Y-145744802D01*
X186070445Y-145864894D01*
X186072035Y-145867083D01*
X186072645Y-145869212D01*
X186073090Y-145870085D01*
X186072920Y-145870171D01*
X186085982Y-145915742D01*
X186065389Y-145961983D01*
X186019891Y-145984168D01*
X186012163Y-145984573D01*
X184121568Y-145984573D01*
X184074002Y-145967260D01*
X184069242Y-145962899D01*
X182944076Y-144837733D01*
X182922684Y-144791857D01*
X182923312Y-144773835D01*
X182932715Y-144714473D01*
X182911630Y-144581347D01*
X182911630Y-144581346D01*
X182850439Y-144461253D01*
X182755130Y-144365944D01*
X182635037Y-144304754D01*
X182635037Y-144304753D01*
X182501911Y-144283669D01*
X182368784Y-144304753D01*
X182368784Y-144304754D01*
X182248691Y-144365944D01*
X182153382Y-144461253D01*
X182092192Y-144581346D01*
X182092191Y-144581346D01*
X182071107Y-144714473D01*
X182092191Y-144847599D01*
X182153382Y-144967692D01*
X182153383Y-144967693D01*
X182248691Y-145063001D01*
X182368784Y-145124191D01*
X182368784Y-145124192D01*
X182389869Y-145127531D01*
X182501911Y-145145277D01*
X182561268Y-145135875D01*
X182610956Y-145145533D01*
X182625170Y-145156638D01*
X183757473Y-146288941D01*
X183778865Y-146334817D01*
X183765764Y-146383712D01*
X183748644Y-146401134D01*
X183739762Y-146407586D01*
X183735510Y-146414951D01*
X183723753Y-146430271D01*
X182280032Y-147873992D01*
X182278628Y-147875325D01*
X182248109Y-147902806D01*
X182248106Y-147902810D01*
X182238197Y-147925064D01*
X182232660Y-147935261D01*
X182219391Y-147955694D01*
X182218060Y-147964098D01*
X182212576Y-147982611D01*
X182209118Y-147990378D01*
X182209117Y-147990384D01*
X182209117Y-148014740D01*
X182208206Y-148026316D01*
X182204394Y-148050378D01*
X182204395Y-148050380D01*
X182206288Y-148057446D01*
X182206595Y-148058589D01*
X182209117Y-148077743D01*
X182209117Y-148991552D01*
X182191804Y-149039118D01*
X182185362Y-149045126D01*
X182185515Y-149045279D01*
X182086089Y-149144704D01*
X182086088Y-149144705D01*
X182024898Y-149264798D01*
X182024897Y-149264798D01*
X182003813Y-149397925D01*
X175819500Y-149397925D01*
X175819500Y-148746719D01*
X180085768Y-148746719D01*
X180096748Y-148752086D01*
X180096750Y-148752087D01*
X180164781Y-148761999D01*
X180608000Y-148761999D01*
X181088000Y-148761999D01*
X181531211Y-148761999D01*
X181531224Y-148761998D01*
X181599250Y-148752087D01*
X181610231Y-148746718D01*
X181248000Y-148384487D01*
X181088000Y-148544487D01*
X181088000Y-148761999D01*
X180608000Y-148761999D01*
X180608000Y-148544487D01*
X180448000Y-148384487D01*
X180085768Y-148746719D01*
X175819500Y-148746719D01*
X175819500Y-148664000D01*
X175836813Y-148616434D01*
X175880650Y-148591124D01*
X175893500Y-148590000D01*
X179832000Y-148590000D01*
X179832000Y-148536164D01*
X179849313Y-148488598D01*
X179853674Y-148483838D01*
X180200513Y-148137000D01*
X180695487Y-148137000D01*
X180848000Y-148289512D01*
X181000512Y-148137000D01*
X181495487Y-148137000D01*
X181842366Y-148483879D01*
X181847999Y-148445223D01*
X181847999Y-147828788D01*
X181847998Y-147828777D01*
X181842365Y-147790120D01*
X181495487Y-148136999D01*
X181495487Y-148137000D01*
X181000512Y-148137000D01*
X180848000Y-147984487D01*
X180695487Y-148136999D01*
X180695487Y-148137000D01*
X180200513Y-148137000D01*
X180448000Y-147889513D01*
X180607999Y-147729511D01*
X180608000Y-147729511D01*
X180608000Y-147512000D01*
X181088000Y-147512000D01*
X181088000Y-147729512D01*
X181247999Y-147889511D01*
X181610230Y-147527279D01*
X181599251Y-147521913D01*
X181531221Y-147512000D01*
X181088000Y-147512000D01*
X180608000Y-147512000D01*
X180164782Y-147512000D01*
X180096749Y-147521912D01*
X179991811Y-147573213D01*
X179958326Y-147606699D01*
X179912450Y-147628091D01*
X179863555Y-147614990D01*
X179834521Y-147573526D01*
X179832000Y-147554373D01*
X179832000Y-145776820D01*
X180047500Y-145776820D01*
X180052707Y-145802994D01*
X180056233Y-145820722D01*
X180088632Y-145869212D01*
X180089496Y-145870504D01*
X180139278Y-145903767D01*
X180183180Y-145912500D01*
X180183181Y-145912500D01*
X180712819Y-145912500D01*
X180712820Y-145912500D01*
X180756722Y-145903767D01*
X180806504Y-145870504D01*
X180806504Y-145870503D01*
X180806888Y-145870247D01*
X180856056Y-145858216D01*
X180889112Y-145870247D01*
X180889495Y-145870503D01*
X180889496Y-145870504D01*
X180939278Y-145903767D01*
X180983180Y-145912500D01*
X180983181Y-145912500D01*
X181512819Y-145912500D01*
X181512820Y-145912500D01*
X181556722Y-145903767D01*
X181606504Y-145870504D01*
X181639767Y-145820722D01*
X181643293Y-145802992D01*
X181669551Y-145759719D01*
X181717484Y-145743447D01*
X181764661Y-145761792D01*
X181768197Y-145765103D01*
X181929833Y-145926739D01*
X181951225Y-145972615D01*
X181950596Y-145990639D01*
X181941933Y-146045347D01*
X181941196Y-146050000D01*
X181942065Y-146055489D01*
X181962280Y-146183126D01*
X182016196Y-146288941D01*
X182023472Y-146303220D01*
X182118780Y-146398528D01*
X182238873Y-146459718D01*
X182238873Y-146459719D01*
X182257544Y-146462676D01*
X182372000Y-146480804D01*
X182505126Y-146459719D01*
X182625220Y-146398528D01*
X182720528Y-146303220D01*
X182781719Y-146183126D01*
X182802804Y-146050000D01*
X182785058Y-145937958D01*
X182781719Y-145916873D01*
X182720528Y-145796780D01*
X182625219Y-145701471D01*
X182505126Y-145640281D01*
X182505126Y-145640280D01*
X182372000Y-145619196D01*
X182312640Y-145628597D01*
X182262951Y-145618938D01*
X182248739Y-145607834D01*
X181973321Y-145332416D01*
X181971988Y-145331011D01*
X181944508Y-145300492D01*
X181944504Y-145300489D01*
X181922252Y-145290582D01*
X181912047Y-145285041D01*
X181891619Y-145271774D01*
X181891616Y-145271773D01*
X181885505Y-145270805D01*
X181883213Y-145270442D01*
X181864700Y-145264958D01*
X181856932Y-145261500D01*
X181856931Y-145261500D01*
X181832573Y-145261500D01*
X181820998Y-145260589D01*
X181817474Y-145260031D01*
X181796935Y-145256777D01*
X181796934Y-145256777D01*
X181788720Y-145258979D01*
X181769568Y-145261500D01*
X181721904Y-145261500D01*
X181674338Y-145244187D01*
X181649251Y-145200736D01*
X181649209Y-145200745D01*
X181649184Y-145200620D01*
X181649028Y-145200350D01*
X181648801Y-145198696D01*
X181648500Y-145197182D01*
X181648500Y-145197180D01*
X181639767Y-145153278D01*
X181606504Y-145103496D01*
X181592573Y-145094188D01*
X181556722Y-145070233D01*
X181550217Y-145068939D01*
X181512820Y-145061500D01*
X180983180Y-145061500D01*
X180968546Y-145064411D01*
X180939276Y-145070233D01*
X180889111Y-145103752D01*
X180839943Y-145115783D01*
X180806889Y-145103752D01*
X180756723Y-145070233D01*
X180734770Y-145065866D01*
X180712820Y-145061500D01*
X180183180Y-145061500D01*
X180161229Y-145065866D01*
X180139277Y-145070233D01*
X180089496Y-145103495D01*
X180089495Y-145103496D01*
X180056233Y-145153277D01*
X180053499Y-145167021D01*
X180047500Y-145197180D01*
X180047500Y-145776820D01*
X179832000Y-145776820D01*
X179832000Y-145034000D01*
X177546000Y-145034000D01*
X175893500Y-145034000D01*
X175845934Y-145016687D01*
X175820624Y-144972850D01*
X175819500Y-144960000D01*
X175819500Y-144264227D01*
X184514246Y-144264227D01*
X184535330Y-144397353D01*
X184596521Y-144517446D01*
X184596522Y-144517447D01*
X184691830Y-144612755D01*
X184811923Y-144673945D01*
X184811923Y-144673946D01*
X184830125Y-144676828D01*
X184945050Y-144695031D01*
X185078176Y-144673946D01*
X185198270Y-144612755D01*
X185293578Y-144517447D01*
X185346196Y-144414179D01*
X186502527Y-144414179D01*
X186523611Y-144547305D01*
X186582171Y-144662234D01*
X186584803Y-144667399D01*
X186680111Y-144762707D01*
X186800204Y-144823897D01*
X186800204Y-144823898D01*
X186821289Y-144827237D01*
X186933331Y-144844983D01*
X187066457Y-144823898D01*
X187186551Y-144762707D01*
X187281859Y-144667399D01*
X187343050Y-144547305D01*
X187356124Y-144464759D01*
X193585784Y-144464759D01*
X193624985Y-144585412D01*
X193624986Y-144585414D01*
X193680796Y-144662229D01*
X193680804Y-144662238D01*
X194326417Y-145307850D01*
X194403232Y-145363660D01*
X194403235Y-145363662D01*
X194403237Y-145363662D01*
X194403240Y-145363664D01*
X194465664Y-145383946D01*
X194523891Y-145402865D01*
X194650757Y-145402865D01*
X194771414Y-145363662D01*
X194848233Y-145307849D01*
X194863795Y-145292287D01*
X197427733Y-145292287D01*
X197436128Y-145300682D01*
X197481828Y-145337509D01*
X197610000Y-145396042D01*
X197749466Y-145416093D01*
X197888931Y-145396042D01*
X197888933Y-145396042D01*
X198017106Y-145337508D01*
X198017108Y-145337507D01*
X198062801Y-145300684D01*
X198062815Y-145300672D01*
X198089023Y-145274465D01*
X201755097Y-145274465D01*
X201784695Y-145304063D01*
X201784709Y-145304075D01*
X201830402Y-145340898D01*
X201830404Y-145340899D01*
X201958578Y-145399433D01*
X202098044Y-145419484D01*
X202237509Y-145399433D01*
X202237511Y-145399433D01*
X202365682Y-145340900D01*
X202411382Y-145304072D01*
X202419777Y-145295677D01*
X202076831Y-144952731D01*
X201755097Y-145274465D01*
X198089023Y-145274465D01*
X198092414Y-145271074D01*
X197770680Y-144949340D01*
X197427733Y-145292287D01*
X194863795Y-145292287D01*
X195529203Y-144626878D01*
X195585017Y-144550059D01*
X195624220Y-144429402D01*
X195624220Y-144302536D01*
X195608947Y-144255531D01*
X195599920Y-144227747D01*
X195601686Y-144177159D01*
X195617970Y-144152556D01*
X196169441Y-143601085D01*
X196215316Y-143579694D01*
X196264211Y-143592795D01*
X196276748Y-143605608D01*
X196276968Y-143605389D01*
X196282123Y-143610544D01*
X196299059Y-143621860D01*
X196310274Y-143631063D01*
X196572351Y-143893140D01*
X196593743Y-143939016D01*
X196589029Y-143972196D01*
X196584699Y-143983375D01*
X196582155Y-143989941D01*
X196582155Y-144098548D01*
X196621389Y-144199822D01*
X196636571Y-144218989D01*
X196895900Y-144478317D01*
X196900181Y-144481708D01*
X196915067Y-144493500D01*
X197022735Y-144535211D01*
X197021806Y-144537606D01*
X197055851Y-144557717D01*
X197072689Y-144605453D01*
X197071940Y-144615246D01*
X197056439Y-144723065D01*
X197076490Y-144862531D01*
X197076490Y-144862533D01*
X197135023Y-144990704D01*
X197171850Y-145036404D01*
X197180246Y-145044800D01*
X197523193Y-144701853D01*
X198018167Y-144701853D01*
X198339901Y-145023587D01*
X198339902Y-145023587D01*
X198369499Y-144993988D01*
X198369511Y-144993974D01*
X198406334Y-144948281D01*
X198406335Y-144948279D01*
X198464869Y-144820106D01*
X198464869Y-144820104D01*
X198480374Y-144712263D01*
X198504280Y-144667645D01*
X198543090Y-144649547D01*
X198650931Y-144634042D01*
X198650933Y-144634042D01*
X198779106Y-144575508D01*
X198779108Y-144575507D01*
X198824801Y-144538684D01*
X198824815Y-144538672D01*
X198854414Y-144509074D01*
X198532679Y-144187340D01*
X198509478Y-144210539D01*
X198509474Y-144210545D01*
X198018167Y-144701852D01*
X198018167Y-144701853D01*
X197523193Y-144701853D01*
X198285193Y-143939853D01*
X198780167Y-143939853D01*
X199101901Y-144261587D01*
X199101902Y-144261587D01*
X199131499Y-144231988D01*
X199131511Y-144231974D01*
X199168334Y-144186281D01*
X199168336Y-144186276D01*
X199184704Y-144150436D01*
X199220211Y-144114359D01*
X199270600Y-144109546D01*
X199312295Y-144138249D01*
X199314470Y-144141836D01*
X199316328Y-144144394D01*
X199411636Y-144239702D01*
X199531729Y-144300892D01*
X199531729Y-144300893D01*
X199552813Y-144304232D01*
X199664856Y-144321978D01*
X199780299Y-144303693D01*
X199829985Y-144313351D01*
X199861841Y-144352689D01*
X199864962Y-144365206D01*
X199878102Y-144448173D01*
X199878103Y-144448174D01*
X199928612Y-144547305D01*
X199939294Y-144568268D01*
X200034602Y-144663576D01*
X200154695Y-144724766D01*
X200154695Y-144724767D01*
X200165366Y-144726457D01*
X200287822Y-144745852D01*
X200420948Y-144724767D01*
X200541042Y-144663576D01*
X200636350Y-144568268D01*
X200664783Y-144512465D01*
X200993096Y-144512465D01*
X201022704Y-144542073D01*
X201022706Y-144542074D01*
X201068403Y-144578898D01*
X201068404Y-144578899D01*
X201196578Y-144637433D01*
X201304420Y-144652938D01*
X201349038Y-144676844D01*
X201367136Y-144715654D01*
X201382641Y-144823495D01*
X201382641Y-144823497D01*
X201441175Y-144951670D01*
X201441176Y-144951672D01*
X201477999Y-144997365D01*
X201478011Y-144997379D01*
X201507609Y-145026978D01*
X201507610Y-145026978D01*
X201829343Y-144705243D01*
X201829343Y-144705242D01*
X201816547Y-144692447D01*
X201314831Y-144190730D01*
X200993096Y-144512465D01*
X200664783Y-144512465D01*
X200697541Y-144448174D01*
X200718626Y-144315048D01*
X200718625Y-144315045D01*
X200719209Y-144311363D01*
X200739972Y-144270613D01*
X201067343Y-143943243D01*
X200724397Y-143600297D01*
X200716002Y-143608691D01*
X200716001Y-143608692D01*
X200679174Y-143654392D01*
X200620641Y-143782563D01*
X200620641Y-143782565D01*
X200605280Y-143889409D01*
X200581374Y-143934027D01*
X200534381Y-143952841D01*
X200498440Y-143944813D01*
X200420948Y-143905329D01*
X200420946Y-143905328D01*
X200420945Y-143905328D01*
X200287822Y-143884244D01*
X200172380Y-143902528D01*
X200122691Y-143892869D01*
X200090836Y-143853531D01*
X200087716Y-143841021D01*
X200074575Y-143758048D01*
X200013384Y-143637954D01*
X199919046Y-143543616D01*
X199897654Y-143497740D01*
X199910755Y-143448845D01*
X199913753Y-143444857D01*
X199930334Y-143424281D01*
X199930335Y-143424279D01*
X199988869Y-143296106D01*
X199988869Y-143296104D01*
X200008920Y-143156640D01*
X199988869Y-143017174D01*
X199988869Y-143017172D01*
X199930336Y-142889001D01*
X199893509Y-142843301D01*
X199885114Y-142834906D01*
X199294680Y-143425340D01*
X199271478Y-143448539D01*
X199271474Y-143448545D01*
X198780167Y-143939852D01*
X198780167Y-143939853D01*
X198285193Y-143939853D01*
X199637627Y-142587419D01*
X199629231Y-142579023D01*
X199583531Y-142542196D01*
X199455359Y-142483663D01*
X199315892Y-142463612D01*
X199208073Y-142479113D01*
X199158528Y-142468745D01*
X199127237Y-142428956D01*
X199126392Y-142425661D01*
X199125561Y-142423515D01*
X199125561Y-142423514D01*
X199086327Y-142322240D01*
X199071145Y-142303073D01*
X198811816Y-142043745D01*
X198792649Y-142028562D01*
X198792648Y-142028561D01*
X198691375Y-141989328D01*
X198582768Y-141989328D01*
X198481495Y-142028561D01*
X198481493Y-142028562D01*
X198462328Y-142043742D01*
X198160577Y-142345493D01*
X198160571Y-142345500D01*
X198145388Y-142364668D01*
X198106155Y-142465941D01*
X198106155Y-142581405D01*
X198104741Y-142581405D01*
X198097723Y-142623702D01*
X198085592Y-142639679D01*
X197994506Y-142730765D01*
X197948630Y-142752157D01*
X197931611Y-142751328D01*
X197929375Y-142751328D01*
X197820768Y-142751328D01*
X197719495Y-142790561D01*
X197719493Y-142790562D01*
X197700328Y-142805742D01*
X197398577Y-143107493D01*
X197398571Y-143107500D01*
X197383388Y-143126668D01*
X197344155Y-143227941D01*
X197344155Y-143343405D01*
X197342741Y-143343405D01*
X197335723Y-143385702D01*
X197323592Y-143401679D01*
X197232506Y-143492765D01*
X197186630Y-143514157D01*
X197169611Y-143513328D01*
X197167375Y-143513328D01*
X197058768Y-143513328D01*
X197041023Y-143520202D01*
X196990415Y-143521240D01*
X196961967Y-143503524D01*
X196777919Y-143319476D01*
X196756527Y-143273600D01*
X196756245Y-143267150D01*
X196756245Y-143240410D01*
X196773558Y-143192844D01*
X196815807Y-143167832D01*
X196856784Y-143159682D01*
X196913761Y-143121611D01*
X196924911Y-143114161D01*
X196924911Y-143114160D01*
X196932925Y-143108806D01*
X196932927Y-143108803D01*
X196947913Y-143098791D01*
X196959235Y-143081845D01*
X196968427Y-143070644D01*
X196992588Y-143046482D01*
X197038460Y-143025092D01*
X197048981Y-143025459D01*
X197048981Y-143025455D01*
X197054805Y-143025455D01*
X197187931Y-143004370D01*
X197308025Y-142943179D01*
X197403333Y-142847871D01*
X197464524Y-142727777D01*
X197485609Y-142594651D01*
X197465668Y-142468745D01*
X197464524Y-142461524D01*
X197403333Y-142341431D01*
X197308024Y-142246122D01*
X197187931Y-142184932D01*
X197187931Y-142184931D01*
X197054805Y-142163847D01*
X196921678Y-142184931D01*
X196921678Y-142184932D01*
X196801585Y-142246122D01*
X196706276Y-142341431D01*
X196645086Y-142461524D01*
X196645085Y-142461524D01*
X196629134Y-142562243D01*
X196604593Y-142606515D01*
X196557337Y-142624656D01*
X196556045Y-142624667D01*
X196515166Y-142624667D01*
X196500730Y-142623245D01*
X196480746Y-142619270D01*
X196480744Y-142619270D01*
X196373251Y-142640650D01*
X196307052Y-142684882D01*
X196307050Y-142684885D01*
X196282121Y-142701542D01*
X196282119Y-142701544D01*
X196270798Y-142718486D01*
X196261598Y-142729696D01*
X195260045Y-143731250D01*
X195214169Y-143752642D01*
X195165274Y-143739541D01*
X195155393Y-143731250D01*
X194883586Y-143459443D01*
X194806771Y-143403633D01*
X194806763Y-143403629D01*
X194686114Y-143364429D01*
X194686113Y-143364429D01*
X194559247Y-143364429D01*
X194559245Y-143364429D01*
X194438595Y-143403629D01*
X194438587Y-143403633D01*
X194361773Y-143459442D01*
X193680801Y-144140415D01*
X193624986Y-144217236D01*
X193624984Y-144217240D01*
X193585784Y-144337890D01*
X193585784Y-144464759D01*
X187356124Y-144464759D01*
X187364135Y-144414179D01*
X187343050Y-144281053D01*
X187343050Y-144281052D01*
X187281859Y-144160959D01*
X187186550Y-144065650D01*
X187066457Y-144004460D01*
X187066457Y-144004459D01*
X186933331Y-143983375D01*
X186800204Y-144004459D01*
X186800204Y-144004460D01*
X186680111Y-144065650D01*
X186584802Y-144160959D01*
X186523612Y-144281052D01*
X186523611Y-144281052D01*
X186502527Y-144414179D01*
X185346196Y-144414179D01*
X185354769Y-144397353D01*
X185375854Y-144264227D01*
X185354769Y-144131101D01*
X185354769Y-144131100D01*
X185293578Y-144011007D01*
X185198269Y-143915698D01*
X185078176Y-143854508D01*
X185078176Y-143854507D01*
X184945050Y-143833423D01*
X184811923Y-143854507D01*
X184811923Y-143854508D01*
X184691830Y-143915698D01*
X184596521Y-144011007D01*
X184535331Y-144131100D01*
X184535330Y-144131100D01*
X184514246Y-144264227D01*
X175819500Y-144264227D01*
X175819500Y-143737841D01*
X182713553Y-143737841D01*
X182734034Y-143880295D01*
X182734034Y-143880296D01*
X182734035Y-143880298D01*
X182786669Y-143995549D01*
X182793823Y-144011214D01*
X182888068Y-144119980D01*
X182888069Y-144119981D01*
X182888072Y-144119984D01*
X182965771Y-144169918D01*
X182991224Y-144186276D01*
X183009147Y-144197794D01*
X183111159Y-144227747D01*
X183147235Y-144238340D01*
X183147237Y-144238341D01*
X183147239Y-144238341D01*
X183291163Y-144238341D01*
X183291164Y-144238340D01*
X183294665Y-144237312D01*
X183429253Y-144197794D01*
X183550328Y-144119984D01*
X183644577Y-144011214D01*
X183704365Y-143880298D01*
X183724847Y-143737841D01*
X183704365Y-143595384D01*
X183644577Y-143464468D01*
X183604273Y-143417954D01*
X183550331Y-143355701D01*
X183550329Y-143355700D01*
X183550328Y-143355698D01*
X183485586Y-143314091D01*
X183429254Y-143277888D01*
X183429250Y-143277887D01*
X183291164Y-143237341D01*
X183291161Y-143237341D01*
X183147239Y-143237341D01*
X183147236Y-143237341D01*
X183009149Y-143277887D01*
X183009145Y-143277888D01*
X182888075Y-143355696D01*
X182888068Y-143355701D01*
X182793823Y-143464467D01*
X182734034Y-143595386D01*
X182713553Y-143737841D01*
X175819500Y-143737841D01*
X175819500Y-142042670D01*
X175819733Y-142038526D01*
X175820855Y-142028562D01*
X175822482Y-142014118D01*
X175833598Y-141929659D01*
X175837108Y-141914915D01*
X175851080Y-141874987D01*
X175851769Y-141873182D01*
X175876060Y-141814540D01*
X175881752Y-141803525D01*
X175906601Y-141763979D01*
X175908542Y-141761188D01*
X175946947Y-141711138D01*
X175950128Y-141707513D01*
X175985941Y-141671701D01*
X175989538Y-141668547D01*
X176039579Y-141630150D01*
X176042382Y-141628199D01*
X176081938Y-141603345D01*
X176092955Y-141597653D01*
X176151577Y-141573371D01*
X176153367Y-141572687D01*
X176193332Y-141558703D01*
X176208079Y-141555192D01*
X176292108Y-141544129D01*
X176311283Y-141541969D01*
X176317023Y-141541323D01*
X176321167Y-141541090D01*
X177773836Y-141541090D01*
X177786568Y-141545724D01*
X177810030Y-141542010D01*
X177821599Y-141541100D01*
X177865145Y-141541099D01*
X177868873Y-141540100D01*
X177897423Y-141532450D01*
X177907755Y-141533353D01*
X177916025Y-141529140D01*
X177930462Y-141523597D01*
X177954290Y-141517213D01*
X177996511Y-141492835D01*
X178007601Y-141490879D01*
X178011235Y-141487246D01*
X178026558Y-141475487D01*
X178034215Y-141471067D01*
X178099473Y-141405807D01*
X178103891Y-141398152D01*
X178115653Y-141382824D01*
X178119132Y-141379344D01*
X178121242Y-141368100D01*
X178122833Y-141365344D01*
X178145616Y-141325881D01*
X178152001Y-141302048D01*
X178157543Y-141287613D01*
X178161700Y-141279454D01*
X178160769Y-141269327D01*
X178160793Y-141269233D01*
X178169501Y-141236735D01*
X178169500Y-141193259D01*
X178170411Y-141181683D01*
X178173979Y-141159149D01*
X178169534Y-141148004D01*
X178169500Y-141145750D01*
X178169500Y-140840090D01*
X178186813Y-140792524D01*
X178230650Y-140767214D01*
X178243500Y-140766090D01*
X179596610Y-140766090D01*
X179644176Y-140783403D01*
G37*
%TD.AperFunction*%
%TD*%
M02*
