%TF.GenerationSoftware,KiCad,Pcbnew,7.0.6*%
%TF.CreationDate,2023-09-06T22:26:16-07:00*%
%TF.ProjectId,GCP-2,4743502d-322e-46b6-9963-61645f706362,rev?*%
%TF.SameCoordinates,Original*%
%TF.FileFunction,Profile,NP*%
%FSLAX46Y46*%
G04 Gerber Fmt 4.6, Leading zero omitted, Abs format (unit mm)*
G04 Created by KiCad (PCBNEW 7.0.6) date 2023-09-06 22:26:16*
%MOMM*%
%LPD*%
G01*
G04 APERTURE LIST*
%TA.AperFunction,Profile*%
%ADD10C,0.100000*%
%TD*%
G04 APERTURE END LIST*
D10*
X221118779Y-140765590D02*
X221118779Y-152921000D01*
X192369000Y-159843300D02*
G75*
G03*
X193119000Y-159093295I0J750000D01*
G01*
X215614779Y-142843279D02*
G75*
G03*
X215964779Y-142493295I21J349979D01*
G01*
X181821110Y-152921000D02*
G75*
G03*
X179671110Y-152921000I-1075000J0D01*
G01*
X203373205Y-142493295D02*
G75*
G03*
X203723221Y-142843295I349995J-5D01*
G01*
X176319000Y-141540600D02*
G75*
G03*
X175819000Y-142040590I0J-500000D01*
G01*
X203723221Y-150843321D02*
G75*
G03*
X203373221Y-151193295I-21J-349979D01*
G01*
X177819000Y-141540590D02*
X176319000Y-141540590D01*
X213169000Y-134593295D02*
X213169000Y-142493295D01*
X212419000Y-159843300D02*
G75*
G03*
X213169000Y-159093295I0J750000D01*
G01*
X183673221Y-150843321D02*
G75*
G03*
X183323221Y-151193295I-21J-349979D01*
G01*
X185769000Y-142843300D02*
G75*
G03*
X186119000Y-142493295I0J350000D01*
G01*
X178169000Y-152496000D02*
G75*
G03*
X177819000Y-152146000I-350000J0D01*
G01*
X206169005Y-159093295D02*
G75*
G03*
X206919000Y-159843295I749995J-5D01*
G01*
X186869000Y-133843295D02*
X192369000Y-133843295D01*
X217466825Y-140765590D02*
G75*
G03*
X219616825Y-140765590I1075000J0D01*
G01*
X178169000Y-141190590D02*
X178169000Y-140765590D01*
X192369000Y-159843295D02*
X186869000Y-159843295D01*
X186119000Y-159093295D02*
X186119000Y-151193295D01*
X193119005Y-142493295D02*
G75*
G03*
X193469000Y-142843295I349995J-5D01*
G01*
X219616825Y-140765590D02*
X221118779Y-140765590D01*
X205819000Y-150843295D02*
X203723221Y-150843295D01*
X213169000Y-151193295D02*
X213169000Y-159093295D01*
X183323221Y-151193295D02*
X183323221Y-152921000D01*
X185769000Y-150843295D02*
X183673221Y-150843295D01*
X195914779Y-152146000D02*
X203373221Y-152146000D01*
X206169000Y-159093295D02*
X206169000Y-151193295D01*
X183673221Y-142843295D02*
X185769000Y-142843295D01*
X178169000Y-152496000D02*
X178169000Y-152921000D01*
X183323205Y-142493295D02*
G75*
G03*
X183673221Y-142843295I349995J-5D01*
G01*
X186119005Y-159093295D02*
G75*
G03*
X186869000Y-159843295I749995J-5D01*
G01*
X215964805Y-151193295D02*
G75*
G03*
X215614779Y-150843295I-350005J-5D01*
G01*
X195914779Y-142493295D02*
X195914779Y-141540590D01*
X177819000Y-152146000D02*
X176319000Y-152146000D01*
X215964779Y-142493295D02*
X215964779Y-140765590D01*
X195914779Y-152146000D02*
X195914779Y-151193295D01*
X213519000Y-142843295D02*
X215614779Y-142843295D01*
X217466890Y-152921000D02*
X215964779Y-152921000D01*
X179671110Y-140765590D02*
G75*
G03*
X181821110Y-140765590I1075000J0D01*
G01*
X203373221Y-151193295D02*
X203373221Y-152146000D01*
X179671110Y-152921000D02*
X178169000Y-152921000D01*
X213519000Y-150843300D02*
G75*
G03*
X213169000Y-151193295I0J-350000D01*
G01*
X206919000Y-133843295D02*
X212419000Y-133843295D01*
X177819000Y-141540600D02*
G75*
G03*
X178169000Y-141190590I0J350000D01*
G01*
X213169005Y-142493295D02*
G75*
G03*
X213519000Y-142843295I349995J-5D01*
G01*
X215614779Y-150843295D02*
X213519000Y-150843295D01*
X193469000Y-142843295D02*
X195564779Y-142843295D01*
X193119000Y-151193295D02*
X193119000Y-159093295D01*
X186119000Y-142493295D02*
X186119000Y-134593295D01*
X181821110Y-152921000D02*
X183323221Y-152921000D01*
X206169005Y-151193295D02*
G75*
G03*
X205819000Y-150843295I-350005J-5D01*
G01*
X175819000Y-151646000D02*
G75*
G03*
X176319000Y-152146000I500000J0D01*
G01*
X219616890Y-152921000D02*
G75*
G03*
X217466890Y-152921000I-1075000J0D01*
G01*
X213169005Y-134593295D02*
G75*
G03*
X212419000Y-133843295I-750005J-5D01*
G01*
X206169000Y-142493295D02*
X206169000Y-134593295D01*
X195564779Y-142843279D02*
G75*
G03*
X195914779Y-142493295I21J349979D01*
G01*
X195914805Y-151193295D02*
G75*
G03*
X195564779Y-150843295I-350005J-5D01*
G01*
X193469000Y-150843300D02*
G75*
G03*
X193119000Y-151193295I0J-350000D01*
G01*
X193119005Y-134593295D02*
G75*
G03*
X192369000Y-133843295I-750005J-5D01*
G01*
X186869000Y-133843300D02*
G75*
G03*
X186119000Y-134593295I0J-750000D01*
G01*
X217288779Y-143953295D02*
G75*
G03*
X217288779Y-143953295I-250000J0D01*
G01*
X181821110Y-140765590D02*
X183323221Y-140765590D01*
X203373221Y-141540590D02*
X203373221Y-142493295D01*
X205819000Y-142843300D02*
G75*
G03*
X206169000Y-142493295I0J350000D01*
G01*
X183323221Y-140765590D02*
X183323221Y-142493295D01*
X203723221Y-142843295D02*
X205819000Y-142843295D01*
X219616890Y-152921000D02*
X221118779Y-152921000D01*
X186119005Y-151193295D02*
G75*
G03*
X185769000Y-150843295I-350005J-5D01*
G01*
X206919000Y-133843300D02*
G75*
G03*
X206169000Y-134593295I0J-750000D01*
G01*
X175819000Y-142040590D02*
X175819000Y-151646000D01*
X215964779Y-152921000D02*
X215964779Y-151193295D01*
X179671110Y-140765590D02*
X178169000Y-140765590D01*
X195564779Y-150843295D02*
X193469000Y-150843295D01*
X217288779Y-149733295D02*
G75*
G03*
X217288779Y-149733295I-250000J0D01*
G01*
X203373221Y-141540590D02*
X195914779Y-141540590D01*
X193119000Y-134593295D02*
X193119000Y-142493295D01*
X179294000Y-146843295D02*
G75*
G03*
X179294000Y-146843295I-1125000J0D01*
G01*
X217466825Y-140765590D02*
X215964779Y-140765590D01*
X212419000Y-159843295D02*
X206919000Y-159843295D01*
M02*
