%TF.GenerationSoftware,KiCad,Pcbnew,7.0.6*%
%TF.CreationDate,2023-09-06T22:26:16-07:00*%
%TF.ProjectId,GCP-2,4743502d-322e-46b6-9963-61645f706362,rev?*%
%TF.SameCoordinates,Original*%
%TF.FileFunction,Soldermask,Top*%
%TF.FilePolarity,Negative*%
%FSLAX46Y46*%
G04 Gerber Fmt 4.6, Leading zero omitted, Abs format (unit mm)*
G04 Created by KiCad (PCBNEW 7.0.6) date 2023-09-06 22:26:16*
%MOMM*%
%LPD*%
G01*
G04 APERTURE LIST*
G04 Aperture macros list*
%AMRoundRect*
0 Rectangle with rounded corners*
0 $1 Rounding radius*
0 $2 $3 $4 $5 $6 $7 $8 $9 X,Y pos of 4 corners*
0 Add a 4 corners polygon primitive as box body*
4,1,4,$2,$3,$4,$5,$6,$7,$8,$9,$2,$3,0*
0 Add four circle primitives for the rounded corners*
1,1,$1+$1,$2,$3*
1,1,$1+$1,$4,$5*
1,1,$1+$1,$6,$7*
1,1,$1+$1,$8,$9*
0 Add four rect primitives between the rounded corners*
20,1,$1+$1,$2,$3,$4,$5,0*
20,1,$1+$1,$4,$5,$6,$7,0*
20,1,$1+$1,$6,$7,$8,$9,0*
20,1,$1+$1,$8,$9,$2,$3,0*%
%AMRotRect*
0 Rectangle, with rotation*
0 The origin of the aperture is its center*
0 $1 length*
0 $2 width*
0 $3 Rotation angle, in degrees counterclockwise*
0 Add horizontal line*
21,1,$1,$2,0,0,$3*%
G04 Aperture macros list end*
%ADD10C,0.650000*%
%ADD11R,1.150000X0.600000*%
%ADD12R,1.150000X0.300000*%
%ADD13O,2.100000X1.050000*%
%ADD14O,2.000000X1.000000*%
%ADD15RoundRect,0.100000X-0.162635X0.021213X0.021213X-0.162635X0.162635X-0.021213X-0.021213X0.162635X0*%
%ADD16RoundRect,0.100000X-0.130000X-0.100000X0.130000X-0.100000X0.130000X0.100000X-0.130000X0.100000X0*%
%ADD17RoundRect,0.100000X0.130000X0.100000X-0.130000X0.100000X-0.130000X-0.100000X0.130000X-0.100000X0*%
%ADD18R,1.000000X1.000000*%
%ADD19RoundRect,0.150000X-0.600000X-3.850000X0.600000X-3.850000X0.600000X3.850000X-0.600000X3.850000X0*%
%ADD20RoundRect,0.050000X-0.309359X0.238649X0.238649X-0.309359X0.309359X-0.238649X-0.238649X0.309359X0*%
%ADD21RoundRect,0.050000X-0.309359X-0.238649X-0.238649X-0.309359X0.309359X0.238649X0.238649X0.309359X0*%
%ADD22RotRect,3.200000X3.200000X315.000000*%
%ADD23R,0.550000X0.550000*%
%ADD24RoundRect,0.150000X0.600000X3.850000X-0.600000X3.850000X-0.600000X-3.850000X0.600000X-3.850000X0*%
%ADD25R,0.550000X0.500000*%
%ADD26R,0.300000X0.400000*%
%ADD27R,1.600000X0.200000*%
G04 APERTURE END LIST*
D10*
%TO.C,J1*%
X217026187Y-149720946D03*
X217026187Y-143940946D03*
D11*
X215951187Y-150030946D03*
X215951187Y-149230946D03*
D12*
X215951187Y-148080946D03*
X215951187Y-147080946D03*
X215951187Y-146580946D03*
X215951187Y-145580946D03*
D11*
X215951187Y-143630946D03*
X215951187Y-144430946D03*
D12*
X215951187Y-145080946D03*
X215951187Y-146080946D03*
X215951187Y-147580946D03*
X215951187Y-148580946D03*
D13*
X216526187Y-151150946D03*
D14*
X220706187Y-151150946D03*
X220706187Y-142510946D03*
D13*
X216526187Y-142510946D03*
%TD*%
D15*
%TO.C,R4*%
X196932145Y-150699966D03*
X197384693Y-151152514D03*
%TD*%
D16*
%TO.C,R6*%
X213970408Y-143306241D03*
X214610408Y-143306241D03*
%TD*%
D17*
%TO.C,R5*%
X214579342Y-150383306D03*
X213939342Y-150383306D03*
%TD*%
D18*
%TO.C,TP3*%
X207111600Y-147624800D03*
%TD*%
D17*
%TO.C,R7*%
X186748608Y-144951781D03*
X186108608Y-144951781D03*
%TD*%
D19*
%TO.C,J2*%
X187586408Y-138544241D03*
X189586408Y-138544241D03*
X191586408Y-138544241D03*
%TD*%
D18*
%TO.C,TP1*%
X212226284Y-148461640D03*
%TD*%
D17*
%TO.C,R1*%
X204892408Y-143560241D03*
X204252408Y-143560241D03*
%TD*%
D20*
%TO.C,U1*%
X198941158Y-142525295D03*
X198658315Y-142808138D03*
X198375473Y-143090980D03*
X198092630Y-143373823D03*
X197809787Y-143656666D03*
X197526945Y-143939508D03*
X197244102Y-144222351D03*
X196961259Y-144505194D03*
X196678416Y-144788037D03*
X196395574Y-145070879D03*
X196112731Y-145353722D03*
X195829888Y-145636565D03*
X195547046Y-145919407D03*
X195264203Y-146202250D03*
D21*
X195264203Y-147386654D03*
X195547046Y-147669497D03*
X195829888Y-147952339D03*
X196112731Y-148235182D03*
X196395574Y-148518025D03*
X196678416Y-148800867D03*
X196961259Y-149083710D03*
X197244102Y-149366553D03*
X197526945Y-149649396D03*
X197809787Y-149932238D03*
X198092630Y-150215081D03*
X198375473Y-150497924D03*
X198658315Y-150780766D03*
X198941158Y-151063609D03*
D20*
X200125562Y-151063609D03*
X200408405Y-150780766D03*
X200691247Y-150497924D03*
X200974090Y-150215081D03*
X201256933Y-149932238D03*
X201539775Y-149649396D03*
X201822618Y-149366553D03*
X202105461Y-149083710D03*
X202388304Y-148800867D03*
X202671146Y-148518025D03*
X202953989Y-148235182D03*
X203236832Y-147952339D03*
X203519674Y-147669497D03*
X203802517Y-147386654D03*
D21*
X203802517Y-146202250D03*
X203519674Y-145919407D03*
X203236832Y-145636565D03*
X202953989Y-145353722D03*
X202671146Y-145070879D03*
X202388304Y-144788037D03*
X202105461Y-144505194D03*
X201822618Y-144222351D03*
X201539775Y-143939508D03*
X201256933Y-143656666D03*
X200974090Y-143373823D03*
X200691247Y-143090980D03*
X200408405Y-142808138D03*
X200125562Y-142525295D03*
D22*
X199533360Y-146794452D03*
%TD*%
D23*
%TO.C,L1*%
X189111408Y-144543241D03*
X190061408Y-144543241D03*
X190061408Y-143593241D03*
X189111408Y-143593241D03*
%TD*%
%TO.C,L4*%
X190061408Y-149181241D03*
X189111408Y-149181241D03*
X189111408Y-150131241D03*
X190061408Y-150131241D03*
%TD*%
D15*
%TO.C,R3*%
X194565332Y-148581485D03*
X195017880Y-149034033D03*
%TD*%
D17*
%TO.C,R8*%
X194376000Y-145288000D03*
X193736000Y-145288000D03*
%TD*%
%TO.C,R2*%
X204892408Y-144322241D03*
X204252408Y-144322241D03*
%TD*%
D18*
%TO.C,TP2*%
X212927237Y-146160261D03*
%TD*%
D24*
%TO.C,J5*%
X191586408Y-155180241D03*
X189586408Y-155180241D03*
X187586408Y-155180241D03*
%TD*%
D16*
%TO.C,C10*%
X186227118Y-148380971D03*
X186867118Y-148380971D03*
%TD*%
D25*
%TO.C,SW3*%
X178863408Y-148698000D03*
X178863408Y-149498000D03*
X181513408Y-148698000D03*
X181513408Y-149498000D03*
%TD*%
D23*
%TO.C,L3*%
X210094408Y-149214241D03*
X209144408Y-149214241D03*
X209144408Y-150164241D03*
X210094408Y-150164241D03*
%TD*%
D19*
%TO.C,J3*%
X207652408Y-138544241D03*
X209652408Y-138544241D03*
X211652408Y-138544241D03*
%TD*%
D17*
%TO.C,R9*%
X184978000Y-149606000D03*
X184338000Y-149606000D03*
%TD*%
D25*
%TO.C,SW1*%
X178863408Y-144126000D03*
X178863408Y-144926000D03*
X181513408Y-144126000D03*
X181513408Y-144926000D03*
%TD*%
D24*
%TO.C,J4*%
X211652408Y-155180241D03*
X209652408Y-155180241D03*
X207652408Y-155180241D03*
%TD*%
D23*
%TO.C,L2*%
X209177408Y-144543241D03*
X210127408Y-144543241D03*
X210127408Y-143593241D03*
X209177408Y-143593241D03*
%TD*%
D26*
%TO.C,U2*%
X185408000Y-145104000D03*
X184908000Y-145104000D03*
X184408000Y-145104000D03*
X183908000Y-145104000D03*
X183908000Y-147504000D03*
X184408000Y-147504000D03*
X184908000Y-147504000D03*
X185408000Y-147504000D03*
D27*
X184658000Y-146304000D03*
%TD*%
M02*
