%TF.GenerationSoftware,KiCad,Pcbnew,7.0.6*%
%TF.CreationDate,2023-08-14T23:22:26-07:00*%
%TF.ProjectId,GCP-2,4743502d-322e-46b6-9963-61645f706362,rev?*%
%TF.SameCoordinates,Original*%
%TF.FileFunction,Soldermask,Bot*%
%TF.FilePolarity,Negative*%
%FSLAX46Y46*%
G04 Gerber Fmt 4.6, Leading zero omitted, Abs format (unit mm)*
G04 Created by KiCad (PCBNEW 7.0.6) date 2023-08-14 23:22:26*
%MOMM*%
%LPD*%
G01*
G04 APERTURE LIST*
G04 Aperture macros list*
%AMRoundRect*
0 Rectangle with rounded corners*
0 $1 Rounding radius*
0 $2 $3 $4 $5 $6 $7 $8 $9 X,Y pos of 4 corners*
0 Add a 4 corners polygon primitive as box body*
4,1,4,$2,$3,$4,$5,$6,$7,$8,$9,$2,$3,0*
0 Add four circle primitives for the rounded corners*
1,1,$1+$1,$2,$3*
1,1,$1+$1,$4,$5*
1,1,$1+$1,$6,$7*
1,1,$1+$1,$8,$9*
0 Add four rect primitives between the rounded corners*
20,1,$1+$1,$2,$3,$4,$5,0*
20,1,$1+$1,$4,$5,$6,$7,0*
20,1,$1+$1,$6,$7,$8,$9,0*
20,1,$1+$1,$8,$9,$2,$3,0*%
%AMRotRect*
0 Rectangle, with rotation*
0 The origin of the aperture is its center*
0 $1 length*
0 $2 width*
0 $3 Rotation angle, in degrees counterclockwise*
0 Add horizontal line*
21,1,$1,$2,0,0,$3*%
G04 Aperture macros list end*
%ADD10R,1.000000X1.000000*%
%ADD11R,0.500000X0.550000*%
%ADD12C,0.650000*%
%ADD13O,2.000000X1.000000*%
%ADD14RoundRect,0.150000X-0.600000X-3.850000X0.600000X-3.850000X0.600000X3.850000X-0.600000X3.850000X0*%
%ADD15RoundRect,0.150000X0.600000X3.850000X-0.600000X3.850000X-0.600000X-3.850000X0.600000X-3.850000X0*%
%ADD16RoundRect,0.225000X-0.017678X0.335876X-0.335876X0.017678X0.017678X-0.335876X0.335876X-0.017678X0*%
%ADD17RoundRect,0.140000X0.021213X-0.219203X0.219203X-0.021213X-0.021213X0.219203X-0.219203X0.021213X0*%
%ADD18RotRect,0.400000X1.900000X135.000000*%
%ADD19RoundRect,0.225000X0.225000X0.250000X-0.225000X0.250000X-0.225000X-0.250000X0.225000X-0.250000X0*%
%ADD20RoundRect,0.140000X-0.021213X0.219203X-0.219203X0.021213X0.021213X-0.219203X0.219203X-0.021213X0*%
%ADD21R,1.200000X0.550000*%
%ADD22R,2.800000X3.600000*%
%ADD23RoundRect,0.100000X0.130000X0.100000X-0.130000X0.100000X-0.130000X-0.100000X0.130000X-0.100000X0*%
%ADD24RoundRect,0.140000X-0.219203X-0.021213X-0.021213X-0.219203X0.219203X0.021213X0.021213X0.219203X0*%
%ADD25RoundRect,0.250000X0.250000X-0.250000X0.250000X0.250000X-0.250000X0.250000X-0.250000X-0.250000X0*%
%ADD26RoundRect,0.250000X0.017678X0.618718X-0.618718X-0.017678X-0.017678X-0.618718X0.618718X0.017678X0*%
%ADD27RoundRect,0.100000X-0.130000X-0.100000X0.130000X-0.100000X0.130000X0.100000X-0.130000X0.100000X0*%
%ADD28RoundRect,0.250001X-0.624999X0.462499X-0.624999X-0.462499X0.624999X-0.462499X0.624999X0.462499X0*%
%ADD29RoundRect,0.140000X0.219203X0.021213X0.021213X0.219203X-0.219203X-0.021213X-0.021213X-0.219203X0*%
G04 APERTURE END LIST*
D10*
%TO.C,TP5*%
X220070958Y-147828471D03*
%TD*%
%TO.C,TP4*%
X220071902Y-145800377D03*
%TD*%
D11*
%TO.C,SW2*%
X181248000Y-148137000D03*
X180448000Y-148137000D03*
X181248000Y-145487000D03*
X180448000Y-145487000D03*
%TD*%
D12*
%TO.C,J1*%
X217026187Y-149720946D03*
X217026187Y-143940946D03*
D13*
X220706187Y-151150946D03*
X220706187Y-142510946D03*
%TD*%
D14*
%TO.C,J2*%
X191586408Y-138544241D03*
X189586408Y-138544241D03*
X187586408Y-138544241D03*
%TD*%
D15*
%TO.C,J5*%
X187586408Y-155180241D03*
X189586408Y-155180241D03*
X191586408Y-155180241D03*
%TD*%
D14*
%TO.C,J3*%
X211652408Y-138544241D03*
X209652408Y-138544241D03*
X207652408Y-138544241D03*
%TD*%
D15*
%TO.C,J4*%
X207652408Y-155180241D03*
X209652408Y-155180241D03*
X211652408Y-155180241D03*
%TD*%
D16*
%TO.C,C2*%
X202070967Y-148999643D03*
X200974951Y-150095659D03*
%TD*%
D17*
%TO.C,C8*%
X201314831Y-143943244D03*
X201993653Y-143264422D03*
%TD*%
D18*
%TO.C,Y1*%
X197038936Y-149488769D03*
X196190408Y-148640241D03*
X195341880Y-147791713D03*
%TD*%
D19*
%TO.C,C3*%
X211958832Y-148360912D03*
X210408832Y-148360912D03*
%TD*%
D20*
%TO.C,C6*%
X202755653Y-144026422D03*
X202076831Y-144705244D03*
%TD*%
D21*
%TO.C,U3*%
X203675408Y-148679921D03*
X203675408Y-147409921D03*
X203675408Y-146139921D03*
X203675408Y-144869921D03*
X209025408Y-144869921D03*
X209025408Y-146139921D03*
X209025408Y-147409921D03*
X209025408Y-148679921D03*
D22*
X206350408Y-146774921D03*
%TD*%
D23*
%TO.C,R11*%
X205393417Y-143889318D03*
X204753417Y-143889318D03*
%TD*%
D24*
%TO.C,C5*%
X198615858Y-142499031D03*
X199294680Y-143177853D03*
%TD*%
D25*
%TO.C,D1*%
X211068550Y-146770773D03*
X211068550Y-144270773D03*
%TD*%
D26*
%TO.C,C1*%
X194605002Y-144383647D03*
X192695814Y-146292835D03*
%TD*%
D27*
%TO.C,R13*%
X194455029Y-150319832D03*
X195095029Y-150319832D03*
%TD*%
D23*
%TO.C,R12*%
X204684485Y-150045611D03*
X204044485Y-150045611D03*
%TD*%
%TO.C,R10*%
X191908725Y-148694060D03*
X191268725Y-148694060D03*
%TD*%
D24*
%TO.C,C4*%
X197091858Y-144023031D03*
X197770680Y-144701853D03*
%TD*%
D17*
%TO.C,C9*%
X197206408Y-150926241D03*
X197885230Y-150247419D03*
%TD*%
D28*
%TO.C,F1*%
X213908688Y-145951152D03*
X213908688Y-148926152D03*
%TD*%
D29*
%TO.C,C7*%
X198532680Y-143939853D03*
X197853858Y-143261031D03*
%TD*%
M02*
