%TF.GenerationSoftware,KiCad,Pcbnew,7.0.6*%
%TF.CreationDate,2023-08-14T23:22:26-07:00*%
%TF.ProjectId,GCP-2,4743502d-322e-46b6-9963-61645f706362,rev?*%
%TF.SameCoordinates,Original*%
%TF.FileFunction,Paste,Top*%
%TF.FilePolarity,Positive*%
%FSLAX46Y46*%
G04 Gerber Fmt 4.6, Leading zero omitted, Abs format (unit mm)*
G04 Created by KiCad (PCBNEW 7.0.6) date 2023-08-14 23:22:26*
%MOMM*%
%LPD*%
G01*
G04 APERTURE LIST*
G04 Aperture macros list*
%AMRoundRect*
0 Rectangle with rounded corners*
0 $1 Rounding radius*
0 $2 $3 $4 $5 $6 $7 $8 $9 X,Y pos of 4 corners*
0 Add a 4 corners polygon primitive as box body*
4,1,4,$2,$3,$4,$5,$6,$7,$8,$9,$2,$3,0*
0 Add four circle primitives for the rounded corners*
1,1,$1+$1,$2,$3*
1,1,$1+$1,$4,$5*
1,1,$1+$1,$6,$7*
1,1,$1+$1,$8,$9*
0 Add four rect primitives between the rounded corners*
20,1,$1+$1,$2,$3,$4,$5,0*
20,1,$1+$1,$4,$5,$6,$7,0*
20,1,$1+$1,$6,$7,$8,$9,0*
20,1,$1+$1,$8,$9,$2,$3,0*%
G04 Aperture macros list end*
%ADD10R,1.150000X0.600000*%
%ADD11R,1.150000X0.300000*%
%ADD12RoundRect,0.079500X-0.127279X-0.014849X-0.014849X-0.127279X0.127279X0.014849X0.014849X0.127279X0*%
%ADD13RoundRect,0.079500X-0.079500X-0.100500X0.079500X-0.100500X0.079500X0.100500X-0.079500X0.100500X0*%
%ADD14RoundRect,0.079500X0.079500X0.100500X-0.079500X0.100500X-0.079500X-0.100500X0.079500X-0.100500X0*%
%ADD15RoundRect,0.050000X-0.309359X0.238649X0.238649X-0.309359X0.309359X-0.238649X-0.238649X0.309359X0*%
%ADD16RoundRect,0.050000X-0.309359X-0.238649X-0.238649X-0.309359X0.309359X0.238649X0.238649X0.309359X0*%
%ADD17RoundRect,0.249999X-0.558616X0.000000X0.000000X-0.558616X0.558616X0.000000X0.000000X0.558616X0*%
%ADD18R,0.550000X0.550000*%
%ADD19R,0.550000X0.500000*%
%ADD20R,0.300000X0.400000*%
%ADD21R,1.600000X0.200000*%
G04 APERTURE END LIST*
D10*
%TO.C,J1*%
X215951187Y-150030946D03*
X215951187Y-149230946D03*
D11*
X215951187Y-148080946D03*
X215951187Y-147080946D03*
X215951187Y-146580946D03*
X215951187Y-145580946D03*
D10*
X215951187Y-143630946D03*
X215951187Y-144430946D03*
D11*
X215951187Y-145080946D03*
X215951187Y-146080946D03*
X215951187Y-147580946D03*
X215951187Y-148580946D03*
%TD*%
D12*
%TO.C,R4*%
X196914467Y-150682288D03*
X197402371Y-151170192D03*
%TD*%
D13*
%TO.C,R6*%
X213945408Y-143306241D03*
X214635408Y-143306241D03*
%TD*%
D14*
%TO.C,R5*%
X214604342Y-150383306D03*
X213914342Y-150383306D03*
%TD*%
%TO.C,R7*%
X186773608Y-144951781D03*
X186083608Y-144951781D03*
%TD*%
%TO.C,R1*%
X204917408Y-143560241D03*
X204227408Y-143560241D03*
%TD*%
D15*
%TO.C,U1*%
X198941158Y-142525295D03*
X198658315Y-142808138D03*
X198375473Y-143090980D03*
X198092630Y-143373823D03*
X197809787Y-143656666D03*
X197526945Y-143939508D03*
X197244102Y-144222351D03*
X196961259Y-144505194D03*
X196678416Y-144788037D03*
X196395574Y-145070879D03*
X196112731Y-145353722D03*
X195829888Y-145636565D03*
X195547046Y-145919407D03*
X195264203Y-146202250D03*
D16*
X195264203Y-147386654D03*
X195547046Y-147669497D03*
X195829888Y-147952339D03*
X196112731Y-148235182D03*
X196395574Y-148518025D03*
X196678416Y-148800867D03*
X196961259Y-149083710D03*
X197244102Y-149366553D03*
X197526945Y-149649396D03*
X197809787Y-149932238D03*
X198092630Y-150215081D03*
X198375473Y-150497924D03*
X198658315Y-150780766D03*
X198941158Y-151063609D03*
D15*
X200125562Y-151063609D03*
X200408405Y-150780766D03*
X200691247Y-150497924D03*
X200974090Y-150215081D03*
X201256933Y-149932238D03*
X201539775Y-149649396D03*
X201822618Y-149366553D03*
X202105461Y-149083710D03*
X202388304Y-148800867D03*
X202671146Y-148518025D03*
X202953989Y-148235182D03*
X203236832Y-147952339D03*
X203519674Y-147669497D03*
X203802517Y-147386654D03*
D16*
X203802517Y-146202250D03*
X203519674Y-145919407D03*
X203236832Y-145636565D03*
X202953989Y-145353722D03*
X202671146Y-145070879D03*
X202388304Y-144788037D03*
X202105461Y-144505194D03*
X201822618Y-144222351D03*
X201539775Y-143939508D03*
X201256933Y-143656666D03*
X200974090Y-143373823D03*
X200691247Y-143090980D03*
X200408405Y-142808138D03*
X200125562Y-142525295D03*
D17*
X199533360Y-145663081D03*
X198401989Y-146794452D03*
X200664731Y-146794452D03*
X199533360Y-147925823D03*
%TD*%
D18*
%TO.C,L1*%
X189111408Y-144543241D03*
X190061408Y-144543241D03*
X190061408Y-143593241D03*
X189111408Y-143593241D03*
%TD*%
%TO.C,L4*%
X190061408Y-149181241D03*
X189111408Y-149181241D03*
X189111408Y-150131241D03*
X190061408Y-150131241D03*
%TD*%
D12*
%TO.C,R3*%
X194547654Y-148563807D03*
X195035558Y-149051711D03*
%TD*%
D14*
%TO.C,R8*%
X194401000Y-145288000D03*
X193711000Y-145288000D03*
%TD*%
%TO.C,R2*%
X204917408Y-144322241D03*
X204227408Y-144322241D03*
%TD*%
D13*
%TO.C,C10*%
X186202118Y-148380971D03*
X186892118Y-148380971D03*
%TD*%
D19*
%TO.C,SW3*%
X178863408Y-148698000D03*
X178863408Y-149498000D03*
X181513408Y-148698000D03*
X181513408Y-149498000D03*
%TD*%
D18*
%TO.C,L3*%
X210094408Y-149214241D03*
X209144408Y-149214241D03*
X209144408Y-150164241D03*
X210094408Y-150164241D03*
%TD*%
D14*
%TO.C,R9*%
X185003000Y-149606000D03*
X184313000Y-149606000D03*
%TD*%
D19*
%TO.C,SW1*%
X178863408Y-144126000D03*
X178863408Y-144926000D03*
X181513408Y-144126000D03*
X181513408Y-144926000D03*
%TD*%
D18*
%TO.C,L2*%
X209177408Y-144543241D03*
X210127408Y-144543241D03*
X210127408Y-143593241D03*
X209177408Y-143593241D03*
%TD*%
D20*
%TO.C,U2*%
X185408000Y-145104000D03*
X184908000Y-145104000D03*
X184408000Y-145104000D03*
X183908000Y-145104000D03*
X183908000Y-147504000D03*
X184408000Y-147504000D03*
X184908000Y-147504000D03*
X185408000Y-147504000D03*
D21*
X184658000Y-146304000D03*
%TD*%
M02*
